<?xml version="1.0" encoding="UTF-8"?>
<svg version="1.1" xmlns="http://www.w3.org/2000/svg" width="512" height="512">
<path d="M0 0 C1.22938797 0.00323273 1.22938797 0.00323273 2.48361206 0.00653076 C14.49298134 0.0572434 26.17595418 0.34268014 37.875 3.3125 C38.65439941 3.50585938 39.43379883 3.69921875 40.23681641 3.8984375 C60.29758473 9.03754715 80.04694502 17.13120116 96.79296875 29.4609375 C100.35578808 31.60133847 103.72769633 32.37354493 107.75 33.125 C132.20543697 38.32198055 154.21519078 53.33629476 167.875 74.3125 C178.98715839 92.6408281 182.36366175 111.92382672 183.55078125 133.04296875 C183.60403564 133.97529327 183.65729004 134.9076178 183.7121582 135.86819458 C183.92886376 139.71558142 184.14294189 143.56270791 184.32592773 147.41186523 C185.00397731 162.26477891 185.00397731 162.26477891 189.64526367 176.2590332 C192.91100217 184.36794552 193.18325241 192.64209917 193.17578125 201.28515625 C193.18006638 202.4070787 193.1843515 203.52900116 193.18876648 204.68492126 C193.19448064 207.04897389 193.19503168 209.41304409 193.19067383 211.77709961 C193.1875303 215.3406481 193.21095413 218.90335166 193.23632812 222.46679688 C193.34150942 260.16515439 182.06519356 291.32050772 157.875 320.3125 C154.43093989 324.52002172 151.53478554 328.84295471 148.81298828 333.55664062 C141.81637269 345.63756473 133.06062605 355.45823377 122.9921875 365.0703125 C120.67568792 367.20811334 120.67568792 367.20811334 119.875 370.3125 C121.0196875 370.42464844 122.164375 370.53679687 123.34375 370.65234375 C158.91648631 375.14582428 184.22343969 402.49049618 208.08203125 426.421875 C209.90169132 428.24340431 211.72157538 430.06470988 213.54167175 431.88580322 C217.80718274 436.15471473 222.07046426 440.42584052 226.33262032 444.69810128 C231.19417109 449.57092147 236.05864235 454.44082188 240.92333186 459.31050825 C250.91041885 469.30798156 260.89392795 479.30902178 270.875 489.3125 C269.17913874 492.94553084 267.13699512 495.25799046 264.25 498.0625 C263.43273437 498.86171875 262.61546875 499.6609375 261.7734375 500.484375 C261.14695312 501.08765625 260.52046875 501.6909375 259.875 502.3125 C256.66331372 500.898948 254.53275419 499.21084 252.07144165 496.72253418 C250.95763123 495.60417679 250.95763123 495.60417679 249.82131958 494.46322632 C249.01612885 493.64456085 248.21093811 492.82589539 247.38134766 491.98242188 C246.5254303 491.1203714 245.66951294 490.25832092 244.78765869 489.37014771 C242.92704069 487.49521294 241.06831166 485.6185956 239.21236038 483.73905945 C236.2657587 480.75573952 233.310362 477.78123754 230.35336304 474.80822754 C221.94593115 466.35260971 213.55009758 457.88553416 205.16357422 449.40917969 C200.53078023 444.72691886 195.89053361 440.05216764 191.24252355 435.38501024 C188.78942976 432.92108239 186.34028459 430.45350759 183.9005928 427.9763031 C165.70777325 409.37654692 165.70777325 409.37654692 143.5625 396 C142.85649658 395.6807959 142.15049316 395.3615918 141.4230957 395.03271484 C130.81224382 390.38128592 120.20783872 387.30003613 108.65991211 386.19628906 C107.79693732 386.11263218 106.93396254 386.0289753 106.044837 385.94278336 C96.24258686 385.06616119 86.46307958 385.02242669 76.62890625 385.046875 C74.67406669 385.04552288 72.71922746 385.04357783 70.76438904 385.04107666 C66.71488162 385.03816156 62.66546366 385.04231169 58.6159668 385.05175781 C53.43120418 385.06326581 48.24664611 385.05649923 43.0618906 385.04461288 C39.04618274 385.03739335 35.03052369 385.03968068 31.01481438 385.04486847 C29.10147006 385.04619879 27.18812126 385.04457897 25.27478218 385.03990936 C22.61478957 385.03483006 19.95513353 385.04256891 17.29516602 385.05371094 C16.51234756 385.04966248 15.72952911 385.04561401 14.92298889 385.04144287 C10.82547343 385.07323648 7.50863641 385.33381865 3.875 387.3125 C2.47564987 390.11120027 2.62234595 392.21748792 2.875 395.3125 C4.72842775 397.87199546 5.81256393 398.29168798 8.875 399.3125 C10.2351327 399.40367968 11.59926469 399.44142563 12.96244812 399.44380188 C13.79327911 399.44781006 14.62411011 399.45181824 15.4801178 399.45594788 C16.84287086 399.4551548 16.84287086 399.4551548 18.2331543 399.4543457 C19.19300232 399.45782013 20.15285034 399.46129456 21.14178467 399.46487427 C23.23049527 399.47223376 25.3192137 399.47757811 27.40793419 399.48116493 C30.72692013 399.48834115 34.04575914 399.50402105 37.36470032 399.52250671 C46.8034145 399.57488913 56.24205213 399.62284617 65.6809082 399.63842773 C71.45524091 399.64858433 77.22920913 399.67811133 83.00339699 399.71974754 C85.19231199 399.73196401 87.38127873 399.73719614 89.57022667 399.73494911 C114.9225631 399.71534707 136.81289869 404.90071393 155.85424805 422.69628906 C156.41230227 423.21498188 156.9703565 423.7336747 157.54532146 424.26808548 C164.27197988 430.56157022 170.77041983 437.08276634 177.26953125 443.609375 C178.5959448 444.93765987 179.92258392 446.26571951 181.24943542 447.59356689 C184.69564812 451.04354865 188.13884414 454.4965251 191.58135986 457.95019531 C195.112923 461.49209513 198.64741487 465.03106988 202.18164062 468.5703125 C209.08225087 475.48156073 215.97966877 482.39598518 222.875 489.3125 C221.17913874 492.94553084 219.13699512 495.25799046 216.25 498.0625 C215.43273437 498.86171875 214.61546875 499.6609375 213.7734375 500.484375 C213.14695312 501.08765625 212.52046875 501.6909375 211.875 502.3125 C209.08078345 501.03868204 207.04980537 499.73144407 204.8999176 497.54428101 C204.34104355 496.98093048 203.78216949 496.41757996 203.20635986 495.8371582 C202.60531433 495.22106689 202.0042688 494.60497559 201.38500977 493.97021484 C200.74206467 493.31953033 200.09911957 492.66884583 199.43669128 491.9984436 C198.04103491 490.58514017 196.64759168 489.16964859 195.25610542 487.75223923 C193.04429745 485.5009339 190.824983 483.25729253 188.60325623 481.01577759 C182.28689385 474.64147967 175.9799723 468.25797352 169.6887207 461.85888672 C165.83709664 457.94233425 161.97297233 454.03847584 158.10102654 450.14201736 C156.63607652 448.66291996 155.17579381 447.17918316 153.72055244 445.69053268 C135.23675903 426.78873828 117.88629556 419.31257581 91.875 416.3125 C91.66230469 416.83714844 91.44960938 417.36179687 91.23046875 417.90234375 C89.32254855 421.29481281 86.77235757 423.98128489 84.1875 426.875 C79.75474262 431.9258973 75.88100928 436.9955775 72.47265625 442.8125 C70.875 445.3125 70.875 445.3125 68.31933594 447.81689453 C64.79972949 452.02665837 65.14620318 456.46577806 65.16796875 461.7421875 C65.15284744 462.73251984 65.13772614 463.72285217 65.12214661 464.74319458 C65.07932195 467.89152896 65.07043643 471.03890356 65.0625 474.1875 C65.03935171 476.32815042 65.01398568 478.46877809 64.98632812 480.609375 C64.92352703 485.84383466 64.89115094 491.07769693 64.875 496.3125 C59.595 496.3125 54.315 496.3125 48.875 496.3125 C48.545 486.7425 48.215 477.1725 47.875 467.3125 C45.668125 468.55 43.46125 469.7875 41.1875 471.0625 C22.59885414 481.18153333 -0.03638612 483.51440858 -20.6875 478.8125 C-40.465677 472.971823 -40.465677 472.971823 -46.125 467.3125 C-46.455 476.8825 -46.785 486.4525 -47.125 496.3125 C-52.405 496.3125 -57.685 496.3125 -63.125 496.3125 C-63.11863525 494.99121094 -63.11227051 493.66992188 -63.10571289 492.30859375 C-63.09122302 487.38056478 -63.12272 482.453694 -63.16772461 477.52587891 C-63.18081981 475.39798941 -63.18163957 473.26998601 -63.16967773 471.14208984 C-63.15459683 468.07276612 -63.18445565 465.0065683 -63.22265625 461.9375 C-63.20840103 460.99447021 -63.19414581 460.05144043 -63.17945862 459.07983398 C-63.31771865 452.69365637 -64.8469071 449.51872343 -69.40078735 445.02656555 C-71.97771591 442.46480237 -73.56956436 439.61564411 -75.4375 436.5 C-78.26693281 431.92037743 -81.209445 427.91923731 -84.9375 424 C-98.31887325 409.77065719 -110.19312739 391.4082979 -116.4375 372.875 C-118.84671695 366.57674746 -123.4707075 362.64408002 -128.25732422 358.09033203 C-136.87766396 349.83958542 -143.49520197 340.51774128 -149.1875 330.0625 C-151.72976694 325.43878437 -154.36683219 321.70027933 -158 317.875 C-179.9399807 294.76086132 -191.39356699 261.55376674 -191.4609375 230.01171875 C-191.4675943 228.89166946 -191.4742511 227.77162018 -191.48110962 226.61763 C-191.49115364 224.26731996 -191.49592923 221.91698187 -191.49560547 219.56665039 C-191.49997714 216.01855395 -191.5363839 212.47170544 -191.57421875 208.92382812 C-191.64127548 195.49754172 -191.63227824 182.43422253 -185.55395508 170.13305664 C-183.36505962 165.12735283 -183.39104777 159.80065034 -183.09765625 154.4140625 C-182.94337136 152.05338463 -182.78907408 149.69270758 -182.63476562 147.33203125 C-182.40953713 143.64882546 -182.1891507 139.96536658 -181.97094727 136.28173828 C-180.09795089 105.30734777 -174.28772759 78.64020763 -151.125 56.3125 C-137.36723984 44.29738946 -122.00889589 36.59166968 -104.1640625 32.66015625 C-97.80065409 31.23258809 -93.01188078 28.5288262 -87.65649414 24.92724609 C-70.82811268 13.67206194 -50.96238396 6.16131421 -31.125 2.3125 C-30.22378418 2.13517334 -29.32256836 1.95784668 -28.39404297 1.77514648 C-18.9139319 0.10441632 -9.59332411 -0.04530238 0 0 Z M-85.25 43.6875 C-90.52696636 47.36739286 -95.43138354 48.62033642 -101.62182617 49.88305664 C-121.8996227 54.05382812 -139.57306403 66.0077927 -151.125 83.3125 C-162.62096149 102.50788436 -164.43344025 122.20428855 -165.38827515 144.13938904 C-165.97846374 157.59570944 -166.53606177 170.05121159 -171.7265625 182.64453125 C-176.76048711 195.84803742 -175.44751595 211.4062217 -175.125 225.3125 C-175.11098145 226.06595703 -175.09696289 226.81941406 -175.08251953 227.59570312 C-174.78350412 240.7030591 -172.53235883 253.94027298 -168.125 266.3125 C-167.795 266.3125 -167.465 266.3125 -167.125 266.3125 C-167.1156543 265.69020508 -167.10630859 265.06791016 -167.09667969 264.42675781 C-166.5638413 235.95647151 -161.60396181 205.11163602 -142.9609375 182.3046875 C-141.84947335 180.2073468 -141.84947335 180.2073468 -142.8203125 177.43359375 C-143.65156658 175.44505481 -144.49177495 173.46021847 -145.34375 171.48046875 C-149.27004877 162.34703594 -150.2454486 154.14748381 -151.125 144.3125 C-145.845 144.6425 -140.565 144.9725 -135.125 145.3125 C-134.856875 147.33375 -134.58875 149.355 -134.3125 151.4375 C-133.57044619 156.33291971 -132.75418143 160.12971135 -130.125 164.3125 C-126.56554189 161.33417791 -123.16449226 158.39449295 -120 155 C-97.87789415 132.68168922 -63.78354509 121.90850947 -33.1875 120.75 C-32.12208984 120.70681641 -31.05667969 120.66363281 -29.95898438 120.61914062 C-27.34776557 120.51375511 -24.73646254 120.41162912 -22.125 120.3125 C-22.32657715 119.77584717 -22.5281543 119.23919434 -22.73583984 118.6862793 C-27.52072885 105.74289344 -30.1779993 94.09662128 -31.125 80.3125 C-25.515 80.3125 -19.905 80.3125 -14.125 80.3125 C-14.2075 81.818125 -14.29 83.32375 -14.375 84.875 C-14.33182291 96.08665177 -10.48356142 111.95393858 -2.125 120.3125 C-0.78232587 120.39881874 0.56474322 120.41956473 1.91015625 120.41015625 C2.71904297 120.40693359 3.52792969 120.40371094 4.36132812 120.40039062 C5.21146484 120.39201172 6.06160156 120.38363281 6.9375 120.375 C7.79150391 120.37048828 8.64550781 120.36597656 9.52539062 120.36132812 C11.64195663 120.34950373 13.75848685 120.33156769 15.875 120.3125 C16.80588712 96.48868525 12.92309426 72.7174714 8.875 49.3125 C16.795 48.3225 16.795 48.3225 24.875 47.3125 C28.73618838 71.6291444 31.72027453 95.69861494 32.875 120.3125 C34.12152344 120.41046875 35.36804688 120.5084375 36.65234375 120.609375 C67.60322705 123.23834848 95.9159726 133.08816908 119.875 153.3125 C120.84050781 154.12589844 121.80601562 154.93929687 122.80078125 155.77734375 C131.75083165 163.61328 138.88111186 172.74047271 145.875 182.3125 C155.09563171 180.02369071 162.42031455 175.17546461 167.875 167.3125 C168.40543738 164.64044055 168.40543738 164.64044055 168.203125 161.7421875 C168.14801758 160.02467285 168.14801758 160.02467285 168.09179688 158.27246094 C168.02025391 156.96567383 167.94871094 155.65888672 167.875 154.3125 C167.81953003 153.21355408 167.81953003 153.21355408 167.76293945 152.09240723 C167.50521927 147.07888709 167.17815335 142.07269526 166.81298828 137.06591797 C166.62586764 134.44963125 166.45930301 131.83252311 166.29296875 129.21484375 C165.37257848 115.85838539 163.48555124 102.99856973 157.125 91 C156.78283447 90.33685791 156.44066895 89.67371582 156.08813477 88.99047852 C153.00383282 83.20027767 149.31020241 78.15253833 144.875 73.3125 C144.31167969 72.68085937 143.74835938 72.04921875 143.16796875 71.3984375 C132.26385301 59.80483435 116.30077771 51.38859267 100.56518555 48.95532227 C93.89461858 47.88872674 89.44514707 45.57579163 83.9375 41.75 C33.43269526 8.46058068 -35.67712057 7.28878305 -85.25 43.6875 Z M-65.125 142.3125 C-66.18460937 142.66054687 -67.24421875 143.00859375 -68.3359375 143.3671875 C-101.86907035 155.37287704 -125.68602708 179.32895557 -141.06494141 211.01708984 C-143.65351572 216.62228923 -145.5376445 222.3437852 -147.125 228.3125 C-147.44210938 229.43269531 -147.75921875 230.55289063 -148.0859375 231.70703125 C-152.73168675 251.37687784 -152.12438575 275.02711822 -146.125 294.3125 C-145.91601074 294.99231934 -145.70702148 295.67213867 -145.49169922 296.37255859 C-142.00097529 307.3258489 -136.70278173 317.29728302 -131.125 327.3125 C-129.98241958 323.88475875 -130.30257423 322.6490347 -131.11303711 319.18945312 C-131.35336166 318.14406372 -131.59368622 317.09867432 -131.84129333 316.02160645 C-132.10893997 314.89041382 -132.37658661 313.75922119 -132.65234375 312.59375 C-133.20266063 310.19275111 -133.75278459 307.791708 -134.30273438 305.390625 C-135.17884595 301.60907382 -136.05876542 297.82846129 -136.94311523 294.04882812 C-137.7939268 290.39941404 -138.63001905 286.74684915 -139.46484375 283.09375 C-139.73046616 281.97875122 -139.99608856 280.86375244 -140.26976013 279.71496582 C-142.61620417 269.39727 -143.26811537 260.36913065 -139.3125 250.4375 C-138.8477124 249.23601318 -138.8477124 249.23601318 -138.37353516 248.01025391 C-123.1540735 209.9579218 -95.7300993 180.31964627 -57.94311523 164.09472656 C-38.99916913 156.29047789 -20.14958542 153.07868949 0.25 153.0625 C1.01166473 153.06182526 1.77332947 153.06115051 2.55807495 153.06045532 C13.93085486 153.07647185 24.8049096 153.54218474 35.875 156.3125 C36.56190918 156.47878906 37.24881836 156.64507812 37.95654297 156.81640625 C74.9715788 165.96638077 107.0954487 189.42478535 127.0859375 221.84375 C139.09962817 241.95693875 146.80591078 259.62422041 141.21484375 283.09375 C140.94611954 284.26965698 140.67739532 285.44556396 140.40052795 286.65710449 C139.54907468 290.37826263 138.68218031 294.09556303 137.8125 297.8125 C136.94067715 301.55828722 136.07240176 305.30475713 135.21376038 309.05358887 C134.68097081 311.37811715 134.14039132 313.70087641 133.59129333 316.02160645 C133.2308065 317.58969055 133.2308065 317.58969055 132.86303711 319.18945312 C132.53993813 320.56864929 132.53993813 320.56864929 132.21031189 321.97570801 C131.6757184 324.46093902 131.6757184 324.46093902 132.875 327.3125 C139.62891379 315.33983502 145.24732222 303.59533388 148.875 290.3125 C149.21402344 289.11496094 149.55304688 287.91742188 149.90234375 286.68359375 C154.47798507 267.13696007 153.7964595 244.49712128 147.875 225.3125 C147.66601074 224.63123047 147.45702148 223.94996094 147.24169922 223.24804688 C136.64234158 189.99702832 113.69661223 164.65890548 82.98071289 148.72558594 C62.0757958 138.26578792 40.21510457 136.16641643 17.12109375 136.14453125 C15.22787132 136.13953865 15.22787132 136.13953865 13.29640198 136.13444519 C10.64344717 136.12941912 7.99059508 136.12659832 5.33764648 136.12719727 C1.34676549 136.12731823 -2.64392978 136.10683719 -6.63476562 136.08789062 C-26.46674222 136.04357155 -46.11897276 136.06454162 -65.125 142.3125 Z M-84.125 199.3125 C-84.64191406 199.74965332 -85.15882813 200.18680664 -85.69140625 200.63720703 C-101.72876169 214.37848746 -113.45590542 231.04580764 -121.75 250.4375 C-122.08080566 251.20650635 -122.41161133 251.9755127 -122.75244141 252.76782227 C-125.85096395 260.38135851 -126.59342111 266.76765885 -124.80493164 274.83227539 C-124.65211731 275.53777023 -124.49930298 276.24326508 -124.34185791 276.97013855 C-123.83623065 279.28663561 -123.31143276 281.59827009 -122.78515625 283.91015625 C-122.42098433 285.547392 -122.05759078 287.18480106 -121.69493103 288.82237244 C-120.93083441 292.25801688 -120.15717939 295.69133037 -119.37670898 299.12329102 C-118.39373745 303.44922962 -117.43478024 307.78006336 -116.48251915 312.11285019 C-109.1230389 345.75643505 -109.1230389 345.75643505 -95.875 377.4375 C-95.46765625 378.24574219 -95.0603125 379.05398438 -94.640625 379.88671875 C-92.47833735 384.09347709 -90.15054087 387.651134 -87.125 391.3125 C-87.1156543 390.15314941 -87.10630859 388.99379883 -87.09667969 387.79931641 C-87.05650365 383.45649202 -86.99067094 379.11435566 -86.91748047 374.77197266 C-86.88942984 372.90031846 -86.86813698 371.02854931 -86.85400391 369.15673828 C-86.66952044 346.09630549 -86.66952044 346.09630549 -78.8125 337.4375 C-73.0365541 331.87133422 -67.53261427 329.94072006 -59.8125 329.125 C-51.27976365 327.90603766 -46.88370178 324.78854871 -41.125 318.3125 C-30.08414836 306.85890624 -18.73330719 297.37294065 -2.21972656 297.02026367 C6.52232436 296.9535979 13.97462738 297.12102831 21.875 301.3125 C22.56207031 301.663125 23.24914062 302.01375 23.95703125 302.375 C33.10794469 307.57315201 40.46940017 315.78251879 47.74609375 323.24609375 C51.89672523 327.27487183 55.56001405 327.84119857 61.0625 328.625 C70.97917119 330.23347368 76.985431 333.31971208 83.40234375 341.2421875 C89.13924826 349.30733177 88.56128837 358.79297476 88.875 368.3125 C93.165 368.3125 97.455 368.3125 101.875 368.3125 C102.94999567 365.54601258 104.00964328 362.77492051 105.0625 360 C105.35447266 359.25298828 105.64644531 358.50597656 105.94726562 357.73632812 C112.64510541 339.94744182 116.1436362 320.91414337 120.28857422 302.40209961 C121.09411859 298.80791082 121.91547874 295.21751849 122.74007225 291.6276598 C123.38034084 288.82680688 124.0087524 286.02338803 124.63402176 283.21915245 C125.07483639 281.25645809 125.52827118 279.29661164 125.98202515 277.33686829 C127.7717228 269.21310616 128.60289132 262.77571263 125.34375 254.90234375 C125.03244141 254.14751709 124.72113281 253.39269043 124.40039062 252.61499023 C124.06201172 251.83454346 123.72363281 251.05409668 123.375 250.25 C122.84422852 249.01262085 122.84422852 249.01262085 122.30273438 247.75024414 C117.06780945 235.86737711 110.42644699 225.11461565 101.875 215.3125 C101.07707031 214.37019531 100.27914062 213.42789063 99.45703125 212.45703125 C76.74100216 186.20245327 43.37422473 171.16866079 9 168.5625 C-24.54326339 166.61895713 -58.48616601 177.58535528 -84.125 199.3125 Z M168.8125 189.5625 C164.44625363 193.05691471 160.08258127 195.33041824 154.875 197.3125 C155.26171875 198.31667969 155.6484375 199.32085937 156.046875 200.35546875 C164.5192103 222.51933785 168.33799931 242.62513248 168.875 266.3125 C171.18716043 262.84425936 171.98617593 259.48977359 172.9375 255.5 C173.11087891 254.80068359 173.28425781 254.10136719 173.46289062 253.38085938 C178.69177031 231.9644901 178.39836837 207.98750723 174.875 186.3125 C171.99915417 186.3125 170.99564152 187.72973922 168.8125 189.5625 Z M-26.08984375 327.4453125 C-35.75878732 337.606541 -43.99953122 343.108496 -58.265625 344.83203125 C-63.28801294 345.67595709 -65.88250942 347.64156439 -68.9375 351.75 C-76.53276174 368.13977534 -72.03718174 398.43381338 -66.3828125 415.1875 C-62.65816082 424.44129299 -57.71327725 432.82456304 -51.125 440.3125 C-50.47015625 441.06144531 -49.8153125 441.81039062 -49.140625 442.58203125 C-36.51709982 456.10394599 -19.63567766 463.0033877 -1.4296875 464.27734375 C17.73081868 464.48117892 34.79822192 457.70117183 48.63671875 444.546875 C49.37535156 443.80953125 50.11398437 443.0721875 50.875 442.3125 C51.50019531 441.69890625 52.12539063 441.0853125 52.76953125 440.453125 C58.82129223 434.05984252 64.95196498 424.97672371 66.875 416.3125 C62.14292995 416.1387795 57.41273432 416.01212838 52.67822266 415.92797852 C51.0698207 415.8928867 49.46164032 415.84519753 47.85400391 415.78442383 C38.83785882 415.09452162 38.83785882 415.09452162 30.58422852 417.80517578 C29.10923566 419.56998612 27.99626789 421.31100837 26.875 423.3125 C24.38560562 425.3733526 21.75252381 426.84962477 18.875 428.3125 C18.25496094 428.63347656 17.63492188 428.95445312 16.99609375 429.28515625 C7.86750673 433.12595118 -4.88216154 432.79490624 -14.1875 429.75 C-24.78497236 425.09230541 -32.55882591 416.99563389 -37.0625 406.3125 C-40.11389249 395.59448387 -39.51330407 382.08179908 -34.125 372.3125 C-28.90517994 363.74202622 -20.73195973 356.54068249 -10.9296875 353.75 C1.03482734 351.88366899 13.08390937 352.18584341 23.43359375 358.99609375 C29.45233582 363.47403785 29.45233582 363.47403785 30.92700195 366.39941406 C33.63659377 369.06044445 35.62151734 368.76707929 39.31352234 368.76568604 C40.60272331 368.73471832 40.60272331 368.73471832 41.91796875 368.703125 C42.8015657 368.69746521 43.68516266 368.69180542 44.59553528 368.68597412 C47.41840743 368.66357867 50.24001138 368.61337727 53.0625 368.5625 C54.97589313 368.54243906 56.88930615 368.52418758 58.80273438 368.5078125 C63.49397842 368.46370357 68.18427418 368.39465485 72.875 368.3125 C72.88801475 366.86892045 72.89731085 365.42530704 72.9050293 363.98168945 C72.91060349 363.17778275 72.91617767 362.37387604 72.92192078 361.54560852 C72.81056983 356.24606393 71.21021719 351.75898529 67.625 347.875 C63.66846918 345.62697112 59.8369587 344.58373853 55.33203125 343.9609375 C43.27325867 342.22610703 35.8848576 335.89023597 27.75 327.1875 C20.89082046 319.85445659 14.65436645 314.00830844 4.2109375 313.07421875 C-9.40225914 312.73299087 -17.02685617 317.84180594 -26.08984375 327.4453125 Z M-18.8984375 379.46875 C-22.83054427 385.37943278 -22.82363277 391.43365424 -22.125 398.3125 C-20.32743484 405.04768084 -15.64018058 409.3274793 -10.125 413.3125 C-7.23332131 414.88977929 -6.03330946 415.45979343 -2.8125 414.9375 C-2.255625 414.73125 -1.69875 414.525 -1.125 414.3125 C-2.011875 413.77625 -2.89875 413.24 -3.8125 412.6875 C-8.83014104 409.33054394 -12.25299225 405.11075409 -14.125 399.3125 C-14.92838569 391.49350203 -15.241631 383.68975023 -10.125 377.3125 C-7.91865993 375.12090162 -5.5816304 373.21245553 -3.125 371.3125 C-2.465 370.6525 -1.805 369.9925 -1.125 369.3125 C-8.64099528 368.13812574 -14.42421629 374.16967237 -18.8984375 379.46875 Z " fill="#000000" transform="translate(215.125,7.6875)"/>
<path d="M0 0 C1.078125 1.42578125 1.078125 1.42578125 2.25 3.3125 C4.75989961 6.90638523 6.71666582 8.62610036 11 10 C17.8362583 10.90546468 22.49092107 10.18689999 28 6 C29.59124405 4.06406511 30.75410684 2.19277196 32 0 C37.68502535 1.64566523 42.76681636 4.29032784 48 7 C44.20589655 15.85290804 38.70242564 22.23421298 29.859375 26.30859375 C21.71099374 29.33855905 10.69663013 29.42505678 2.5 26.4375 C-5.90249965 22.44843451 -12.68598748 15.67406756 -16 7 C-13.71070947 5.82845707 -11.41881638 4.66261926 -9.125 3.5 C-8.47402344 3.16613281 -7.82304687 2.83226562 -7.15234375 2.48828125 C-2.2265625 0 -2.2265625 0 0 0 Z " fill="#000000" transform="translate(256,268)"/>
<path d="M0 0 C1.078125 1.42578125 1.078125 1.42578125 2.25 3.3125 C4.75989961 6.90638523 6.71666582 8.62610036 11 10 C17.8362583 10.90546468 22.49092107 10.18689999 28 6 C29.59124405 4.06406511 30.75410684 2.19277196 32 0 C37.68502535 1.64566523 42.76681636 4.29032784 48 7 C44.20589655 15.85290804 38.70242564 22.23421298 29.859375 26.30859375 C21.71099374 29.33855905 10.69663013 29.42505678 2.5 26.4375 C-5.90249965 22.44843451 -12.68598748 15.67406756 -16 7 C-13.71070947 5.82845707 -11.41881638 4.66261926 -9.125 3.5 C-8.47402344 3.16613281 -7.82304687 2.83226562 -7.15234375 2.48828125 C-2.2265625 0 -2.2265625 0 0 0 Z " fill="#000000" transform="translate(144,268)"/>
</svg>
