<?xml version="1.0" encoding="UTF-8"?>
<svg version="1.1" xmlns="http://www.w3.org/2000/svg" width="512" height="512">
<path d="M0 0 C0.15855469 0.86496094 0.31710938 1.72992188 0.48046875 2.62109375 C1.14345402 6.19974907 1.81880146 9.7757615 2.49951172 13.35107422 C2.8440851 15.17479188 3.18398572 16.99939659 3.52001953 18.82470703 C8.1008338 43.64461488 15.0657179 66.79001608 25 90 C25.33080566 90.7842334 25.66161133 91.5684668 26.00244141 92.37646484 C36.39463891 116.76048405 51.91440037 139.59670338 69.52490234 159.33618164 C70.5605305 160.50430575 71.5860631 161.681421 72.60400391 162.86499023 C82.96715517 174.89497319 94.32231628 186.41228097 107 196 C108.18537752 196.92516442 109.37023614 197.85099391 110.5546875 198.77734375 C141.28717499 223.26382858 141.28717499 223.26382858 177.04858398 235.46508789 C178.52602333 235.53647224 178.52602333 235.53647224 180.03330994 235.60929871 C209.34643207 236.64356174 231.42396577 236.79171643 256 220 C258.01853633 218.76671766 260.04574747 217.54750356 262.08203125 216.34375 C273.67467531 209.40097204 284.46959207 201.44871673 295 193 C295.56348145 192.55221191 296.12696289 192.10442383 296.70751953 191.64306641 C301.73998007 187.6400075 306.48465588 183.58174624 311 179 C312.14951043 177.87083489 313.3006718 176.74334899 314.453125 175.6171875 C321.80126132 168.39423238 328.6644171 161.13675259 335 153 C335.63808594 152.22914063 336.27617187 151.45828125 336.93359375 150.6640625 C369.6233616 111.06800567 387.66872337 63.3212204 396.52270508 13.26464844 C397 11 397 11 398 9 C400.04190981 9.14238837 402.08352045 9.28907028 404.125 9.4375 C405.26195312 9.51871094 406.39890625 9.59992187 407.5703125 9.68359375 C410.7540478 9.97730965 413.85510907 10.43124313 417 11 C414.16500417 40.62081845 404.98494255 69.88652341 393 97 C392.60941406 97.88429688 392.21882813 98.76859375 391.81640625 99.6796875 C381.5428334 122.65207007 368.35135618 144.20385828 352.125 163.47265625 C350.70137953 165.16582251 349.3054582 166.88264687 347.9375 168.62109375 C347.23625 169.50925781 346.535 170.39742187 345.8125 171.3125 C345.12333496 172.19703857 344.43416992 173.08157715 343.72412109 173.99291992 C341.84297859 176.23123995 339.93525134 177.82711407 337.51806641 179.46435547 C332.06700323 183.41501372 327.8603986 187.50327015 326.20993042 194.21090698 C325.0607764 203.25172311 325.29799246 212.34811323 325.51462173 221.4401207 C325.59555652 225.45045835 325.59710849 229.46089538 325.6081543 233.47192383 C325.63746798 240.20403599 325.71729624 246.93389591 325.83398438 253.66503906 C325.99775833 263.11593421 326.07072461 272.5659057 326.12501717 282.01797676 C326.1704861 289.4079537 326.23841316 296.79776057 326.3125 304.1875 C326.32031116 304.97038517 326.32812233 305.75327034 326.3361702 306.5598793 C326.3832904 311.08617484 326.44242606 315.61207156 326.51767731 320.13798904 C326.54937118 322.14133886 326.57270142 324.14481574 326.59564209 326.14828491 C326.98093375 346.72728316 330.9360925 364.41074492 345.375 379.75 C354.20244798 388.14298745 364.827015 392.94671472 376.41015625 396.1953125 C377.4373024 396.48906769 378.46444855 396.78282288 379.52272034 397.08547974 C394.84286692 401.42642426 410.26113476 405.41742864 425.66229248 409.45880127 C430.00901156 410.59965343 434.35499993 411.74321155 438.69999886 412.8905983 C440.71411853 413.42126292 442.72927024 413.94787187 444.74449158 414.47433472 C445.94827957 414.79201813 447.15206757 415.10970154 448.39233398 415.43701172 C449.45467758 415.71568085 450.51702118 415.99434998 451.61155701 416.28146362 C454 417 454 417 455 418 C454.54141875 424.30549215 452.95347773 430.00442055 451 436 C445.65213627 435.41906356 440.64186554 434.51458562 435.42919922 433.12988281 C434.71900131 432.94269684 434.00880341 432.75551086 433.27708435 432.56265259 C430.95150602 431.94812128 428.62806085 431.32593645 426.3046875 430.703125 C424.66821873 430.26783767 423.03167147 429.83284536 421.39505005 429.39813232 C417.96978565 428.48699496 414.5455816 427.57199861 411.12207031 426.65429688 C406.77396901 425.48912271 402.42327665 424.33398736 398.07169914 423.18187332 C394.69011644 422.28526338 391.31006881 421.38297115 387.93042374 420.47908783 C386.32922493 420.05159812 384.72756061 419.62584748 383.12539291 419.20200348 C357.36384404 412.37702678 333.52894715 402.63915822 319 379 C309.92568236 362.92977533 306.88215639 347.29782852 306.79467773 328.97460938 C306.78477814 327.68596985 306.77487854 326.39733032 306.76467896 325.06964111 C306.73780636 321.55784951 306.7167021 318.04604472 306.69667697 314.5342083 C306.67470764 310.85599277 306.64737286 307.17781708 306.62062073 303.49963379 C306.57084106 296.54422611 306.52584803 289.58879614 306.48259836 282.63334513 C306.43309958 274.71067219 306.3782286 266.78803925 306.32291877 258.86540508 C306.209325 242.57697367 306.10243735 226.28850548 306 210 C305.51069221 210.37599114 305.02138441 210.75198229 304.51724911 211.1393671 C302.28119419 212.8565329 300.04380852 214.57195644 297.80639648 216.28735352 C297.03665245 216.87888466 296.26690842 217.4704158 295.47383881 218.07987213 C290.46568669 221.91708029 285.43596704 225.62301279 280.0625 228.9375 C279.30437012 229.41074707 278.54624023 229.88399414 277.76513672 230.37158203 C236.00178357 255.99739622 236.00178357 255.99739622 221.61157227 256.19287109 C219.99322227 256.21696548 219.99322227 256.21696548 218.34217834 256.24154663 C213.3903178 256.28633658 208.43858865 256.32710116 203.48657227 256.35009766 C200.88654594 256.36659754 198.28656384 256.3938075 195.68676758 256.43212891 C191.91724359 256.48734772 188.14878216 256.50884611 184.37890625 256.5234375 C183.23361954 256.54610687 182.08833282 256.56877625 180.90834045 256.59213257 C172.39186416 256.57021173 165.72259794 254.50381321 158 251 C156.64671097 250.38818375 156.64671097 250.38818375 155.26608276 249.76400757 C152.92245501 248.6805048 150.61586467 247.54153348 148.3125 246.375 C147.46945313 245.95041504 146.62640625 245.52583008 145.7578125 245.08837891 C136.87301087 240.53807224 128.40020312 235.38263393 120 230 C118.93523437 229.32324219 117.87046875 228.64648438 116.7734375 227.94921875 C110.87819365 224.1117487 105.24734342 219.97964395 99.6328125 215.74609375 C98.89619385 215.19207886 98.1595752 214.63806396 97.40063477 214.06726074 C95.59966148 212.71251401 93.79947176 211.35674014 92 210 C91.99641747 210.99831596 91.99641747 210.99831596 91.99276257 212.01679993 C91.93339231 228.27897297 91.85770361 244.54098225 91.76428509 260.80299377 C91.71949245 268.66747693 91.68004065 276.53191646 91.65356445 284.39648438 C91.63044942 291.25848468 91.59690352 298.12034502 91.55129844 304.982234 C91.52754637 308.60899553 91.50870062 312.23562 91.50238609 315.86245728 C91.44258946 346.149596 87.91651656 372.33938049 66 395 C57.00652147 403.54740199 46.15232117 409.98974047 34.30078125 413.625 C33.11631912 413.99324387 33.11631912 413.99324387 31.90792847 414.368927 C18.54051635 418.44105283 5.00643503 421.96785859 -8.49316406 425.5703125 C-12.59809664 426.66592921 -16.70035225 427.77123913 -20.80202293 428.8789959 C-23.9870169 429.73778995 -27.17353332 430.59081893 -30.36052322 431.442173 C-31.87527176 431.84769757 -33.38950045 432.25516932 -34.90317917 432.66466904 C-37.0060092 433.23279215 -39.1108128 433.7929245 -41.21630859 434.35107422 C-43.00565323 434.83022781 -43.00565323 434.83022781 -44.83114624 435.31906128 C-47.68119502 435.93149363 -50.10091706 436.14391643 -53 436 C-53.67548578 433.94037148 -54.34004312 431.87715678 -55 429.8125 C-55.37125 428.66394531 -55.7425 427.51539063 -56.125 426.33203125 C-56.90630553 423.35679188 -57.18363306 421.04716104 -57 418 C-49.52194004 415.37102306 -41.92486861 413.30670368 -34.26630211 411.28634834 C-31.9637853 410.67875752 -29.66230071 410.0673862 -27.36103821 409.45506287 C-20.82384285 407.71643832 -14.28470189 405.98517424 -7.74536133 404.25463867 C-3.72706154 403.19098169 0.29023289 402.1235911 4.3069973 401.05415154 C6.55263695 400.45751854 8.79939429 399.86523868 11.04621887 399.27308655 C31.52552365 393.8431555 49.38119942 387.20908168 61.4375 368.75 C69.89399717 353.93351225 71.12621772 339.3556842 71.24047852 322.58935547 C71.25331925 321.16245263 71.26645526 319.73555242 71.27986145 318.30865479 C71.39502438 305.36784074 71.45227938 292.4263049 71.49662876 279.485075 C71.52992618 269.93444961 71.58967918 260.38476687 71.68413979 250.83454597 C71.74850721 244.0979822 71.78216904 237.36167553 71.79337829 230.62481606 C71.80092369 226.60897979 71.82197874 222.59429007 71.87640572 218.57879257 C71.92697892 214.80421968 71.93941081 211.03139665 71.92315483 207.25653839 C71.92375651 205.87623846 71.93793642 204.49586332 71.96710205 203.11587143 C72.21898529 195.39051163 72.21898529 195.39051163 69.27342033 188.47977066 C67.27815847 186.47544499 65.21642137 184.75118108 63 183 C61.8696072 181.79490796 60.76110997 180.56844441 59.6875 179.3125 C59.11902344 178.64992187 58.55054687 177.98734375 57.96484375 177.3046875 C57.31644531 176.54414063 56.66804688 175.78359375 56 175 C55.17628906 174.05382812 54.35257812 173.10765625 53.50390625 172.1328125 C15.05645265 127.71065095 -19 62.29574362 -19 2 C-17.14718166 1.6592518 -15.29265605 1.32778217 -13.4375 1 C-12.40496094 0.814375 -11.37242188 0.62875 -10.30859375 0.4375 C-6.83529403 -0.0217793 -3.49942416 -0.07060629 0 0 Z " fill="#000000" transform="translate(57,38)"/>
<path d="M0 0 C7.46264176 3.28265203 7.46264176 3.28265203 15.34179688 2.66210938 C16.97723085 1.99796952 18.59586084 1.29127594 20.19726562 0.54882812 C22.08117148 -0.19718596 23.96665776 -0.9392185 25.85351562 -1.67773438 C28.78566798 -2.87420997 31.71186009 -4.08231282 34.63085938 -5.31054688 C45.31652617 -9.6421863 54.24918208 -10.59450736 65.19726562 -6.45117188 C72.54369975 -2.48212525 78.02058787 3.98648602 81.07226562 11.73632812 C84.17677094 23.00962028 81.59378937 34.79695591 79.49414062 46.03320312 C79.21158632 47.58477738 78.92971924 49.13647693 78.64849854 50.68829346 C78.06071431 53.91682676 77.46477653 57.14371398 76.86279297 60.36962891 C76.09629082 64.48079354 75.35050171 68.59539927 74.61075974 72.71145248 C74.03392045 75.90793068 73.44614381 79.10232438 72.85514069 82.29621124 C72.57595997 83.81208773 72.30007879 85.32857615 72.02773285 86.8456955 C69.55225153 100.57421612 66.37224871 112.06656539 54.44726562 120.42382812 C44.45953959 126.13934765 31.32165428 125.56521063 20.41601562 123.20117188 C18.19726563 122.54882812 18.19726563 122.54882812 14.88476562 120.79882812 C12.28175359 119.23559735 12.28175359 119.23559735 9.69726562 120.23632812 C8.87226563 120.66945313 8.04726562 121.10257813 7.19726562 121.54882812 C-3.74683502 125.59338706 -16.60442195 126.00468715 -27.80273438 122.54882812 C-35.03888202 119.03478837 -41.88390036 113.41971654 -44.88299561 105.80662537 C-47.41881716 97.40127929 -49.25501956 88.96777108 -50.81835938 80.33398438 C-51.08136228 78.90630742 -51.34469549 77.47869129 -51.6083374 76.0511322 C-52.15475476 73.08134744 -52.69512265 70.11053964 -53.23144531 67.13891602 C-53.91241163 63.37031254 -54.61177454 59.60538926 -55.31616592 55.84110355 C-55.86365854 52.90062056 -56.39953083 49.95810319 -56.93230438 47.01492119 C-57.18515385 45.6274359 -57.44179295 44.24063461 -57.70264435 42.85463142 C-62.57967643 16.8373861 -62.57967643 16.8373861 -55.80273438 5.54882812 C-51.45938474 -0.5337832 -46.91017971 -4.96899154 -39.80273438 -7.45117188 C-39.12726563 -7.69738281 -38.45179688 -7.94359375 -37.75585938 -8.19726562 C-24.68432043 -12.03762652 -11.6585324 -5.28444553 0 0 Z M-38.80273438 14.54882812 C-41.57649035 18.07906301 -41.09075527 22.2657317 -40.80273438 26.54882812 C-40.10553496 31.55341665 -39.197515 36.51772522 -38.28320312 41.48632812 C-38.02094969 42.93539364 -37.75910068 44.38453239 -37.49763489 45.83374023 C-36.94987828 48.86039568 -36.39703916 51.88606637 -35.84057617 54.91113281 C-35.13135677 58.76908302 -34.43522123 62.62925817 -33.74294567 66.49028015 C-33.20527395 69.4802927 -32.66045434 72.4689696 -32.11355019 75.45730591 C-31.85420537 76.87932112 -31.59706838 78.30174098 -31.34227562 79.72457886 C-29.53289501 92.19461467 -29.53289501 92.19461467 -23.65820312 103.00585938 C-19.75065433 105.11732555 -16.50247841 105.27318043 -12.11523438 105.23632812 C-11.31448486 105.23560303 -10.51373535 105.23487793 -9.6887207 105.23413086 C-3.43978973 105.01694742 0.44135965 103.427104 5.15429688 99.17773438 C7.55141557 97.26645618 9.16213106 96.80870233 12.19726562 96.54882812 C15.01037506 97.64961008 17.37910288 98.87023277 19.71289062 100.8059082 C24.49397705 104.74203624 28.23769739 105.29800227 34.32226562 105.11132812 C35.49982422 105.12776367 35.49982422 105.12776367 36.70117188 105.14453125 C40.41749121 105.0975289 42.74889175 104.78889752 46.06445312 103.01367188 C51.95395312 96.20730833 52.58292978 86.16816863 54.11523438 77.61132812 C54.37954063 76.1621088 54.64430402 74.71297277 54.90950012 73.26391602 C55.46134959 70.238972 56.00787136 67.21312805 56.55053711 64.18652344 C57.24332603 60.3249402 57.94911261 56.46586928 58.658885 52.6073761 C59.20709482 49.61930243 59.74850036 46.63002629 60.28789711 43.64035034 C60.54539712 42.21754964 60.80492993 40.79511517 61.06661034 39.37307739 C63.92181908 27.05149461 63.92181908 27.05149461 61.44726562 15.17382812 C58.81828756 12.02854621 58.81828756 12.02854621 55.19726562 10.54882812 C49.40299911 10.23410523 45.55466926 10.82748512 40.13476562 13.13867188 C39.49917725 13.40265274 38.86358887 13.66663361 38.20874023 13.93861389 C36.19904932 14.77463285 34.19777181 15.62858811 32.19726562 16.48632812 C30.19623023 17.33897056 28.19371482 18.18702969 26.18579102 19.02333069 C24.36356268 19.78290529 22.54777142 20.55786929 20.73242188 21.33374023 C13.90461497 23.68056309 8.55318782 23.92038788 1.82226562 21.04882812 C1.14744141 20.78054199 0.47261719 20.51225586 -0.22265625 20.23583984 C-2.42385124 19.35828201 -4.61375799 18.45640631 -6.80273438 17.54882812 C-9.18439511 16.56443463 -11.56751796 15.5850789 -13.95751953 14.62109375 C-15.48097165 14.00574978 -16.99930486 13.37752001 -18.51123047 12.734375 C-25.98869498 9.7044031 -32.26249428 8.94290805 -38.80273438 14.54882812 Z " fill="#000000" transform="translate(244.802734375,323.451171875)"/>
<path d="M0 0 C3.15136441 0.58780769 6.30504677 1.15971961 9.4609375 1.72265625 C10.16318451 1.85906021 10.86543152 1.99546417 11.58895874 2.13600159 C17.45056442 3.17987134 23.12976929 3.4686643 28.375 0.25 C29.1175 -0.183125 29.86 -0.61625 30.625 -1.0625 C34.49564905 0.23883891 37.03097251 3.04344631 39.875 5.875 C41.21304688 7.18791016 41.21304688 7.18791016 42.578125 8.52734375 C44.625 10.9375 44.625 10.9375 44.625 13.9375 C35.52230439 21.57695856 26.1877475 23.68544458 14.625 22.9375 C8.55064839 22.16120524 2.52554665 21.02028165 -3.5 19.9375 C-5.91761075 19.50497168 -8.33555106 19.07514419 -10.75509644 18.65356445 C-12.25000053 18.39298827 -13.74386312 18.1263302 -15.23635864 17.85229492 C-23.05763563 16.48643703 -30.1704142 16.87280061 -37.93359375 18.25 C-39.5527341 18.5234391 -41.17187474 18.79687655 -42.79101562 19.0703125 C-45.30348636 19.50291361 -47.81550976 19.93802242 -50.32739258 20.37402344 C-52.77845987 20.79712577 -55.23092521 21.21129725 -57.68359375 21.625 C-58.42137558 21.75624268 -59.15915741 21.88748535 -59.91929626 22.02270508 C-71.39535025 23.9527345 -82.89142492 23.16198753 -92.6875 16.1875 C-93.574375 15.445 -94.46125 14.7025 -95.375 13.9375 C-94.96185438 9.48823948 -91.87038473 7.09649896 -88.8125 4.1875 C-88.29236328 3.68089844 -87.77222656 3.17429688 -87.23632812 2.65234375 C-85.95589916 1.40715595 -84.66632446 0.17138498 -83.375 -1.0625 C-82.76785156 -0.75699219 -82.16070312 -0.45148438 -81.53515625 -0.13671875 C-69.80367744 5.69719928 -56.04109651 0.94446993 -43.73242188 -1.33398438 C-28.45630398 -4.0168868 -15.06082516 -2.81327182 0 0 Z " fill="#000000" transform="translate(281.375,133.0625)"/>
<path d="M0 0 C0.495 0.99 0.495 0.99 1 2 C0.37915039 3.69580078 0.37915039 3.69580078 -0.65234375 5.6953125 C-1.19858398 6.76845703 -1.19858398 6.76845703 -1.75585938 7.86328125 C-2.14580078 8.60964844 -2.53574219 9.35601562 -2.9375 10.125 C-3.32357422 10.87910156 -3.70964844 11.63320312 -4.10742188 12.41015625 C-5.06452132 14.27709097 -6.03136106 16.13902628 -7 18 C-8.2375 17.67 -9.475 17.34 -10.75 17 C-19.99011025 14.96601347 -27.77219899 15.94937755 -37 18 C-40.96 9.585 -40.96 9.585 -45 1 C-30.31910368 -4.98826034 -14.89790544 -6.90698154 0 0 Z " fill="#000000" transform="translate(278,161)"/>
<path d="M0 0 C6.27 0 12.54 0 19 0 C19 6.27 19 12.54 19 19 C12.73 19 6.46 19 0 19 C0 12.73 0 6.46 0 0 Z " fill="#000000" transform="translate(265,392)"/>
<path d="M0 0 C6.27 0 12.54 0 19 0 C19 6.27 19 12.54 19 19 C12.73 19 6.46 19 0 19 C0 12.73 0 6.46 0 0 Z " fill="#000000" transform="translate(228,392)"/>
<path d="M0 0 C6.27 0 12.54 0 19 0 C19 6.27 19 12.54 19 19 C12.73 19 6.46 19 0 19 C0 12.73 0 6.46 0 0 Z " fill="#000000" transform="translate(265,356)"/>
<path d="M0 0 C6.27 0 12.54 0 19 0 C19 6.27 19 12.54 19 19 C12.73 19 6.46 19 0 19 C0 12.73 0 6.46 0 0 Z " fill="#000000" transform="translate(228,356)"/>
</svg>
