<?xml version="1.0" encoding="UTF-8"?>
<svg version="1.1" xmlns="http://www.w3.org/2000/svg" width="512" height="512">
<path d="M0 0 C6.44879586 5.36740269 8.75540878 10.62194009 10.12890625 18.86328125 C10.25582855 19.6058316 10.38275085 20.34838196 10.51351929 21.11343384 C11.80977951 28.95044164 12.70323132 36.82328546 13.50537109 44.72412109 C13.7492664 47.11780015 14.00482259 49.51002888 14.26171875 51.90234375 C15.42832642 63.00508404 16.13577659 74.09789457 16.625 85.25 C17.29405869 85.24111755 17.96311737 85.23223511 18.65245056 85.2230835 C25.64459654 85.1342774 32.63658109 85.07412774 39.62915039 85.03027344 C42.23533643 85.01021465 44.84147779 84.98296089 47.44750977 84.94824219 C51.20340026 84.8994737 54.9586933 84.87697283 58.71484375 84.859375 C60.44975319 84.82840729 60.44975319 84.82840729 62.2197113 84.79681396 C70.58635886 84.79451696 76.22066767 86.58691534 83.3125 90.875 C91.87374951 99.66763463 95.20057049 110.62053808 95.0625 122.625 C95.05114014 124.00981567 95.05114014 124.00981567 95.03955078 125.42260742 C94.76213344 136.90505296 91.28093616 145.64461526 83.08203125 153.78125 C78.22286951 158.07829791 74.05422875 159.5045149 67.64135742 159.47705078 C65.87008736 159.47682419 65.87008736 159.47682419 64.06303406 159.47659302 C62.16591423 159.46110916 62.16591423 159.46110916 60.23046875 159.4453125 C58.27673088 159.44106766 58.27673088 159.44106766 56.28352356 159.43673706 C52.83277616 159.42912697 49.38219902 159.40950135 45.93151855 159.3873291 C42.405541 159.36681388 38.87953575 159.35772324 35.35351562 159.34765625 C28.44394079 159.32625272 21.53447859 159.29214874 14.625 159.25 C14.6366922 159.84353775 14.6483844 160.4370755 14.66043091 161.04859924 C14.70831071 165.21660748 14.68676653 169.03318082 13.6171875 173.08984375 C11.41447877 182.77571439 10.58335777 189.68249499 15.9375 198.375 C17.35454813 200.59599301 18.7930871 202.80109826 20.24267578 205.00097656 C45.79695474 246.57745445 48.48472254 306.21989137 41.625 353.25 C41.49609375 354.17135742 41.3671875 355.09271484 41.234375 356.04199219 C34.82769204 400.84428209 20.57445626 447.86585313 -11.375 481.25 C-12.13167969 482.08144531 -12.88835937 482.91289062 -13.66796875 483.76953125 C-20.14590249 490.64903348 -27.16679938 495.68187701 -35.375 500.25 C-36.34566406 500.80171875 -37.31632812 501.3534375 -38.31640625 501.921875 C-63.15118749 513.6944211 -95.0974931 500.87483387 -119.09350586 492.43774414 C-144.4374233 483.26445656 -168.68340546 470.23106091 -190.375 454.25 C-191.22795654 453.62230713 -191.22795654 453.62230713 -192.09814453 452.98193359 C-195.91986046 450.14689512 -199.65837559 447.22143656 -203.375 444.25 C-204.36242187 443.46882813 -205.34984375 442.68765625 -206.3671875 441.8828125 C-236.22980597 417.4912081 -263.96312676 384.4564461 -271.2890625 345.4765625 C-272.12659071 341.58083825 -273.25872215 339.6723827 -276.375 337.0625 C-289.30258518 325.0671926 -298.4005767 308.36260207 -303.75 291.6875 C-304.0898291 290.62849487 -304.0898291 290.62849487 -304.43652344 289.5480957 C-308.4308876 276.15796593 -309.93333822 263.03920498 -309.8125 249.125 C-309.80912628 248.36475525 -309.80575256 247.6045105 -309.80227661 246.82122803 C-309.5405028 205.88922588 -293.96305432 168.36809533 -264.9309082 139.43725586 C-254.95959255 129.79053246 -243.94203094 123.01784703 -231.375 117.25 C-238.21977153 98.05712304 -258.55754063 78.80799195 -276.375 69.25 C-278.72640409 68.39525603 -281.06547155 67.71146046 -283.47265625 67.0390625 C-288.32414121 65.02674225 -290.77623981 60.60371869 -292.8125 56 C-294.64260527 43.7992982 -290.4757333 33.33897776 -283.5 23.4375 C-276.72681192 14.66257047 -267.91778746 5.15089555 -256.375 3.25 C-249.21502815 2.58115117 -244.14355889 2.77642371 -238.375 7.25 C-237.77429688 8.20132812 -237.17359375 9.15265625 -236.5546875 10.1328125 C-234.15227722 13.56851752 -231.94069284 15.23093567 -228.4375 17.5 C-227.26899175 18.27718617 -226.1023766 19.05722483 -224.9375 19.83984375 C-224.04804688 20.43514893 -224.04804688 20.43514893 -223.140625 21.04248047 C-220.33708554 22.95983475 -217.62994544 24.99297688 -214.9375 27.0625 C-214.4110791 27.4661377 -213.8846582 27.86977539 -213.34228516 28.28564453 C-210.3421002 30.62033062 -207.44098024 33.04046278 -204.5859375 35.55078125 C-203.6412561 36.37968872 -203.6412561 36.37968872 -202.67749023 37.2253418 C-201.45751563 38.30445797 -200.24567695 39.39286055 -199.04321289 40.49145508 C-195.33631505 43.80503441 -195.33631505 43.80503441 -190.375 44.25 C-188.04528658 42.66676889 -188.04528658 42.66676889 -185.5625 40.5 C-159.28443304 19.75747593 -123.43145498 10.2185923 -90.375 9.9375 C-89.23804688 9.90849609 -88.10109375 9.87949219 -86.9296875 9.84960938 C-79.02207122 9.78998118 -73.5790512 10.79426991 -67.421875 15.85546875 C-60.5968148 24.1812199 -57.39694502 33.41894667 -58.375 44.25 C-59.91449147 53.93053109 -63.12789263 60.49748785 -70.3125 67.125 C-75.08694085 70.43787733 -79.25206064 71.35363954 -84.97265625 71.21875 C-108.68269889 71.07367485 -132.35383171 78.62188658 -150.375 94.25 C-149.97667969 94.97445312 -149.57835937 95.69890625 -149.16796875 96.4453125 C-141.375 110.66605839 -141.375 110.66605839 -141.375 113.25 C-140.78976563 113.22679688 -140.20453125 113.20359375 -139.6015625 113.1796875 C-127.24103487 112.91985659 -114.7022619 114.15468649 -102.85546875 117.76171875 C-99.93322712 118.33696317 -98.20658796 118.16544207 -95.375 117.25 C-93.06907541 115.74836857 -93.06907541 115.74836857 -90.75 113.8125 C-80.80536442 106.34058462 -63.20310756 94.25 -50.375 94.25 C-50.49037109 93.48300781 -50.60574219 92.71601562 -50.72460938 91.92578125 C-52.4563599 80.13892591 -53.81837479 68.31363835 -55.19775391 56.48144531 C-55.51582501 53.75829334 -55.83539929 51.03532584 -56.15625 48.3125 C-56.31049942 47.00335129 -56.31049942 47.00335129 -56.46786499 45.66775513 C-57.20641592 39.47739023 -58.04971001 33.3114211 -58.98876953 27.14794922 C-60.06311172 19.08698731 -60.46356302 11.97515491 -55.375 5.25 C-41.55476652 -10.37661255 -16.91272216 -11.4207681 0 0 Z M-40.3125 15.6875 C-41.55657928 17.20210717 -41.55657928 17.20210717 -41.375 19.1875 C-39.29354328 23.48050448 -36.05652791 25.00742227 -31.6875 26.5625 C-24.59114716 28.06494143 -17.53021437 27.15330667 -11.375 23.25 C-9.41068595 21.95735301 -9.41068595 21.95735301 -8.375 20.25 C-8.15207415 18.21323357 -8.15207415 18.21323357 -9.375 16.25 C-14.73507724 12.17168036 -18.53225246 11.08505109 -25.1875 11 C-26.39019531 10.97421875 -27.59289062 10.9484375 -28.83203125 10.921875 C-33.44074368 11.34870173 -36.62786386 12.9537377 -40.3125 15.6875 Z M-264.60546875 29.3359375 C-270.25268136 35.3751705 -274.29978508 41.91708434 -275.375 50.25 C-267.62129862 49.05712286 -261.49202541 42.26932224 -256.890625 36.3359375 C-253.64988038 31.55107339 -252.25656228 26.93410304 -251.375 21.25 C-256.31090991 21.25 -261.17841409 26.13095118 -264.60546875 29.3359375 Z M-85.375 28.25 C-89.74677026 32.8715857 -90.7245425 36.72166488 -90.6640625 42.890625 C-90.18622844 46.79078411 -88.68236949 49.08560756 -86.375 52.25 C-85.385 52.58 -84.395 52.91 -83.375 53.25 C-79.92627678 51.23123519 -78.56388126 49.69644661 -77 46 C-76.01500547 40.09003284 -76.42057309 36.09303128 -79.1875 30.75 C-79.909375 29.925 -80.63125 29.1 -81.375 28.25 C-82.695 28.25 -84.015 28.25 -85.375 28.25 Z M-148.375 40.25 C-149.0354834 40.54245605 -149.6959668 40.83491211 -150.37646484 41.13623047 C-160.56226397 45.73823347 -169.49937228 51.48233386 -178.375 58.25 C-177.79952563 61.61543237 -176.82354626 63.09847059 -174.3125 65.375 C-169.85230346 69.62236558 -166.14052949 74.38904374 -162.375 79.25 C-158.31113064 77.04137535 -154.58942147 74.69536477 -150.875 71.9375 C-137.58291516 62.56075737 -121.99925014 58.07387517 -106.375 54.25 C-106.53871094 53.28964844 -106.70242188 52.32929687 -106.87109375 51.33984375 C-107.51594818 46.82586275 -107.48517662 42.36378358 -107.4375 37.8125 C-107.43298828 36.98556641 -107.42847656 36.15863281 -107.42382812 35.30664062 C-107.41215811 33.28772854 -107.39422718 31.26885426 -107.375 29.25 C-120.89972573 29.25 -136.09786904 34.78963297 -148.375 40.25 Z M-236.375 35.25 C-236.68050781 35.90484375 -236.98601562 36.5596875 -237.30078125 37.234375 C-240.63702702 43.88807079 -244.51651729 48.99307674 -249.7668457 54.18847656 C-253.05703697 57.50341789 -253.05703697 57.50341789 -253.375 62.25 C-251.51550206 64.37404553 -251.51550206 64.37404553 -249 66.375 C-227.69809687 84.7966458 -213.92736273 107.33240418 -201.375 132.25 C-200.21226562 131.66992188 -199.04953125 131.08984375 -197.8515625 130.4921875 C-185.73644516 124.54618021 -173.52278158 119.45403554 -160.375 116.25 C-164.70601135 104.07634649 -173.43703404 93.33375843 -181.96533203 83.83227539 C-182.9618659 82.71372049 -183.94609393 81.58414451 -184.92138672 80.44702148 C-195.86805228 67.70673536 -207.95527166 55.38532036 -221.375 45.25 C-222.53540972 44.33660819 -223.69415679 43.42110161 -224.8515625 42.50390625 C-226.04628482 41.56435322 -227.24158928 40.62553991 -228.4375 39.6875 C-228.99880615 39.2445459 -229.5601123 38.8015918 -230.13842773 38.34521484 C-232.93116335 35.9754071 -232.93116335 35.9754071 -236.375 35.25 Z M-14 42.75 C-22.1234326 44.82490086 -29.15315681 44.44590446 -37.375 43.25 C-36.6873528 58.30710246 -34.98928751 73.27038383 -33.375 88.25 C-30.32420358 89.26693214 -29.32238359 89.2558072 -26.27734375 88.7265625 C-25.07368164 88.52546875 -25.07368164 88.52546875 -23.84570312 88.3203125 C-23.00974609 88.17335937 -22.17378906 88.02640625 -21.3125 87.875 C-14.67832562 86.73318194 -8.08250244 85.83976844 -1.375 85.25 C-2.65358359 63.17730438 -2.65358359 63.17730438 -5.375 41.25 C-8.56600709 41.25 -10.93262422 41.89398815 -14 42.75 Z M-105.87890625 151.00390625 C-110.96909817 157.05873691 -115.3005321 163.47668841 -119.375 170.25 C-117.86873047 170.37955078 -117.86873047 170.37955078 -116.33203125 170.51171875 C-103.89461078 171.73161324 -93.43655431 175.39388301 -82.375 181.25 C-82.00890625 180.77691406 -81.6428125 180.30382812 -81.265625 179.81640625 C-62.87417416 157.35256273 -31.95739646 148.53206369 -4.375 144.25 C-3.66891602 144.13962402 -2.96283203 144.02924805 -2.23535156 143.91552734 C7.702818 142.42784755 17.65925435 141.91956931 27.6965332 141.59106445 C32.75051748 141.42033064 37.63596697 141.08611218 42.625 140.25 C42.480625 139.61835938 42.33625 138.98671875 42.1875 138.3359375 C40.11694212 128.35699885 39.60366289 118.9279646 42.14770508 109.00952148 C42.42286453 107.93049057 42.69802399 106.85145966 42.98152161 105.73973083 C43.19386948 104.91811966 43.40621735 104.09650848 43.625 103.25 C36.33752832 103.14687044 29.0502508 103.0778269 21.76220703 103.03027344 C19.29338553 103.01040751 16.82460946 102.98330545 14.35595703 102.94824219 C-31.44559588 102.31495516 -74.48223834 116.47246963 -105.87890625 151.00390625 Z M66.625 103.25 C61.08970852 106.63267812 59.25570284 111.20680711 57.625 117.25 C56.46206689 124.73271101 58.27923468 131.5248998 61.625 138.25 C63.46795713 140.45574396 64.17432074 141.14326018 67 141.8125 C70.23722366 141.11880922 71.48799113 139.60186461 73.51171875 137.05078125 C77.70812596 130.26290853 77.40112447 122.99540545 76.625 115.25 C75.49582516 111.50785859 74.17328445 108.23872868 71.625 105.25 C69.05151344 103.96420286 69.05151344 103.96420286 66.625 103.25 Z M-217.91943359 169.56542969 C-224.03033731 176.63776039 -229.1998308 184.4872462 -234.375 192.25 C-238.995 189.61 -243.615 186.97 -248.375 184.25 C-243.1785525 171.25888126 -229.34963 150.737315 -216.375 144.25 C-216.98198743 140.12248551 -218.41310791 136.9178852 -220.375 133.25 C-238.45244613 136.09582336 -255.81974706 154.37055163 -266.50439453 168.40893555 C-287.11834503 196.80867252 -295.61041695 233.76053073 -290.60498047 268.37158203 C-288.33715789 281.17058619 -284.31961074 294.22032412 -277.375 305.25 C-277.045 305.25 -276.715 305.25 -276.375 305.25 C-276.375 300.3 -276.375 295.35 -276.375 290.25 C-267.96 290.745 -267.96 290.745 -259.375 291.25 C-259.2925 293.993125 -259.21 296.73625 -259.125 299.5625 C-257.11983737 345.89706023 -242.11877638 381.61066948 -209.375 414.25 C-208.65441406 415.00539063 -207.93382812 415.76078125 -207.19140625 416.5390625 C-193.15626842 431.08501124 -175.52469698 444.31235224 -157.375 453.25 C-157.5915625 452.02925781 -157.808125 450.80851562 -158.03125 449.55078125 C-161.24642505 430.84326804 -161.51040603 413.1731172 -154.14453125 395.3515625 C-153.20307783 393.15349037 -153.20307783 393.15349037 -153.375 390.25 C-152.31539062 390.7553125 -151.25578125 391.260625 -150.1640625 391.78125 C-148.77613686 392.43770131 -147.38811081 393.09394033 -146 393.75 C-144.95199219 394.25080078 -144.95199219 394.25080078 -143.8828125 394.76171875 C-140.28672001 396.60209398 -140.28672001 396.60209398 -136.375 397.25 C-136.71273437 398.19359375 -137.05046875 399.1371875 -137.3984375 400.109375 C-143.46799271 417.40466097 -146.32974359 434.94663026 -138.375 452.25 C-131.40832456 465.24985095 -124.17952715 471.22960779 -110.375 476.25 C-109.19333252 476.6836084 -109.19333252 476.6836084 -107.98779297 477.12597656 C-78.27538971 488.18226967 -78.27538971 488.18226967 -47.45703125 485.9921875 C-17.49226029 471.94109534 -1.14297817 439.89771873 9.625 410.25 C32.12986064 346.65603565 32.5253952 275.9886141 4.625 214.25 C3.965 214.25 3.305 214.25 2.625 214.25 C-1.69200036 221.58612697 -1.69200036 221.58612697 -1.75 229.75 C-1.4096875 230.81541016 -1.4096875 230.81541016 -1.0625 231.90234375 C0.20863269 236.242973 0.28370855 240.75632925 0.625 245.25 C-5.315 245.25 -11.255 245.25 -17.375 245.25 C-17.375 242.61 -17.375 239.97 -17.375 237.25 C-19.48280602 227.6274073 -24.61868349 219.66652791 -32.625 213.9375 C-41.3064643 208.65504969 -49.23440907 206.54388535 -59.375 207.25 C-59.35759766 206.18072266 -59.35759766 206.18072266 -59.33984375 205.08984375 C-59.28893974 199.68674634 -59.42891729 194.57171525 -60.375 189.25 C-57.735 189.25 -55.095 189.25 -52.375 189.25 C-51.715 185.62 -51.055 181.99 -50.375 178.25 C-54.62692678 179.95077071 -56.98273132 181.26985082 -60.4375 184.0625 C-61.27410156 184.72894531 -62.11070312 185.39539063 -62.97265625 186.08203125 C-65.42289569 188.29322294 -67.38815735 190.62076018 -69.375 193.25 C-68.6015625 194.549375 -68.6015625 194.549375 -67.8125 195.875 C-64.38628714 201.84922676 -61.42282474 208.07729877 -58.375 214.25 C-59.10460937 214.38277344 -59.83421875 214.51554687 -60.5859375 214.65234375 C-63.93978261 215.37102485 -67.06356119 216.47851415 -70.2890625 217.62890625 C-72.375 218.25 -72.375 218.25 -75.375 218.25 C-75.73851562 217.53714844 -76.10203125 216.82429688 -76.4765625 216.08984375 C-83.6001245 202.51854487 -92.55082652 194.08736187 -107.375 189.25 C-117.98396366 186.2765345 -130.62086566 187.26386104 -140.375 192.25 C-141.22320312 192.6625 -142.07140625 193.075 -142.9453125 193.5 C-149.7956119 197.1870113 -154.48401831 202.27213349 -159.375 208.25 C-160.79375765 207.48302204 -162.20991452 206.71123222 -163.625 205.9375 C-164.41390625 205.50824219 -165.2028125 205.07898438 -166.015625 204.63671875 C-168.375 203.25 -168.375 203.25 -170.546875 201.58203125 C-172.26741523 200.05370325 -172.26741523 200.05370325 -174.375 200.25 C-167.19985635 188.09446252 -155.87668268 178.75056089 -142.375 174.25 C-141.12293767 172.58429081 -141.12293767 172.58429081 -140.0625 170.48828125 C-139.41704224 169.31410645 -139.41704224 169.31410645 -138.75854492 168.11621094 C-138.07369019 166.85212402 -138.07369019 166.85212402 -137.375 165.5625 C-132.44186711 156.73976562 -126.88592184 148.95975825 -120.375 141.25 C-119.70726562 140.45335937 -119.03953125 139.65671875 -118.3515625 138.8359375 C-117.04242144 137.29324076 -115.71246647 135.76820519 -114.375 134.25 C-119.67962652 132.15606848 -124.73641723 131.59673569 -130.375 131.25 C-131.16261719 131.19585937 -131.95023438 131.14171875 -132.76171875 131.0859375 C-165.85033386 129.94315958 -195.98042934 145.57918208 -217.91943359 169.56542969 Z M-13.89453125 163.5625 C-14.91611328 163.83320313 -15.93769531 164.10390625 -16.99023438 164.3828125 C-18.04533203 164.66898438 -19.10042969 164.95515625 -20.1875 165.25 C-21.26193359 165.53617188 -22.33636719 165.82234375 -23.44335938 166.1171875 C-26.08876411 166.82262876 -28.73250881 167.53373662 -31.375 168.25 C-31.88110903 171.47823979 -32.37879907 174.70772365 -32.875 177.9375 C-33.01808594 178.84951172 -33.16117187 179.76152344 -33.30859375 180.70117188 C-33.44394531 181.58740234 -33.57929688 182.47363281 -33.71875 183.38671875 C-33.84443359 184.19842529 -33.97011719 185.01013184 -34.09960938 185.84643555 C-34.38477723 188.33533405 -34.42174739 190.74706689 -34.375 193.25 C-33.51777344 193.67410156 -32.66054688 194.09820312 -31.77734375 194.53515625 C-25.03764759 197.99238483 -19.29975805 201.35819855 -14.375 207.25 C-11.69936921 204.57436921 -11.03615624 201.60611379 -10 198.0625 C-9.78448486 197.33015137 -9.56896973 196.59780273 -9.34692383 195.84326172 C-6.36759586 185.23084504 -3.375 173.31422696 -3.375 162.25 C-7.13332529 162.10693924 -10.26739917 162.58986123 -13.89453125 163.5625 Z " fill="#000000" transform="translate(363.375,6.75)"/>
</svg>
