<?xml version="1.0" encoding="UTF-8"?>
<svg version="1.1" xmlns="http://www.w3.org/2000/svg" width="512" height="512">
<path d="M0 0 C1.66875183 -0.00855011 1.66875183 -0.00855011 3.37121582 -0.01727295 C5.72468115 -0.02670328 8.07815957 -0.0332491 10.43164062 -0.03710938 C13.99112754 -0.04676615 17.5500246 -0.07778897 21.109375 -0.109375 C46.09927428 -0.22672115 67.97224703 4.67151553 87.53125 21.203125 C88.34464844 21.87085937 89.15804688 22.53859375 89.99609375 23.2265625 C96.57617797 28.84346027 101.64805292 35.08061981 106.53125 42.203125 C107.08683594 43.00363281 107.64242188 43.80414063 108.21484375 44.62890625 C120.70489148 63.93170728 122.01603131 85.4919629 121.71875 107.765625 C121.70365648 109.75975537 121.68997643 111.75389696 121.67773438 113.74804688 C121.64514333 118.56669056 121.59362652 123.38477865 121.53125 128.203125 C122.48459229 128.19007324 123.43793457 128.17702148 124.42016602 128.16357422 C125.67498779 128.15342285 126.92980957 128.14327148 128.22265625 128.1328125 C129.46474854 128.11976074 130.70684082 128.10670898 131.98657227 128.09326172 C139.02695115 128.31147031 144.85102189 130.38578059 149.91772461 135.37939453 C156.5942116 142.92567351 156.15274852 152.24797721 156.05273438 161.76855469 C156.03129275 164.19828089 156.05260155 166.62505133 156.078125 169.0546875 C156.09460948 177.88594911 156.05871431 186.08652174 149.91772461 193.02661133 C142.13378228 200.69947522 131.88182037 200.77614557 121.53125 201.203125 C121.38429688 202.30527344 121.23734375 203.40742188 121.0859375 204.54296875 C117.09285115 232.3493139 104.47573227 256.25395396 83.23046875 274.953125 C81.53125 276.203125 81.53125 276.203125 79.53125 276.203125 C79.53125 284.123125 79.53125 292.043125 79.53125 300.203125 C81.84125 300.533125 84.15125 300.863125 86.53125 301.203125 C88.67076005 301.74724352 90.79918358 302.33653672 92.9152832 302.96557617 C94.74933464 303.50700508 94.74933464 303.50700508 96.62043762 304.05937195 C97.94102571 304.45475596 99.26155538 304.85033512 100.58203125 305.24609375 C101.96369809 305.65662216 103.34547 306.06679712 104.7273407 306.47663879 C107.6239295 307.33687719 110.5194883 308.20047331 113.41430664 309.06665039 C117.06920957 310.16011183 120.72612885 311.24663194 124.38375759 312.33093548 C167.03785226 324.98065533 167.03785226 324.98065533 180.34375 331.515625 C181.80518433 332.2271875 181.80518433 332.2271875 183.29614258 332.953125 C204.70100099 343.59581391 222.95063504 359.35827232 231.53125 382.203125 C234.86682425 392.82463988 235.68511163 403.15875391 235.64477539 414.23071289 C235.64492142 415.29516632 235.64506744 416.35961975 235.6452179 417.45632935 C235.64452576 420.94616797 235.63676631 424.43595204 235.62890625 427.92578125 C235.62703958 430.35672476 235.62561685 432.78766865 235.62461853 435.21861267 C235.62081294 441.59554088 235.61099946 447.97244607 235.59991455 454.34936523 C235.58785281 462.01203689 235.58328887 469.67471627 235.57746124 477.33739471 C235.56778659 488.95932079 235.54861632 500.58119641 235.53125 512.203125 C200.55125 512.203125 165.57125 512.203125 129.53125 512.203125 C129.53125 507.253125 129.53125 502.303125 129.53125 497.203125 C134.48125 497.203125 139.43125 497.203125 144.53125 497.203125 C144.53125 481.693125 144.53125 466.183125 144.53125 450.203125 C149.81125 450.203125 155.09125 450.203125 160.53125 450.203125 C160.53125 465.713125 160.53125 481.223125 160.53125 497.203125 C180.00125 497.203125 199.47125 497.203125 219.53125 497.203125 C219.41110528 481.16885609 219.41110528 481.16885609 219.2734375 465.13476562 C219.21333568 458.58669998 219.15520258 452.03866165 219.109375 445.49047852 C219.07226128 440.20598151 219.02583365 434.92163805 218.97318649 429.63727379 C218.95478016 427.63009038 218.93962255 425.62287424 218.92790604 423.61564064 C218.78994019 400.77861381 216.69738354 382.09995761 200.18359375 364.734375 C184.0099002 349.3759408 162.44790491 341.63901882 141.53125 335.203125 C140.68771973 334.94337891 139.84418945 334.68363281 138.97509766 334.41601562 C130.87806273 331.52240748 130.87806273 331.52240748 122.53125 330.203125 C122.89163109 331.4831263 122.89163109 331.4831263 123.2592926 332.78898621 C125.52224975 340.83409314 127.7745464 348.88209156 130.01493931 356.93351269 C131.16710485 361.07266114 132.32335007 365.21057796 133.48901367 369.34594727 C134.61393706 373.3373634 135.72801863 377.33166089 136.83466911 381.32818031 C137.25862374 382.85186505 137.68646407 384.37447416 138.11825752 385.89595604 C138.72272793 388.02841829 139.31322723 390.16429844 139.90063477 392.30151367 C140.41026512 394.12352547 140.41026512 394.12352547 140.93019104 395.98234558 C141.53276331 399.21123408 141.54068058 401.10450818 140.53125 404.203125 C138.5625 406.7109375 138.5625 406.7109375 136.03125 409.328125 C135.11101017 410.2999378 134.19309134 411.27395296 133.27734375 412.25 C132.81440918 412.74177734 132.35147461 413.23355469 131.87451172 413.74023438 C129.05617648 416.80956639 126.48920905 420.08883999 123.87109375 423.328125 C121.33572373 426.44337097 118.75481266 429.51561491 116.15625 432.578125 C115.69629639 433.12049805 115.23634277 433.66287109 114.76245117 434.22167969 C112.88118903 436.43847231 110.99817 438.65376947 109.11523438 440.86914062 C104.3960539 446.42380534 99.69049951 451.98372425 95.09375 457.640625 C91.13978482 462.4999704 87.07364454 467.25357829 82.98388672 471.99829102 C79.16435682 476.4389373 75.43614776 480.94594654 71.76171875 485.5078125 C68.75937608 489.13586231 65.63229684 492.65907147 62.53125 496.203125 C70.12125 496.533125 77.71125 496.863125 85.53125 497.203125 C85.53125 502.153125 85.53125 507.103125 85.53125 512.203125 C-10.82875 512.203125 -107.18875 512.203125 -206.46875 512.203125 C-206.46875 376.75405093 -206.46875 376.75405093 -182.9375 352.60546875 C-173.24676793 343.3850222 -162.3387393 336.91188539 -150.40625 331.078125 C-149.63555176 330.69462891 -148.86485352 330.31113281 -148.07080078 329.91601562 C-129.50499298 321.13824084 -108.94652281 316.2805894 -89.27832031 310.55737305 C-85.53454027 309.46794226 -81.79297118 308.37111553 -78.05193138 307.27231693 C-75.14464431 306.41927556 -72.23625171 305.57005674 -69.3275032 304.72201347 C-67.94525019 304.31851488 -66.56334551 303.91382098 -65.18180466 303.5078907 C-63.26996754 302.94675306 -61.35645714 302.39132582 -59.44287109 301.83618164 C-58.35815521 301.51976212 -57.27343933 301.20334259 -56.15585327 300.87733459 C-53.46875 300.203125 -53.46875 300.203125 -50.46875 300.203125 C-50.46875 292.283125 -50.46875 284.363125 -50.46875 276.203125 C-51.78875 275.543125 -53.10875 274.883125 -54.46875 274.203125 C-75.66866129 258.58655669 -87.8533211 232.12512264 -91.70849609 206.73876953 C-91.97293149 204.89510134 -92.22259038 203.04932215 -92.46875 201.203125 C-93.37496094 201.16574219 -94.28117187 201.12835938 -95.21484375 201.08984375 C-104.79079361 200.57304646 -113.7107218 200.06916063 -120.85522461 193.02661133 C-127.53207402 185.48093297 -127.09024461 176.15790043 -126.99023438 166.63769531 C-126.96879275 164.20796911 -126.99010155 161.78119867 -127.015625 159.3515625 C-127.0321101 150.51997 -126.99587005 142.32002419 -120.85522461 135.37939453 C-115.78852189 130.38578059 -109.96445115 128.31147031 -102.92407227 128.09326172 C-101.06093384 128.11283936 -101.06093384 128.11283936 -99.16015625 128.1328125 C-97.27792358 128.14803955 -97.27792358 128.14803955 -95.35766602 128.16357422 C-94.40432373 128.17662598 -93.45098145 128.18967773 -92.46875 128.203125 C-92.48446045 126.98955322 -92.5001709 125.77598145 -92.51635742 124.52563477 C-92.57145915 119.93895343 -92.60538589 115.35230003 -92.63354492 110.76538086 C-92.64845165 108.79592946 -92.66878414 106.82651015 -92.69506836 104.85717773 C-93.079584 75.26455223 -86.98554218 50.62147352 -66.46875 28.203125 C-48.6585437 9.93066907 -25.35774139 0.10142327 0 0 Z M-56.09765625 40.8828125 C-68.61214752 54.98310953 -76.5355282 73.47849578 -76.484375 92.41796875 C-76.48211914 93.50070068 -76.47986328 94.58343262 -76.47753906 95.69897461 C-76.47463867 96.52534424 -76.47173828 97.35171387 -76.46875 98.203125 C-69.21040029 98.45747407 -61.9532052 98.63211733 -54.69140625 98.75244141 C-52.22352156 98.80261482 -49.75593244 98.87077318 -47.2890625 98.95751953 C-43.73363344 99.07937899 -40.18214195 99.13564795 -36.625 99.1796875 C-35.52885376 99.23130035 -34.43270752 99.28291321 -33.30334473 99.33609009 C-28.58988447 99.33951172 -25.66308128 99.29577125 -22.09228516 96.0289917 C-19.96965119 93.40796405 -19.96965119 93.40796405 -18.22473145 90.68588257 C-13.44972897 83.93457345 -4.05794158 79.64580522 3.81640625 77.61328125 C18.40798951 75.40879745 31.44734978 77.8786019 43.47265625 86.61328125 C48.1168077 90.37474301 48.1168077 90.37474301 49.37425232 92.8881073 C50.56425028 95.08422982 51.63356314 96.56466938 53.53125 98.203125 C57.48446608 99.19767254 61.3401017 99.01849143 65.39453125 98.88671875 C66.54165085 98.87681412 67.68877045 98.86690948 68.87065125 98.85670471 C72.5296587 98.81756153 76.18565144 98.72972976 79.84375 98.640625 C82.32612851 98.6055115 84.80855411 98.57357259 87.29101562 98.54492188 C93.37211998 98.46779952 99.45146964 98.35070803 105.53125 98.203125 C105.54237046 96.28419288 105.55030049 94.3652421 105.55688477 92.44628906 C105.56164322 91.37767639 105.56640167 90.30906372 105.57130432 89.20806885 C105.35997594 73.35385165 98.41614707 57.39796644 88.53125 45.203125 C87.88800781 44.38585937 87.24476563 43.56859375 86.58203125 42.7265625 C74.12102591 27.8470626 56.07908871 18.17565673 36.77856445 15.875 C2.13971758 12.99767085 -30.39245786 14.68107981 -56.09765625 40.8828125 Z M-8.46875 102.203125 C-14.71208725 111.28434281 -15.84012424 119.74631721 -14.09375 130.515625 C-12.0628154 137.5110664 -6.13542063 143.97505241 -0.01953125 147.69140625 C8.0921654 151.37854109 15.45672925 152.42347917 24.03125 149.640625 C32.54535519 146.279794 38.56771606 140.4533995 42.53125 132.203125 C45.13321092 124.27897128 44.51999181 115.27117682 41.09375 107.765625 C36.98029397 100.50658495 30.77067732 95.19069134 22.75390625 92.640625 C11.2604793 90.37829843 -0.76615795 92.90753946 -8.46875 102.203125 Z M-76.46875 114.203125 C-76.46875 118.823125 -76.46875 123.443125 -76.46875 128.203125 C-71.51875 128.203125 -66.56875 128.203125 -61.46875 128.203125 C-61.46875 133.483125 -61.46875 138.763125 -61.46875 144.203125 C-66.41875 144.203125 -71.36875 144.203125 -76.46875 144.203125 C-76.54359227 151.88539566 -76.59767643 159.56744832 -76.63354492 167.25 C-76.64851733 169.8568085 -76.66890242 172.46359232 -76.69506836 175.0703125 C-76.97776489 195.83340664 -76.97776489 195.83340664 -73.46875 216.203125 C-73.25484619 217.01136719 -73.04094238 217.81960937 -72.82055664 218.65234375 C-66.27401921 240.81716214 -50.5352725 260.14880731 -30.30175781 271.24316406 C-7.45099502 283.21029236 16.5111244 286.5557251 41.46875 279.078125 C53.80950298 275.14880535 64.92451053 268.92261783 74.53125 260.203125 C75.48515625 259.36523438 76.4390625 258.52734375 77.421875 257.6640625 C94.42053591 242.14795447 104.46585809 219.92942165 105.7056427 196.97415161 C105.76031909 193.57470913 105.75673802 190.18098574 105.7265625 186.78125 C105.7237326 185.55525085 105.72090271 184.32925171 105.71798706 183.06610107 C105.70689607 179.19500482 105.68181246 175.32414995 105.65625 171.453125 C105.64620587 168.8098992 105.63708254 166.16666974 105.62890625 163.5234375 C105.60699314 157.08325259 105.57362781 150.64320605 105.53125 144.203125 C98.23599902 144.00003461 90.94147815 143.86008402 83.64404297 143.76367188 C81.16264608 143.72347681 78.68143824 143.66890968 76.20068359 143.59960938 C72.63071069 143.50238945 69.06324398 143.45715709 65.4921875 143.421875 C64.38571869 143.38058472 63.27924988 143.33929443 62.13925171 143.29675293 C56.35793582 143.19240167 56.35793582 143.19240167 51.52586365 145.9622345 C50.01061245 147.97855981 48.76266397 150.00596083 47.53125 152.203125 C39.61509201 160.88075711 28.73842028 165.34948007 17.171875 166.421875 C3.08944263 166.96005713 -7.96163864 161.81940689 -18.171875 152.6171875 C-20.46875 150.203125 -20.46875 150.203125 -22.03125 146.9375 C-24.14808468 144.00629708 -24.14808468 144.00629708 -26.93652344 143.72607422 C-30.05121487 143.61126824 -33.10555336 143.6809557 -36.21875 143.828125 C-37.29769531 143.85519531 -38.37664062 143.88226563 -39.48828125 143.91015625 C-42.14929179 143.98080255 -44.80927438 144.08841918 -47.46875 144.203125 C-47.46875 138.923125 -47.46875 133.643125 -47.46875 128.203125 C-41.85875 128.203125 -36.24875 128.203125 -30.46875 128.203125 C-30.46875 123.583125 -30.46875 118.963125 -30.46875 114.203125 C-45.64875 114.203125 -60.82875 114.203125 -76.46875 114.203125 Z M59.53125 114.203125 C59.53125 118.823125 59.53125 123.443125 59.53125 128.203125 C74.71125 128.203125 89.89125 128.203125 105.53125 128.203125 C105.53125 123.583125 105.53125 118.963125 105.53125 114.203125 C90.35125 114.203125 75.17125 114.203125 59.53125 114.203125 Z M-109.46875 147.203125 C-111.61257368 151.49077237 -110.69572503 157.19044898 -110.70898438 161.95166016 C-110.71868158 164.06322752 -110.7497007 166.17381774 -110.78125 168.28515625 C-110.7877812 169.63020256 -110.79303121 170.97525583 -110.796875 172.3203125 C-110.8062207 173.54347168 -110.81556641 174.76663086 -110.82519531 176.02685547 C-110.44088065 179.4514676 -109.90774643 180.8148517 -107.46875 183.203125 C-103.09842968 184.83558053 -103.09842968 184.83558053 -92.46875 184.203125 C-92.46875 171.003125 -92.46875 157.803125 -92.46875 144.203125 C-103.72558946 143.17413349 -103.72558946 143.17413349 -109.46875 147.203125 Z M121.53125 144.203125 C121.53125 157.403125 121.53125 170.603125 121.53125 184.203125 C132.78808946 185.23211651 132.78808946 185.23211651 138.53125 181.203125 C140.67507368 176.91547763 139.75822503 171.21580102 139.77148438 166.45458984 C139.78118158 164.34302248 139.8122007 162.23243226 139.84375 160.12109375 C139.8502812 158.77604744 139.85553121 157.43099417 139.859375 156.0859375 C139.8687207 154.86277832 139.87806641 153.63961914 139.88769531 152.37939453 C139.50338065 148.9547824 138.97024643 147.5913983 136.53125 145.203125 C132.16092968 143.57066947 132.16092968 143.57066947 121.53125 144.203125 Z M-34.46875 287.203125 C-35.42693061 294.03459788 -36.38038428 301.00604916 -32.21875 306.92578125 C-29.72462719 309.97132143 -26.98611431 312.76672233 -24.17529297 315.51953125 C-21.44212905 318.21594017 -18.87393117 321.06014859 -16.28125 323.890625 C-15.77803223 324.42985596 -15.27481445 324.96908691 -14.75634766 325.5246582 C-11.72820068 328.77489567 -8.86873136 332.10555128 -6.09375 335.578125 C-1.69734553 341.06957486 3.07662559 346.16155378 7.92333984 351.25341797 C8.5055127 351.86717285 9.08768555 352.48092773 9.6875 353.11328125 C10.21150391 353.66121338 10.73550781 354.20914551 11.27539062 354.77368164 C12.53125 356.203125 12.53125 356.203125 13.53125 358.203125 C15.62556517 358.43784176 15.62556517 358.43784176 16.94140625 356.8046875 C17.75931641 355.82628906 17.75931641 355.82628906 18.59375 354.828125 C21.31048786 351.62766155 24.07460219 348.49006437 26.90625 345.390625 C29.95983867 342.01371518 32.87554205 338.57095368 35.71875 335.015625 C39.46404402 330.37828197 43.44323301 326.03449578 47.53125 321.703125 C48.73222952 320.41058229 49.9327578 319.11762015 51.1328125 317.82421875 C53.18515308 315.61608425 55.27081919 313.46685224 57.4296875 311.36328125 C62.67914244 305.85714949 64.22631734 301.97131013 64.09375 294.515625 C63.97904106 292.06145738 63.77983746 289.64910288 63.53125 287.203125 C62.33371094 287.67363281 61.13617188 288.14414062 59.90234375 288.62890625 C27.55865267 301.10528461 -2.48645992 300.36278568 -34.46875 287.203125 Z M72.83203125 316.671875 C67.75390396 321.85974571 62.9374556 327.19929447 58.234375 332.72753906 C52.81666048 339.09409782 47.38869827 345.4337082 41.71875 351.578125 C37.09625539 356.58323906 37.09625539 356.58323906 32.53125 361.640625 C32.015625 362.21683594 31.5 362.79304688 30.96875 363.38671875 C29.26273699 365.54241453 27.90261517 367.82364317 26.53125 370.203125 C33.66354683 376.81119111 40.9480816 383.11262049 48.53125 389.203125 C49.4696875 389.97527344 50.408125 390.74742187 51.375 391.54296875 C52.72078125 392.64318359 52.72078125 392.64318359 54.09375 393.765625 C55.30224609 394.75755859 55.30224609 394.75755859 56.53515625 395.76953125 C58.39239973 397.39757208 58.39239973 397.39757208 60.53125 397.203125 C68.0659294 382.48105463 75.58912918 367.75316302 83.09710693 353.01745605 C84.37868855 350.50250827 85.66119409 347.98803397 86.94384766 345.47363281 C88.81450936 341.80423645 90.67448791 338.12957392 92.53125 334.453125 C93.0574292 333.42203613 93.5836084 332.39094727 94.12573242 331.32861328 C94.58955322 330.4054834 95.05337402 329.48235352 95.53125 328.53125 C95.923125 327.7568457 96.315 326.98244141 96.71875 326.18457031 C97.72094811 324.09743462 97.72094811 324.09743462 97.53125 321.203125 C94.07414448 320.19884608 90.61537303 319.2004306 87.15625 318.203125 C86.17140625 317.91695313 85.1865625 317.63078125 84.171875 317.3359375 C83.23085938 317.06523437 82.28984375 316.79453125 81.3203125 316.515625 C80.45100098 316.26425781 79.58168945 316.01289063 78.68603516 315.75390625 C75.47625675 314.8824391 75.47625675 314.8824391 72.83203125 316.671875 Z M-52.35546875 316.41796875 C-53.29326172 316.69189453 -54.23105469 316.96582031 -55.19726562 317.24804688 C-56.17373047 317.54259766 -57.15019531 317.83714844 -58.15625 318.140625 C-59.14431641 318.43130859 -60.13238281 318.72199219 -61.15039062 319.02148438 C-63.5922196 319.74105717 -66.03140482 320.46853493 -68.46875 321.203125 C-67.87290143 324.8448013 -66.87274898 327.76621504 -65.21899414 331.05908203 C-64.75082779 331.99841583 -64.28266144 332.93774963 -63.80030823 333.9055481 C-63.28999557 334.9138266 -62.77968292 335.9221051 -62.25390625 336.9609375 C-61.72413681 338.01860321 -61.19436737 339.07626892 -60.64854431 340.16598511 C-59.52232173 342.41170537 -58.39322089 344.65598415 -57.26147461 346.89892578 C-55.56347221 350.26426255 -53.87367002 353.63360493 -52.18554688 357.00390625 C-46.33975508 368.65289599 -40.40394337 380.24812762 -34.29467773 391.76123047 C-33.33679675 393.56684701 -32.3828383 395.37494841 -31.46875 397.203125 C-26.46986969 395.67884521 -23.27092464 392.68812387 -19.46875 389.265625 C-18.14543555 388.09142798 -16.8211981 386.91827045 -15.49609375 385.74609375 C-14.8294873 385.15489746 -14.16288086 384.56370117 -13.47607422 383.95458984 C-11.54358138 382.26841816 -9.58204292 380.62851168 -7.59765625 379.00390625 C-6.99630859 378.50947021 -6.39496094 378.01503418 -5.77539062 377.50561523 C-4.63235667 376.57010018 -3.48406811 375.6409606 -2.33007812 374.71899414 C-0.98695242 373.61167954 0.28049549 372.41380475 1.53125 371.203125 C1.53125 367.6606614 1.10278892 367.38351561 -1.21875 364.890625 C-4.10308928 361.72134092 -6.9234396 358.51485884 -9.69555664 355.24780273 C-15.00199081 348.99558322 -20.44500924 342.8956385 -26.01171875 336.875 C-28.07182512 334.63475715 -30.0963072 332.37403627 -32.09375 330.078125 C-32.62742188 329.46582031 -33.16109375 328.85351562 -33.7109375 328.22265625 C-35.071964 326.65898803 -36.43093697 325.09353228 -37.7890625 323.52734375 C-38.59085938 322.61597656 -39.39265625 321.70460938 -40.21875 320.765625 C-40.95609375 319.92128906 -41.6934375 319.07695312 -42.453125 318.20703125 C-45.86979658 314.81022404 -48.01925991 315.13024612 -52.35546875 316.41796875 Z M-109.34375 333.078125 C-110.35267807 333.38274155 -110.35267807 333.38274155 -111.38198853 333.69351196 C-123.46314242 337.35850437 -135.07767351 341.73051475 -146.46875 347.203125 C-147.55929688 347.72519531 -148.64984375 348.24726563 -149.7734375 348.78515625 C-166.96708641 357.62551681 -181.92471244 371.26811939 -187.96875 390.015625 C-190.27809943 398.10903944 -190.61861388 406.30223632 -190.58227539 414.67016602 C-190.58242142 415.56880875 -190.58256744 416.46745148 -190.5827179 417.39332581 C-190.58202733 420.33125312 -190.57427543 423.26911516 -190.56640625 426.20703125 C-190.56453902 428.2568305 -190.56311656 430.3066302 -190.56211853 432.35643005 C-190.55831733 437.72723645 -190.54850773 443.09801541 -190.53741455 448.46881104 C-190.52534079 454.92587975 -190.52078677 461.38295769 -190.51496124 467.84003448 C-190.50529453 477.62775035 -190.48612122 487.41540612 -190.46875 497.203125 C-170.99875 497.203125 -151.52875 497.203125 -131.46875 497.203125 C-131.46875 481.693125 -131.46875 466.183125 -131.46875 450.203125 C-126.18875 450.203125 -120.90875 450.203125 -115.46875 450.203125 C-115.46875 465.713125 -115.46875 481.223125 -115.46875 497.203125 C-88.07875 497.203125 -60.68875 497.203125 -32.46875 497.203125 C-37.43179525 490.56106603 -37.43179525 490.56106603 -42.78125 484.390625 C-46.71335478 480.08434664 -50.42366955 475.64353681 -54.09375 471.11328125 C-56.64364009 467.98882711 -59.23498544 464.90339696 -61.84375 461.828125 C-62.30362305 461.28583252 -62.76349609 460.74354004 -63.23730469 460.18481445 C-64.64707712 458.52364732 -66.05774504 456.86324531 -67.46875 455.203125 C-72.66094022 449.09424465 -77.84998581 442.98801859 -82.90625 436.765625 C-86.36149439 432.51919764 -89.89580568 428.35023239 -93.46875 424.203125 C-98.56801752 418.28256955 -103.5931738 412.31053467 -108.46875 406.203125 C-109.28573868 405.27613297 -109.28573868 405.27613297 -110.11923218 404.33041382 C-111.46875 402.203125 -111.46875 402.203125 -111.46182251 400.13613892 C-111.27671112 399.38561249 -111.09159973 398.63508606 -110.90087891 397.86181641 C-110.6897345 396.9793927 -110.47859009 396.09696899 -110.26104736 395.18780518 C-109.99958923 394.20286072 -109.7381311 393.21791626 -109.46875 392.203125 C-109.18811707 391.11908386 -108.90748413 390.03504272 -108.61834717 388.91815186 C-107.62367415 385.15925303 -106.5932917 381.41097623 -105.5546875 377.6640625 C-105.17609807 376.2883831 -104.79781773 374.91261861 -104.41983032 373.53677368 C-103.43324468 369.94887601 -102.44251708 366.36213539 -101.4508667 362.77563477 C-100.43605162 359.10242657 -99.42523501 355.42811851 -98.4140625 351.75390625 C-96.43616184 344.56924168 -94.45387592 337.385797 -92.46875 330.203125 C-98.01777671 328.35344943 -103.88906638 331.41257338 -109.34375 333.078125 Z M-79.46875 340.203125 C-81.64074575 347.77879494 -83.79326755 355.35980209 -85.93237305 362.94482422 C-86.66089189 365.52465708 -87.39554332 368.10262379 -88.13549805 370.67919922 C-89.19710898 374.38448554 -90.24264204 378.09398943 -91.28515625 381.8046875 C-91.61842422 382.95490387 -91.9516922 384.10512024 -92.2950592 385.29019165 C-92.59544601 386.37085907 -92.89583282 387.45152649 -93.20532227 388.56494141 C-93.47401627 389.51092194 -93.74271027 390.45690247 -94.01954651 391.43154907 C-94.54110747 394.64956907 -94.24550382 397.04710524 -93.46875 400.203125 C-91.74647652 402.66972385 -91.74647652 402.66972385 -89.46875 404.890625 C-86.22286596 408.32052767 -83.11919017 411.77517915 -80.15625 415.453125 C-76.66442292 419.76763385 -73.09298581 424.00022011 -69.46875 428.203125 C-65.91407786 432.32768111 -62.4008237 436.47520812 -58.96875 440.703125 C-54.58162098 446.10388672 -50.05651588 451.377802 -45.51953125 456.65234375 C-39.25542505 463.93558639 -33.03684463 471.25542803 -26.96875 478.703125 C-26.24171875 479.57582031 -25.5146875 480.44851563 -24.765625 481.34765625 C-23.06597552 483.46065586 -21.48554938 485.56880064 -19.921875 487.77734375 C-15.1515609 494.55610845 -15.1515609 494.55610845 -7.87890625 498.0234375 C-4.63590176 498.01639514 -1.66643338 497.68701372 1.53125 497.203125 C-4.58812561 484.04339431 -11.02679196 471.07317011 -17.66278076 458.16687012 C-20.3201901 452.99840546 -22.96855739 447.82531146 -25.6171875 442.65234375 C-26.38931076 441.14500168 -26.38931076 441.14500168 -27.17703247 439.60720825 C-31.5757831 431.01220088 -35.91612707 422.389812 -40.18652344 413.73022461 C-43.08897278 407.86942609 -46.11081261 402.07968778 -49.171875 396.30078125 C-52.76339923 389.51296441 -56.26320768 382.68618225 -59.6796875 375.80859375 C-60.31920853 374.5212886 -60.31920853 374.5212886 -60.97164917 373.20797729 C-62.70812479 369.70754511 -64.44136563 366.20553103 -66.17138672 362.7019043 C-67.46229612 360.08987071 -68.75818987 357.48035703 -70.0546875 354.87109375 C-70.4401474 354.08671432 -70.8256073 353.3023349 -71.2227478 352.4941864 C-73.374106 348.17170873 -75.62695672 344.11321198 -78.46875 340.203125 C-78.79875 340.203125 -79.12875 340.203125 -79.46875 340.203125 Z M107.53125 340.203125 C99.69585758 353.94214757 92.54235088 367.96624946 85.53125 382.140625 C83.49246426 386.25534167 81.45091103 390.3686684 79.40625 394.48046875 C78.90806763 395.48242279 78.40988525 396.48437683 77.89660645 397.51669312 C74.40771141 404.50857555 70.80869882 411.4347869 67.1451416 418.33641052 C63.03873812 426.08901531 59.12547039 433.93389214 55.22717285 441.79269409 C49.4892326 453.3577449 43.72635 464.89832369 37.63525391 476.2824707 C33.99117579 483.12849636 30.7214402 490.13611425 27.53125 497.203125 C32.15741404 498.22527254 35.91847755 498.3769325 40.53125 497.203125 C45.18940105 493.77219973 48.55014148 488.83621705 51.98339844 484.24267578 C54.29034442 481.20289238 56.7861981 478.33848152 59.28125 475.453125 C62.55362536 471.59229361 65.77577314 467.69235597 68.96875 463.765625 C72.92633188 458.90183475 76.99667446 454.14431269 81.08959961 449.39477539 C84.12070289 445.87013581 87.10110316 442.31272618 90.03125 438.703125 C93.4633348 434.47519445 96.97689176 430.32796331 100.53125 426.203125 C104.90149146 421.12791705 109.22021867 416.01997721 113.4140625 410.796875 C114.8694112 409.01393858 116.3672097 407.26508441 117.8984375 405.546875 C118.64351563 404.6909375 119.38859375 403.835 120.15625 402.953125 C120.82914062 402.20546875 121.50203125 401.4578125 122.1953125 400.6875 C125.39985893 394.72816805 121.07559842 385.47445118 119.37109375 379.36328125 C119.06176407 378.24118759 118.75243439 377.11909393 118.43373108 375.96299744 C117.44943769 372.39607751 116.4591823 368.83084464 115.46875 365.265625 C114.79843343 362.84060386 114.12850719 360.41547479 113.45898438 357.99023438 C111.82092555 352.05994026 110.17797479 346.13101823 108.53125 340.203125 C108.20125 340.203125 107.87125 340.203125 107.53125 340.203125 Z M7.46875 386.640625 C6.48782618 387.56998195 5.50469688 388.49701579 4.51953125 389.421875 C4.02146973 389.89109375 3.5234082 390.3603125 3.01025391 390.84375 C-0.04722268 393.65392326 -3.3136684 396.21257069 -6.54296875 398.8203125 C-9.94946339 401.59462723 -13.30620695 404.42362151 -16.65625 407.265625 C-17.23358887 407.75538818 -17.81092773 408.24515137 -18.40576172 408.74975586 C-19.76070319 409.90015843 -21.11482052 411.05153157 -22.46875 412.203125 C-21.8614139 417.24095609 -19.58908783 421.24814316 -17.26953125 425.67578125 C-16.84215668 426.50404419 -16.4147821 427.33230713 -15.97445679 428.18566895 C-14.58212041 430.88181871 -13.1815943 433.57362722 -11.78125 436.265625 C-9.86450709 439.97257626 -7.95199587 443.68170678 -6.0390625 447.390625 C-5.325438 448.77200401 -5.325438 448.77200401 -4.59739685 450.18128967 C-0.3844005 458.34342427 3.75034184 466.54297562 7.84375 474.765625 C8.42922607 475.94068604 9.01470215 477.11574707 9.61791992 478.32641602 C10.92414486 480.95110735 12.22881872 483.57654968 13.53125 486.203125 C14.19125 486.203125 14.85125 486.203125 15.53125 486.203125 C15.82224579 485.61891281 16.11324158 485.03470062 16.41305542 484.43278503 C19.49384649 478.24875557 22.57765913 472.06623927 25.66308594 465.88452148 C26.80803799 463.58964629 27.95226656 461.29440997 29.09570312 458.9987793 C30.75712276 455.66355224 32.42080136 452.32946679 34.0859375 448.99609375 C34.63038513 447.90561737 35.17483276 446.81514099 35.73577881 445.69161987 C39.55032146 438.08174081 43.46758952 430.53241302 47.55563354 423.06547546 C50.37445023 417.91271075 50.37445023 417.91271075 51.53125 412.203125 C49.83609525 409.92200448 49.83609525 409.92200448 47.28125 407.953125 C46.353125 407.17066406 45.425 406.38820313 44.46875 405.58203125 C43.499375 404.79699219 42.53 404.01195312 41.53125 403.203125 C40.665 402.49027344 39.79875 401.77742188 38.90625 401.04296875 C37.12535087 399.58273747 35.3373186 398.13117092 33.54296875 396.6875 C31.27449708 394.81623154 29.06131033 392.91976465 26.86328125 390.96875 C25.92500488 390.14177612 25.92500488 390.14177612 24.96777344 389.2980957 C23.73858641 388.21094735 22.5162864 387.11595133 21.30175781 386.01245117 C15.50107804 380.90403017 12.82523549 381.45769279 7.46875 386.640625 Z " fill="#000000" transform="translate(241.46875,-0.203125)"/>
<path d="M0 0 C5.28 0 10.56 0 16 0 C16 5.28 16 10.56 16 16 C10.72 16 5.44 16 0 16 C0 10.72 0 5.44 0 0 Z " fill="#000000" transform="translate(248,113)"/>
<path d="M0 0 C5.28 0 10.56 0 16 0 C16 5.28 16 10.56 16 16 C10.72 16 5.44 16 0 16 C0 10.72 0 5.44 0 0 Z " fill="#000000" transform="translate(302,48)"/>
<path d="M0 0 C5.28 0 10.56 0 16 0 C16 5.28 16 10.56 16 16 C10.72 16 5.44 16 0 16 C0 10.72 0 5.44 0 0 Z " fill="#000000" transform="translate(272,33)"/>
<path d="M0 0 C5.28 0 10.56 0 16 0 C16 4.95 16 9.9 16 15 C10.72 15 5.44 15 0 15 C0 10.05 0 5.1 0 0 Z " fill="#000000" transform="translate(341,497)"/>
</svg>
