<?xml version="1.0" standalone="no"?>
<!DOCTYPE svg PUBLIC "-//W3C//DTD SVG 20010904//EN"
 "http://www.w3.org/TR/2001/REC-SVG-20010904/DTD/svg10.dtd">
<svg version="1.0" xmlns="http://www.w3.org/2000/svg"
 width="512.000000pt" height="512.000000pt" viewBox="0 0 512.000000 512.000000"
 preserveAspectRatio="xMidYMid meet">

<g transform="translate(0.000000,512.000000) scale(0.100000,-0.100000)"
fill="#000000" stroke="none">
<path d="M3822 4943 c-11 -10 -41 -68 -66 -129 -24 -61 -77 -176 -116 -255
-441 -880 -1059 -1467 -1749 -1660 -62 -17 -114 -29 -115 -27 -2 1 -22 39 -45
84 -49 96 -123 174 -201 212 -47 23 -67 27 -140 27 -75 -1 -92 -5 -145 -32
-68 -35 -161 -127 -194 -191 -40 -79 -54 -158 -48 -268 13 -210 96 -442 211
-593 113 -147 184 -293 233 -479 21 -82 26 -119 26 -237 0 -121 -4 -153 -27
-239 -72 -267 -216 -574 -392 -838 -41 -61 -73 -112 -72 -113 2 -1 29 -23 62
-48 l58 -47 18 22 c37 49 140 208 189 293 133 230 262 547 307 753 23 106 23
319 1 435 -18 89 -65 234 -97 297 -10 19 -21 45 -24 58 -6 19 -4 22 19 22 71
0 153 74 179 161 27 90 27 89 -62 89 l-79 0 -12 -40 c-22 -75 -105 -74 -188 3
-122 113 -226 480 -180 638 31 106 114 187 201 196 105 12 211 -90 250 -241
21 -78 38 -96 92 -96 56 0 284 59 399 103 549 210 1013 612 1409 1219 122 188
273 470 352 658 l11 25 26 -41 c14 -22 89 -155 166 -294 150 -271 213 -413
232 -529 16 -97 3 -152 -66 -266 -64 -106 -84 -159 -92 -240 -10 -118 45 -266
154 -408 26 -34 120 -137 209 -228 89 -92 170 -181 178 -198 24 -45 31 -114
16 -165 -17 -63 -62 -112 -140 -151 -77 -39 -115 -78 -131 -138 -37 -135 -92
-304 -102 -313 -7 -6 -88 -41 -182 -78 -93 -37 -178 -76 -187 -88 -18 -21 -23
-54 -12 -83 4 -9 86 -70 184 -135 l177 -118 -23 -69 c-34 -99 -31 -152 13
-259 32 -77 37 -100 37 -169 1 -127 -46 -209 -149 -263 -61 -31 -186 -41 -303
-23 -272 43 -769 208 -1095 365 -361 175 -667 417 -824 652 l-60 91 -67 -36
c-36 -20 -66 -40 -66 -45 0 -5 24 -45 54 -90 166 -249 434 -473 794 -663 56
-30 102 -58 102 -61 0 -4 -31 -113 -69 -243 l-68 -237 73 -21 c40 -12 74 -21
77 -21 2 0 32 100 67 222 35 123 66 226 69 230 3 3 49 -12 101 -33 229 -96
653 -226 865 -265 109 -20 284 -15 362 10 83 26 171 92 220 164 59 87 78 154
78 277 -1 92 -3 107 -38 190 -20 49 -37 103 -37 121 0 32 30 97 93 198 43 69
47 111 16 166 l-21 37 21 41 c30 59 28 129 -5 178 l-27 39 23 75 c13 41 33
109 45 150 l22 75 63 34 c170 91 255 276 205 447 -25 87 -44 114 -209 284
-243 252 -326 372 -341 494 -9 70 5 117 66 217 66 107 86 158 94 244 9 93 -19
229 -74 360 -78 186 -449 832 -491 855 -28 15 -65 12 -88 -7z m556 -3409 c-14
-34 -19 -60 -16 -95 l5 -47 -78 51 c-43 29 -79 55 -79 58 0 5 164 76 182 78 4
1 -2 -20 -14 -45z"/>
<path d="M1354 4886 c-479 -251 -877 -635 -1059 -1019 -93 -196 -138 -370
-138 -532 1 -191 15 -258 277 -1280 41 -159 86 -360 100 -445 60 -357 52 -797
-20 -1110 -19 -83 -62 -215 -85 -261 l-18 -37 67 -41 c79 -48 75 -51 123 73
102 264 150 652 129 1042 -17 311 -46 463 -205 1069 -202 771 -231 934 -201
1106 81 453 437 896 987 1225 63 38 143 82 177 98 69 33 68 27 26 122 -13 30
-27 54 -31 54 -5 0 -62 -29 -129 -64z"/>
<path d="M2510 4884 c-8 -1 -36 -6 -62 -9 l-48 -6 0 -112 c0 -296 -121 -551
-312 -660 -21 -12 -38 -26 -38 -30 0 -7 58 -127 66 -136 2 -2 27 11 56 29 268
164 403 467 390 878 -2 54 -5 56 -52 46z"/>
<path d="M3055 4723 c-16 -2 -45 -6 -62 -9 l-33 -5 0 -88 c0 -356 -177 -708
-455 -907 -36 -25 -64 -49 -62 -52 2 -4 21 -35 42 -69 l38 -62 61 42 c86 60
218 188 288 281 153 204 248 496 248 769 0 117 5 109 -65 100z"/>
<path d="M1660 3958 c-85 -22 -156 -40 -157 -42 -1 -1 2 -18 7 -37 5 -19 14
-53 19 -75 l11 -42 157 40 c87 22 159 40 160 42 3 2 -34 147 -39 150 -2 2 -73
-15 -158 -36z"/>
<path d="M4264 2390 c-32 -17 -75 -43 -94 -60 l-35 -29 56 -57 57 -57 33 25
c19 14 50 33 69 43 39 19 130 103 130 120 0 21 -58 45 -107 45 -36 0 -67 -9
-109 -30z"/>
<path d="M2307 2069 c-16 -9 -193 -347 -185 -354 8 -7 129 -65 136 -65 5 0 21
27 37 60 16 33 31 60 34 60 3 0 21 -37 38 -83 58 -147 120 -244 218 -343 100
-100 159 -142 302 -214 88 -44 425 -182 638 -262 167 -63 380 -138 391 -138
10 0 54 112 54 136 0 6 -73 37 -162 69 -204 72 -705 270 -818 322 -218 102
-338 210 -427 388 -39 76 -86 195 -78 195 3 0 37 -16 75 -35 38 -19 71 -35 73
-35 6 0 71 140 66 144 -2 2 -77 40 -166 85 -162 81 -192 90 -226 70z"/>
</g>
</svg>
