<?xml version="1.0" encoding="UTF-8"?>
<svg version="1.1" xmlns="http://www.w3.org/2000/svg" width="512" height="512">
<path d="M0 0 C1.39255005 0.01135986 1.39255005 0.01135986 2.81323242 0.02294922 C34.8162834 0.76475076 64.48897757 15.52631891 86.5 38.4375 C93.40088214 46.00957905 99.28711784 54.28430178 104.75 62.9375 C105.22832275 63.6787915 105.70664551 64.42008301 106.19946289 65.18383789 C108.98071723 69.74806663 110.18803963 72.94006332 109.5 78.4375 C108 80.875 108 80.875 105.5 82.4375 C100.59560398 83.38673794 100.59560398 83.38673794 97.5 82.4375 C94.87396233 80.21494208 93.28902342 77.34831199 91.5 74.4375 C73.03422906 45.65589503 50.55215207 26.01607514 16.48901367 18.5534668 C13.06545025 17.84644728 10.01077354 17.4375 6.5 17.4375 C7.02207031 18.03433594 7.54414063 18.63117188 8.08203125 19.24609375 C44.23175543 61.85338687 65.41639167 122.71519766 65.703125 178.37890625 C65.71013931 179.29617493 65.71715363 180.2134436 65.72438049 181.1585083 C65.7417956 184.10572271 65.74823376 187.05273601 65.75 190 C65.75067474 191.00815765 65.75134949 192.01631531 65.75204468 193.05502319 C65.73573358 208.39370113 65.23949522 223.30746837 62.5 238.4375 C62.32839355 239.41799316 62.15678711 240.39848633 61.97998047 241.40869141 C55.16478094 279.43129255 41.44708024 316.98499628 14.5 345.4375 C33.90611283 340.53932248 51.53902625 330.58293316 66.5 317.4375 C67.74330078 316.39335938 67.74330078 316.39335938 69.01171875 315.328125 C73.82906191 311.18384862 78.13420231 306.764566 82.25 301.9375 C82.68570313 301.42799805 83.12140625 300.91849609 83.5703125 300.39355469 C84.43911374 299.34901865 85.2886594 298.28820059 86.11938477 297.21313477 C87.13633049 295.90522208 88.20518291 294.63727277 89.30053711 293.39428711 C91.14155315 291.09966905 92.46607851 289.19628891 93.5 286.4375 C93.0056817 282.54690651 91.38246966 279.4410768 89.5625 276 C88.6939537 274.23304706 87.8306338 272.46351513 86.97265625 270.69140625 C86.33481201 269.38840576 86.33481201 269.38840576 85.68408203 268.05908203 C78.08290205 251.22991283 78.41665367 230.69303016 84.5 213.4375 C87.8769681 204.9443774 92.14494243 195.19664885 99.5 189.4375 C102.98116016 188.11465914 104.44332507 188.02107638 107.87890625 189.375 C111.73866791 192.4121895 113.27065478 196.23214498 115.3125 200.625 C115.71919922 201.46998047 116.12589844 202.31496094 116.54492188 203.18554688 C117.54293457 205.26376154 118.52727316 207.34736154 119.5 209.4375 C129.14412117 180.5051365 119.21675948 138.76284329 109.00341797 111.36645508 C107.0218143 105.8875989 105.88965796 102.12283903 107.5 96.4375 C109.73225897 93.874536 111.08051369 93.49997669 114.4375 93 C118.47235387 93.5764077 119.65031836 94.48340254 122.5 97.4375 C124.19021138 100.95019347 125.34127611 104.59559622 126.5 108.3125 C126.84248779 109.38387207 127.18497559 110.45524414 127.5378418 111.55908203 C138.14294648 145.4904205 140.95360214 179.84886589 136.44921875 215.1015625 C136.32119873 216.11500732 136.19317871 217.12845215 136.0612793 218.17260742 C135.5 221.4375 135.5 221.4375 134.43286133 225.1027832 C130.92910041 237.50164651 134.97065414 245.3568911 140.8125 256.375 C141.62972223 257.98687465 142.44289795 259.60080746 143.25195312 261.21679688 C144.45525169 263.61632523 145.6662711 266.00918006 146.91140747 268.38729858 C148.9736002 272.3287414 150.88677661 276.26247393 152.57568359 280.37939453 C152.90867966 281.16754044 153.24167572 281.95568634 153.58476257 282.76771545 C154.20594236 284.25789605 154.79879547 285.76032874 155.35725403 287.27513123 C156.25001118 289.5931216 156.25001118 289.5931216 158.5 292.4375 C160.8517139 293.11947117 162.90796533 293.29907592 165.35298157 293.32530212 C168.97404154 293.51452977 170.84186678 295.08142738 173.5 297.4375 C177.12207567 302.51910029 179.98165103 308.08764676 182.79296875 313.64453125 C183.18045792 314.40287766 183.56794708 315.16122406 183.96717834 315.94255066 C184.7878894 317.54953641 185.60702912 319.15732552 186.42468262 320.76586914 C188.55589696 324.95825308 190.69872753 329.14469835 192.83984375 333.33203125 C193.46217392 334.55033127 193.46217392 334.55033127 194.09707642 335.79324341 C196.94325323 341.36173171 199.82038332 346.91237968 202.75 352.4375 C206.62191944 359.76111717 210.47813116 367.09280293 214.30383301 374.44067383 C214.96293117 375.70462995 215.62374724 376.96769214 216.28649902 378.22973633 C230.33563423 404.99325772 230.33563423 404.99325772 226.8359375 421.5859375 C223.51373177 431.89921964 217.02223544 439.38488528 207.5 444.4375 C199.19977439 448.61929305 189.32931232 448.72562519 180.37109375 446.74609375 C170.23523175 443.37687119 163.30063709 437.30685608 157.5 428.4375 C155.37797818 424.14119149 153.66844593 419.73903518 152 415.25 C151.54625 414.10080078 151.0925 412.95160156 150.625 411.76757812 C147.03174643 402.30789989 147.03174643 402.30789989 148.5 396.4375 C150.25863959 393.60413622 151.603962 393.40862167 154.875 392.5 C158.5 392.4375 158.5 392.4375 161.06811523 394.07836914 C163.75928826 396.68903121 164.74386024 398.62448281 166.03515625 402.12109375 C166.45216797 403.21357422 166.86917969 404.30605469 167.29882812 405.43164062 C167.71583984 406.56794922 168.13285156 407.70425781 168.5625 408.875 C169.39937796 411.12675279 170.24417619 413.37558109 171.09765625 415.62109375 C171.64691772 417.11467407 171.64691772 417.11467407 172.20727539 418.63842773 C174.70421538 424.04492763 177.8905396 427.277058 183.2265625 429.70703125 C188.89034275 431.52683693 194.39114934 431.24240858 199.8125 428.8125 C204.8699034 425.93131261 208.18439538 421.77432267 210.5 416.4375 C213.10794671 405.58764539 206.34377811 395.66705904 201.5 386.4375 C201.11521484 385.69532227 200.73042969 384.95314453 200.33398438 384.18847656 C198.3651948 380.392011 196.37046293 376.61015018 194.359375 372.8359375 C190.89204313 366.31546862 187.51158865 359.75011608 184.125 353.1875 C178.83544975 342.94271073 173.52393046 332.70982752 168.18017578 322.49316406 C167.72239746 321.61756836 167.26461914 320.74197266 166.79296875 319.83984375 C166.3961792 319.08179443 165.99938965 318.32374512 165.59057617 317.54272461 C164.54110641 315.51685093 163.51489367 313.48088095 162.5 311.4375 C155.39135133 313.50547052 148.90360041 316.50959612 142.26586914 319.74414062 C136.69796304 322.4375 136.69796304 322.4375 134.5 322.4375 C134.75579834 323.06914062 135.01159668 323.70078125 135.27514648 324.3515625 C138.38117121 332.03463189 141.4473655 339.73308118 144.5 347.4375 C144.95310547 348.57364746 145.40621094 349.70979492 145.87304688 350.88037109 C147.1603202 354.12265533 148.42675817 357.37232149 149.6875 360.625 C150.08573975 361.62080078 150.48397949 362.61660156 150.89428711 363.64257812 C154.25953867 372.43504477 154.25953867 372.43504477 152.5 377.4375 C150.375 379.875 150.375 379.875 147.5 381.4375 C143.9375 381.5625 143.9375 381.5625 140.5 380.4375 C136.50030361 375.48365554 134.46106159 369.78989196 132.20703125 363.88671875 C131.81553391 362.87333939 131.42403656 361.85996002 131.02067566 360.81587219 C130.19760503 358.67825268 129.378369 356.53915321 128.56274414 354.39868164 C127.31875193 351.14137027 126.05567107 347.89191362 124.79101562 344.64257812 C123.99101505 342.55774119 123.19214929 340.47246836 122.39453125 338.38671875 C122.01851273 337.42392502 121.6424942 336.46113129 121.25508118 335.46916199 C119.17135876 329.94517879 117.27665357 324.41959108 117.5 318.4375 C118.48422146 316.42968823 119.48234073 314.42857248 120.5 312.4375 C119.97562227 309.36333694 119.97562227 309.36333694 118.5 306.4375 C118.149375 305.385625 117.79875 304.33375 117.4375 303.25 C114.63597042 299.18326352 111.16143736 298.55155421 106.5 297.4375 C106.01273437 298.20191406 105.52546875 298.96632813 105.0234375 299.75390625 C81.56197497 335.20204327 45.31636084 356.61163399 4.54541016 366.10668945 C-0.17403578 366.86998012 -4.10491534 366.16537026 -8.375 363.9375 C-11.39877938 360.38011249 -12.28715979 357.07268683 -12.5 352.4375 C-11.09147478 346.26165867 -7.69188575 343.64131965 -2.95703125 339.6484375 C1.42418228 335.70604186 4.9330455 331.11123296 8.5 326.4375 C9.10545654 325.64448486 9.10545654 325.64448486 9.72314453 324.83544922 C28.63116691 299.83902885 38.74400365 271.26710591 44.75 240.6875 C44.97683472 239.53870361 44.97683472 239.53870361 45.20825195 238.36669922 C48.08496331 222.72427666 48.87807625 207.18265352 48.8125 191.3125 C48.80926727 189.89735107 48.80926727 189.89735107 48.80596924 188.45361328 C48.75284227 173.92691939 48.23172164 159.74192285 45.5 145.4375 C45.30664062 144.39384277 45.11328125 143.35018555 44.9140625 142.27490234 C38.72330454 109.73998529 27.45356781 78.37366344 9.5 50.4375 C9.06187988 49.75220215 8.62375977 49.0669043 8.17236328 48.36083984 C2.72282514 39.92455447 -3.08343506 32.28840181 -10.08984375 25.0859375 C-17.09201221 17.39149631 -17.09201221 17.39149631 -16.9375 12.375 C-16.40715587 7.60190286 -15.22443539 5.26860149 -11.984375 1.828125 C-8.11468032 -0.33793051 -4.36359195 -0.04975229 0 0 Z M101.5 214.4375 C100.84838988 216.31050025 100.20397805 218.1860055 99.5625 220.0625 C99.02302734 221.62871094 99.02302734 221.62871094 98.47265625 223.2265625 C93.03048362 241.192289 97.88170611 259.61627145 106.2265625 275.86328125 C109.17114264 280.95887589 113.01009202 282.73824277 118.5 284.4375 C128.39828756 288.7063491 131.33961396 294.70151464 135.5 304.4375 C138.14 303.1175 140.78 301.7975 143.5 300.4375 C139.80844868 290.67275134 135.25640844 281.34413673 130.75 271.9375 C129.0481281 268.37303994 127.34840023 264.80755839 125.6484375 261.2421875 C125.00559311 259.89512222 125.00559311 259.89512222 124.34976196 258.52084351 C119.99144032 249.38375132 115.67870349 240.22541693 111.375 231.0625 C110.36532918 228.91304554 109.35565215 226.76359406 108.34579468 224.61422729 C107.490395 222.7932937 106.63555689 220.97209634 105.78076172 219.15087891 C105.0357291 217.57247774 104.28056696 215.99863391 103.5 214.4375 C102.84 214.4375 102.18 214.4375 101.5 214.4375 Z " fill="#000000" transform="translate(256.5,56.5625)"/>
<path d="M0 0 C0.66 -0.02191406 1.32 -0.04382812 2 -0.06640625 C5.15504975 0.925709 6.20195395 2.84952219 8 5.5625 C8.51898193 8.70735168 8.51898193 8.70735168 8.54589844 12.28051758 C8.55623611 12.93473694 8.56657379 13.5889563 8.57722473 14.26300049 C8.606568 16.4112645 8.60814997 18.55858292 8.609375 20.70703125 C8.62436255 22.20205981 8.64109091 23.69707185 8.65948486 25.19206238 C8.70310686 29.11620866 8.72314577 33.04013161 8.73822021 36.96447754 C8.7578101 40.9731972 8.79977791 44.98167633 8.83984375 48.99023438 C8.91508989 56.84759322 8.96541493 64.70485746 9 72.5625 C14.61157967 71.85792275 14.61157967 71.85792275 19.90234375 70.00390625 C20.56556641 69.70033203 21.22878906 69.39675781 21.91210938 69.08398438 C22.91467773 68.60928711 22.91467773 68.60928711 23.9375 68.125 C37.2221819 61.87565885 51.65705055 60.1227159 66 64.125 C76.76788717 68.04183602 85.72867817 74.71169339 93 83.5625 C94.27734375 86.3671875 94.27734375 86.3671875 95 88.5625 C95.515625 88.3975 96.03125 88.2325 96.5625 88.0625 C99.89215473 87.3794939 102.60454442 87.20508362 106 87.5625 C109 89.625 109 89.625 111 92.5625 C110.92607229 96.85030723 110.3833231 98.98751534 108 102.5625 C107.34 102.5625 106.68 102.5625 106 102.5625 C106.56589844 103.68269531 107.13179688 104.80289063 107.71484375 105.95703125 C108.45583506 107.42963422 109.19671466 108.90229341 109.9375 110.375 C110.31068359 111.11298828 110.68386719 111.85097656 111.06835938 112.61132812 C111.42607422 113.32353516 111.78378906 114.03574219 112.15234375 114.76953125 C112.48226318 115.4241333 112.81218262 116.07873535 113.15209961 116.75317383 C114 118.5625 114 118.5625 115 121.5625 C116.216875 121.335625 117.43375 121.10875 118.6875 120.875 C121.87858396 120.46762758 122.886164 120.51163711 125.9375 121.875 C128.78120993 124.20167176 128.94983463 125.18267646 129.4375 128.875 C129 132.5625 129 132.5625 123 137.5625 C125.64 144.1625 128.28 150.7625 131 157.5625 C133.97 157.5625 136.94 157.5625 140 157.5625 C142.0625 159.125 142.0625 159.125 143 161.5625 C143.39203556 165.22149856 143.46999413 167.62251173 141.8125 170.9375 C139.58744277 172.9323789 137.90092074 173.07822191 135 173.5625 C135.27714844 174.5525 135.55429687 175.5425 135.83984375 176.5625 C137.66945747 183.19526937 139.43812658 189.67955055 140 196.5625 C141.0725 196.48 142.145 196.3975 143.25 196.3125 C147 196.5625 147 196.5625 149.4375 198.125 C151.58879747 201.48102406 151.48947291 203.64671671 151 207.5625 C149.8125 209.9375 149.8125 209.9375 148 211.5625 C145.3125 212.3125 145.3125 212.3125 143 212.5625 C143.165 213.738125 143.33 214.91375 143.5 216.125 C144.27271604 222.91619451 144.0809125 229.73887939 144 236.5625 C145.39798828 236.27439453 145.39798828 236.27439453 146.82421875 235.98046875 C150 235.5625 150 235.5625 152.8125 236.875 C155 238.5625 155 238.5625 156 240.5625 C156.56818182 246.69886364 156.56818182 246.69886364 154.4375 249.9375 C152 251.5625 152 251.5625 145 252.5625 C144.67 258.8325 144.34 265.1025 144 271.5625 C145.65 271.5625 147.3 271.5625 149 271.5625 C151.375 273.625 151.375 273.625 153 276.5625 C152.94016186 280.03311229 152.67167343 282.44304428 150.875 285.4375 C148.05596316 287.12892211 145.23022817 287.25776149 142 287.5625 C141.93941406 288.16835938 141.87882813 288.77421875 141.81640625 289.3984375 C141.2109375 295.453125 140.60546875 301.5078125 140 307.5625 C140.78375 307.975 141.5675 308.3875 142.375 308.8125 C145.14078428 310.65635619 146.09845711 311.4070999 147 314.5625 C146.81273464 317.62116756 146.62996717 319.7408037 144.7421875 322.203125 C142.54713236 323.9158586 141.06794457 324.0503301 138.3125 324.25 C137.10013672 324.34861328 137.10013672 324.34861328 135.86328125 324.44921875 C135.24839844 324.48660156 134.63351562 324.52398437 134 324.5625 C133.87882813 325.20316406 133.75765625 325.84382813 133.6328125 326.50390625 C132.64320773 331.61178933 131.51489049 336.58500269 130 341.5625 C130.639375 341.85125 131.27875 342.14 131.9375 342.4375 C134 343.5625 134 343.5625 135 345.5625 C135.53252058 349.55640436 135.35389756 351.07991242 132.9375 354.375 C130 356.5625 130 356.5625 126.59375 356.6953125 C123.06283197 357.17004222 123.06283197 357.17004222 121.68383789 359.13647461 C120.51164709 361.25932572 119.51631015 363.39563535 118.5625 365.625 C118.21251953 366.38361328 117.86253906 367.14222656 117.50195312 367.92382812 C116.64398269 369.79255825 115.81872386 371.6762453 115 373.5625 C115.639375 373.85125 116.27875 374.14 116.9375 374.4375 C119 375.5625 119 375.5625 120 377.5625 C120.57673623 383.79125131 120.57673623 383.79125131 118.34375 386.77734375 C115.38481723 389.03106421 113.85649194 388.8771666 110.1875 388.75 C105.68395638 388.95498135 105.68395638 388.95498135 101.9765625 391.265625 C100.21057427 393.63685802 98.61660816 396.08741716 97 398.5625 C86.16764328 411.62563891 73.57874161 423.37299828 56 425.5625 C49.25776268 425.87478791 42.50993486 425.92706249 35.76098633 425.94335938 C33.41694712 425.9528677 31.07421495 425.98657768 28.73046875 426.0234375 C28.01376511 426.01839203 27.29706146 426.01334656 26.55863953 426.00814819 C23.4165942 426.07022039 21.39803466 426.27894422 18.80989075 428.12271118 C16.38089489 431.39707287 16.4549927 434.19321099 16.51757812 438.11328125 C16.51366562 438.86821869 16.50975311 439.62315613 16.50572205 440.40097046 C16.49975298 442.03678555 16.50290645 443.67265379 16.5141449 445.30844116 C16.53140202 447.89781037 16.52390284 450.4860627 16.5098877 453.07543945 C16.48453832 458.57120229 16.49005903 464.06670243 16.5 469.5625 C16.51152024 475.93138633 16.51040846 482.29973069 16.47593689 488.66854858 C16.46883575 491.21920007 16.48552833 493.76899609 16.50305176 496.31958008 C16.49734456 497.88363101 16.4905276 499.44767841 16.48242188 501.01171875 C16.49373642 501.72041107 16.50505096 502.42910339 16.51670837 503.15927124 C16.47447336 506.56636846 16.22149969 508.2792211 14.09484863 510.99902344 C11.83612314 512.68480842 10.78497393 513.1304394 8 513.125 C7.34 513.14691406 6.68 513.16882813 6 513.19140625 C2.80922512 512.18805712 1.79313686 510.33230831 0 507.5625 C-0.38716434 504.83536869 -0.54835422 502.51521828 -0.51757812 499.79394531 C-0.5245874 499.02738617 -0.53159668 498.26082703 -0.53881836 497.47103882 C-0.55638202 494.94386246 -0.5447774 492.41781224 -0.53125 489.890625 C-0.53394651 488.1257099 -0.53783025 486.36079626 -0.54284668 484.59588623 C-0.54874044 480.89711359 -0.54018698 477.19872763 -0.52148438 473.5 C-0.49876163 468.77792971 -0.51177592 464.05677224 -0.53577423 459.33473587 C-0.55029286 455.68850955 -0.54559743 452.04249618 -0.53526306 448.39626312 C-0.53260901 446.65648031 -0.53581866 444.91667768 -0.54518127 443.17691803 C-0.62498385 424.17052698 -0.62498385 424.17052698 5.9296875 416.22265625 C6.89261719 415.43181641 6.89261719 415.43181641 7.875 414.625 C8.51179688 414.07972656 9.14859375 413.53445313 9.8046875 412.97265625 C14.95043247 409.66729338 20.13815683 409.27152915 26.109375 409.25390625 C27.68489937 409.22873585 29.26042011 409.20333798 30.8359375 409.17773438 C33.28872647 409.14911687 35.74145243 409.12506574 38.19433594 409.10620117 C54.9031401 408.95298662 66.02175708 406.53910279 78.375 394.4375 C79.58823552 393.15043676 80.79719555 391.85931675 82 390.5625 C83.2684375 389.3559375 83.2684375 389.3559375 84.5625 388.125 C86.49794672 384.67485585 85.7323207 382.51450439 85.125 378.71875 C85 376.5625 85 376.5625 86.5 373.5625 C89 371.5625 89 371.5625 92.375 371.3125 C96.62399626 370.43339733 96.98293385 369.77552253 99.3125 366.3125 C101.2382618 363.16796841 102.69785551 360.01043188 104 356.5625 C103.01 355.7890625 103.01 355.7890625 102 355 C100 352.5625 100 352.5625 99.5625 349.0625 C100.21518987 343.84098101 100.21518987 343.84098101 103 341.5625 C104.45720057 341.4249223 105.91577462 341.30161579 107.375 341.1875 C109.83506441 340.92426604 109.83506441 340.92426604 112 339.5625 C114.36408771 335.06258132 115.72546365 330.46850425 117 325.5625 C116.360625 325.253125 115.72125 324.94375 115.0625 324.625 C113 323.5625 113 323.5625 112 322.5625 C111.41368078 315.40940554 111.41368078 315.40940554 113.6875 312.125 C116 310.5625 116 310.5625 121 309.5625 C122.32 302.9625 123.64 296.3625 125 289.5625 C123.35 288.9025 121.7 288.2425 120 287.5625 C117.65450326 284.04425489 117.42008597 282.70474306 118 278.5625 C120.1875 275.6875 120.1875 275.6875 123 273.5625 C125.67578125 273.4296875 125.67578125 273.4296875 128 273.5625 C127.98839844 272.52609375 127.97679687 271.4896875 127.96484375 270.421875 C127.95546163 269.05208514 127.94636188 267.68229332 127.9375 266.3125 C127.92912109 265.63058594 127.92074219 264.94867188 127.91210938 264.24609375 C127.89571608 260.86907446 127.94371232 257.78958361 129 254.5625 C128.05125 254.294375 127.1025 254.02625 126.125 253.75 C123 252.5625 123 252.5625 121 249.5625 C120.5625 246.6875 120.5625 246.6875 121 243.5625 C123.172635 240.98964276 124.97993838 239.07253081 128 237.5625 C127.67 230.9625 127.34 224.3625 127 217.5625 C125.02 217.5625 123.04 217.5625 121 217.5625 C118.10351749 214.97091039 117.12692093 213.3398907 116.5 209.5 C117.11490954 205.88740648 118.17560826 204.82201339 121 202.5625 C121.99 201.9025 122.98 201.2425 124 200.5625 C123.71125 199.30953125 123.4225 198.0565625 123.125 196.765625 C122.74977488 195.11463448 122.37478729 193.46358996 122 191.8125 C121.80921875 190.9875 121.6184375 190.1625 121.421875 189.3125 C121.24140625 188.51328125 121.0609375 187.7140625 120.875 186.890625 C120.70742187 186.1574707 120.53984375 185.42431641 120.3671875 184.66894531 C120 182.5625 120 182.5625 120 178.5625 C119.113125 178.665625 118.22625 178.76875 117.3125 178.875 C114 178.5625 114 178.5625 111.0625 176.5 C109 173.5625 109 173.5625 109 169.9375 C110.35621521 165.36027365 110.35621521 165.36027365 113 163.5625 C113.66 163.5625 114.32 163.5625 115 163.5625 C113.69167236 160.2483367 112.37764349 156.93646387 111.0625 153.625 C110.50272461 152.20670898 110.50272461 152.20670898 109.93164062 150.75976562 C109.57392578 149.86064453 109.21621094 148.96152344 108.84765625 148.03515625 C108.51773682 147.20250244 108.18781738 146.36984863 107.84790039 145.51196289 C107.15652731 143.59689366 107.15652731 143.59689366 106 142.5625 C105.0925 142.645 104.185 142.7275 103.25 142.8125 C100 142.5625 100 142.5625 97.125 140.4375 C95 137.5625 95 137.5625 94.4375 134.5625 C95.11629989 130.94223389 96.64719772 129.33160328 99 126.5625 C98.3503125 125.43070312 97.700625 124.29890625 97.03125 123.1328125 C96.18727599 121.65116924 95.34353819 120.16939142 94.5 118.6875 C93.85611328 117.56794922 93.85611328 117.56794922 93.19921875 116.42578125 C92.59013672 115.35263672 92.59013672 115.35263672 91.96875 114.2578125 C91.59169922 113.59797363 91.21464844 112.93813477 90.82617188 112.25830078 C90 110.5625 90 110.5625 90 108.5625 C88.948125 108.789375 87.89625 109.01625 86.8125 109.25 C82.58918228 109.59617358 81.29090863 109.07907719 78 106.5625 C76.14209924 104.70459924 76.82050293 102.13777841 76.76953125 99.66796875 C77.03263254 97.26438239 77.81257634 95.6510515 79 93.5625 C72.45130024 86.00053437 64.19934661 80.30017624 53.98828125 79.25390625 C41.46357733 78.81467646 32.16865246 82.73979897 20.875 87.875 C14.29297252 90.84312182 8.78452899 91.12292225 2 88.5625 C-2.84537267 85.71502666 -5.41979057 82.59760849 -7.35626221 77.25662231 C-8.80662709 71.18666581 -8.44964953 64.82019698 -8.43359375 58.609375 C-8.43816058 57.0609718 -8.44346764 55.51257063 -8.44947815 53.96417236 C-8.45837564 50.73319207 -8.45602158 47.50245946 -8.44604492 44.27148438 C-8.43451013 40.13304601 -8.45485163 35.99545523 -8.48396206 31.85712814 C-8.50230226 28.66577751 -8.50203688 25.47463137 -8.49632454 22.28324127 C-8.49617132 20.75701959 -8.50221641 19.23078405 -8.51461601 17.70461273 C-8.52949863 15.57434019 -8.51887504 13.44565264 -8.50170898 11.31542969 C-8.50154282 10.10489929 -8.50137665 8.8943689 -8.50120544 7.64715576 C-7.71227635 2.79171236 -5.00954789 -0.00978427 0 0 Z " fill="#000000" transform="translate(133,-0.5625)"/>
<path d="M0 0 C2.14727394 2.697857 3.4831031 4.94027633 5 8 C5.28987793 8.58330078 5.57975586 9.16660156 5.87841797 9.76757812 C7.22986683 12.48832129 8.57808703 15.21064377 9.92211914 17.93505859 C19.4963119 37.18170968 33.2567768 53.65258545 50 67 C61.60524054 76.46479271 67.92317967 86.41072417 69.8125 101.375 C70.62336946 114.22277604 66.54402948 125.27471302 59.09375 135.65625 C52.88997457 142.60077473 44.81461631 147.21891785 36 150 C35.41089844 150.19078125 34.82179688 150.3815625 34.21484375 150.578125 C19.09371195 153.45834058 6.66594335 149.36993489 -6.2109375 141.6171875 C-15.48632931 136.23901914 -25.59039621 135.42826586 -36.09375 137.65625 C-46.42984463 141.02419095 -52.91684535 147.03653626 -58.58984375 156.15625 C-63.25602839 165.56617361 -63.70531963 176.91726635 -60.4375 186.875 C-57.06656475 194.84696617 -51.70945319 200.6253883 -45.171875 206.13671875 C-32.52803609 216.98404098 -22.686173 230.15068263 -20 247 C-19.89248614 249.77697881 -19.83268917 252.52972401 -19.82299805 255.30688477 C-19.81642685 256.13024323 -19.80985565 256.95360168 -19.80308533 257.8019104 C-19.78344015 260.5150767 -19.77171366 263.22818807 -19.76171875 265.94140625 C-19.75764322 266.86959608 -19.7535677 267.79778591 -19.74936867 268.75410271 C-19.72855234 273.66052907 -19.71422759 278.56692777 -19.70483398 283.47338867 C-19.6937371 288.54334352 -19.65928707 293.6128634 -19.61966228 298.68266392 C-19.59355712 302.58168875 -19.58514794 306.48060851 -19.58155251 310.37971306 C-19.57667616 312.24925637 -19.56503248 314.11879468 -19.54651451 315.98825264 C-19.52223702 318.60002776 -19.52306611 321.21065701 -19.5300293 323.82250977 C-19.51721924 324.59508621 -19.50440918 325.36766266 -19.49121094 326.16365051 C-19.52568311 329.70566 -19.71591385 331.62960395 -21.9021759 334.48008728 C-25.43059541 337.03649308 -27.72520061 336.47497771 -32 336 C-34.67431489 334.18836733 -34.95920359 333.12238923 -36 330 C-36.09420596 327.47295175 -36.13329903 324.97303505 -36.12597656 322.44604492 C-36.1278447 321.67805573 -36.12971283 320.91006653 -36.13163757 320.11880493 C-36.13564217 318.44915795 -36.13771647 316.77950549 -36.13809967 315.10985374 C-36.14152565 311.54271228 -36.16291325 307.97575134 -36.18333054 304.40867329 C-36.22123772 297.77185659 -36.25263033 291.13522838 -36.25048828 284.49829102 C-36.2496947 279.87798736 -36.27334509 275.25834018 -36.3123703 270.63820839 C-36.32274153 268.88863399 -36.32442077 267.13898295 -36.31671906 265.38939476 C-36.24122024 246.31788046 -41.05682122 234.07779037 -54.5625 220.25 C-57.15457054 217.70239037 -59.78684543 215.32921405 -62.625 213.0625 C-71.88706949 205.28322122 -78.0175012 192.76257292 -79.22290039 180.78515625 C-80.08347302 163.53652983 -76.43728181 149.80328857 -65.3125 136.3125 C-56.51095779 126.82359925 -43.80800944 120.33307551 -30.8125 119.76171875 C-15.88568247 119.41389735 -4.89885905 122.39119896 7.80859375 130.1953125 C15.06528007 134.2988487 21.79501411 134.81460984 30 134 C34.95328209 132.54694182 38.97937359 130.21650113 43 127 C43.66 127 44.32 127 45 127 C45.41572266 126.15695312 45.41572266 126.15695312 45.83984375 125.296875 C46.61973479 123.75284829 47.42503954 122.2214229 48.25390625 120.703125 C52.54581062 112.65740576 53.96397859 106.53425305 51.828125 97.56640625 C48.54549127 87.3933385 41.65796631 81.7151119 33.60449219 75.28759766 C13.6681022 59.2887357 -4.97902628 34.50122572 -13 10 C-12.6840836 3.89228296 -12.6840836 3.89228296 -10.5625 1.125 C-6.82191856 -1.56821864 -4.42195387 -1.2741223 0 0 Z " fill="#000000" transform="translate(107,176)"/>
<path d="M0 0 C3.09432175 0.62575338 4.15418622 1.97598593 6.10546875 4.42578125 C6.61099243 7.4450531 6.61099243 7.4450531 6.61962891 11.02905273 C6.63031654 12.01344078 6.63031654 12.01344078 6.64122009 13.01771545 C6.6605464 15.19440628 6.65219487 17.37012603 6.64453125 19.546875 C6.65446155 21.08595665 6.66641155 22.62502644 6.68026733 24.16407776 C6.71270545 28.23828079 6.72301763 32.31221629 6.72711182 36.38653564 C6.73686973 43.58592712 6.77877965 50.78518691 6.83203125 57.984375 C6.84021881 59.15831849 6.84021881 59.15831849 6.84857178 60.35597801 C7.08540691 90.42581328 10.17091909 119.30502476 17.8359375 148.43359375 C20.7912307 159.82161791 20.7912307 159.82161791 18.10546875 164.42578125 C15.44573305 166.59297331 14.01709279 166.42112988 10.54296875 166.23828125 C7.02778591 165.40741985 6.27161085 165.09748476 4.10546875 162.42578125 C3.29345703 160.5859375 3.29345703 160.5859375 2.67578125 158.48828125 C2.44020508 157.68946533 2.20462891 156.89064941 1.96191406 156.06762695 C1.72053711 155.19581787 1.47916016 154.32400879 1.23046875 153.42578125 C0.97362305 152.50949951 0.71677734 151.59321777 0.45214844 150.64916992 C-8.924961 115.95328688 -10.09281959 80.97556775 -10.13476562 45.28442383 C-10.14033 41.24973838 -10.16459362 37.21537696 -10.19273758 33.18079472 C-10.21133987 30.04523235 -10.21656744 26.90975038 -10.2181015 23.7741375 C-10.22111503 22.28501986 -10.22909938 20.79590319 -10.24228668 19.3068409 C-10.25935808 17.23823421 -10.25746933 15.17045531 -10.25097656 13.10180664 C-10.25462219 11.92969131 -10.25826782 10.75757599 -10.26202393 9.54994202 C-9.41488897 2.34820453 -6.76218907 0.36792398 0 0 Z " fill="#000000" transform="translate(80.89453125,-0.42578125)"/>
<path d="M0 0 C2.10586933 1.77367586 3.65252149 3.29192786 5.375 5.375 C5.84341309 5.91302246 6.31182617 6.45104492 6.79443359 7.00537109 C8.21817914 8.65313086 9.61322405 10.32106058 11 12 C11.78890625 12.95390625 12.5778125 13.9078125 13.390625 14.890625 C14.86961216 16.70057432 16.34237806 18.51562678 17.80859375 20.3359375 C20.73364721 23.89188484 23.8146723 27.2914208 26.9140625 30.6953125 C29.67366097 33.74430706 32.34071334 36.86340547 35 40 C35.061875 38.7625 35.12375 37.525 35.1875 36.25 C35.61118714 32.98238546 35.93021674 32.0841504 38.125 29.4375 C41.91475338 27.54262331 43.96131769 27.8781438 48 29 C50.05938216 30.57885966 50.84571211 31.69142423 52 34 C52.2356996 38.51293316 52.22842295 43.02973456 52.24023438 47.5480957 C52.24991811 49.79351145 52.28092957 52.03800312 52.3125 54.28320312 C52.31903252 55.71614041 52.32428202 57.14908423 52.328125 58.58203125 C52.3374707 59.88374268 52.34681641 61.1854541 52.35644531 62.52661133 C51.97854485 66.20907014 51.23033247 68.08244549 49 71 C42.67442077 74.16278962 30.90136515 70.64703119 24 69.625 C23.18732666 69.51124023 22.37465332 69.39748047 21.53735352 69.28027344 C16.39728443 68.47922371 11.9378956 67.55449875 8.625 63.1875 C7.75144757 60.13006649 8.15795947 58.04430038 9 55 C10.2265625 53.328125 10.2265625 53.328125 12 52 C14.48046875 51.70703125 14.48046875 51.70703125 17.1875 51.8125 C18.08855469 51.83957031 18.98960937 51.86664063 19.91796875 51.89453125 C20.94857422 51.94673828 20.94857422 51.94673828 22 52 C17.61751139 46.55038059 13.21150633 41.16853075 8.5 36 C4.54750417 31.66189482 0.82197981 27.17737836 -2.8515625 22.6015625 C-4.81819472 20.22014966 -6.87874941 17.99246491 -9 15.75 C-12.04014088 12.30779873 -13.09059653 9.71101935 -13 5 C-12.21270916 2.35183989 -11.47719891 1.37115471 -9.3125 -0.3125 C-5.86649418 -1.33698822 -3.48571523 -0.8299322 0 0 Z " fill="#000000" transform="translate(149,126)"/>
<path d="M0 0 C2.97573894 1.40956055 3.76279478 2.35364168 4.89453125 5.4375 C5.05694671 10.92353323 2.67736741 15.00797814 0.3125 19.875 C-0.17774658 20.91333984 -0.66799316 21.95167969 -1.1730957 23.02148438 C-6.59864546 34.43647771 -12.26964567 45.73548467 -18 57 C-17.4121875 56.84144531 -16.824375 56.68289063 -16.21875 56.51953125 C-13.01359495 55.7690284 -10.27953909 55.70718401 -7 56 C-4.5625 57.5625 -4.5625 57.5625 -3 60 C-2.4375 63.4375 -2.4375 63.4375 -3 67 C-7.95176273 72.80963635 -13.98085642 74.99545716 -20.875 77.875 C-22.03386719 78.38546875 -23.19273437 78.8959375 -24.38671875 79.421875 C-35.41449917 84.08505072 -35.41449917 84.08505072 -41 82 C-43.84416265 78.93534931 -44.78694596 75.92043456 -45.82421875 71.9140625 C-46.13037109 70.73585938 -46.43652344 69.55765625 -46.75195312 68.34375 C-47.06068359 67.1165625 -47.36941406 65.889375 -47.6875 64.625 C-48.16799805 62.79582031 -48.16799805 62.79582031 -48.65820312 60.9296875 C-51.41241117 50.17124585 -51.41241117 50.17124585 -51 45 C-48.54405875 41.67725596 -47.0743356 40.22381992 -43 39.375 C-38.99329761 40.20972966 -37.56207252 41.86857803 -35 45 C-34.30688046 46.31977556 -33.63418539 47.65091471 -33 49 C-32.71851608 48.41562164 -32.43703217 47.83124329 -32.14701843 47.22915649 C-29.22055678 41.1577453 -26.28271024 35.09194306 -23.33813477 29.02929688 C-22.24013874 26.76477142 -21.14507175 24.49882336 -20.05297852 22.23144531 C-18.48437735 18.97604608 -16.9053768 15.72587759 -15.32421875 12.4765625 C-14.83660568 11.45881744 -14.34899261 10.44107239 -13.84660339 9.39248657 C-13.38635269 8.45166229 -12.92610199 7.51083801 -12.4519043 6.54150391 C-12.0499736 5.71099518 -11.64804291 4.88048645 -11.2339325 4.02481079 C-8.4171437 -0.59737428 -4.959955 -0.43508377 0 0 Z " fill="#000000" transform="translate(216,284)"/>
<path d="M0 0 C3.38342286 2.40401098 4.8688213 5.04087456 6 9 C6.60153722 13.12482668 6.38434216 14.48000766 3.875 17.875 C1 20 1 20 -2 20.625 C-6.0335949 19.78466773 -7.45116191 18.18604761 -10 15 C-12.42804796 10.80609897 -12.12111281 7.65693015 -11 3 C-8.72242803 -1.15321948 -4.22075342 -0.76740971 0 0 Z " fill="#000000" transform="translate(450,457)"/>
</svg>
