<?xml version="1.0" encoding="UTF-8"?>
<svg version="1.1" xmlns="http://www.w3.org/2000/svg" width="512" height="512">
<path d="M0 0 C138.27 0 276.54 0 419 0 C419.12375 51.8203125 419.12375 51.8203125 419.25 104.6875 C419.28641602 115.56420654 419.32283203 126.44091309 419.36035156 137.6472168 C419.37841797 151.00939941 419.37841797 151.00939941 419.3817749 157.28034973 C419.38547615 161.62617799 419.40036378 165.97180744 419.42230225 170.31758118 C419.45003268 175.88568522 419.4579111 181.45350617 419.4522891 187.02167284 C419.45346218 189.04967549 419.46121834 191.07768953 419.47686052 193.10563219 C419.74398062 229.46831104 407.55712468 263.83893878 383 291 C381.11461009 292.86698303 379.22121332 294.71998296 377.3125 296.5625 C367.13938088 306.56511992 360.91492836 319.36240328 360.625 333.6875 C360.58761719 334.33783203 360.55023438 334.98816406 360.51171875 335.65820312 C360.22699701 352.69405367 369.72313932 370.99407784 375.28628922 386.78482437 C376.50031743 390.23391816 377.70927936 393.68478694 378.91870117 397.13549805 C380.9322644 402.87890406 382.94839178 408.6214035 384.96630859 414.36328125 C389.08653042 426.08821636 393.19101276 437.81865807 397.29544258 449.54912853 C398.8149482 453.891637 400.33586719 458.23364841 401.85742188 462.57543945 C403.84377699 468.24399415 405.82533475 473.91421062 407.80523682 479.58502197 C409.06657978 483.19030422 410.3347825 486.79313652 411.60302734 490.39599609 C412.43737243 492.77825099 413.27152624 495.16057289 414.10546875 497.54296875 C414.49744949 498.65134598 414.88943024 499.75972321 415.29328918 500.90168762 C415.64920639 501.92179428 416.0051236 502.94190094 416.37182617 503.99291992 C416.68721848 504.89024338 417.00261078 505.78756683 417.32756042 506.71208191 C418 509 418 509 418 512 C319.33 512 220.66 512 119 512 C106 457 106 457 106 454 C105.11733459 454.10022461 104.23466919 454.20044922 103.32525635 454.30371094 C94.9150668 455.25664877 86.5037391 456.19869877 78.09103775 457.12921143 C73.76835078 457.60770561 69.44617696 458.09007233 65.125 458.58203125 C7.74272075 465.10578466 7.74272075 465.10578466 -12.15234375 450.41015625 C-21.72293995 442.60304803 -28.5790462 431.15295981 -31 419 C-31.93841462 407.44948836 -30.77630663 396.32121577 -28.86827469 384.93855667 C-28.49990186 382.72989704 -28.14426214 380.51953192 -27.79232788 378.30819702 C-27.55106971 376.79725123 -27.30974633 375.28631585 -27.06835938 373.77539062 C-26.94757837 373.01834146 -26.82679737 372.2612923 -26.70235634 371.48130226 C-26.08357332 367.64365444 -25.4320268 363.81666987 -24.71362305 359.99633789 C-20.82333755 339.10456479 -21.36915779 326.32195288 -32.46702099 307.97911644 C-37.77065704 299.20266203 -38.91566413 293.19368416 -37.5 283.0625 C-37.39300781 281.76505859 -37.28601562 280.46761719 -37.17578125 279.13085938 C-36.69966391 273.70592236 -35.92188253 268.36573878 -35 263 C-35.6084375 262.98582031 -36.216875 262.97164063 -36.84375 262.95703125 C-54.39622893 262.0019699 -72.15374864 254.64855375 -84.25 241.75 C-90.62946186 233.93116095 -93.19799499 224.84743075 -93.3125 215 C-93.34150391 214.19949219 -93.37050781 213.39898437 -93.40039062 212.57421875 C-93.51642837 201.3810393 -88.58884015 192.61499674 -82.5625 183.5 C-81.8921875 182.46810547 -81.221875 181.43621094 -80.53125 180.37304688 C-72.07131097 167.39779306 -63.31718481 154.61237218 -54.6315918 141.7878418 C-44.10755108 126.29442714 -44.10755108 126.29442714 -34.14624023 110.43652344 C-30.21686322 104.01711327 -25.9425206 98.48431485 -21.07421875 92.74609375 C5.5018225 59.14944462 -0.81488518 49.70799578 0 0 Z M31 31 C30.67 43.87 30.34 56.74 30 70 C18.54465737 88.3285482 18.54465737 88.3285482 13.171875 96.1953125 C11.95567728 97.98824605 10.73953327 99.78121604 9.5234375 101.57421875 C8.90694336 102.48091309 8.29044922 103.38760742 7.65527344 104.32177734 C4.40260508 109.10741779 1.16140702 113.90077412 -2.078125 118.6953125 C-2.6674884 119.56431183 -3.25685181 120.43331116 -3.86407471 121.3286438 C-8.02343782 127.48226942 -12.03545642 133.71942422 -16 140 C-20.5316886 147.17903917 -25.15662941 154.27847041 -29.921875 161.3046875 C-30.55361633 162.23967072 -31.18535767 163.17465393 -31.83624268 164.13796997 C-35.05808468 168.90549894 -38.28806204 173.66742848 -41.5234375 178.42578125 C-44.48876139 182.79077971 -47.43560119 187.16764983 -50.36547852 191.55651855 C-51.4356937 193.15640633 -52.51087304 194.75298721 -53.59155273 196.3458252 C-55.04328173 198.49224873 -56.47007168 200.65317383 -57.890625 202.8203125 C-58.31285339 203.43518524 -58.73508179 204.05005798 -59.17010498 204.68356323 C-62.21056658 209.41126758 -62.46669969 212.56444725 -62 218 C-60.0710561 223.18403672 -55.81348395 225.6901238 -51 228 C-44.32971843 230.69773138 -37.74668772 231.77530235 -30.625 232.5625 C-29.57787842 232.68471924 -28.53075684 232.80693848 -27.4519043 232.93286133 C-25.31953934 233.17958258 -23.18664034 233.42173354 -21.05322266 233.65917969 C-18.25651104 233.97136659 -15.46223686 234.29959484 -12.66796875 234.6328125 C2.25431975 237.4688383 2.25431975 237.4688383 15.7890625 234.62890625 C17.46934254 232.36865858 17.86594004 230.81525918 18 228 C16.00644432 224.07133165 13.4587264 221.24253143 10.3125 218.1875 C9.10013672 217.00220703 9.10013672 217.00220703 7.86328125 215.79296875 C6.94095703 214.90544922 6.94095703 214.90544922 6 214 C10.23816537 208.93376232 14.67408963 204.19961931 19.375 199.5625 C20.01566406 198.92634766 20.65632813 198.29019531 21.31640625 197.63476562 C22.87530879 196.08749668 24.43651416 194.54263508 26 193 C35.32456545 197.36410987 42.49431714 206.48685152 46 216 C49.46900811 225.68738967 48.61714899 235.46758856 45 245 C41.86847929 251.5761935 38.17876239 257.033823 32 261 C31.25105469 261.48597656 30.50210938 261.97195313 29.73046875 262.47265625 C19.33573693 267.93635863 7.39793959 266.44933653 -4 266 C-7.01916192 276.65140517 -7.1777614 291.10607743 -2.13647461 301.04370117 C-0.5379329 303.79539069 1.143495 306.41415375 3 309 C4.299375 308.835 5.59875 308.67 6.9375 308.5 C22.18545306 307.03550733 35.81367759 308.13863908 50.5 312.6875 C62.130292 315.94398176 73.55472223 313.86682872 85 311 C85.14622803 311.79696289 85.29245605 312.59392578 85.44311523 313.41503906 C86.10659466 317.0269358 86.77202525 320.63847039 87.4375 324.25 C87.78264648 326.13138672 87.78264648 326.13138672 88.13476562 328.05078125 C88.35712891 329.25605469 88.57949219 330.46132813 88.80859375 331.703125 C89.01282959 332.81333008 89.21706543 333.92353516 89.42749023 335.06738281 C89.88384004 337.40498361 90.39041887 339.69877003 91 342 C90.3709375 342.06058594 89.741875 342.12117188 89.09375 342.18359375 C88.2378125 342.26738281 87.381875 342.35117187 86.5 342.4375 C85.6646875 342.51871094 84.829375 342.59992188 83.96875 342.68359375 C81.72476806 342.92275498 79.48565576 343.20822233 77.25 343.515625 C63.27048307 345.26635856 50.42010138 344.03218642 37 340 C27.12831406 337.22739685 17.85964586 337.06122144 8 340 C6.94595192 347.71016257 5.90215431 355.42164109 4.87078857 363.13486671 C4.3913773 366.71787005 3.90868056 370.30036133 3.41796875 373.88183594 C2.94295496 377.3496983 2.47723291 380.81870205 2.01745605 384.28861618 C1.75775453 386.23106221 1.48888059 388.17227502 1.21972656 390.11343384 C-1.56615683 406.40638044 -1.56615683 406.40638044 3.44140625 421.3203125 C8.14666503 426.39114276 12.61945759 430.61834167 19.80877304 431.24471664 C28.2290796 431.15735708 36.51622814 430.50430973 44.88378906 429.59472656 C46.32602741 429.44303071 47.76832575 429.29190435 49.2106781 429.14129639 C53.08973934 428.73435353 56.96782356 428.31874764 60.84571934 427.90086079 C64.10274945 427.55060094 67.36020992 427.20443516 70.61766505 426.85815406 C78.31465162 426.03976317 86.0108272 425.21403812 93.70654297 424.38378906 C101.59937004 423.53241636 109.49349891 422.69401259 117.3883822 421.86194253 C124.20753342 421.14274286 131.025746 420.41506997 137.84329963 419.68088126 C141.89695518 419.24443886 145.95087488 418.81107927 150.00574493 418.38605499 C178.14316243 416.31000949 178.14316243 416.31000949 204.4375 407.1875 C205.09379395 406.84130615 205.75008789 406.4951123 206.42626953 406.13842773 C211.92967486 403.17542031 217.10325208 399.89400091 222 396 C223.22589844 395.03707031 223.22589844 395.03707031 224.4765625 394.0546875 C229.42996917 389.89873329 233.47226996 385.40125546 237.25 380.1875 C237.63800781 379.65568115 238.02601563 379.1238623 238.42578125 378.57592773 C245.56084122 368.31020904 249.59570083 356.92275077 253.1796875 345.0703125 C253.6532138 343.531681 254.12750598 341.99328503 254.60250854 340.45510864 C256.08436052 335.64155415 257.54371738 330.8213406 259 326 C259.46499241 324.46462371 259.93003875 322.92926374 260.3951416 321.3939209 C263.42765149 311.37195857 266.42064909 301.33838116 269.40348434 291.30154037 C270.63886407 287.14681586 271.87732507 282.99300991 273.11547852 278.83911133 C275.11667283 272.12412555 277.1163171 265.40868034 279.11474609 258.69287109 C281.82914771 249.57143861 284.5483687 240.45144877 287.26953125 231.33203125 C287.67633079 229.96866869 288.08313011 228.60530606 288.4899292 227.24194336 C289.07669032 225.27547014 289.66345704 223.30899858 290.25024414 221.34253311 C292.19772521 214.81587758 294.14391022 208.28883582 296.08984375 201.76171875 C296.38864944 200.75945755 296.68745514 199.75719635 296.99531555 198.7245636 C297.66356473 196.48304867 298.3317956 194.24152828 299 192 C301.54602052 192.62844213 304.09150095 193.25894683 306.63671875 193.890625 C307.35114136 194.06674316 308.06556396 194.24286133 308.80163574 194.42431641 C313.61578302 195.6213029 318.36083267 196.9566894 323.08203125 198.484375 C325.15184369 199.12981039 325.15184369 199.12981039 328 199 C321.58457054 222.65670362 314.43264504 246.09701034 307.37023926 269.56640625 C305.73321968 275.00854762 304.09919669 280.45158858 302.46484375 285.89453125 C300.53187045 292.33183515 298.5975047 298.76870837 296.65716553 305.20379639 C296.01979244 307.31782328 295.38244287 309.43185726 294.74511719 311.54589844 C294.43267941 312.58223797 294.12024162 313.6185775 293.79833603 314.68632126 C291.94268575 320.84839104 290.10210898 327.01471091 288.27517509 333.18535423 C287.12008075 337.08388297 285.95841104 340.98043683 284.79594803 344.87677383 C284.26192219 346.67299286 283.73094505 348.47012197 283.20347214 350.26827621 C280.61821757 359.07826361 277.86959308 367.74274229 274.39990234 376.24951172 C274.12580347 376.92417543 273.8517046 377.59883915 273.5692997 378.29394722 C262.71330142 404.05429584 240.37716302 424.82892896 215 436 C212.02909312 437.19650405 209.03189846 438.2810025 206 439.3125 C205.32549805 439.54291992 204.65099609 439.77333984 203.95605469 440.01074219 C189.22806012 444.71734205 173.85620755 446.0738714 158.5625 447.6875 C156.46282358 447.91409312 154.36321355 448.14130238 152.26367188 448.36914062 C147.17651755 448.91985491 142.08854192 449.46226446 137 450 C138.6200882 460.54266353 141.39823602 470.59294407 144 481 C220.23 481 296.46 481 375 481 C366.59727003 455.77159881 366.59727003 455.77159881 357.83551025 430.6762085 C356.39490756 426.64353515 354.96366748 422.60755471 353.53161621 418.57183838 C350.96332167 411.33441644 348.39125588 404.09834027 345.81494141 396.86376953 C344.07033725 391.96203425 342.33493343 387.05712239 340.6055603 382.1499939 C339.96195122 380.32857478 339.31526098 378.50824088 338.66519165 376.68911743 C333.71473769 362.83060336 329.39494892 349.52788286 329.5625 334.625 C329.57152344 333.63749756 329.58054687 332.64999512 329.58984375 331.63256836 C330.15021143 307.69436133 341.41238511 288.25875012 358.26953125 271.796875 C370.06780248 259.71166441 378.80591999 244.0133692 384 228 C384.29519531 227.09765625 384.59039062 226.1953125 384.89453125 225.265625 C402.74619257 163.00465843 389 95.76966705 389 31 C270.86 31 152.72 31 31 31 Z " fill="#000000" transform="translate(93,0)"/>
<path d="M0 0 C2.85486685 1.3530382 5.39484009 2.88563599 7.96875 4.71484375 C8.70480469 5.23626953 9.44085938 5.75769531 10.19921875 6.29492188 C10.95847656 6.83697266 11.71773438 7.37902344 12.5 7.9375 C13.63888672 8.74477539 13.63888672 8.74477539 14.80078125 9.56835938 C18.23253551 12.00544581 21.63999105 14.46454174 25 17 C23.3522489 26.79743899 11.64796783 35.88765206 5 43 C1.29001997 42.43602962 -0.28081208 41.02229662 -2.78515625 38.2890625 C-3.48060547 37.53882813 -4.17605469 36.78859375 -4.89257812 36.015625 C-5.60865234 35.22671875 -6.32472656 34.4378125 -7.0625 33.625 C-8.4906914 32.075342 -9.91906958 30.52585612 -11.34765625 28.9765625 C-11.97679932 28.28643066 -12.60594238 27.59629883 -13.25415039 26.88525391 C-14.80017041 25.21578578 -16.37842957 23.59573239 -18 22 C-16.51949702 18.51415964 -14.5518972 16.40101818 -11.8125 13.8125 C-7.40517826 9.51928368 -3.64035472 4.95135063 0 0 Z " fill="#000000" transform="translate(276,316)"/>
<path d="M0 0 C20.53191489 4.19148936 20.53191489 4.19148936 30 7 C29.35440084 13.29459184 28.07366009 19.25121418 26.5 25.375 C26.27441406 26.27605469 26.04882812 27.17710937 25.81640625 28.10546875 C24.1409337 34.7181326 24.1409337 34.7181326 23 37 C16.26483263 36.40390686 9.97211055 35.14905977 3.4375 33.4375 C2.52419922 33.20353516 1.61089844 32.96957031 0.66992188 32.72851562 C-1.55484564 32.15776375 -3.77802897 31.58152522 -6 31 C-7.06736775 27.00804463 -6.85129408 24.31422249 -5.8203125 20.33203125 C-5.55089844 19.27435547 -5.28148437 18.21667969 -5.00390625 17.12695312 C-4.71386719 16.03318359 -4.42382812 14.93941406 -4.125 13.8125 C-3.84269531 12.70712891 -3.56039063 11.60175781 -3.26953125 10.46289062 C-1.1761615 2.35232301 -1.1761615 2.35232301 0 0 Z " fill="#000000" transform="translate(314,209)"/>
<path d="M0 0 C2.23903611 2.10910664 3.93547325 4.24879998 5.59375 6.8359375 C6.06683594 7.57070313 6.53992188 8.30546875 7.02734375 9.0625 C7.75630859 10.2071875 7.75630859 10.2071875 8.5 11.375 C9.22896484 12.50808594 9.22896484 12.50808594 9.97265625 13.6640625 C10.90919369 15.12373394 11.84042959 16.58682425 12.765625 18.05371094 C13.78937344 19.66789657 14.8439576 21.26247755 15.90625 22.8515625 C16.44765625 23.91503906 16.44765625 23.91503906 17 25 C15.68039197 28.95882409 14.23395958 29.22050386 10.57421875 31.1015625 C9.46755859 31.67390625 8.36089844 32.24625 7.22070312 32.8359375 C6.05474609 33.42632812 4.88878906 34.01671875 3.6875 34.625 C2.53314453 35.223125 1.37878906 35.82125 0.18945312 36.4375 C-9.18568915 41.24749755 -9.18568915 41.24749755 -13 42 C-14.59955903 38.37671893 -16.18393878 34.74721644 -17.75463867 31.11132812 C-18.55439725 29.2686689 -19.36601095 27.4311699 -20.17773438 25.59375 C-20.67724609 24.43359375 -21.17675781 23.2734375 -21.69140625 22.078125 C-22.15748291 21.00981445 -22.62355957 19.94150391 -23.10375977 18.84082031 C-24.02175308 15.93104908 -24.33183788 14.72232689 -23 12 C-20.46024796 10.48443701 -18.05052684 9.22091777 -15.375 8 C-13.96519727 7.33534162 -12.55633447 6.66868576 -11.1484375 6 C-10.45975586 5.67515625 -9.77107422 5.3503125 -9.06152344 5.015625 C-5.95400156 3.48468101 -2.98571917 1.75538345 0 0 Z " fill="#000000" transform="translate(237,353)"/>
<path d="M0 0 C9.68554436 2.2607254 19.36054531 4.54834679 29 7 C30.71712513 12.06046877 29.07758224 15.87533354 27.375 20.6875 C27.10155762 21.48462402 26.82811523 22.28174805 26.54638672 23.10302734 C24.47892376 28.98937094 22.02112466 34.53798167 19 40 C15.83205073 38.5861895 12.66588612 37.1684237 9.5 35.75 C8.613125 35.35425781 7.72625 34.95851563 6.8125 34.55078125 C1.47333914 32.15601057 -3.78567147 29.65589631 -9 27 C-6 18 -3 9 0 0 Z " fill="#000000" transform="translate(299,267)"/>
</svg>
