<?xml version="1.0" standalone="no"?>
<!DOCTYPE svg PUBLIC "-//W3C//DTD SVG 20010904//EN"
 "http://www.w3.org/TR/2001/REC-SVG-20010904/DTD/svg10.dtd">
<svg version="1.0" xmlns="http://www.w3.org/2000/svg"
 width="512.000000pt" height="512.000000pt" viewBox="0 0 512.000000 512.000000"
 preserveAspectRatio="xMidYMid meet">

<g transform="translate(0.000000,512.000000) scale(0.100000,-0.100000)"
fill="#000000" stroke="none">
<path d="M2518 4489 c-33 -19 -38 -78 -38 -428 l0 -345 -104 102 c-114 112
-137 122 -181 77 -50 -49 -41 -63 158 -262 137 -137 189 -183 207 -183 18 0
70 46 207 183 199 199 208 213 158 262 -44 45 -67 35 -181 -77 l-104 -102 0
345 c0 190 -4 359 -10 378 -15 54 -66 77 -112 50z"/>
<path d="M215 3705 c-32 -31 -33 -74 -2 -103 22 -21 33 -22 167 -22 l144 0
-262 -263 c-225 -227 -262 -268 -262 -293 0 -43 33 -74 77 -74 35 0 52 15 294
256 l257 257 4 -141 c3 -130 5 -143 25 -163 27 -27 75 -29 103 -4 19 17 20 30
20 276 0 253 0 259 -22 279 -21 19 -34 20 -270 20 l-249 0 -24 -25z"/>
<path d="M4362 3710 c-12 -12 -22 -31 -22 -43 -1 -12 0 -128 0 -257 1 -218 2
-236 20 -254 26 -26 76 -25 103 3 20 20 22 33 25 163 l4 141 257 -257 c242
-241 259 -256 294 -256 44 0 77 31 77 74 0 25 -37 66 -262 293 l-262 263 145
0 c139 0 146 1 167 23 29 31 28 72 -3 102 l-24 25 -249 0 c-236 0 -249 -1
-270 -20z"/>
<path d="M1763 3450 c-81 -12 -192 -49 -263 -86 -80 -42 -1390 -1056 -1408
-1090 -11 -20 -11 -29 0 -52 12 -25 221 -204 523 -449 233 -188 475 -337 725
-446 774 -337 1648 -339 2430 -5 133 57 275 131 308 161 40 37 21 108 -33 121
-20 5 -58 -9 -163 -62 -646 -326 -1352 -405 -2047 -227 -276 71 -592 207 -827
358 -143 92 -190 128 -438 331 l-195 161 267 5 c243 5 268 7 287 24 25 22 28
73 7 102 -13 18 -32 19 -283 24 l-269 5 483 375 c266 206 520 404 566 438 145
112 261 158 430 169 114 7 140 21 140 72 0 54 -31 75 -116 78 -39 1 -95 -2
-124 -7z"/>
<path d="M3075 3444 c-148 -32 -291 -111 -405 -222 -36 -35 -73 -68 -83 -73
-28 -16 -58 -1 -122 61 -121 117 -176 146 -225 120 -23 -12 -39 -59 -30 -86 5
-11 28 -36 52 -55 23 -19 78 -66 120 -106 65 -60 85 -73 131 -83 46 -11 62
-10 112 5 47 13 69 27 114 74 118 121 232 187 371 217 153 33 354 0 477 -78
28 -18 299 -226 601 -463 l550 -430 -669 -3 -669 -2 -342 87 -343 87 -155 0
-155 0 -343 -87 -343 -87 -259 0 c-247 0 -261 -1 -280 -20 -30 -30 -27 -83 6
-109 25 -20 39 -21 280 -21 l254 0 138 -69 c161 -81 275 -123 415 -153 147
-31 427 -31 574 0 140 30 254 72 415 153 l138 69 676 0 676 0 -142 -117 c-79
-65 -191 -156 -249 -203 -96 -78 -106 -89 -109 -122 -4 -43 27 -78 69 -78 34
0 59 19 395 296 333 274 333 274 310 327 -7 17 -236 202 -646 523 -349 273
-653 509 -675 524 -64 44 -158 88 -237 111 -98 28 -295 35 -393 13z m-167
-1156 c138 -34 252 -65 252 -69 0 -13 -174 -81 -268 -105 -255 -65 -528 -54
-763 31 -99 35 -169 66 -169 74 0 4 111 34 248 68 340 85 358 85 700 1z"/>
<path d="M4758 1542 c-80 -62 -96 -88 -79 -129 14 -35 54 -57 85 -47 23 7 101
65 129 97 26 30 22 81 -9 106 -39 30 -56 27 -126 -27z"/>
<path d="M246 1559 c-18 -14 -26 -30 -26 -52 0 -41 4 -47 74 -101 72 -55 113
-61 145 -20 28 36 26 57 -9 98 -37 41 -116 96 -140 96 -10 0 -29 -9 -44 -21z"/>
<path d="M4495 1349 c-99 -53 -125 -79 -125 -125 0 -35 37 -74 69 -74 27 0
154 83 170 111 19 33 2 81 -35 98 -33 14 -33 14 -79 -10z"/>
<path d="M547 1349 c-24 -14 -39 -54 -31 -86 9 -33 132 -113 174 -113 41 0 70
31 70 75 0 30 -7 40 -42 66 -88 64 -134 79 -171 58z"/>
<path d="M4138 1145 c-97 -50 -118 -87 -77 -139 27 -34 73 -34 141 0 97 49
122 100 73 149 -32 33 -57 31 -137 -10z"/>
<path d="M851 1144 c-41 -52 -20 -93 72 -139 83 -41 110 -43 142 -10 50 49 29
92 -65 140 -85 43 -121 45 -149 9z"/>
<path d="M1195 995 c-30 -29 -33 -75 -7 -98 26 -24 136 -67 170 -67 58 0 93
74 55 118 -18 20 -144 72 -176 72 -10 0 -29 -11 -42 -25z"/>
<path d="M3792 993 c-76 -31 -99 -59 -86 -106 6 -18 21 -38 36 -47 25 -13 33
-13 99 10 95 33 119 52 119 96 0 75 -59 92 -168 47z"/>
<path d="M1542 877 c-12 -13 -22 -36 -22 -51 0 -42 36 -69 123 -90 77 -19 78
-19 105 1 31 23 41 77 20 106 -13 17 -138 57 -181 57 -13 0 -33 -10 -45 -23z"/>
<path d="M3430 877 c-53 -18 -67 -27 -74 -49 -13 -37 3 -80 35 -95 33 -16 176
18 202 49 21 25 22 66 1 96 -20 29 -76 28 -164 -1z"/>
<path d="M1905 795 c-31 -30 -32 -69 -2 -99 34 -34 176 -56 211 -33 32 21 43
70 22 102 -17 26 -25 29 -110 44 -84 15 -94 14 -121 -14z"/>
<path d="M3078 806 c-75 -16 -90 -29 -86 -79 2 -29 10 -45 29 -59 24 -18 30
-18 107 -5 95 16 122 35 122 84 0 69 -49 86 -172 59z"/>
<path d="M2288 766 c-30 -15 -45 -58 -32 -93 12 -35 57 -52 142 -52 74 -1 95
8 111 48 10 24 10 34 -3 60 -9 17 -26 33 -39 35 -56 12 -157 13 -179 2z"/>
<path d="M2724 771 c-74 -7 -104 -29 -104 -77 0 -24 8 -39 28 -54 25 -20 34
-22 112 -16 97 7 123 24 123 77 0 38 -41 80 -76 77 -12 0 -50 -4 -83 -7z"/>
</g>
</svg>
