<?xml version="1.0" encoding="UTF-8"?>
<svg version="1.1" xmlns="http://www.w3.org/2000/svg" width="512" height="512">
<path d="M0 0 C1.1446875 -0.02578125 2.289375 -0.0515625 3.46875 -0.078125 C6.5 0.25 6.5 0.25 8.3515625 1.5859375 C10.11306022 4.13831175 10.37684989 6.17124731 10.5 9.25 C9.22480149 12.3671519 8.28369254 13.8245669 5.3125 15.4375 C2.5 16.25 2.5 16.25 -1.375 17 C-6.06765762 18.11983875 -9.32837759 20.66692387 -12.5 24.25 C-13.68313697 26.3540499 -13.68313697 26.3540499 -14.5 28.25 C-13.63761719 28.22679688 -12.77523437 28.20359375 -11.88671875 28.1796875 C31.60851585 27.53667453 69.95554335 43.20397399 101.84375 72.62890625 C106.14102589 76.86930643 109.85410493 81.44577368 113.5 86.25 C113.90605469 86.77577637 114.31210937 87.30155273 114.73046875 87.84326172 C123.4299739 99.16934824 130.55552302 111.44433058 134.5 125.25 C135.14324219 125.20359375 135.78648437 125.1571875 136.44921875 125.109375 C148.51522632 124.6274232 158.64304319 128.47450238 168.5 135.25 C169.386875 135.848125 170.27375 136.44625 171.1875 137.0625 C182.68864422 147.94196075 188.31835978 161.37928375 188.875 177 C188.62543951 191.34972821 183.18331435 203.85588523 173.5390625 214.37109375 C163.72184452 223.41722756 151.48159412 228.46445294 138.25 228.3125 C137.50492187 228.30798828 136.75984375 228.30347656 135.9921875 228.29882812 C134.1614236 228.28709246 132.33070127 228.2691585 130.5 228.25 C130.13068359 229.52810547 130.13068359 229.52810547 129.75390625 230.83203125 C128.39715283 234.53034664 126.58821664 237.66648469 124.4375 240.9375 C124.03901855 241.54762939 123.64053711 242.15775879 123.22998047 242.78637695 C113.89917701 256.8376203 102.49354685 268.8036792 88.5 278.25 C89.38751953 279.99410156 89.38751953 279.99410156 90.29296875 281.7734375 C98.60225424 298.44299648 102.8074771 313.61744357 104.33740234 332.21704102 C104.8706046 338.06484972 105.74417529 342.3451123 108.62915039 347.45605469 C118.74944292 368.30380055 103.60623889 413.42020515 96.59423828 433.95629883 C89.32214064 454.36857291 89.32214064 454.36857291 83.5 458.25 C79.62661246 458.67255137 77.38401391 458.81667558 74.0625 456.6875 C71.8867639 453.29335168 72.16539589 451.26121793 72.5 447.25 C73.47849886 444.26595887 74.79740453 441.46779895 76.125 438.625 C87.82666545 412.09637956 93.43716815 381.25014786 92.5 352.25 C84.00634702 352.65610548 76.17899811 354.77349944 68.0625 357.1875 C67.0518045 357.4846994 67.0518045 357.4846994 66.02069092 357.78790283 C27.79199245 369.06572261 -9.59406514 385.23471773 -43.5 406.25 C-44.62148438 406.93545898 -44.62148438 406.93545898 -45.765625 407.63476562 C-61.37405921 417.18330278 -76.42217117 427.54205692 -90.5 439.25 C-85.93756945 448.92089667 -81.24673045 457.87381968 -74.5 466.25 C-73.324375 467.735 -73.324375 467.735 -72.125 469.25 C-57.08850305 486.43456795 -34.09779107 494.5201433 -11.91796875 496.05859375 C10.22345445 497.12912465 32.53618415 490.8694443 49.5 476.3125 C50.304375 475.56097656 51.10875 474.80945313 51.9375 474.03515625 C55.16607095 471.78598411 57.59923977 471.43080001 61.5 471.25 C64.4375 472.6875 64.4375 472.6875 66.5 475.25 C67.01702093 478.50723187 67.25610952 480.18253129 66.5 483.25 C64.4375 485.875 64.4375 485.875 61.5 488.25 C60.55125 489.1575 59.6025 490.065 58.625 491 C49.32284854 498.82594047 38.06603554 504.6791014 26.5 508.25 C25.27152344 508.641875 24.04304687 509.03375 22.77734375 509.4375 C-3.20585565 516.84514236 -33.87409756 513.69501462 -57.85546875 501.55078125 C-64.18092801 497.98319016 -69.93836406 493.90837755 -75.5 489.25 C-76.22703125 488.66863281 -76.9540625 488.08726562 -77.703125 487.48828125 C-110.11683221 460.45796947 -119.95085534 413.3170652 -123.90234375 373.52734375 C-124.59960263 365.67213518 -124.98036304 357.81722391 -125.25 349.9375 C-125.29471436 348.68146973 -125.33942871 347.42543945 -125.38549805 346.13134766 C-126.15531558 317.46372303 -126.15531558 317.46372303 -117.5 308.25 C-116.84 307.92 -116.18 307.59 -115.5 307.25 C-114.70303354 305.04416399 -113.98877261 302.80827902 -113.3125 300.5625 C-110.83957994 292.66047046 -107.4008633 285.54585095 -103.5 278.25 C-104.29921875 277.66734375 -105.0984375 277.0846875 -105.921875 276.484375 C-122.36035597 264.30314264 -137.04604558 249.19113838 -145.5 230.25 C-145.5 229.59 -145.5 228.93 -145.5 228.25 C-146.51578125 228.29640625 -147.5315625 228.3428125 -148.578125 228.390625 C-164.0673338 228.88564485 -177.19038608 224.60325432 -188.84765625 213.98828125 C-199.44877565 202.83580339 -203.8686813 189.06903703 -203.7109375 173.94140625 C-202.94997337 160.62453394 -197.40443378 147.34711413 -187.5 138.25 C-178.11497046 130.44818414 -167.02971115 125.03879866 -154.6875 125.1875 C-153.22376953 125.20103516 -153.22376953 125.20103516 -151.73046875 125.21484375 C-150.99441406 125.22644531 -150.25835937 125.23804687 -149.5 125.25 C-149.17 124.095 -148.84 122.94 -148.5 121.75 C-144.06241969 108.60237832 -136.87370919 97.2024149 -128.5 86.25 C-127.95472656 85.44949219 -127.40945312 84.64898437 -126.84765625 83.82421875 C-124.97596896 81.23703881 -123.42173246 79.46049945 -120.2421875 78.734375 C-114.53254246 78.47734918 -114.53254246 78.47734918 -111.77734375 80.5390625 C-109.75242991 83.25133241 -109.72004782 85.36141868 -109.83203125 88.68359375 C-110.96614206 93.04096686 -113.98215676 95.79988089 -116.921875 99.109375 C-135.39942155 120.65257784 -143.10077617 153.66823527 -141.22436523 181.48291016 C-138.75059714 209.60477938 -127.38641605 233.36358395 -107.5 253.25 C-106.78457031 253.96542969 -106.06914062 254.68085938 -105.33203125 255.41796875 C-77.86709337 281.23397978 -37.75035099 291.28174128 -0.90039062 290.17773438 C33.71569595 288.47151123 66.77913709 276.72204429 92.5 253.25 C93.23734375 252.59515625 93.9746875 251.9403125 94.734375 251.265625 C115.55110533 231.78116541 125.44134996 202.96476224 126.4609375 175.05859375 C127.0982649 141.69382659 113.3559211 110.59355629 91.2265625 86.0390625 C67.19181983 61.13428389 31.78455235 46.0844969 -2.72265625 45.0703125 C-5.65685434 45.06392687 -8.5699214 45.10322426 -11.5 45.25 C-6.14230996 53.00340509 0.38026041 55.52410907 9.4375 57.25 C12.25216232 57.82685659 13.32501773 58.1015302 15.5625 60 C16.84129749 63.06911398 17.03845078 64.95198894 16.5 68.25 C14.56277749 71.12458825 13.08833924 72.87025153 9.62109375 73.69921875 C-0.25826065 74.22684541 -10.16029791 70.48014649 -17.5703125 64.1015625 C-22.93379728 58.95522286 -26.40837585 54.02779141 -29.5 47.25 C-43.39760662 49.01352205 -55.8399644 53.23937379 -68.4375 59.1875 C-69.73288696 59.79754883 -69.73288696 59.79754883 -71.05444336 60.41992188 C-76.18177627 62.91224509 -80.84544929 65.70186209 -85.46386719 69.04833984 C-89.06864787 71.17576556 -91.40944447 71.01264595 -95.5 70.25 C-98.0625 68.1875 -98.0625 68.1875 -99.5 65.25 C-99.5 61.52309791 -99.32168141 59.24126676 -96.91015625 56.33203125 C-79.63185708 41.40604509 -53.91586558 32.66167297 -31.5 30.25 C-31.37044922 29.30640625 -31.37044922 29.30640625 -31.23828125 28.34375 C-29.63593991 18.58269818 -25.21004826 11.48769819 -17.5 5.25 C-11.77105011 1.76831775 -6.74403517 0.09113561 0 0 Z M-177.33984375 151.890625 C-184.48932268 159.69945913 -188.20118265 168.7069545 -187.84375 179.35546875 C-186.74482438 188.60892199 -183.25855734 196.76476667 -176.5 203.25 C-168.93299661 208.99124385 -162.16783031 212.63671321 -152.5 212.25 C-152.62117188 211.58355469 -152.74234375 210.91710937 -152.8671875 210.23046875 C-153.223834 208.26891302 -153.57633428 206.30660109 -153.92578125 204.34375 C-154.26717728 202.50439182 -154.63118356 200.66863978 -155.04296875 198.84375 C-158.57625814 182.47904125 -157.75622076 165.70578073 -155.5 149.25 C-155.16126212 146.58398657 -154.83111424 143.91697467 -154.5 141.25 C-163.84601746 141.25 -170.77188089 145.52042965 -177.33984375 151.890625 Z M139.5 141.25 C139.63277344 142.00539062 139.76554687 142.76078125 139.90234375 143.5390625 C143.30415265 164.744499 143.51787663 185.91399869 138.0859375 206.78125 C137.38453665 209.31359705 137.38453665 209.31359705 137.5 212.25 C146.2968203 213.0149409 153.92308375 209.41213777 160.6875 203.9296875 C168.49070572 196.69826841 172.54347753 187.3396909 173 176.6875 C172.55722782 165.74470196 167.30450305 156.41385091 159.55078125 148.92578125 C153.54527049 144.01842103 147.17458255 141.6763657 139.5 141.25 Z M-89.5 287.25 C-90.65082685 289.49756784 -91.79576858 291.74781748 -92.9375 294 C-93.42573242 294.95132812 -93.42573242 294.95132812 -93.92382812 295.921875 C-95.48415086 299.01034886 -96.74732279 301.87748926 -97.5 305.25 C-96.32050781 305.63929688 -95.14101562 306.02859375 -93.92578125 306.4296875 C-89.21865846 307.98763196 -84.51646225 309.56002146 -79.81591797 311.13769531 C-77.57603056 311.88905204 -75.33545159 312.63834977 -73.09423828 313.38574219 C-42.14686913 323.73178349 -8.72668278 334.94027865 18.73828125 353.0546875 C24.46883189 355.53495411 30.63165466 352.71190791 36.25 350.73828125 C37.75089498 350.22469641 39.25187481 349.71135951 40.75292969 349.19824219 C41.52906616 348.9305603 42.30520264 348.66287842 43.1048584 348.38708496 C57.76565514 343.33975394 72.40073943 338.82119441 87.5 335.25 C88.66866291 318.40177633 83.38869277 301.49300919 74.5 287.25 C70.24659018 288.56862467 66.24340822 290.21105932 62.18359375 292.0168457 C51.82950777 296.58300615 41.53991926 299.82229988 30.5 302.25 C29.81728027 302.41371094 29.13456055 302.57742188 28.43115234 302.74609375 C3.62657899 308.56972387 -25.91831938 307.16574161 -50.5 301.25 C-51.2748877 301.06808105 -52.04977539 300.88616211 -52.84814453 300.69873047 C-63.66838456 298.07058882 -73.63342259 293.80270548 -83.66333008 289.01855469 C-85.58531462 288.21430009 -87.46939481 287.70455028 -89.5 287.25 Z M-106.5 320.25 C-118.2707081 337.90606215 -107.49590396 381.74693941 -103.64941406 401.21435547 C-102.08625755 408.82210894 -100.41912739 416.03703988 -97.5 423.25 C-92.67763944 420.12687844 -87.97386708 416.88612402 -83.36767578 413.453125 C-56.41798258 393.38705278 -26.54583973 376.1162391 4.5 363.25 C-0.5509851 359.21667827 -6.39640691 356.6716257 -12.1875 353.875 C-12.82324951 353.56798157 -13.45899902 353.26096313 -14.11401367 352.94464111 C-35.96848799 342.44872445 -58.52979126 334.02131562 -81.5625 326.5 C-82.35744873 326.23902527 -83.15239746 325.97805054 -83.97143555 325.70916748 C-86.23976412 324.96853331 -88.51148297 324.23966563 -90.78515625 323.515625 C-91.44838394 323.29961639 -92.11161163 323.08360779 -92.79493713 322.86105347 C-97.37769064 321.4265693 -101.7446111 320.73448268 -106.5 320.25 Z " fill="#000000" transform="translate(263.5,-0.25)"/>
<path d="M0 0 C1.7578125 1.1640625 1.7578125 1.1640625 3.4375 2.5625 C6.28025044 4.85231271 7.97148227 5.35236587 11.625 5.0625 C14.82581034 4.51193903 15.95598304 4.03542829 18.5625 1.9375 C21.12832157 -0.1019992 21.91809714 -0.37753513 25.0625 -0.5625 C29 0 29 0 31.5625 2.0625 C33 5 33 5 33.25 8.375 C31.2681766 14.12228785 27.26018488 17.12473105 22.078125 20.10546875 C14.81757822 23.30070938 6.95813386 23.0108376 -0.375 20.25 C-5.3698009 18.00630372 -8.93140693 15.6028896 -12 11 C-12.41857482 7.16306413 -12.54644269 4.88796936 -10.5 1.5625 C-7.01873214 -0.61329241 -3.9309295 -0.90485547 0 0 Z " fill="#000000" transform="translate(305,164)"/>
<path d="M0 0 C1.67083819 1.32810215 3.33729713 2.66172696 5 4 C8.05547674 4.98563766 10.80371395 5.35330278 14 5 C15.94164266 3.8881541 17.52513081 2.59361202 19.2421875 1.1640625 C22.54910137 -1.02584935 25.14595038 -0.56863027 29 0 C31.5 1.5625 31.5 1.5625 33 4 C33.5625 7.4375 33.5625 7.4375 33 11 C29.04078145 16.19647434 22.53163888 20.8068381 16 22 C7.33366057 22.84448355 -0.31245496 21.81121387 -7.21484375 16.19921875 C-10.55063637 12.79737083 -11.96557883 11.04984557 -12.125 6.1875 C-9.89293869 -0.13667372 -6.65114715 -1.23803531 0 0 Z " fill="#000000" transform="translate(186,164)"/>
<path d="M0 0 C3.06379652 2.71364835 4.03125749 5.01912261 5.1875 8.9375 C5.38843182 13.17314276 4.61468708 16.28982926 2.25 19.875 C-0.72610953 22.85110953 -2.51430588 23.13290377 -6.625 23.25 C-10.14441917 23.20429326 -11.65134396 23.02479286 -14.8125 21.3125 C-18.11945145 17.38549516 -18.91492703 14.42269197 -18.5625 9.3125 C-17.62359 5.08740499 -17.05017137 2.95675878 -13.6875 0.1875 C-8.94330196 -1.8751948 -4.82500199 -1.82277853 0 0 Z " fill="#000000" transform="translate(262.8125,180.0625)"/>
<path d="M0 0 C2.87109375 1.94140625 2.87109375 1.94140625 5.4375 4.5625 C6.30246094 5.40941406 7.16742188 6.25632812 8.05859375 7.12890625 C10.48350281 10.71503937 10.52068494 12.75021912 10 17 C8 20 8 20 5 22 C0.49353864 22.36938208 -1.57769772 21.99905662 -5.2578125 19.4140625 C-8.69223386 16.29969474 -11.37772995 13.45107592 -12.3125 8.8125 C-12 5 -12 5 -10 2 C-6.24768787 -0.50154142 -4.44632655 -0.49932009 0 0 Z " fill="#000000" transform="translate(296,430)"/>
<path d="M0 0 C2.375 1.0625 2.375 1.0625 4 3 C5.26709464 7.19725099 5.41366721 9.17266559 3.4375 13.125 C-0.19115573 17.40495292 -3.09756116 20.43260596 -8.5625 22.0625 C-12 22 -12 22 -14.9375 20.5625 C-17.1525368 17.81048458 -18.02851444 15.88242659 -17.8125 12.3046875 C-15.01397567 4.3665656 -8.29158109 -0.87125232 0 0 Z " fill="#000000" transform="translate(236,430)"/>
<path d="M0 0 C4.13383168 2.92264532 8.13927206 6.29012577 9.7109375 11.23828125 C9.87188728 14.52537091 9.16617517 16.73411973 7.4375 19.5 C3.89383548 21.68071663 2.10900306 21.75331723 -2 21 C-6.29996529 18.14631598 -10.12007683 14.9070815 -12 10 C-11.87085587 6.31939225 -11.77859391 3.9283235 -9.375 1.0625 C-5.73195211 -0.56728458 -3.98397478 -0.78373274 0 0 Z " fill="#000000" transform="translate(191,352)"/>
<path d="M0 0 C2.4375 1.5 2.4375 1.5 4 4 C4.68168905 7.40844527 4.95056217 8.80265453 4 12 C0.84944575 16.59488894 -2.39335357 19.51800607 -7.75 21.125 C-12.62201835 20.93761468 -12.62201835 20.93761468 -15 19 C-16.5219454 16.31847715 -17.06817243 14.67622648 -16.7578125 11.59765625 C-15.87745871 8.57994868 -14.67801035 7.05463082 -12.5625 4.75 C-11.94503906 4.06421875 -11.32757813 3.3784375 -10.69140625 2.671875 C-7.39160996 -0.58981741 -4.51726848 -0.3894197 0 0 Z " fill="#000000" transform="translate(320,383)"/>
<path d="M0 0 C1.9375 1.6875 1.9375 1.6875 3 4 C3 8.26096263 2.39243677 10.44107491 -0.0625 13.9375 C-4.18151646 16.82957539 -6.03746786 16.78770351 -11 16 C-13.99993115 13.45005852 -14.85480459 11.87117244 -15.5 8 C-14.87169313 4.23015877 -13.72656315 2.65287226 -11 0 C-6.82978094 -2.52407996 -4.33524563 -2.07337834 0 0 Z " fill="#000000" transform="translate(309,317)"/>
</svg>
