<?xml version="1.0" encoding="UTF-8"?>
<svg version="1.1" xmlns="http://www.w3.org/2000/svg" width="512" height="512">
<path d="M0 0 C4.76636347 4.30663539 5.09812655 9.38076172 5.9296875 15.4296875 C6.16314629 16.99089828 6.16314629 16.99089828 6.40132141 18.58364868 C6.90903081 22.01191629 7.39279397 25.44305918 7.875 28.875 C8.22359452 31.28331481 8.5729699 33.69151671 8.9230957 36.09960938 C9.97614248 43.39599886 10.99161809 50.69732405 12 58 C12.1471344 59.05674927 12.2942688 60.11349854 12.44586182 61.20227051 C18.34319537 103.57507501 22.93633762 146.25575885 25 189 C25.04130035 189.79763763 25.08260071 190.59527527 25.12515259 191.41708374 C26.03385998 209.1716868 26.20246959 226.91385984 26.1875 244.6875 C26.18723312 245.40053284 26.18696625 246.11356567 26.18669128 246.84820557 C26.17602189 269.61827457 25.8852451 292.29746238 24 315 C23.93683594 315.77986267 23.87367187 316.55972534 23.80859375 317.36322021 C19.66188211 368.37514187 11.81388599 419.10387369 -0.61279297 468.77539062 C-1.08483154 470.68288086 -1.08483154 470.68288086 -1.56640625 472.62890625 C-1.84427979 473.72275635 -2.12215332 474.81660645 -2.40844727 475.94360352 C-3.3470686 480.79321162 -3.79307779 483.81038332 -1 488 C2.50274821 489.16758274 5.24163274 489.12589029 8.93955994 489.12698364 C10.00497862 489.12932363 10.00497862 489.12932363 11.09192091 489.13171089 C13.47788684 489.13570745 15.86378943 489.13253641 18.24975586 489.12939453 C19.95797259 489.13074918 21.66618903 489.13252947 23.37440491 489.13470459 C28.01898307 489.1392717 32.66353907 489.13749222 37.30811763 489.1343255 C42.16427976 489.13179778 47.02043997 489.13414063 51.87660217 489.13571167 C60.03354229 489.13753233 68.19047336 489.13512994 76.34741211 489.13037109 C85.78193288 489.1249305 95.21643203 489.12669008 104.65095228 489.1321975 C112.74527768 489.13673374 120.83959657 489.13737661 128.93392283 489.13475883 C133.77084715 489.13319865 138.60776131 489.13299521 143.44468498 489.13629532 C147.99266637 489.13918137 152.54061988 489.13718477 157.08859825 489.13140106 C158.75914209 489.13007734 160.42968826 489.13046103 162.10023117 489.13266373 C164.37800475 489.13539045 166.65568858 489.13197536 168.93345642 489.12698364 C170.84678473 489.1264181 170.84678473 489.1264181 172.79876614 489.12584114 C175.41141532 489.02313738 177.52437924 488.78170481 180 488 C184.85887768 468.87356864 189.28189241 449.64354311 193.75610352 430.42431641 C194.79777373 425.95213036 195.84460001 421.48119723 196.89575195 417.01123047 C198.17276369 411.58060478 199.44090233 406.14798026 200.70262718 400.71378326 C201.1831531 398.65094674 201.66681799 396.58883882 202.1536808 394.52748871 C202.83014966 391.66053458 203.49518243 388.79115632 204.1574707 385.92089844 C204.36049805 385.0720961 204.56352539 384.22329376 204.77270508 383.34877014 C204.95066116 382.56704941 205.12861725 381.78532867 205.31196594 380.97991943 C205.46992803 380.30382504 205.62789011 379.62773064 205.79063892 378.93114853 C206.03472676 376.67968008 205.74776101 375.13109104 205 373 C203.14012264 371.25077896 201.1556342 369.78888463 199.10546875 368.26953125 C193.11529667 361.81259251 192.16440237 353.40987333 191.296875 344.9765625 C191.10560028 343.26537735 191.10560028 343.26537735 190.91046143 341.5196228 C190.644758 339.11167783 190.38632256 336.70292096 190.13476562 334.29345703 C189.75456831 330.66855551 189.34795624 327.04736687 188.9375 323.42578125 C187.7919798 313.02996576 186.76044605 302.67783724 186.73046875 292.2109375 C186.72774963 291.46961578 186.72503052 290.72829407 186.722229 289.96450806 C186.89053859 277.58870809 191.83078024 266.82229406 200.06640625 257.71484375 C212.776598 245.55034896 231.12995537 242.74012404 248 241 C249.54880859 240.83177734 249.54880859 240.83177734 251.12890625 240.66015625 C266.03776158 239.27018634 281.10030765 239.73578368 296 241 C295.79503906 239.84628906 295.59007812 238.69257813 295.37890625 237.50390625 C291.64583648 215.37509821 291.09844208 193.25347385 294 171 C293.6596875 171.94359375 293.319375 172.8871875 292.96875 173.859375 C289.65962664 182.73637726 285.70076061 190.3563271 280 198 C279.55398438 198.63035156 279.10796875 199.26070312 278.6484375 199.91015625 C267.05416836 214.95425394 248.4945605 223.29762431 230.3125 226.6875 C211.7023821 228.47255213 193.15029818 226.49534871 177.9609375 214.625 C162.58708406 200.39465632 157.99228233 181.18496567 156 161 C153.36 160.67 150.72 160.34 148 160 C148.165 161.03125 148.33 162.0625 148.5 163.125 C150.20673269 177.50673282 148.25774983 191.60371087 144.91015625 205.609375 C143.13559261 213.44078661 143.5288683 221.74955393 144.5 229.6875 C145.79431417 241.18178253 147.29828731 254.79716698 141 265 C140.57589844 265.7115625 140.15179688 266.423125 139.71484375 267.15625 C134.64789271 274.72139139 126.81084543 279.77812688 118 282 C113.74277958 282.46850311 109.52991465 282.50986155 105.25 282.5 C104.1465625 282.52835937 103.043125 282.55671875 101.90625 282.5859375 C91.81637864 282.60962264 82.01554935 279.9006006 74.52734375 272.796875 C66.01895858 262.7870101 64.7002315 253.43561062 64.70947266 240.7277832 C64.70348062 239.38662851 64.69667353 238.04547724 64.68911743 236.70433044 C64.67151523 233.07593716 64.6667644 229.44763834 64.66548586 225.81920648 C64.66406 223.546796 64.65978211 221.2744092 64.65449142 219.00200462 C64.63600767 211.05836856 64.62781841 203.11479943 64.62939453 195.17114258 C64.6305943 187.79287721 64.60952024 180.41490513 64.5779072 173.0367139 C64.55165768 166.68143456 64.54103091 160.32625047 64.54230535 153.9709174 C64.5428126 150.18445362 64.53726234 146.39825048 64.51594925 142.6118412 C64.49642065 139.04527795 64.49654057 135.47921999 64.51098251 131.91263771 C64.51403233 129.99938092 64.49749551 128.08612328 64.48010254 126.17294312 C64.5769988 112.68743736 68.92642423 100.49992209 78 90.375 C89.35249458 79.79938695 103.89130415 75.0436058 119.25 75.5703125 C128.34827772 76.19136885 137.29743766 78.49227919 146.18847656 80.41455078 C151.42449823 81.50485818 156.69904862 82.29390906 162 83 C162.46227475 59.0901229 160.70726339 35.63061502 152.59667969 12.93188477 C151.48105947 9.31981325 151.5650487 6.30485391 152.75 2.75 C154.36625451 0.48724369 155.31909059 -0.20297288 158 -1 C161.58900512 -0.87182125 164.06698793 -0.6633554 167.02734375 1.44140625 C169.93419062 5.21167299 170.85681374 9.25324662 172.0625 13.8125 C172.31999023 14.75955811 172.57748047 15.70661621 172.84277344 16.68237305 C173.58316219 19.44991617 174.2978165 22.22254366 175 25 C175.32355469 26.27875 175.64710938 27.5575 175.98046875 28.875 C179.9357372 46.54320423 180.38282138 64.96485922 180 83 C195.27949051 81.94786653 210.35468513 80.06896947 225.48754883 77.76489258 C234.32532821 76.43351354 243.06701181 75.48178907 252 75 C245.78698532 66.11288559 239.5115047 57.28029813 233.0625 48.5625 C207.41490044 13.858203 207.41490044 13.858203 206.4375 7.125 C207.32942899 2.16983895 207.32942899 2.16983895 210 0 C212.72080258 -0.90693419 215.15222546 -1.41725634 218 -1 C221.81585786 1.52433674 224.08884869 4.27811768 226.5 8.125 C229.902061 13.38099312 233.44952328 18.49389904 237.125 23.5625 C237.95354492 24.70549561 237.95354492 24.70549561 238.79882812 25.87158203 C243.41623189 32.22381035 248.07670958 38.54416559 252.74389648 44.85986328 C257.48311599 51.27920077 262.16579593 57.73808767 266.82617188 64.21484375 C267.33083984 64.91609375 267.83550781 65.61734375 268.35546875 66.33984375 C268.81872559 66.98550293 269.28198242 67.63116211 269.75927734 68.29638672 C270.7656807 69.67826051 271.8091602 71.03307874 272.86328125 72.37890625 C274 74 274 74 274 76 C283.66693764 77.35479343 293.15702996 78.17377282 302.92578125 78.0546875 C303.85591034 78.04367004 304.78603943 78.03265259 305.74435425 78.02130127 C309.56640195 77.96641756 313.38780329 77.89635414 317.20922852 77.80810547 C336.29638095 77.39804569 351.33662866 80.07885386 365.83203125 93.625 C378.31062055 107.29523837 380.80848755 123.0114536 380.11181641 140.72119141 C379.95069733 144.00478417 379.72770216 147.28290921 379.5 150.5625 C378.29573937 168.28108607 377.45113928 187.08746108 380.5 204.625 C384.27899244 226.91821079 382.51545473 250.69559804 381.25 273.1875 C381.18852783 274.40171631 381.12705566 275.61593262 381.0637207 276.86694336 C380.26269755 288.72789655 377.59034416 299.64531434 370 309 C369.49855469 309.62519531 368.99710937 310.25039063 368.48046875 310.89453125 C360.32904552 319.99794552 349.72876254 322.74125354 338 324 C332.11377512 324.32190976 326.21667614 324.23476733 320.32421875 324.1953125 C318.66128206 324.19157247 316.99834314 324.18873019 315.33540344 324.18673706 C311.00360806 324.17917839 306.67195135 324.15959872 302.34020996 324.1373291 C297.90195592 324.11670126 293.463679 324.10769949 289.02539062 324.09765625 C280.35019748 324.07634377 271.67511609 324.0423043 263 324 C263.00918457 325.24330078 263.01836914 326.48660156 263.02783203 327.76757812 C263.12292456 340.64010399 259.25248836 357.979667 251.0625 368.25 C246.73726374 372.58658859 241.28226728 375.94642478 235.04858398 376.02441406 C233.03238932 376.01627604 231.01619466 376.00813802 229 376 C231.76230875 386.96406955 234.52696765 397.92754371 237.29445839 408.89030647 C238.58006558 413.98323249 239.86492496 419.07634449 241.14794922 424.16992188 C242.39100738 429.10470967 243.63619436 434.03895619 244.88273239 438.97286606 C245.35299693 440.83568882 245.82255135 442.69869103 246.29130936 444.56189346 C247.61075101 449.80524518 248.94534815 455.04432282 250.29987335 460.27872467 C250.78965324 462.18241729 251.2738507 464.08755093 251.75383759 465.99373627 C252.51841205 469.02398027 253.30116179 472.04904499 254.08740234 475.07373047 C254.31917994 476.00774248 254.55095753 476.94175449 254.78975868 477.9040699 C255.13472672 479.20958463 255.13472672 479.20958463 255.48666382 480.54147339 C255.78075418 481.69036702 255.78075418 481.69036702 256.08078575 482.86247063 C257.30835424 485.71704311 258.49926605 487.13458848 261 489 C264.31165628 489.59730638 264.31165628 489.59730638 268.09777832 489.49447632 C269.17060397 489.50171956 269.17060397 489.50171956 270.26510286 489.50910914 C272.66213267 489.52038262 275.0580962 489.50306015 277.45507812 489.48583984 C279.17329701 489.48798566 280.89151447 489.49186329 282.60972595 489.49734497 C287.27710693 489.50704542 291.94410587 489.49172629 296.61144066 489.47143888 C301.49294989 489.45388205 306.37444708 489.4573927 311.25598145 489.4581604 C319.45408528 489.45628684 327.65204112 489.43891555 335.85009766 489.41162109 C345.3318169 489.38016971 354.81337405 489.36962488 364.2951417 489.3710922 C373.41158201 489.37231252 382.52796948 489.36210381 391.64439392 489.34550858 C395.52628492 489.33844297 399.40815721 489.33478209 403.29005432 489.33372116 C407.86026005 489.3317134 412.43032945 489.31951288 417.00049019 489.29938889 C418.67908964 489.29354279 420.35770478 489.29108737 422.03631401 489.29224396 C424.32509524 489.29322427 426.61349373 489.28192531 428.90222168 489.26742554 C430.18384941 489.26407385 431.46547714 489.26072216 432.78594208 489.25726891 C435.814321 489.01486265 437.51695155 488.69988667 440 487 C442.84458894 481.31082213 439.48723574 471.91684927 438.14453125 465.91796875 C437.76811485 464.18368916 437.39215766 462.44930985 437.01660156 460.71484375 C436.82005981 459.81491699 436.62351807 458.91499023 436.42102051 457.98779297 C427.24033759 415.7400766 421.3465172 373.12410631 418.25 330 C418.19083405 329.18359039 418.13166809 328.36718079 418.07070923 327.52603149 C416.32538629 302.97972246 415.79132485 278.4154756 415.8125 253.8125 C415.81310425 252.49440338 415.8137085 251.17630676 415.81433105 249.81826782 C415.87620961 184.98713026 421.26606968 120.44383781 428 56 C428.13059814 54.7411499 428.26119629 53.4822998 428.39575195 52.18530273 C429.15434125 44.89131904 429.93509272 37.60031641 430.75006104 30.31240845 C430.99770402 28.08331922 431.2401157 25.85364186 431.47698975 23.62338257 C431.80381337 20.56836428 432.15251868 17.5166639 432.5078125 14.46484375 C432.59935608 13.57210754 432.69089966 12.67937134 432.78521729 11.75958252 C433.39527939 6.77254752 434.16167749 3.56579719 438 0 C442.00803597 -1.1659741 444.05282711 -1.43240501 447.875 0.3125 C450 2 450 2 451 4 C451.31821953 11.31711771 450.51694678 18.44216072 449.67065811 25.70564079 C449.41853313 27.87083913 449.17271546 30.0366772 448.92843628 32.20277405 C448.57630355 35.32241514 448.22207906 38.44180757 447.86630249 41.56103516 C442.98786482 84.42096437 438.91262548 127.31428516 436.25 170.375 C436.19065277 171.33124268 436.13130554 172.28748535 436.07015991 173.27270508 C434.48705953 199.19226541 433.79243456 225.09579287 433.8125 251.0625 C433.81261959 251.7281749 433.81273918 252.39384979 433.8128624 253.07969666 C433.81836194 277.42692935 434.331712 301.7049124 436 326 C436.05091797 326.74223816 436.10183594 327.48447632 436.15429688 328.24920654 C439.00991232 369.10099947 444.19133339 410.13020859 453.2265625 450.09375 C453.5039048 451.32094757 453.5039048 451.32094757 453.78684998 452.57293701 C454.66892031 456.44884371 455.57236545 460.31806321 456.51098633 464.18066406 C458.94611655 474.38682069 461.43815496 485.17192471 456.390625 494.96484375 C452.00502134 501.38310079 446.39488422 504.81997737 439 507 C435.23242378 507.38031673 435.23242378 507.38031673 431.27175903 507.38768005 C430.53693987 507.39306559 429.8021207 507.39845113 429.04503429 507.40399987 C426.60553144 507.41820148 424.16657724 507.41119533 421.72705078 507.40405273 C419.96871508 507.40976044 418.21038308 507.41672624 416.45205688 507.42485046 C411.69162673 507.44275378 406.9313812 507.44161868 402.17092752 507.43590808 C398.18995942 507.43281182 394.20902655 507.43891362 390.22806346 507.44494683 C380.83251364 507.45898147 371.43705477 507.45743988 362.04150391 507.44604492 C352.36434907 507.43456743 342.6874715 507.44863563 333.01035321 507.4754414 C324.68736708 507.49762887 316.36446779 507.50422883 308.0414542 507.49836498 C303.07691677 507.49500118 298.11255701 507.49737203 293.14804459 507.51461601 C288.4775512 507.53013144 283.80746708 507.52607876 279.13698959 507.50731087 C277.42864813 507.50363754 275.72027603 507.5066966 274.01196289 507.51719666 C263.1978936 507.5785601 253.74304992 507.24894619 245.125 499.9375 C237.49059916 491.45806426 235.92693387 477.44349257 233.234375 466.64453125 C232.79218922 464.88892678 232.34949256 463.13345091 231.90631104 461.37809753 C230.75049167 456.79442791 229.60154622 452.20906319 228.45410156 447.62329102 C227.27829517 442.92944254 226.09588842 438.23725763 224.9140625 433.54492188 C222.60297041 424.36488301 220.29914835 415.18303689 218 406 C217.6408123 407.57068237 217.6408123 407.57068237 217.27436829 409.1730957 C215.01054502 419.06349432 212.73094352 428.95014114 210.4360323 438.83337402 C209.25682924 443.91399485 208.08313079 448.99575496 206.92211914 454.08056641 C205.80048583 458.99197087 204.66425493 463.89979107 203.51802635 468.80551147 C203.08428679 470.67329745 202.65573029 472.54229522 202.23256874 474.4125061 C201.63677694 477.04146678 201.02232896 479.66542779 200.40356445 482.2890625 C200.23452606 483.05511307 200.06548767 483.82116364 199.8913269 484.61042786 C197.92234191 492.77386171 194.00024388 499.19591107 187 504 C181.75204741 506.51093432 177.12685449 507.37679478 171.27175903 507.38768005 C170.53693987 507.39306559 169.8021207 507.39845113 169.04503429 507.40399987 C166.60553144 507.41820148 164.16657724 507.41119533 161.72705078 507.40405273 C159.96871508 507.40976044 158.21038308 507.41672624 156.45205688 507.42485046 C151.69162673 507.44275378 146.9313812 507.44161868 142.17092752 507.43590808 C138.18995942 507.43281182 134.20902655 507.43891362 130.22806346 507.44494683 C120.83251364 507.45898147 111.43705477 507.45743988 102.04150391 507.44604492 C92.36434907 507.43456743 82.6874715 507.44863563 73.01035321 507.4754414 C64.68736708 507.49762887 56.36446779 507.50422883 48.0414542 507.49836498 C43.07691677 507.49500118 38.11255701 507.49737203 33.14804459 507.51461601 C28.4775512 507.53013144 23.80746708 507.52607876 19.13698959 507.50731087 C17.42864813 507.50363754 15.72027603 507.5066966 14.01196289 507.51719666 C3.88426206 507.57466536 -5.41393281 507.51814258 -13.65625 500.8515625 C-20.43739785 492.66246446 -21.82767856 486.57277143 -21 476 C-20.03921432 470.32913587 -18.57979336 464.7559869 -17.18347168 459.17996216 C-15.99422251 454.4080441 -14.86304004 449.62249168 -13.734375 444.8359375 C-13.50212219 443.85128006 -13.26986938 442.86662262 -13.03057861 441.85212708 C-3.24278037 399.95210906 2.82758121 356.893856 6 314 C6.10398208 312.65445795 6.20798627 311.30891761 6.31201172 309.96337891 C9.7357753 264.6305484 9.33221367 218.32608201 6 173 C5.93683594 172.12561279 5.87367187 171.25122559 5.80859375 170.3503418 C2.04357066 118.51206439 -4.03978604 66.74804982 -12.58740234 15.4765625 C-13.22896828 11.62564839 -13.55314127 7.87936408 -13 4 C-9.15919646 -1.12107138 -6.10680729 -1.47405693 0 0 Z M243.0625 92.6875 C242.19987549 92.7692749 241.33725098 92.8510498 240.44848633 92.93530273 C229.85017556 94.01366391 219.31559516 95.62291562 208.78735352 97.23510742 C182.4535576 101.20614445 157.27149067 100.35041188 131.23413086 94.67700195 C118.12835548 91.92551888 106.29270411 91.69976795 94.75 99.125 C88.06962206 104.0932685 84.32902223 110.06976641 82 118 C81.69954511 120.83057341 81.69954511 120.83057341 81.73257446 123.76158142 C81.72404449 124.88720993 81.71551453 126.01283844 81.70672607 127.1725769 C81.70763245 128.3930069 81.70853882 129.61343689 81.70947266 130.87084961 C81.70275543 132.16746017 81.69603821 133.46407074 81.68911743 134.79997253 C81.67150195 138.34544774 81.66676402 141.89082631 81.66548586 145.43634105 C81.66406148 147.65393174 81.65978652 149.87149809 81.65449142 152.08908272 C81.63600777 159.83243487 81.62781896 167.57571831 81.62939453 175.3190918 C81.63059635 182.5264591 81.60948198 189.73352715 81.5779072 196.94081873 C81.55172549 203.13888894 81.54102798 209.33686149 81.54230535 215.53498656 C81.54281431 219.23244074 81.53716744 222.92962864 81.51594925 226.62702751 C81.49292446 230.75147745 81.50209924 234.87525928 81.51416016 238.99975586 C81.50292114 240.21816162 81.49168213 241.43656738 81.48010254 242.69189453 C81.53676572 250.31397602 82.32863077 254.99650201 87.59765625 260.7421875 C93.40727956 265.23496286 97.75539884 265.20964488 104.8125 265.25 C105.70259766 265.270625 106.59269531 265.29125 107.50976562 265.3125 C113.71657797 265.34930838 118.12436644 264.65257603 122.86328125 260.28125 C123.34152344 259.6934375 123.81976563 259.105625 124.3125 258.5 C124.80363281 257.9121875 125.29476562 257.324375 125.80078125 256.71875 C128.59120922 252.71943955 128.15313372 248.41146698 128.125 243.75 C128.12161621 242.95384277 128.11823242 242.15768555 128.11474609 241.33740234 C128.7200335 227.64274868 128.7200335 227.64274868 125 215 C123.99839844 215.38414062 122.99679688 215.76828125 121.96484375 216.1640625 C120.6227756 216.65208728 119.28030565 217.13900813 117.9375 217.625 C117.28072266 217.88023437 116.62394531 218.13546875 115.94726562 218.3984375 C110.90054124 220.18840871 107.97207265 220.06483527 103 218 C101.44225064 214.88450128 101.43519378 211.3955612 102 208 C104.41448785 204.33726749 108.73411641 203.43774688 112.6875 202.0625 C114.13246925 201.53517206 115.57649406 201.00524853 117.01953125 200.47265625 C117.70869629 200.21887207 118.39786133 199.96508789 119.10791016 199.70361328 C125.89232546 197.42208358 125.89232546 197.42208358 130.4375 192.25 C131.79771177 184.39099867 132.27010676 176.97779624 132 169 C132.03867188 167.29263672 132.03867188 167.29263672 132.078125 165.55078125 C131.92613719 161.84818928 131.63833281 159.33615816 130 156 C125.85202752 153.39045275 121.61724548 152.06056715 116.95214844 150.65478516 C111.65625545 148.87844886 105.96697766 145.96697766 102 142 C101.50402293 138.96069865 101.55393097 136.04442112 102 133 C103.625 130.9375 103.625 130.9375 106 130 C111.54947531 129.3915049 114.92012432 131.15357154 119.625 133.75 C130.37057103 139.63499833 141.20522154 142.54307731 153.3125 144.1875 C154.4878833 144.35475586 155.6632666 144.52201172 156.87426758 144.69433594 C165.23860072 145.85042419 173.55921287 146.71722656 182 147 C182.474375 145.80375 182.94875 144.6075 183.4375 143.375 C183.70433594 142.70210937 183.97117187 142.02921875 184.24609375 141.3359375 C186.29474957 134.98828889 186.0170571 128.83452409 185.83984375 122.2421875 C185.99301594 119.1413846 186.26331771 117.52938397 188 115 C191.18666086 113.40666957 194.53199853 113.61624574 198 114 C200.60559948 115.51292873 200.8935383 116.61286654 201.6875 119.5 C202.55628459 129.23038743 201.57369767 138.37515266 200 148 C206.82813382 149.28960139 213.57514386 149.19842664 220.5 149.1875 C221.20429138 149.18689575 221.90858276 149.1862915 222.63421631 149.18566895 C273.90008732 149.49477944 273.90008732 149.49477944 321.9765625 134.609375 C326.69729691 132.19576643 329.67114982 131.51086016 335 133 C337.59393856 135.8371203 338.02858292 137.28542702 337.875 141.125 C336.55796742 145.45239276 334.7796603 146.56994168 330.8203125 148.75390625 C329.59159914 149.36297814 328.359711 149.96568023 327.125 150.5625 C326.51269531 150.86607422 325.90039062 151.16964844 325.26953125 151.48242188 C322.59129408 152.79860053 320.01380799 153.99570756 317.16015625 154.8828125 C314.78341766 155.82976118 314.78341766 155.82976118 313.92578125 158.36328125 C313.72339844 159.33652344 313.52101563 160.30976563 313.3125 161.3125 C313.08433594 162.39273438 312.85617187 163.47296875 312.62109375 164.5859375 C312.41613281 165.71257812 312.21117187 166.83921875 312 168 C311.70802734 169.59714844 311.70802734 169.59714844 311.41015625 171.2265625 C308.07576122 191.23293267 304.00081673 228.0012251 316 246 C318.59655346 247.28209499 318.59655346 247.28209499 321.625 248.375 C334.45164899 253.50874292 334.45164899 253.50874292 337.21875 257.9609375 C338.37511514 260.97905051 337.91124374 262.94082459 337 266 C334.80561467 268.43820592 333.53899445 268.94509526 330.27734375 269.27734375 C326.2574091 268.93715858 323.78205253 267.61734318 320.25 265.6875 C311.35828563 260.84577882 302.70259132 258.60612632 292.625 257.8125 C291.19824951 257.69406738 291.19824951 257.69406738 289.74267578 257.57324219 C267.90974388 255.9013021 233.05058342 253.4883473 214.75 267.75390625 C208.60788839 273.52342653 204.41058876 280.19123851 203.80786133 288.71826172 C203.66991077 300.72611104 204.95876969 312.57841704 206.28881836 324.50097656 C206.69022049 328.14972927 207.05914407 331.80092997 207.42773438 335.453125 C207.6829139 337.78407199 207.94000612 340.11481056 208.19921875 342.4453125 C208.35737312 344.07498459 208.35737312 344.07498459 208.51872253 345.73757935 C209.07678571 350.45529116 209.48278985 353.2944576 212.33325195 357.18286133 C215.03777146 359.02573771 216.25296782 359.63206586 219.46875 359.62890625 C220.28730469 359.63083984 221.10585938 359.63277344 221.94921875 359.63476562 C222.79097656 359.61091797 223.63273438 359.58707031 224.5 359.5625 C225.34175781 359.57345703 226.18351563 359.58441406 227.05078125 359.59570312 C231.08271463 359.54808186 233.44373042 359.33170693 236.9609375 357.234375 C245.06249613 348.35680501 246.57425714 332.32727443 246.30078125 320.8125 C245.51756229 310.88494539 244.47192178 300.66191137 242 291 C241.5196669 286.96835166 241.37106499 284.00629602 243.5625 280.5 C246.91034349 278.43978862 249.14014247 278.50874541 253 279 C258.87030243 283.43817551 259.12314601 293.38660428 260.125 300.125 C260.27195312 301.22070312 260.41890625 302.31640625 260.5703125 303.4453125 C260.73379322 305.92713563 260.73379322 305.92713563 262 307 C264.35042488 307.11091332 266.67174527 307.15738145 269.02319336 307.16113281 C269.75830139 307.16609772 270.49340942 307.17106262 271.25079346 307.17617798 C273.69715295 307.19084923 276.14344738 307.19761347 278.58984375 307.203125 C280.29081728 307.208877 281.99179079 307.21463472 283.69276428 307.22039795 C287.26987002 307.23092516 290.8469532 307.23675503 294.42407227 307.24023438 C298.98679331 307.24569097 303.54921165 307.26965031 308.11183834 307.29820633 C311.63195123 307.31693187 315.1519931 307.32204379 318.67215157 307.32357025 C320.35251056 307.32658029 322.03286881 307.33455256 323.71317863 307.34775543 C335.20903837 307.43155628 345.89372544 307.3821049 355.2421875 299.8125 C369.44331461 285.16956005 365.19640309 254.59406751 365.1875 235.625 C365.1887236 234.38305878 365.1887236 234.38305878 365.18997192 233.11602783 C365.18970592 230.73611893 365.18087526 228.35643361 365.16796875 225.9765625 C365.16617111 224.92190796 365.16617111 224.92190796 365.16433716 223.84594727 C365.12320307 219.48270624 364.95724476 215.26424132 364 211 C362.56569687 209.49826051 362.56569687 209.49826051 360.578125 208.890625 C359.53398438 208.47103516 359.53398438 208.47103516 358.46875 208.04296875 C357.7365625 207.78128906 357.004375 207.51960938 356.25 207.25 C354.81654875 206.69569781 353.38422702 206.13846458 351.953125 205.578125 C351.27314453 205.31580078 350.59316406 205.05347656 349.89257812 204.78320312 C343.58685751 202.17371503 343.58685751 202.17371503 342 199 C341.54929577 191.90140845 341.54929577 191.90140845 343 189 C346.29351763 187.35324119 349.45529181 187.39730883 353 188 C355.17114258 188.91772461 355.17114258 188.91772461 357.26953125 190.02734375 C357.97311768 190.394646 358.6767041 190.76194824 359.40161133 191.14038086 C359.92907959 191.42405518 360.45654785 191.70772949 361 192 C361.28994711 185.33313937 361.57408635 178.66604798 361.85449219 171.9987793 C361.95021091 169.73830779 362.0471811 167.47788886 362.14550781 165.2175293 C365.25083844 132.86767866 365.25083844 132.86767866 351.99609375 104.80078125 C343.79947753 96.868099 335.05545702 94.52236801 323.78417969 94.59765625 C322.00382324 94.64212891 322.00382324 94.64212891 320.1875 94.6875 C318.95805664 94.70296875 317.72861328 94.7184375 316.46191406 94.734375 C308.28785969 94.86436261 300.13410475 95.14377845 292 96 C291.84144531 97.00417969 291.68289063 98.00835937 291.51953125 99.04296875 C287.64905272 122.24588901 287.64905272 122.24588901 281.53125 126.86328125 C278.21926717 128.35060687 276.44013607 128.04699793 273 127 C271.125 125.9375 271.125 125.9375 270 124 C269.26103081 117.98267949 270.55701681 113.87529245 273.02734375 108.39453125 C274.60639711 104.50714287 275.13328084 100.86356957 275.0625 96.6875 C275.0315625 94.8621875 275.0315625 94.8621875 275 93 C273.04211489 92.82814802 271.08365489 92.66284429 269.125 92.5 C268.03445313 92.4071875 266.94390625 92.314375 265.8203125 92.21875 C258.18836203 91.7817467 250.66786724 91.94866603 243.0625 92.6875 Z M174 163 C173.85407959 173.92528103 176.67262696 184.97105195 183 194 C183.47953125 194.69609375 183.9590625 195.3921875 184.453125 196.109375 C190.24806961 203.59216755 199.26495287 208.14956997 208.55078125 209.75 C226.43182031 211.57517783 242.43512341 207.6082104 256.93359375 196.81640625 C266.70219572 188.56525701 274.35546007 177.33536593 278 165 C278 164.34 278 163.68 278 163 C275.85098177 163.1014095 273.70196878 163.20293105 271.55297852 163.30493164 C269.65246541 163.39481742 267.75191033 163.48381916 265.85131836 163.57202148 C261.30133919 163.78522565 256.75334304 164.00761048 252.20703125 164.2890625 C226.05400647 165.86990686 200.09477739 164.87638866 174 163 Z M295 163 C296 166 296 166 296 166 Z " fill="#000000" transform="translate(37,3)"/>
</svg>
