<?xml version="1.0" encoding="UTF-8"?>
<svg version="1.1" xmlns="http://www.w3.org/2000/svg" width="512" height="512">
<path d="M0 0 C44.44627644 6.65277181 84.57501619 26.82457927 116.90649414 57.79589844 C118.27984832 59.11126156 119.66467575 60.41461787 121.05053711 61.71679688 C125.86142152 66.35287822 130.18806727 71.24785911 134.33569336 76.47460938 C134.79669434 77.0532373 135.25769531 77.63186523 135.73266602 78.22802734 C141.02137492 85.04907057 143.38179957 90.52896025 142.39819336 99.22460938 C139.86969221 107.65294652 131.78455709 112.63124454 124.45214844 116.6887207 C118.30139852 119.96567486 112.09265228 122.85680972 105.58569336 125.34960938 C93.17708855 130.16351843 83.71579151 136.88462853 74.39819336 146.22460938 C73.50874023 147.10246094 72.61928711 147.9803125 71.70288086 148.88476562 C60.37927573 160.64123028 54.89083298 174.17931506 49.6730957 189.33007812 C46.61898076 198.14809646 43.43097658 205.95306163 37.39819336 213.22460938 C36.71885742 214.05347656 36.03952148 214.88234375 35.33959961 215.73632812 C29.20727881 222.87430581 22.23106108 229.00269756 14.39819336 234.22460938 C14.87256836 235.17335938 15.34694336 236.12210938 15.83569336 237.09960938 C17.82577118 241.67115608 18.11046238 246.29349565 18.39819336 251.22460938 C38.67038171 242.25308772 54.44638303 224.68303474 63.15600586 204.47070312 C64.84026346 200.06938846 66.36527865 195.61798228 67.89819336 191.16210938 C75.30144814 169.78036638 87.74597943 153.70572927 108.28344727 143.22460938 C113.07152197 140.96047246 118.04208753 139.11943702 122.99072266 137.23999023 C128.33077093 135.17568845 133.15617273 132.79187103 138.02319336 129.78710938 C143.47300948 126.53387014 147.97684656 124.5111264 154.39819336 125.22460938 C159.20586206 126.72207996 162.72277675 128.80924582 166.39819336 132.22460938 C188.36215187 174.3176994 185.01967106 231.84763246 171.61743164 275.78417969 C163.26791855 301.72899437 149.22569068 331.80663235 128.39819336 350.22460938 C125.32232526 351.19834788 123.722038 350.75220376 120.39819336 350.22460938 C117.83569336 348.16210938 117.83569336 348.16210938 116.39819336 345.22460938 C116.47195223 338.54533418 119.32923772 335.12384807 123.39819336 330.22460938 C147.67179702 299.71899798 163.21226804 259.31073146 164.39819336 220.22460938 C164.42397461 219.56090332 164.44975586 218.89719727 164.47631836 218.21337891 C165.32048423 194.06495883 162.06754455 169.96253535 153.96655273 147.17211914 C153.39819336 145.22460938 153.39819336 145.22460938 153.39819336 142.22460938 C149.73708839 142.88210297 147.13720385 144.49044236 143.99975586 146.44726562 C136.45384208 150.93702707 128.49994242 153.91077466 120.28881836 156.953125 C104.94263241 162.90457866 93.96102091 173.35790856 87.04272461 188.29101562 C85.22311103 192.46816936 83.83668146 196.76009733 82.46069336 201.09960938 C77.84611381 215.59597703 71.15877843 227.58883802 61.39819336 239.22460938 C60.7678418 239.99546875 60.13749023 240.76632812 59.48803711 241.56054688 C44.90934667 258.89557287 24.55379289 269.1813427 3.39819336 276.22460938 C2.73819336 276.22460938 2.07819336 276.22460938 1.39819336 276.22460938 C6.64174212 282.44382089 12.27472655 288.16294569 18.09350586 293.84179688 C19.96259455 295.68363702 21.83106554 297.52610417 23.69897461 299.36914062 C26.61302218 302.24143996 29.53100762 305.10947843 32.46118164 307.96533203 C35.31077944 310.74356867 38.13969313 313.54239575 40.96850586 316.34179688 C41.83943878 317.18378632 42.7103717 318.02577576 43.60769653 318.89328003 C51.04543835 326.29823589 56.02820684 333.77550508 56.52709961 344.49414062 C56.1480711 352.52265361 53.20186415 359.60815377 47.39819336 365.22460938 C41.41602961 369.33542959 36.1213706 371.39167567 28.83569336 371.59960938 C27.6794043 371.64859375 26.52311523 371.69757813 25.33178711 371.74804688 C12.76611104 370.07595095 5.1382968 360.56090265 -3.22680664 351.91210938 C-4.52901291 350.58477964 -5.83238953 349.25859704 -7.13696289 347.93359375 C-10.30556613 344.71033991 -13.45790301 341.47195183 -16.60180664 338.22460938 C-17.71370361 338.85455811 -18.82560059 339.48450684 -19.97119141 340.13354492 C-20.59663345 340.48789108 -21.2220755 340.84223724 -21.86647034 341.20732117 C-23.85053277 342.37041752 -25.68561834 343.67721542 -27.53930664 345.03710938 C-37.78187891 351.9120216 -49.50110946 356.12087203 -61.60180664 358.22460938 C-62.90118164 358.45148438 -64.20055664 358.67835938 -65.53930664 358.91210938 C-90.67210725 361.44119623 -115.50644498 354.85785473 -135.1496582 338.890625 C-154.53070563 322.5446641 -166.29699289 299.58032718 -168.47680664 274.34960938 C-169.16431923 260.51468862 -166.9870684 247.61042476 -162.37109375 234.56762695 C-160.57428451 229.08305264 -160.41354048 225.55341684 -162.61132812 220.16088867 C-163.88903503 217.66310867 -165.37358885 215.70994564 -167.28930664 213.66210938 C-181.7701535 196.40776699 -185.3866492 175.14869102 -183.60180664 153.22460938 C-181.71789935 137.60714877 -174.18248771 122.73059716 -163.60180664 111.22460938 C-162.90313477 110.44601563 -162.20446289 109.66742188 -161.48461914 108.86523438 C-156.13765584 103.19478931 -150.35915904 99.07080568 -143.60180664 95.22460938 C-142.81161133 94.76183594 -142.02141602 94.2990625 -141.20727539 93.82226562 C-131.72508227 88.64873074 -120.39031264 85.71222547 -109.60180664 85.22460938 C-108.52866211 85.14726562 -108.52866211 85.14726562 -107.43383789 85.06835938 C-86.51397927 84.22736003 -67.0420015 92.44509735 -51.26977539 105.74804688 C-34.8582649 120.98215764 -26.5405608 141.11588215 -25.60180664 163.22460938 C-25.40409724 186.38132299 -34.86870456 206.13281357 -50.66430664 222.53710938 C-53.13277583 224.95689081 -55.62142195 227.02963719 -58.47680664 228.97460938 C-62.03084253 231.45874675 -62.03084253 231.45874675 -63.60180664 235.22460938 C-64.11736002 239.17718528 -63.76095352 240.92905088 -61.85180664 244.47460938 C-59.27550972 247.76728352 -59.27550972 247.76728352 -55.60180664 249.22460938 C-51.02652529 249.45490877 -48.76053515 249.15428423 -45.14282227 246.25170898 C-42.42553348 243.55744369 -39.81201819 240.79586198 -37.22680664 237.97460938 C-22.79653512 222.34181523 -22.79653512 222.34181523 -12.03930664 221.72851562 C-10.56002028 221.73374741 -9.08071834 221.75340937 -7.60180664 221.78710938 C0.22346566 221.63228123 5.25118524 220.34891036 11.39819336 215.22460938 C12.67243164 214.21140625 12.67243164 214.21140625 13.97241211 213.17773438 C25.79746271 203.20863342 31.12461337 191.46418435 35.71069336 176.97460938 C44.96670733 148.33662747 65.63530792 125.97451708 92.18725586 112.26367188 C97.54720238 109.59266173 103.11060158 107.41568657 108.65893555 105.17211914 C114.8969005 102.58794778 120.15908139 99.53441871 125.39819336 95.22460938 C123.86435742 90.1917102 120.82527199 86.88878181 117.39819336 83.03710938 C116.81440918 82.37437012 116.230625 81.71163086 115.62915039 81.02880859 C99.50370879 62.86619062 80.89449235 48.43225702 59.39819336 37.22460938 C58.74544434 36.88187988 58.09269531 36.53915039 57.42016602 36.18603516 C35.5325551 24.85999622 11.42279998 17.95573121 -13.13671875 15.99462891 C-17.34007372 15.60846235 -20.20973198 14.76708029 -23.60180664 12.22460938 C-25.1476754 9.13287186 -24.89540185 6.63031385 -24.60180664 3.22460938 C-19.1460282 -4.08873173 -8.06764291 -1.07788786 0 0 Z M-150.11743164 120.57226562 C-163.17776417 134.51560806 -168.53026251 150.62159238 -167.94555664 169.53710938 C-167.08237225 184.75381713 -159.911693 197.48571739 -150.33227539 208.95507812 C-145.81925094 214.87396572 -144.1124577 222.34641216 -144.85180664 229.71679688 C-145.67951036 234.81604303 -147.00711305 239.62760328 -148.60180664 244.53710938 C-154.8949214 264.50066069 -153.225308 283.94002855 -143.79589844 302.48925781 C-140.93798238 307.88007459 -137.59736411 312.61069183 -133.60180664 317.22460938 C-132.9637207 318.04960937 -132.32563477 318.87460937 -131.66821289 319.72460938 C-120.12594968 333.68878415 -101.12313408 341.11336834 -83.60180664 343.22460938 C-62.44477523 344.65711671 -44.45720703 337.55038037 -27.60180664 325.34960938 C-23.09277361 322.15571098 -19.02476548 321.53184936 -13.60180664 322.22460938 C-7.48489864 324.37155523 -3.1865914 328.09824467 1.23413086 332.70507812 C1.83955719 333.31853592 2.44498352 333.93199371 3.0687561 334.56404114 C4.98003262 336.50406388 6.87703694 338.45731641 8.77319336 340.41210938 C10.69339677 342.37485046 12.61645032 344.33471891 14.54190063 346.29231262 C15.73417057 347.50625673 16.92292038 348.72367028 18.10775757 349.94487 C22.3332984 354.28870742 22.3332984 354.28870742 28.08569336 355.66210938 C32.50370596 355.59761284 34.92053381 354.03840871 38.04272461 351.00195312 C40.26841081 348.08354615 40.52738033 345.84184458 40.39819336 342.22460938 C38.51158335 337.71840556 36.19608202 334.65415041 32.74316406 331.22900391 C32.28430817 330.76970993 31.82545227 330.31041595 31.35269165 329.83720398 C29.85012672 328.33671153 28.33725624 326.84709882 26.82397461 325.35742188 C25.77385539 324.3129041 24.72440116 323.26771738 23.67558289 322.22189331 C20.92524345 319.48295947 18.1660125 316.75315863 15.40478516 314.02520752 C12.5839749 311.23519081 9.77173192 308.43656747 6.95874023 305.63867188 C1.44687297 300.15889308 -4.07442294 294.68874129 -9.60180664 289.22460938 C-13.46014974 290.69218279 -16.28448712 292.35940808 -19.53930664 294.91210938 C-35.48708267 306.70704171 -57.47223555 314.82467897 -77.60180664 312.22460938 C-79.94555664 310.95507812 -79.94555664 310.95507812 -81.60180664 309.22460938 C-82.13305664 307.28710938 -82.13305664 307.28710938 -82.10180664 305.22460938 C-82.11727539 304.20367187 -82.11727539 304.20367187 -82.13305664 303.16210938 C-81.60180664 301.22460938 -81.60180664 301.22460938 -80.08618164 299.52929688 C-76.61644412 297.70713912 -73.18952402 297.60783542 -69.35180664 297.34960938 C-47.45093239 295.35136252 -29.52042896 285.79164127 -14.28149414 269.89648438 C-12.45904033 268.0825071 -10.5245916 266.48278719 -8.53930664 264.84960938 C-3.91357189 260.81899839 0.47490958 256.18052524 1.90600586 250.04882812 C2.09941619 246.62546531 1.46245254 244.34284626 -0.16430664 241.34960938 C-3.30856456 238.60846144 -5.46463829 237.78558135 -9.60180664 237.22460938 C-18.32317403 239.53190784 -23.67572404 247.1738615 -29.59985352 253.5546875 C-36.45979006 260.70483289 -42.54245165 265.05474731 -52.60180664 265.72460938 C-59.89076939 265.40320629 -67.54353325 262.56389795 -72.60180664 257.22460938 C-78.40382778 248.72066663 -80.37422421 242.52351029 -79.60180664 232.22460938 C-77.76643294 223.26549706 -71.71674031 217.89649191 -64.60571289 212.72851562 C-52.3062105 203.49789492 -44.84681018 189.12852745 -42.51977539 174.10888672 C-40.14911642 156.33289551 -44.70841665 139.28443712 -55.37915039 124.81445312 C-66.10094759 112.03161515 -81.56155993 103.24086088 -98.19311523 101.51245117 C-118.06815833 99.92101615 -136.03212902 106.37665346 -150.11743164 120.57226562 Z " fill="#000000" transform="translate(286.601806640625,45.775390625)"/>
<path d="M0 0 C1.01790619 0.00215515 2.03581238 0.0043103 3.08456421 0.00653076 C17.69363523 0.05620146 32.02575853 0.30709809 46.375 3.3125 C47.34985352 3.51117676 48.32470703 3.70985352 49.32910156 3.91455078 C88.47564494 12.10330594 124.69815091 27.79453981 156.375 52.3125 C157.261875 52.98667969 158.14875 53.66085938 159.0625 54.35546875 C174.64283588 66.46518494 189.26608284 80.75013716 201.375 96.3125 C202.15101563 97.2715625 202.92703125 98.230625 203.7265625 99.21875 C238.25804162 142.62975232 256.81395322 197.76040062 256.69067383 253.03979492 C256.6875221 255.97938487 256.71104926 258.9179558 256.73632812 261.85742188 C256.78098737 275.23056192 255.57551542 288.12666711 253.375 301.3125 C253.09281616 303.01805054 253.09281616 303.01805054 252.80493164 304.75805664 C245.77946967 343.86954746 228.79665906 381.05202178 204.375 412.3125 C203.61574219 413.28445313 202.85648437 414.25640625 202.07421875 415.2578125 C189.73986402 430.63741644 175.93895499 445.19015196 160.375 457.3125 C159.43914062 458.07691406 158.50328125 458.84132813 157.5390625 459.62890625 C125.58628299 485.2157721 86.41988322 501.72551276 46.375 509.3125 C45.56562988 509.47621094 44.75625977 509.63992188 43.92236328 509.80859375 C13.88110013 515.67977137 -20.7615176 514.58512909 -50.625 508.3125 C-52.14794678 507.99901611 -52.14794678 507.99901611 -53.70166016 507.67919922 C-90.84546555 499.78695344 -125.70945445 483.68345578 -155.625 460.3125 C-156.59695312 459.55324219 -157.56890625 458.79398437 -158.5703125 458.01171875 C-173.94991644 445.67736402 -188.50265196 431.87645499 -200.625 416.3125 C-201.77162109 414.90871094 -201.77162109 414.90871094 -202.94140625 413.4765625 C-228.5282721 381.52378299 -245.03801276 342.35738322 -252.625 302.3125 C-252.78871094 301.50312988 -252.95242187 300.69375977 -253.12109375 299.85986328 C-255.93850693 285.44390514 -255.9370595 270.88271282 -256 256.25 C-256.00794586 255.28247803 -256.01589172 254.31495605 -256.02407837 253.31811523 C-256.11375462 239.08204821 -254.95606461 225.35539714 -252.625 211.3125 C-252.43695801 210.17498291 -252.24891602 209.03746582 -252.05517578 207.86547852 C-245.95558427 173.94282349 -232.03544842 131.77135964 -207.625 106.3125 C-203.5863389 104.91985824 -201.74661851 104.92237182 -197.75 106.3125 C-195.625 108.3125 -195.625 108.3125 -194.5 111.4375 C-194.6974671 117.55898006 -197.7724118 121.53116069 -201.09765625 126.5234375 C-223.84011804 161.05621732 -238.47092696 203.18623895 -238.86328125 244.74609375 C-238.87312042 245.61332062 -238.88295959 246.48054749 -238.89309692 247.37405396 C-239.06986424 267.00880629 -238.88126085 286.04780177 -234.625 305.3125 C-234.38894043 306.38129395 -234.15288086 307.45008789 -233.90966797 308.55126953 C-226.63117507 340.23218864 -213.25980608 371.29512836 -193.625 397.3125 C-193.17946777 397.910625 -192.73393555 398.50875 -192.27490234 399.125 C-185.6040116 408.03552409 -178.33706125 416.29369452 -170.625 424.3125 C-170.15562012 424.80379395 -169.68624023 425.29508789 -169.20263672 425.80126953 C-155.08641819 440.51081423 -138.39853998 453.29625718 -120.625 463.3125 C-119.83689941 463.75706543 -119.04879883 464.20163086 -118.23681641 464.65966797 C-61.86067129 496.0636885 3.4015387 504.56294896 65.74243164 487.2890625 C92.66733562 479.40959548 118.93499648 467.2475357 141.375 450.3125 C141.973125 449.86696777 142.57125 449.42143555 143.1875 448.96240234 C152.09802409 442.2915116 160.35619452 435.02456125 168.375 427.3125 C169.11194092 426.60843018 169.11194092 426.60843018 169.86376953 425.89013672 C184.57331423 411.77391819 197.35875718 395.08603998 207.375 377.3125 C207.81956543 376.52439941 208.26413086 375.73629883 208.72216797 374.92431641 C226.93446465 342.22980586 239.25726562 305.58961348 239.61328125 267.87890625 C239.62312042 267.01167938 239.63295959 266.14445251 239.64309692 265.25094604 C239.81986424 245.61619371 239.63126085 226.57719823 235.375 207.3125 C235.13894043 206.24370605 234.90288086 205.17491211 234.65966797 204.07373047 C227.38117507 172.39281136 214.00980608 141.32987164 194.375 115.3125 C193.92946777 114.714375 193.48393555 114.11625 193.02490234 113.5 C186.3540116 104.58947591 179.08706125 96.33130548 171.375 88.3125 C170.90562012 87.82120605 170.43624023 87.32991211 169.95263672 86.82373047 C127.92417053 43.02874381 67.16712381 18.32840762 6.93432617 16.40405273 C-57.12698199 15.09103779 -118.73160515 38.69918075 -165.17822266 82.89355469 C-166.68582422 84.37215413 -168.14926638 85.88488308 -169.60546875 87.4140625 C-170.09184814 87.92001953 -170.57822754 88.42597656 -171.0793457 88.94726562 C-172.41750252 90.350962 -173.73676507 91.77260113 -175.0546875 93.1953125 C-178.02276192 95.64013975 -179.81548345 96.15072601 -183.625 96.3125 C-186.48832091 95.07606597 -188.11788133 93.98097461 -190 91.5 C-190.87707863 88.4302248 -190.40280569 86.40005874 -189.625 83.3125 C-187.85009766 80.93823242 -187.85009766 80.93823242 -185.5390625 78.66796875 C-184.69625732 77.83064209 -183.85345215 76.99331543 -182.98510742 76.13061523 C-182.08252197 75.26251221 -181.17993652 74.39440918 -180.25 73.5 C-179.33259033 72.60289307 -178.41518066 71.70578613 -177.4699707 70.78149414 C-171.43391369 64.92729441 -165.37581166 59.33613031 -158.625 54.3125 C-157.50495576 53.45215163 -156.38518278 52.59145005 -155.265625 51.73046875 C-145.81169388 44.54842238 -135.89641573 38.25578014 -125.625 32.3125 C-124.94775879 31.91820801 -124.27051758 31.52391602 -123.57275391 31.11767578 C-85.96936251 9.48903884 -43.05867007 -0.16395955 0 0 Z " fill="#000000" transform="translate(255.625,-0.3125)"/>
<path d="M0 0 C2.0625 2.9375 2.0625 2.9375 2.6875 6.5 C2.0625 9.9375 2.0625 9.9375 0.1875 12.03125 C-4.22255572 14.72138399 -8.50026232 15.16185659 -13.5625 15.875 C-55.70533566 22.57750595 -92.17301338 41.58895209 -122.9375 70.9375 C-123.78957031 71.73671875 -124.64164062 72.5359375 -125.51953125 73.359375 C-155.83326458 102.57513059 -176.46151754 145.2004168 -180.9375 186.9375 C-181.04707031 187.84242188 -181.15664062 188.74734375 -181.26953125 189.6796875 C-186.49443241 239.97806933 -170.83151701 291.40789507 -139.375 330.8125 C-137.91111417 332.53394564 -136.43155558 334.24217268 -134.9375 335.9375 C-134.09832031 336.89785156 -133.25914062 337.85820312 -132.39453125 338.84765625 C-98.42287479 377.13790136 -50.35698258 400.10556878 0.66064453 403.796875 C51.24780231 406.75867647 100.27663329 390.52426695 139.171875 358.18359375 C141.90187339 356.38427663 143.9606152 356.39227339 147.15625 356.5234375 C149.0625 356.9375 149.0625 356.9375 151.5625 359.0625 C153.34051176 362.47035587 153.77210213 364.15295532 153.0625 367.9375 C121.72306181 402.39952714 68.13066637 418.74755045 23.0625 420.9375 C-32.10331274 423.52813086 -87.0324748 404.48070513 -128.01806641 367.40893555 C-130.18962845 365.41362635 -132.33178139 363.3895149 -134.46191406 361.35009766 C-135.82877014 360.04158851 -137.2068898 358.74487271 -138.5859375 357.44921875 C-144.91399741 351.35072568 -150.32938991 344.7268403 -155.59814453 337.71679688 C-156.45959227 336.57238727 -157.32728106 335.43263499 -158.20263672 334.29882812 C-180.86754301 304.91806106 -193.87458251 268.61637561 -197.9375 231.9375 C-198.06769531 230.82117188 -198.19789063 229.70484375 -198.33203125 228.5546875 C-198.63990185 225.34462343 -198.81827138 222.16028572 -198.9375 218.9375 C-198.96473145 218.22142578 -198.99196289 217.50535156 -199.02001953 216.76757812 C-200.64683276 166.9604913 -184.56223192 117.55711033 -152.9375 78.9375 C-152.5259668 78.42445312 -152.11443359 77.91140625 -151.69042969 77.3828125 C-140.07281045 62.9125323 -126.98188927 49.82380997 -111.9375 38.9375 C-111.31939453 38.48568359 -110.70128906 38.03386719 -110.06445312 37.56835938 C-90.30891131 23.22804222 -24.56033332 -17.24448935 0 0 Z " fill="#000000" transform="translate(242.9375,47.0625)"/>
</svg>
