<?xml version="1.0" encoding="UTF-8"?>
<svg version="1.1" xmlns="http://www.w3.org/2000/svg" width="512" height="512">
<path d="M0 0 C8.1841448 6.98582372 16.16097888 15.72472239 17.05841064 26.96809387 C17.1446296 29.9829618 17.16663481 32.99169564 17.1640625 36.0078125 C17.16834763 37.13624573 17.17263275 38.26467896 17.17704773 39.42730713 C17.1827883 41.82457817 17.18329331 44.22186663 17.17895508 46.61914062 C17.17585221 50.19173376 17.19905617 53.76345025 17.22460938 57.3359375 C17.28160149 77.60704132 15.97068602 97.88937373 11.17578125 117.6484375 C10.95083984 118.628125 10.72589844 119.6078125 10.49414062 120.6171875 C9.9630059 122.92253824 9.42008564 125.22418233 8.86328125 127.5234375 C13.27971722 127.64123329 17.69574039 127.71121861 22.11328125 127.7734375 C23.96566406 127.82371094 23.96566406 127.82371094 25.85546875 127.875 C43.84805119 128.0643956 55.19580266 120.66445029 67.76757812 108.58691406 C70.38621113 106.00854895 72.96123569 103.38843321 75.53515625 100.765625 C76.56360252 99.72188756 77.59208599 98.67818678 78.62060547 97.63452148 C80.68189081 95.54187279 82.72765743 93.43542453 84.76611328 91.32055664 C85.73295923 90.33436739 86.70022741 89.34859187 87.66796875 88.36328125 C88.52374512 87.48019287 89.37952148 86.59710449 90.26123047 85.68725586 C93.73084548 82.80198678 96.92990782 81.61185397 101.42578125 81.40625 C106.90352463 81.95051296 110.59881021 82.76664158 114.86328125 86.5234375 C119.00069306 92.0027126 120.74060665 96.63455837 119.86328125 103.5234375 C117.6825301 109.77770948 113.76560992 114.20152717 109.11328125 118.76953125 C108.45932373 119.424944 107.80536621 120.08035675 107.1315918 120.75563049 C105.75124069 122.13433022 104.36597272 123.50812303 102.97607422 124.87719727 C100.88478809 126.93972639 98.81259272 129.02005024 96.7421875 131.10351562 C77.84883877 149.96889388 77.84883877 149.96889388 67.86328125 153.5234375 C71.1656491 157.52104069 74.61518755 161.31808286 78.33984375 164.92578125 C78.95907715 165.52825684 79.57831055 166.13073242 80.21630859 166.75146484 C81.46061871 167.95477838 82.71333045 169.14947702 83.97509766 170.33447266 C88.49847677 174.71878548 91.22170046 178.59218264 92.26171875 184.96484375 C92.19799811 190.7315618 91.43442322 194.87776968 87.24609375 199.1875 C83.02779976 203.00750014 80.25987615 204.34256241 74.55078125 204.7734375 C68.18766858 204.34204003 64.41496855 202.41815563 60.1640625 197.80224609 C58.8271129 196.2653005 57.49811011 194.72141763 56.17578125 193.171875 C39.10798512 172.01076615 39.10798512 172.01076615 15.33352661 161.65246582 C8.77750631 161.40275532 2.26575595 162.11919783 -4.13671875 163.5234375 C-4.3083252 164.07306152 -4.47993164 164.62268555 -4.65673828 165.18896484 C-6.4285052 170.70125887 -8.51909801 175.9251017 -11.01171875 181.1484375 C-11.39755127 181.95909668 -11.78338379 182.76975586 -12.1809082 183.60498047 C-16.79981224 193.12814019 -22.08942058 202.26661194 -27.36474609 211.43652344 C-30.48207819 216.86715818 -33.56285495 222.31811331 -36.63671875 227.7734375 C-37.21188232 228.78422363 -37.7870459 229.79500977 -38.37963867 230.83642578 C-39.4712982 232.77426966 -40.54569783 234.72195938 -41.60083008 236.67993164 C-42.63693774 238.59815544 -43.71639283 240.49350603 -44.8347168 242.36499023 C-47.68547338 247.38285081 -47.68547338 247.38285081 -47.56298828 252.93505859 C-46.22068038 255.51377346 -44.68207899 257.75170981 -42.94921875 260.0859375 C-41.70942541 261.9004241 -40.4725863 263.7169318 -39.23828125 265.53515625 C-38.23716309 266.9725415 -38.23716309 266.9725415 -37.21582031 268.43896484 C-35.01764655 271.7000883 -32.97494665 275.03503884 -30.97265625 278.41796875 C-30.62669907 278.998918 -30.28074188 279.57986725 -29.92430115 280.17842102 C-28.23088996 283.02318263 -26.54636028 285.87251722 -24.87231445 288.72875977 C-20.0454918 296.71345516 -15.19404013 303.36716664 -6.13671875 306.5234375 C-3.65670506 306.84430697 -3.65670506 306.84430697 -1.07104492 306.84228516 C-0.09040573 306.86215485 0.89023346 306.88202454 1.90058899 306.90249634 C2.94659775 306.91404755 3.99260651 306.92559875 5.0703125 306.9375 C6.15084396 306.95686615 7.23137543 306.9762323 8.34465027 306.9961853 C11.78828085 307.05585853 15.23194508 307.10231791 18.67578125 307.1484375 C21.01368627 307.18662851 23.3515774 307.2256809 25.68945312 307.265625 C31.4139389 307.36155003 37.13850873 307.44663343 42.86328125 307.5234375 C43.03656448 306.98768097 43.20984772 306.45192444 43.38838196 305.89993286 C46.23033176 297.23043962 49.55121832 288.7634144 52.91333008 280.28466797 C53.67165713 278.36044767 54.42102155 276.43267109 55.16137695 274.50146484 C56.24226518 271.68469168 57.35227164 268.88095169 58.46875 266.078125 C58.7899028 265.22378876 59.1110556 264.36945251 59.44194031 263.48922729 C62.15574633 256.81875179 66.32117935 251.79448845 72.86328125 248.5234375 C79.07499495 247.99564483 84.62163025 247.77940107 89.86328125 251.5234375 C93.96438931 255.61337088 96.00162062 259.30726115 96.359375 265.11328125 C96.27836392 273.74167137 92.31673178 281.31729522 88.92578125 289.0859375 C88.2579782 290.65614206 87.59194769 292.22710171 86.92773438 293.79882812 C82.46079479 304.32841041 82.46079479 304.32841041 80.86328125 307.5234375 C81.48783203 307.51296387 82.11238281 307.50249023 82.75585938 307.49169922 C85.62495796 307.44975644 88.49399173 307.42399097 91.36328125 307.3984375 C92.34554688 307.38167969 93.3278125 307.36492187 94.33984375 307.34765625 C101.66808677 307.2988013 107.89508682 307.5633091 114.17578125 311.7109375 C118.25300958 315.97780436 119.65232638 319.62484366 120.30078125 325.4609375 C120.05160708 330.81818222 118.09420216 335.3411323 114.25 339.1015625 C108.82150295 343.29029193 103.43134728 343.65121823 96.67431641 343.63696289 C95.47352448 343.63688736 94.27273254 343.63681183 93.03555298 343.63673401 C91.75409393 343.63157272 90.47263489 343.62641144 89.15234375 343.62109375 C87.81570489 343.61922645 86.47906533 343.61780402 85.14242554 343.61680603 C81.64078856 343.61300545 78.13919369 343.60319641 74.63757324 343.59210205 C71.05786712 343.58183482 67.47815413 343.57729707 63.8984375 343.57226562 C56.88670156 343.56157172 49.87499343 343.54452514 42.86328125 343.5234375 C43.20174072 344.44044434 43.5402002 345.35745117 43.88891602 346.30224609 C45.15262945 349.7428659 46.38905069 353.19279436 47.61791992 356.64599609 C48.15101513 358.13234739 48.69124228 359.61616251 49.23901367 361.09716797 C55.26950603 377.43181669 55.26950603 377.43181669 52.86328125 385.5234375 C50.43107863 390.38784273 47.55003823 392.83104519 42.86328125 395.5234375 C37.4326729 397.33364028 32.76584353 397.22441497 27.61328125 394.8359375 C20.57122927 391.30036182 18.56229402 384.66093822 16.2265625 377.6640625 C15.90165329 376.71907898 15.57674408 375.77409546 15.24198914 374.80047607 C14.21032076 371.79464435 13.19249022 368.78435845 12.17578125 365.7734375 C11.14585571 362.74915579 10.11308845 359.72587828 9.07743835 356.70355225 C8.43471633 354.82520201 7.7957925 352.94554718 7.16096497 351.06451416 C6.87363998 350.21983582 6.586315 349.37515747 6.2902832 348.50488281 C5.91200127 347.38499969 5.91200127 347.38499969 5.52607727 346.24249268 C4.99561774 344.52064468 4.99561774 344.52064468 3.86328125 343.5234375 C2.02403624 343.30967024 0.1838213 343.10210635 -1.65966797 342.92871094 C-18.67900438 341.30989583 -34.78620169 335.70216156 -46.0546875 322.23046875 C-50.90275138 315.83412099 -54.93127089 308.97253443 -58.89990234 302.01025391 C-59.95447297 300.16715682 -61.04232053 298.34316787 -62.13671875 296.5234375 C-62.46671875 296.5234375 -62.79671875 296.5234375 -63.13671875 296.5234375 C-63.45507736 298.58504132 -63.7659849 300.64779563 -64.07421875 302.7109375 C-64.24824219 303.85949219 -64.42226563 305.00804687 -64.6015625 306.19140625 C-66.07121993 317.24742145 -66.3544971 328.38755134 -66.63671875 339.5234375 C-67.61576652 378.15464962 -67.61576652 378.15464962 -82.38671875 392.74609375 C-100.07634937 407.84628831 -124.34249972 413.22703338 -147.13671875 411.5234375 C-167.78600444 409.25280545 -186.85083761 402.3483707 -200.9453125 386.48828125 C-207.9581788 377.6915936 -210.28549472 368.8608109 -210.3046875 357.71484375 C-210.30887695 356.96391953 -210.31306641 356.2129953 -210.31738281 355.4393158 C-210.32718608 352.98813675 -210.32716204 350.53713302 -210.32421875 348.0859375 C-210.32394684 347.24385742 -210.32367493 346.40177734 -210.32339478 345.53417969 C-210.2335094 284.71701881 -210.2335094 284.71701881 -204.13671875 272.5234375 C-228.86043862 273.3200907 -242.18514694 279.27539065 -259.5546875 296.984375 C-260.1067688 297.54657745 -260.6588501 298.10877991 -261.22766113 298.6880188 C-263.50780938 301.01379144 -265.78573046 303.3414332 -268.04956055 305.68310547 C-269.72957559 307.41779202 -271.42219644 309.13933543 -273.1171875 310.859375 C-273.61840622 311.38437592 -274.11962494 311.90937683 -274.6360321 312.45028687 C-278.72923944 316.57311746 -282.80046611 318.97896107 -288.578125 319.921875 C-294.34484305 319.85815436 -298.49105093 319.09457947 -302.80078125 314.90625 C-306.59948321 310.71147485 -307.90561699 307.92689584 -308.44921875 302.2734375 C-307.73459587 293.69796297 -302.44208494 288.229766 -296.546875 282.40234375 C-295.80650497 281.65814682 -295.06613495 280.91394989 -294.30332947 280.14720154 C-292.73895157 278.58011296 -291.16955608 277.018019 -289.59545898 275.46069336 C-287.22363882 273.11013862 -284.87373581 270.7392149 -282.52539062 268.36523438 C-274.26947092 260.09624271 -266.13223454 252.63874422 -256.13671875 246.5234375 C-256.79269043 245.88317627 -257.44866211 245.24291504 -258.12451172 244.58325195 C-260.56454908 242.19447224 -262.99758641 239.79898346 -265.42626953 237.39868164 C-266.47694764 236.3630502 -267.53030783 235.33013225 -268.58642578 234.30004883 C-270.10779938 232.81523982 -271.61912326 231.32080089 -273.12890625 229.82421875 C-274.0401123 228.92872314 -274.95131836 228.03322754 -275.89013672 227.1105957 C-279.99047953 222.38865126 -280.58858621 218.09209955 -280.453125 212.0234375 C-279.7999573 206.8626063 -277.36076755 203.63091023 -273.51171875 200.1484375 C-269.73586432 197.56495815 -267.46943016 197.31033421 -262.88671875 197.2109375 C-261.7678125 197.17355469 -260.64890625 197.13617188 -259.49609375 197.09765625 C-251.92885871 198.0567593 -247.43187593 204.18397535 -242.5625 209.53515625 C-241.07614153 211.1150556 -239.5871199 212.69245291 -238.09570312 214.26757812 C-235.76962092 216.72869003 -233.46078188 219.19810252 -231.1940918 221.71411133 C-221.11195691 233.29586335 -221.11195691 233.29586335 -207.09013367 238.05952454 C-203.38478678 238.12505293 -199.82121227 237.93242729 -196.13671875 237.5234375 C-195.91532227 236.46660767 -195.91532227 236.46660767 -195.68945312 235.38842773 C-188.94422138 204.23940039 -171.91468188 173.88288094 -155.69921875 146.703125 C-155.17908203 145.82954346 -154.65894531 144.95596191 -154.12304688 144.0559082 C-153.16244794 142.45959095 -152.18804971 140.87146097 -151.19726562 139.29370117 C-150.77509766 138.59736572 -150.35292969 137.90103027 -149.91796875 137.18359375 C-149.54736328 136.59199463 -149.17675781 136.00039551 -148.79492188 135.39086914 C-147.84748548 132.70283465 -148.28734434 131.23990297 -149.13671875 128.5234375 C-150.29288861 126.26242805 -151.47673948 124.11095773 -152.77734375 121.9375 C-153.32343292 121.00748672 -153.32343292 121.00748672 -153.8805542 120.0586853 C-154.65053646 118.75066123 -155.42398833 117.44467413 -156.20068359 116.140625 C-157.37620947 114.16608998 -158.54053321 112.18529718 -159.703125 110.203125 C-165.79482341 98.58627964 -165.79482341 98.58627964 -174.94921875 89.7109375 C-175.55378906 89.33324219 -176.15835938 88.95554687 -176.78125 88.56640625 C-183.56258061 85.56372752 -190.24246084 85.20092267 -197.54296875 85.109375 C-198.50827515 85.09000885 -199.47358154 85.0706427 -200.46813965 85.0506897 C-203.52424532 84.99133732 -206.58038957 84.94468712 -209.63671875 84.8984375 C-211.7200677 84.86021686 -213.80340153 84.8211628 -215.88671875 84.78125 C-220.96992805 84.68567261 -226.05321122 84.60147937 -231.13671875 84.5234375 C-231.22663086 85.15467529 -231.31654297 85.78591309 -231.40917969 86.4362793 C-232.43234976 90.77788517 -234.1071046 94.78863863 -235.77734375 98.91796875 C-236.1414032 99.82415451 -236.50546265 100.73034027 -236.8805542 101.66398621 C-237.65165219 103.57874914 -238.4250833 105.49257393 -239.20068359 107.40551758 C-240.3769558 110.31181549 -241.54040063 113.22302581 -242.703125 116.13476562 C-243.45625052 118.00031537 -244.21013273 119.86555985 -244.96484375 121.73046875 C-245.30775452 122.59219193 -245.65066528 123.4539151 -246.00396729 124.3417511 C-249.03635462 131.76297452 -252.24786291 138.9912955 -259.13671875 143.5234375 C-263.9778649 145.13715288 -269.32283258 145.50033383 -274.20703125 143.8046875 C-279.12660146 141.16387925 -282.37542119 137.80733019 -284.13671875 132.5234375 C-286.07229245 121.6776857 -280.78762521 112.0334579 -276.63671875 102.3359375 C-275.91228245 100.60425922 -275.18961011 98.87184189 -274.46875 97.13867188 C-272.71164695 92.9247898 -270.93091007 88.72165433 -269.13671875 84.5234375 C-270.30859741 84.5548584 -270.30859741 84.5548584 -271.50415039 84.58691406 C-275.06904049 84.67043933 -278.63372416 84.72221439 -282.19921875 84.7734375 C-283.42833984 84.80695313 -284.65746094 84.84046875 -285.92382812 84.875 C-292.88241788 84.95002523 -297.57006145 84.88437718 -303.13671875 80.5234375 C-306.87740532 75.69992061 -308.50875171 71.87673694 -308.41796875 65.71484375 C-307.7649708 60.62690135 -305.33692117 56.72363992 -301.76171875 53.1484375 C-296.88641191 50.13039041 -292.44837969 49.27318582 -286.76416016 49.29638672 C-285.52332672 49.29653778 -284.28249329 49.29668884 -283.00405884 49.29684448 C-281.66546464 49.30705525 -280.32687212 49.3174872 -278.98828125 49.328125 C-277.60680344 49.33185937 -276.22532297 49.33470434 -274.84384155 49.33670044 C-271.22378104 49.34430358 -267.60388332 49.36392313 -263.98388672 49.3861084 C-260.28355104 49.40663872 -256.58318883 49.41571746 -252.8828125 49.42578125 C-245.63404071 49.44717251 -238.38540262 49.48126786 -231.13671875 49.5234375 C-231.47517822 48.57090088 -231.8136377 47.61836426 -232.16235352 46.63696289 C-233.42404601 43.07057839 -234.66115737 39.49605799 -235.89135742 35.91870117 C-236.4251456 34.37734546 -236.96540143 32.83821268 -237.51245117 31.30151367 C-243.17917574 15.35705853 -243.17917574 15.35705853 -241.13671875 7.5234375 C-238.34572781 2.24049037 -234.87844455 -1.5626539 -229.13671875 -3.4765625 C-222.74612306 -4.24545074 -217.36449727 -3.38340341 -212.13671875 0.5234375 C-207.92821068 4.91568274 -206.36251898 9.77196537 -204.46484375 15.41796875 C-204.13756287 16.36532394 -203.81028198 17.31267914 -203.4730835 18.28874207 C-202.43477066 21.30130011 -201.41058463 24.31844267 -200.38671875 27.3359375 C-199.68321982 29.38508451 -198.97880283 31.43391658 -198.2734375 33.48242188 C-196.5505466 38.49249442 -194.8392143 43.50640012 -193.13671875 48.5234375 C-191.85071777 48.71534668 -190.5647168 48.90725586 -189.23974609 49.10498047 C-187.52567731 49.36660767 -185.81164951 49.62850347 -184.09765625 49.890625 C-183.25323975 50.01590576 -182.40882324 50.14118652 -181.53881836 50.27026367 C-165.62965558 52.72315054 -151.52323437 59.29569121 -141.05859375 71.83984375 C-137.0169035 77.48342342 -133.56767151 83.49544411 -130.13671875 89.5234375 C-128.59600176 84.56606776 -127.60925057 79.75656797 -127.07421875 74.5859375 C-126.98970459 73.79815918 -126.90519043 73.01038086 -126.81811523 72.19873047 C-126.2869468 66.67684562 -126.03145869 61.1654133 -125.89453125 55.62109375 C-125.87683182 54.92627396 -125.85913239 54.23145416 -125.84089661 53.51557922 C-125.75639347 50.03775401 -125.6915085 46.56092073 -125.65405273 43.08227539 C-125.35687522 27.59368896 -122.59465315 15.49822591 -112.01171875 3.8359375 C-83.52933913 -22.73487302 -30.44116463 -24.03449362 0 0 Z M-88.13671875 30.5234375 C-88.8004642 32.60847166 -88.8004642 32.60847166 -89.13671875 34.5234375 C-81.14973139 42.8965028 -70.45777384 47.31262957 -58.9140625 47.7265625 C-43.94672041 47.97083892 -31.71102382 46.45415353 -19.79296875 36.58203125 C-17.9137006 34.69586582 -17.9137006 34.69586582 -18.171875 32.4609375 C-21.12027762 26.54025856 -28.59759298 23.50527545 -34.5 21.3359375 C-51.55551015 16.08031363 -75.07325183 16.75383724 -88.13671875 30.5234375 Z M-91.13671875 75.5234375 C-91.25152588 76.14049561 -91.36633301 76.75755371 -91.48461914 77.39331055 C-98.52434401 114.60721519 -114.33542649 146.17719455 -132.88671875 178.9609375 C-134.30730961 181.47958379 -135.72311036 184.00086671 -137.13671875 186.5234375 C-137.5224707 187.20760742 -137.90822266 187.89177734 -138.30566406 188.59667969 C-159.90785627 227.1956088 -174.60561841 273.9738568 -174.13671875 318.5234375 C-173.05132812 318.24628906 -171.9659375 317.96914063 -170.84765625 317.68359375 C-169.40237594 317.3175812 -167.95706163 316.9517029 -166.51171875 316.5859375 C-165.44244141 316.31233398 -165.44244141 316.31233398 -164.3515625 316.03320312 C-163.64902344 315.85595703 -162.94648438 315.67871094 -162.22265625 315.49609375 C-161.58376465 315.33375244 -160.94487305 315.17141113 -160.28662109 315.00415039 C-143.1793082 311.17899719 -124.85037994 312.69778611 -108.13671875 317.5234375 C-106.80735204 317.90125416 -105.47792762 318.27886782 -104.1484375 318.65625 C-103.15457031 318.94242188 -102.16070312 319.22859375 -101.13671875 319.5234375 C-101.07202393 318.88132324 -101.0073291 318.23920898 -100.94067383 317.57763672 C-96.10212883 270.8036507 -79.22032374 230.1724476 -55.94921875 189.6484375 C-55.44156982 188.76430176 -54.9339209 187.88016602 -54.41088867 186.96923828 C-53.91693604 186.10927246 -53.4229834 185.24930664 -52.9140625 184.36328125 C-51.98815332 182.75007342 -51.06236191 181.13679799 -50.13671875 179.5234375 C-49.57041748 178.53947998 -49.57041748 178.53947998 -48.99267578 177.53564453 C-32.14040056 148.01843725 -18.42055611 110.89924409 -19.13671875 76.5234375 C-20.36648438 76.80058594 -21.59625 77.07773438 -22.86328125 77.36328125 C-24.49607459 77.72925217 -26.12888816 78.09513282 -27.76171875 78.4609375 C-28.56996094 78.64333984 -29.37820313 78.82574219 -30.2109375 79.01367188 C-51.26227072 83.72027077 -70.65055671 81.78686956 -91.13671875 75.5234375 Z M-172.94140625 358.59375 C-174.29465495 360.41997698 -174.29465495 360.41997698 -174.19921875 362.4609375 C-170.56745171 369.51083823 -162.18472599 372.1304338 -155.13671875 374.5234375 C-140.492384 378.3887449 -124.54259493 377.19788719 -111.1640625 369.78515625 C-105.95750662 366.64617696 -105.95750662 366.64617696 -103.13671875 361.5234375 C-107.8375681 354.06691785 -115.43142821 351.14634967 -123.63671875 348.7109375 C-139.03491079 345.23840708 -161.76699426 345.77461937 -172.94140625 358.59375 Z " fill="#000000" transform="translate(350.13671875,58.4765625)"/>
</svg>
