<?xml version="1.0" standalone="no"?>
<!DOCTYPE svg PUBLIC "-//W3C//DTD SVG 20010904//EN"
 "http://www.w3.org/TR/2001/REC-SVG-20010904/DTD/svg10.dtd">
<svg version="1.0" xmlns="http://www.w3.org/2000/svg"
 width="512.000000pt" height="512.000000pt" viewBox="0 0 512.000000 512.000000"
 preserveAspectRatio="xMidYMid meet">

<g transform="translate(0.000000,512.000000) scale(0.100000,-0.100000)"
fill="#000000" stroke="none">
<path d="M2428 4792 c-134 -115 -358 -340 -499 -500 -336 -382 -613 -806 -788
-1207 -57 -130 -131 -339 -131 -371 0 -56 78 -94 123 -60 10 8 42 79 71 158
190 516 494 990 959 1497 118 128 381 381 397 381 4 0 62 -50 129 -111 114
-103 126 -111 155 -105 40 8 66 40 66 81 0 28 -13 45 -99 128 -153 146 -217
197 -251 197 -23 0 -54 -21 -132 -88z"/>
<path d="M3397 4550 c-196 -35 -365 -126 -498 -267 -161 -171 -239 -367 -239
-603 0 -236 78 -432 239 -603 112 -119 235 -194 398 -244 79 -24 104 -26 238
-26 134 0 159 2 238 26 165 51 285 125 404 250 315 332 315 862 0 1194 -172
181 -369 271 -612 278 -66 2 -142 0 -168 -5z m328 -175 c195 -54 366 -197 455
-380 51 -104 72 -197 72 -315 0 -118 -21 -211 -72 -315 -73 -151 -185 -261
-343 -335 -352 -167 -775 -17 -946 335 -53 107 -71 189 -71 315 0 126 18 208
71 315 74 152 184 260 344 336 111 53 196 70 325 64 58 -2 132 -11 165 -20z"/>
<path d="M3326 4219 c-26 -20 -26 -21 -26 -160 l0 -139 -134 0 c-120 0 -136
-2 -160 -21 l-26 -20 0 -199 0 -199 26 -20 c24 -19 40 -21 160 -21 l134 0 0
-139 c0 -189 -11 -181 236 -181 179 0 183 1 211 24 28 24 28 25 31 160 l4 136
128 0 c122 0 130 1 157 24 l28 24 0 192 0 192 -28 24 c-27 23 -35 24 -157 24
l-128 0 -4 136 c-3 135 -3 136 -31 160 -28 23 -32 24 -211 24 -170 0 -185 -1
-210 -21z m294 -278 c0 -139 0 -140 26 -160 24 -19 40 -21 160 -21 l134 0 0
-80 0 -80 -134 0 c-120 0 -136 -2 -160 -21 -26 -20 -26 -21 -26 -160 l0 -139
-79 0 -79 0 -4 136 c-3 135 -3 136 -31 160 -27 23 -35 24 -158 24 l-129 0 0
80 0 80 129 0 c123 0 131 1 158 24 28 24 28 25 31 160 l4 136 79 0 79 0 0
-139z"/>
<path d="M4002 2753 c-7 -3 -19 -18 -27 -34 -14 -26 -13 -38 19 -161 52 -204
86 -438 86 -600 0 -60 3 -72 25 -93 33 -34 78 -33 112 1 l26 26 -6 136 c-9
176 -38 373 -82 547 -28 112 -40 144 -61 163 -23 21 -62 27 -92 15z"/>
<path d="M1770 2636 c-229 -34 -581 -154 -627 -215 -33 -43 7 -121 61 -121 14
0 65 17 113 39 117 51 256 96 378 123 136 29 407 32 504 5 226 -64 317 -194
262 -375 -89 -295 -530 -598 -1022 -703 -139 -30 -390 -33 -489 -6 -181 50
-272 131 -287 256 -8 67 18 150 78 248 54 90 59 118 29 151 -61 66 -123 25
-204 -133 -113 -221 -71 -442 109 -570 75 -54 135 -80 245 -108 110 -28 367
-30 505 -4 338 63 644 203 885 405 218 183 325 370 325 567 0 80 -4 97 -32
158 -61 129 -188 221 -368 268 -104 27 -331 34 -465 15z"/>
<path d="M1705 2295 c-111 -21 -254 -69 -358 -121 -339 -170 -476 -403 -323
-550 62 -59 133 -79 271 -78 164 1 324 44 506 135 277 138 424 331 363 477
-22 55 -71 99 -133 123 -74 28 -218 34 -326 14z m278 -166 c39 -18 42 -43 13
-93 -88 -150 -397 -304 -667 -331 -80 -8 -170 8 -195 36 -16 18 -16 22 -1 54
53 112 250 242 470 310 45 14 109 30 142 35 73 11 203 5 238 -11z"/>
<path d="M885 2265 c-63 -62 6 -161 90 -129 25 10 47 62 40 95 -13 59 -86 79
-130 34z"/>
<path d="M3240 1799 c-279 -24 -454 -187 -438 -408 10 -131 82 -264 218 -401
193 -195 477 -343 780 -407 118 -25 349 -24 440 1 149 41 240 108 292 214 30
61 33 74 32 157 0 68 -6 104 -23 147 -156 400 -791 740 -1301 697z m297 -175
c46 -8 129 -31 185 -50 369 -129 659 -383 685 -602 8 -68 -10 -114 -63 -161
-62 -54 -145 -81 -270 -88 -419 -23 -974 281 -1092 600 -27 71 -27 119 -3 174
58 127 276 177 558 127z"/>
<path d="M3327 1506 c-97 -27 -147 -87 -147 -175 1 -73 24 -122 95 -199 148
-160 429 -282 650 -282 96 0 162 16 202 49 68 56 83 153 37 243 -68 134 -300
290 -519 348 -102 27 -253 35 -318 16z m234 -160 c150 -32 309 -115 407 -212
70 -71 82 -109 36 -120 -50 -13 -207 3 -279 29 -196 68 -385 206 -385 280 0
37 103 48 221 23z"/>
<path d="M1225 1015 c-43 -42 -34 -73 48 -172 442 -531 1166 -735 1825 -514
205 68 261 112 233 180 -12 27 -47 51 -75 51 -8 0 -40 -12 -72 -26 -299 -133
-652 -168 -969 -94 -279 65 -510 194 -715 400 -64 63 -132 134 -151 158 -44
51 -85 57 -124 17z"/>
</g>
</svg>
