<?xml version="1.0" encoding="UTF-8"?>
<svg version="1.1" xmlns="http://www.w3.org/2000/svg" width="512" height="512">
<path d="M0 0 C27.75923508 20.36835355 43.01674821 51.23805496 51.0625 84 C51.30516602 84.98436035 51.54783203 85.9687207 51.79785156 86.98291016 C55.4153736 102.52495143 56.15870601 117.79988469 56.125 133.6875 C56.12445618 134.65438751 56.12391235 135.62127502 56.12335205 136.61746216 C56.00746905 181.53139421 44.02627208 224.12843313 12.75 257.3125 C12.16605469 257.94929688 11.58210937 258.58609375 10.98046875 259.2421875 C-3.38370318 274.3800736 -25.89559984 284.84961222 -46.77734375 285.55078125 C-69.87455223 285.95469839 -89.81860732 281.28587657 -107.25 265.3125 C-107.88164062 264.74917969 -108.51328125 264.18585938 -109.1640625 263.60546875 C-123.81058243 249.82999737 -132.40943135 229.34796345 -133.453125 209.4375 C-133.68803371 196.87518814 -132.25119209 184.98194822 -127.25 173.3125 C-134.05826219 174.406685 -138.91748599 176.79839126 -143.25 182.3125 C-146.07677809 188.55710563 -146.67791728 193.66180302 -146.62181091 200.46611023 C-146.62563548 201.46172102 -146.62946004 202.45733182 -146.6334005 203.48311263 C-146.64265446 206.80488559 -146.63071357 210.12623836 -146.61889648 213.44799805 C-146.62136538 215.83512545 -146.62520469 218.22225178 -146.63031006 220.609375 C-146.63972329 226.41062762 -146.63587695 232.21176608 -146.62708741 238.01301678 C-146.61802105 244.77142839 -146.62927824 251.52976025 -146.64268685 258.28815911 C-146.66643151 270.34615663 -146.67982038 282.40413844 -146.68383789 294.4621582 C-146.68408276 295.18304203 -146.68432763 295.90392585 -146.68457992 296.64665464 C-146.68712737 304.69440906 -146.68769167 312.74216227 -146.68664551 320.78991699 C-146.68631245 323.71126302 -146.68602707 326.63260904 -146.68579102 329.55395508 C-146.68572823 330.2748662 -146.68566544 330.99577732 -146.68560075 331.73853423 C-146.68499609 343.7565278 -146.69986776 355.77444879 -146.72662407 367.7924121 C-146.74101352 374.53691896 -146.74715331 381.2812491 -146.73357964 388.02576256 C-146.72117248 394.36319304 -146.72667041 400.70034727 -146.74604797 407.03775787 C-146.74978416 409.36580909 -146.7466376 411.69388282 -146.73617744 414.02191353 C-146.72286807 417.19490098 -146.73396418 420.36689391 -146.75120544 423.5398407 C-146.74139867 424.46531997 -146.73159189 425.39079924 -146.72148794 426.34432334 C-146.76789539 430.46157869 -146.93015762 432.76331713 -149.03874302 436.38384724 C-152.33867929 439.26204333 -155.640705 439.0107168 -159.8125 438.94140625 C-161.05495483 438.94502419 -161.05495483 438.94502419 -162.32250977 438.94871521 C-164.07084956 438.94773728 -165.81922052 438.93435621 -167.56738281 438.90942383 C-170.24130588 438.87511156 -172.91192392 438.8887656 -175.5859375 438.90820312 C-177.28647238 438.90130446 -178.98699874 438.89163189 -180.6875 438.87890625 C-181.48551025 438.88386612 -182.28352051 438.88882599 -183.10571289 438.89393616 C-186.30804724 438.82609923 -188.71200287 438.6478953 -191.4611063 436.93406391 C-194.28354745 432.79787076 -193.79762161 428.72987724 -193.75120544 423.83403015 C-193.75673984 422.75497101 -193.76227424 421.67591187 -193.76797634 420.56415397 C-193.78162802 416.93535979 -193.76658799 413.30724804 -193.75170898 409.6784668 C-193.75549074 407.08155525 -193.76098959 404.48464571 -193.76808167 401.88774109 C-193.78202992 395.55583103 -193.77444387 389.22412017 -193.75940608 382.89221957 C-193.74254198 375.50958164 -193.7457573 368.1269933 -193.74950016 360.74434207 C-193.75538283 347.55860649 -193.74119746 334.37296629 -193.71655273 321.18725586 C-193.69268441 308.41540949 -193.68552705 295.64369083 -193.69604492 282.87182617 C-193.70748455 268.9558349 -193.70934258 255.03990276 -193.69494683 241.12391216 C-193.69342109 239.63604757 -193.69190073 238.14818297 -193.69038582 236.66031837 C-193.689628 235.92835568 -193.68887019 235.19639298 -193.68808941 234.44224959 C-193.68336583 229.3075925 -193.68518468 224.17296195 -193.68945122 219.03830528 C-193.69492703 212.10504188 -193.68401574 205.17195694 -193.66249657 198.23872566 C-193.65696018 195.70202603 -193.65643423 193.16530942 -193.66144943 190.6286087 C-193.70651851 164.54894639 -190.36628686 141.41299676 -171.55078125 121.6171875 C-170.79152344 120.85664063 -170.03226562 120.09609375 -169.25 119.3125 C-168.21939453 118.26449219 -168.21939453 118.26449219 -167.16796875 117.1953125 C-156.00310025 106.54829505 -141.38907918 99.76052131 -126.25 97.3125 C-126.50394531 96.76464844 -126.75789063 96.21679688 -127.01953125 95.65234375 C-135.74371277 75.55731891 -135.29639076 54.18085362 -128.0625 33.75 C-123.45957362 22.45565526 -116.842103 12.91986428 -108.25 4.3125 C-107.63769531 3.68859375 -107.02539062 3.0646875 -106.39453125 2.421875 C-77.18850476 -25.22732705 -31.23381041 -21.84834586 0 0 Z M-98.5859375 17.625 C-111.73890029 31.60821625 -117.8124533 48.17524034 -117.45703125 67.375 C-116.63671707 82.97644712 -109.80186758 95.27658371 -100.3359375 107.359375 C-92.75443364 118.09274002 -90.86903288 130.50636651 -92.67578125 143.3359375 C-94.85982926 153.54602698 -100.13491577 161.59068769 -106.375 169.8125 C-115.64616701 182.29982766 -118.73770603 196.95565455 -117.25 212.3125 C-114.5694054 230.29052628 -105.94298425 245.28483468 -92.1953125 257.140625 C-78.42591405 267.29418672 -62.9511829 271.58959535 -45.89453125 269.875 C-28.90676821 267.25309445 -13.83245733 259.97036781 -1.25 248.3125 C-0.48429687 247.62671875 0.28140625 246.9409375 1.0703125 246.234375 C26.47649471 222.3330886 38.73460196 183.78470026 39.95483398 149.70507812 C40.07736576 144.69899286 40.08397281 139.69478274 40.0625 134.6875 C40.06067719 133.80542877 40.05885437 132.92335754 40.05697632 132.01455688 C40.01140232 118.91463076 39.60704352 106.14669944 36.75 93.3125 C36.50056641 92.14364258 36.50056641 92.14364258 36.24609375 90.95117188 C29.65208484 60.88737568 14.9151706 29.46880052 -11.5 11.96875 C-40.49391617 -5.49349497 -73.50611678 -7.20318372 -98.5859375 17.625 Z M-157.36425781 130.25073242 C-173.50394073 146.52781013 -177.63287189 164.80992949 -177.6232605 187.0491333 C-177.61264635 189.40100226 -177.60174197 191.75286992 -177.59057617 194.10473633 C-177.58972894 196.60908498 -177.59020692 199.11343437 -177.59190369 201.61778259 C-177.59258414 206.98749724 -177.58414302 212.35707597 -177.56719017 217.72675514 C-177.54269607 225.4901621 -177.53498432 233.25351632 -177.5312262 241.01695772 C-177.52467794 253.61590886 -177.50476117 266.21480136 -177.47631836 278.8137207 C-177.44873552 291.04451201 -177.42752268 303.27528734 -177.41479492 315.50610352 C-177.41400675 316.26138499 -177.41321858 317.01666646 -177.41240653 317.79483525 C-177.40849111 321.584271 -177.40470006 325.37370686 -177.40097082 329.1631428 C-177.36992559 360.54630448 -177.31690968 391.9293933 -177.25 423.3125 C-172.63 423.3125 -168.01 423.3125 -163.25 423.3125 C-163.24761165 422.11059084 -163.24522329 420.90868168 -163.24276257 419.67035103 C-163.18535925 391.11695525 -163.11259784 362.56362583 -163.02101372 334.01031978 C-163.00974603 330.49320833 -162.9986075 326.97609649 -162.98754883 323.45898438 C-162.98534514 322.75881301 -162.98314146 322.05864164 -162.980871 321.33725296 C-162.94553245 310.01143252 -162.92064891 298.68561215 -162.89965298 287.35975708 C-162.87786345 275.73183623 -162.84456195 264.1039903 -162.80129844 252.47612941 C-162.77737119 245.94768842 -162.75863906 239.41932627 -162.75238609 232.89084244 C-162.74633312 226.74310817 -162.72632505 220.5955756 -162.69572449 214.44791603 C-162.68694777 212.19455046 -162.68322092 209.94115853 -162.68499184 207.68777657 C-162.68664992 204.60380403 -162.6698992 201.52044247 -162.64872742 198.43655396 C-162.65357499 197.55130952 -162.65842257 196.66606508 -162.66341704 195.75399506 C-162.53506676 184.37321717 -158.71369821 175.04881811 -151.125 166.625 C-143.45827586 159.2777227 -134.0424456 157.32211442 -123.8125 157.25 C-120.18048671 157.0920293 -117.13534411 156.91108663 -114.04296875 154.8203125 C-109.20504788 148.72085783 -106.592632 140.1481054 -106.96875 132.375 C-107.98615416 124.91403614 -110.42001317 117.41552026 -116.25 112.3125 C-131.59267096 112.3125 -146.48114539 119.74050041 -157.36425781 130.25073242 Z " fill="#000000" transform="translate(456.25,73.6875)"/>
<path d="M0 0 C2.4338814 1.89916503 4.74010553 3.86403083 7.015625 5.94921875 C7.64726562 6.51253906 8.27890625 7.07585937 8.9296875 7.65625 C23.57620743 21.43172138 32.17505635 41.9137553 33.21875 61.82421875 C33.47119545 75.23457442 31.72075082 87.64120619 26.015625 99.94921875 C26.99660156 100.14515625 27.97757813 100.34109375 28.98828125 100.54296875 C43.6767961 103.70597145 55.81525826 109.83026673 67.015625 119.94921875 C67.78390625 120.6246875 68.5521875 121.30015625 69.34375 121.99609375 C83.02537883 134.74699953 92.35333612 154.5351635 93.11149275 173.32518888 C93.15309727 176.15643855 93.16331427 178.98622056 93.16279602 181.81777954 C93.16647271 182.90237406 93.1701494 183.98696858 93.1739375 185.1044296 C93.18493751 188.73319879 93.18881182 192.36193932 93.19262695 195.99072266 C93.19889403 198.59444774 93.20554105 201.19817193 93.21253967 203.80189514 C93.23224287 211.60625292 93.2423582 219.41061188 93.25126746 227.21498829 C93.25565667 230.8922926 93.26102148 234.56959547 93.26625633 238.24689865 C93.28325534 250.47133142 93.29775243 262.69576331 93.30500507 274.92020607 C93.30691485 278.08775458 93.30883521 281.25530308 93.31079102 284.42285156 C93.31127476 285.21009441 93.3117585 285.99733727 93.3122569 286.80843596 C93.32056864 299.57928083 93.3459307 312.35003238 93.37837169 325.12083645 C93.41141875 338.23713802 93.42945132 351.35339207 93.43264931 364.4697355 C93.43481558 371.83241793 93.44358227 379.19496389 93.46911049 386.55760574 C93.49304719 393.47692665 93.49665818 400.39599777 93.48634911 407.31535149 C93.48585171 409.85788095 93.49223169 412.40042221 93.50590515 414.94291496 C93.52349736 418.40711729 93.51657992 421.87042362 93.50337219 425.33462524 C93.51434144 426.3463875 93.52531068 427.35814975 93.53661233 428.40057147 C93.49680831 432.70869118 93.39942531 435.27866802 91.22757244 439.07318687 C87.91359787 441.88388745 84.59936562 441.64701099 80.453125 441.578125 C79.21067017 441.58174294 79.21067017 441.58174294 77.94311523 441.58543396 C76.19477544 441.58445603 74.44640448 441.57107496 72.69824219 441.54614258 C70.02431912 441.51183031 67.35370108 441.52548435 64.6796875 441.54492188 C62.97915262 441.53802321 61.27862626 441.52835064 59.578125 441.515625 C58.78011475 441.52058487 57.98210449 441.52554474 57.15991211 441.53065491 C53.8863943 441.46131006 51.55095858 441.31252028 48.80535984 439.44923306 C46.26734447 435.9039734 46.45842208 432.61595179 46.5009613 428.4155426 C46.49401578 427.54585608 46.48707025 426.67616956 46.47991425 425.7801289 C46.46159011 422.86040268 46.47192359 419.94148404 46.48217773 417.02172852 C46.475122 414.93074941 46.46637844 412.83977541 46.45606995 410.74880981 C46.43352738 405.06492457 46.43652713 399.38131713 46.44539142 393.69740415 C46.45049386 388.95564911 46.44321477 384.21394662 46.43591934 379.472197 C46.41890479 368.28765186 46.42250182 357.10324311 46.43920898 345.91870117 C46.45613292 334.37265267 46.44029531 322.82698214 46.4079861 311.28097492 C46.38131244 301.37428789 46.37400818 291.46771868 46.38250118 281.56099933 C46.38743674 275.64136076 46.38518066 269.72194969 46.36471367 263.80233955 C46.34639158 258.23639864 46.35227309 252.67100253 46.37691307 247.10509109 C46.38193193 245.06085547 46.37840347 243.01657858 46.36576462 240.97237587 C46.34988835 238.18424611 46.36473343 235.39792228 46.38743591 232.60987854 C46.37560018 231.79839924 46.36376446 230.98691994 46.35157007 230.15085036 C46.41886531 226.09076516 46.83262877 224.18282937 49.36738682 220.94699001 C52.015625 218.94921875 52.015625 218.94921875 55.015625 218.32421875 C59.11980726 219.17925672 60.43014649 220.67313134 63.015625 223.94921875 C63.49766805 226.90299253 63.67252758 229.27269567 63.61689758 232.2191925 C63.62330577 233.46291706 63.62330577 233.46291706 63.62984341 234.73176736 C63.63807517 237.50833376 63.61058607 240.2833874 63.58325195 243.05981445 C63.58184152 245.05067408 63.58263337 247.0415363 63.58546448 249.03239441 C63.58690021 254.43711218 63.55748452 259.84127615 63.52259469 265.24586511 C63.49135768 270.89395869 63.48840254 276.54206469 63.48246765 282.19023132 C63.46692144 292.8858095 63.42588227 303.58113242 63.3757202 314.27659816 C63.31985108 326.4529881 63.29234632 338.62939018 63.26724303 350.80587637 C63.21496726 375.85379873 63.12700967 400.90149444 63.015625 425.94921875 C67.635625 425.94921875 72.255625 425.94921875 77.015625 425.94921875 C76.95644969 393.81234675 76.88207477 361.67555476 76.78663872 329.53877138 C76.77537128 325.740122 76.76423271 321.94147226 76.75317383 318.14282227 C76.7498683 317.00851309 76.7498683 317.00851309 76.746496 315.85128858 C76.71117515 303.62541353 76.68628164 291.39953854 76.66527798 279.17363147 C76.64347432 266.61796024 76.61038077 254.06235492 76.56692344 241.5067398 C76.54048515 233.76644376 76.52273228 226.02622976 76.51627896 218.28589084 C76.51037488 212.33906267 76.48872233 206.39235535 76.46134949 200.44558525 C76.45258665 198.01448485 76.44884303 195.58336011 76.45061684 193.15224457 C76.47688934 171.35095389 76.47688934 171.35095389 69.515625 150.88671875 C69.17450684 150.21970947 68.83338867 149.5527002 68.48193359 148.86547852 C60.84263186 134.67796145 48.09806115 124.43738277 33.015625 118.94921875 C24.08047953 116.00779104 24.08047953 116.00779104 15.015625 116.94921875 C10.08632777 122.88475495 7.52857337 131.13242876 7.765625 138.77734375 C8.25789001 143.05389599 9.45122891 146.95059637 11.015625 150.94921875 C11.40427734 152.0165625 11.40427734 152.0165625 11.80078125 153.10546875 C12.98278881 155.44077114 13.79739068 156.52478597 16.015625 157.94921875 C19.75770764 158.56332676 23.43756475 158.71045843 27.21875 158.79296875 C37.94901801 159.23454357 46.98123078 164.10569955 54.34375 171.7890625 C60.27997296 179.45899543 63.48848988 188.1215859 63.359375 197.7890625 C63.015625 199.94921875 63.015625 199.94921875 60.890625 203.01171875 C58.015625 204.94921875 58.015625 204.94921875 55.015625 205.57421875 C50.7743038 204.69061017 49.52309304 203.50146515 47.015625 199.94921875 C46.35442323 197.17806737 45.93967771 194.41980834 45.52734375 191.6015625 C44.32282398 185.35828827 40.07428257 181.4513663 35.015625 177.94921875 C32.9530699 177.2612377 32.9530699 177.2612377 30.8125 176.80859375 C29.55953125 176.525 28.3065625 176.24140625 27.015625 175.94921875 C27.36496094 177.02300781 27.71429688 178.09679687 28.07421875 179.203125 C28.53414749 180.63922901 28.99376642 182.07543227 29.453125 183.51171875 C29.79827148 184.56842773 29.79827148 184.56842773 30.15039062 185.64648438 C36.23142774 204.77090544 33.45952786 225.98112258 25.015625 243.94921875 C14.25539196 264.51376436 -2.33356618 278.0442421 -23.94921875 286.046875 C-46.25023708 292.48273935 -70.94870663 287.91612487 -90.98388672 277.08642578 C-120.83369625 260.11786186 -139.7361098 229.37868551 -148.82861328 196.93701172 C-149.68597406 193.71956155 -150.50275502 190.49534014 -151.296875 187.26171875 C-151.53954102 186.2773584 -151.78220703 185.29299805 -152.03222656 184.27880859 C-155.45790949 169.56096998 -156.33509616 155.14780794 -156.30004883 140.09692383 C-156.29689806 137.28231662 -156.32041824 134.4687746 -156.34570312 131.65429688 C-156.49817421 88.08461451 -143.13497731 45.93895207 -112.984375 13.94921875 C-112.40042969 13.31242187 -111.81648438 12.675625 -111.21484375 12.01953125 C-82.75186182 -17.97658554 -33.8434888 -23.25632411 0 0 Z M-103.984375 27.94921875 C-104.69078125 28.63242188 -105.3971875 29.315625 -106.125 30.01953125 C-121.67373387 46.13712124 -130.96918218 69.42253637 -135.984375 90.94921875 C-136.18047363 91.77905273 -136.37657227 92.60888672 -136.57861328 93.46386719 C-142.52523907 120.00244735 -142.94282059 151.37666267 -136.984375 177.94921875 C-136.81808594 178.72700684 -136.65179688 179.50479492 -136.48046875 180.30615234 C-129.88737822 210.3718661 -115.15125557 241.79178537 -88.734375 259.29296875 C-70.89322701 270.03820561 -51.65390338 275.88610633 -30.9140625 271.08984375 C-14.50567835 266.69806883 -0.88681476 255.35319889 8.265625 241.26171875 C17.0309928 225.85518092 19.63013885 207.34226898 15.11328125 190.19921875 C11.74529914 180.22711514 6.54579593 172.12808881 0.1015625 163.90234375 C-7.47994136 153.16897873 -9.36534212 140.75535224 -7.55859375 127.92578125 C-5.37454574 117.71569177 -0.09945923 109.67103106 6.140625 101.44921875 C15.41179201 88.96189109 18.50333103 74.3060642 17.015625 58.94921875 C14.23536424 40.30275835 5.05896395 24.39834223 -9.984375 12.94921875 C-41.80147202 -8.90269198 -78.39047891 2.42929346 -103.984375 27.94921875 Z " fill="#000000" transform="translate(155.984375,71.05078125)"/>
<path d="M0 0 C5.67745964 3.42353253 9.52525835 9.26891911 11.5 15.5 C11.807024 18.72591821 11.80403279 21.94167756 11.80639648 25.18041992 C11.81472 26.15019775 11.82304352 27.11997559 11.83161926 28.11914062 C11.85569943 31.32295764 11.86449003 34.52657085 11.87109375 37.73046875 C11.88006318 39.96381185 11.88918509 42.19715434 11.89845276 44.43049622 C11.91494106 49.11359109 11.92264232 53.7966145 11.92553711 58.47973633 C11.93091365 64.46393123 11.96856505 70.4474488 12.01428127 76.43145275 C12.04411198 81.04617223 12.05126202 85.66073 12.05226326 90.27553749 C12.05645534 92.48063565 12.06884872 94.68573474 12.08978081 96.89073753 C12.11681255 99.98519135 12.11183361 103.07809354 12.09936523 106.17260742 C12.11419952 107.07322403 12.12903381 107.97384064 12.14431763 108.90174866 C12.06780088 115.61288657 10.28661495 120.92513685 6.5 126.5 C-0.27334143 132.86864885 -5.77817769 133.87377966 -14.98046875 133.76953125 C-20.71643118 133.33026221 -24.32048909 131.84077517 -28.2421875 127.62890625 C-33.62551125 120.8160396 -34.80016922 115.3522067 -34.80639648 106.81958008 C-34.81472 105.84980225 -34.82304352 104.88002441 -34.83161926 103.88085938 C-34.85569943 100.67704236 -34.86449003 97.47342915 -34.87109375 94.26953125 C-34.88006318 92.03618815 -34.88918509 89.80284566 -34.89845276 87.56950378 C-34.91494106 82.88640891 -34.92264232 78.2033855 -34.92553711 73.52026367 C-34.93091365 67.53606877 -34.96856505 61.5525512 -35.01428127 55.56854725 C-35.04411198 50.95382777 -35.05126202 46.33927 -35.05226326 41.72446251 C-35.05645534 39.51936435 -35.06884872 37.31426526 -35.08978081 35.10926247 C-35.11681255 32.01480865 -35.11183361 28.92190646 -35.09936523 25.82739258 C-35.11419952 24.92677597 -35.12903381 24.02615936 -35.14431763 23.09825134 C-35.06780088 16.38711343 -33.28661495 11.07486315 -29.5 5.5 C-21.58097924 -1.94587631 -10.33628311 -4.55599275 0 0 Z M-18.5 18.5 C-19.09712223 21.53415003 -19.04635965 24.5271407 -19.01757812 27.61132812 C-19.0245874 28.53207626 -19.03159668 29.4528244 -19.03881836 30.401474 C-19.05642358 33.44503945 -19.04476647 36.48767509 -19.03125 39.53125 C-19.03394418 41.64587584 -19.03782599 43.76050047 -19.04284668 45.87512207 C-19.04874516 50.30700475 -19.04016731 54.73856496 -19.02148438 59.17041016 C-18.99869486 64.85364702 -19.01181603 70.53612833 -19.03577423 76.21933746 C-19.05022261 80.58593446 -19.04563058 84.95235209 -19.03526306 89.31895447 C-19.03259313 91.4145466 -19.03587486 93.51015498 -19.04518127 95.60572815 C-19.05533085 98.53381541 -19.03986775 101.46067607 -19.01757812 104.38867188 C-19.02567505 105.25632675 -19.03377197 106.12398163 -19.04211426 107.01792908 C-18.97746063 111.86377158 -18.97746063 111.86377158 -16.65515137 116.03820801 C-13.70106343 118.04190118 -11.99807413 118.08301235 -8.5 117.5 C-6.08136478 115.85949268 -4.70829963 114.55843042 -4.1313324 111.62669373 C-3.97719048 109.20570136 -3.95978368 106.81454852 -3.98242188 104.38867188 C-3.9754126 103.46792374 -3.96840332 102.5471756 -3.96118164 101.598526 C-3.94357642 98.55496055 -3.95523353 95.51232491 -3.96875 92.46875 C-3.96605582 90.35412416 -3.96217401 88.23949953 -3.95715332 86.12487793 C-3.95125484 81.69299525 -3.95983269 77.26143504 -3.97851562 72.82958984 C-4.00130514 67.14635298 -3.98818397 61.46387167 -3.96422577 55.78066254 C-3.94977739 51.41406554 -3.95436942 47.04764791 -3.96473694 42.68104553 C-3.96740687 40.5854534 -3.96412514 38.48984502 -3.95481873 36.39427185 C-3.94466915 33.46618459 -3.96013225 30.53932393 -3.98242188 27.61132812 C-3.97432495 26.74367325 -3.96622803 25.87601837 -3.95788574 24.98207092 C-4.02253937 20.13622842 -4.02253937 20.13622842 -6.34484863 15.96179199 C-11.23873468 12.64237622 -15.19770867 13.95659077 -18.5 18.5 Z " fill="#000000" transform="translate(267.5,1.5)"/>
<path d="M0 0 C5.73224406 3.45656777 9.40390771 9.25914604 11.5 15.5 C12.65578055 23.42013831 11.23719339 30.01752484 6.5 36.5 C-0.20338061 42.91646549 -5.83586978 43.87312609 -14.98046875 43.76953125 C-20.71643118 43.33026221 -24.32048909 41.84077517 -28.2421875 37.62890625 C-33.07539653 31.51223741 -35.05019589 26.23134411 -34.87109375 18.4140625 C-33.9870978 11.47236799 -30.8802208 6.20353826 -25.375 1.9375 C-18.37603021 -2.86918547 -7.79379338 -3.43532252 0 0 Z M-16.9375 16.0625 C-18.83441535 18.52623116 -18.83441535 18.52623116 -18.4375 22.125 C-17.8249155 25.75516924 -17.8249155 25.75516924 -14.5 27.5 C-10.90013378 27.95955739 -9.14337361 27.91241898 -6.0625 25.9375 C-4.16558465 23.47376884 -4.16558465 23.47376884 -4.5625 19.875 C-5.1750845 16.24483076 -5.1750845 16.24483076 -8.5 14.5 C-12.09986622 14.04044261 -13.85662639 14.08758102 -16.9375 16.0625 Z " fill="#000000" transform="translate(267.5,151.5)"/>
</svg>
