<?xml version="1.0" standalone="no"?>
<!DOCTYPE svg PUBLIC "-//W3C//DTD SVG 20010904//EN"
 "http://www.w3.org/TR/2001/REC-SVG-20010904/DTD/svg10.dtd">
<svg version="1.0" xmlns="http://www.w3.org/2000/svg"
 width="512.000000pt" height="512.000000pt" viewBox="0 0 512.000000 512.000000"
 preserveAspectRatio="xMidYMid meet">

<g transform="translate(0.000000,512.000000) scale(0.100000,-0.100000)"
fill="#000000" stroke="none">
<path d="M1942 5100 c-151 -40 -278 -144 -347 -283 -44 -88 -48 -129 -17 -159
42 -42 114 -18 127 43 4 15 23 54 44 86 168 260 555 235 693 -45 l33 -67 3
-1623 2 -1623 -52 41 c-98 78 -210 120 -320 120 -45 0 -63 -5 -78 -20 -25 -25
-26 -74 -1 -99 19 -19 33 -23 130 -36 110 -15 232 -108 287 -220 l29 -60 3
-344 c3 -323 2 -348 -17 -411 -38 -124 -134 -203 -286 -235 -213 -45 -445 18
-530 143 l-24 35 49 38 c60 48 121 126 155 201 27 60 55 172 55 226 0 42 -38
82 -78 82 -44 0 -68 -34 -76 -109 -22 -205 -178 -359 -381 -378 -196 -18 -390
124 -435 319 -19 85 -10 174 26 259 17 39 40 49 113 49 86 0 253 62 350 130
83 58 100 102 56 145 -33 34 -69 31 -124 -9 -111 -81 -220 -117 -356 -117
-322 -1 -585 264 -585 589 0 79 22 197 40 215 4 5 30 -7 57 -27 101 -72 236
-114 378 -117 70 -1 81 1 97 21 23 28 23 72 0 99 -14 18 -34 23 -119 31 -162
15 -252 58 -355 169 -117 126 -164 257 -155 431 6 130 30 202 103 313 30 44
54 87 54 94 0 8 -15 44 -34 82 -54 106 -69 178 -63 301 6 123 29 199 89 291
170 264 500 349 763 199 28 -16 72 -47 99 -70 63 -53 96 -56 134 -14 35 39 28
63 -37 125 -91 86 -289 179 -383 179 -52 0 -58 7 -58 75 0 81 30 176 78 251
39 60 115 135 164 160 74 38 55 144 -26 144 -65 0 -223 -143 -284 -258 -53
-99 -73 -169 -80 -275 l-7 -98 -90 -30 c-209 -70 -351 -196 -446 -394 -88
-183 -93 -402 -13 -601 25 -64 25 -64 6 -91 -30 -43 -68 -122 -92 -193 -31
-93 -39 -270 -15 -376 18 -81 67 -201 105 -255 l22 -30 -26 -62 c-56 -134 -72
-307 -41 -452 31 -144 134 -313 249 -406 67 -54 186 -120 254 -140 33 -10 41
-16 36 -28 -30 -67 -45 -162 -41 -246 16 -286 235 -510 522 -532 62 -5 150 5
195 21 10 4 27 -13 52 -49 66 -94 174 -165 308 -201 92 -25 320 -25 410 0 104
28 193 81 260 153 l60 64 61 -66 c118 -125 290 -184 509 -172 215 12 364 81
463 216 l42 56 60 -13 c80 -17 213 -9 292 18 163 56 295 189 354 356 31 87 36
220 11 309 -10 39 -22 77 -26 85 -5 12 12 21 71 42 125 44 243 130 323 233 48
62 55 102 25 135 -12 13 -31 20 -55 20 -33 0 -43 -6 -83 -55 -63 -77 -130
-130 -214 -171 -104 -50 -152 -54 -242 -16 -40 17 -101 49 -136 72 -114 74
-216 100 -321 81 -84 -16 -150 -51 -235 -127 -140 -124 -280 -187 -459 -207
-78 -8 -112 -7 -193 6 -53 9 -113 23 -132 31 l-35 15 0 365 c0 416 -11 371
100 402 46 13 101 18 190 18 147 0 209 -14 350 -78 52 -24 122 -51 155 -60 84
-23 237 -31 308 -17 86 18 186 73 247 135 116 118 141 194 143 431 l2 170 33
68 c60 120 168 183 312 180 82 -1 128 -10 238 -49 l72 -26 0 -77 c0 -127 -41
-247 -121 -353 -46 -61 -47 -77 -15 -133 37 -62 67 -161 76 -248 6 -59 13 -84
28 -100 26 -25 75 -26 102 -2 39 35 22 197 -36 341 l-25 64 21 30 c12 16 36
62 55 102 104 228 81 525 -57 721 -19 27 -19 27 6 91 104 260 62 546 -113 762
-89 110 -237 205 -374 241 l-67 18 0 75 c0 253 -176 502 -420 594 -79 29 -216
51 -269 42 l-38 -6 -39 66 c-90 154 -280 263 -460 264 -170 0 -348 -86 -440
-215 -21 -30 -41 -54 -44 -54 -3 0 -18 20 -35 45 -16 25 -55 66 -84 91 -145
119 -322 159 -499 113z m1207 -149 c34 -10 84 -34 112 -52 59 -37 133 -131
150 -190 21 -70 41 -78 159 -65 293 31 550 -202 550 -499 l0 -83 -82 -40
c-272 -133 -554 -135 -839 -6 -55 24 -137 55 -183 68 -94 28 -262 50 -331 44
l-46 -3 3 275 3 275 29 58 c92 185 289 276 475 218z m-214 -1000 c44 -11 132
-42 195 -70 63 -27 128 -53 144 -57 l28 -7 -4 -136 c-4 -120 -8 -147 -36 -230
-43 -123 -99 -217 -186 -309 -107 -113 -278 -215 -398 -237 l-38 -7 0 534 c0
294 3 538 8 543 12 12 200 -3 287 -24z m1410 -42 c116 -43 225 -132 295 -240
36 -56 67 -126 58 -133 -1 -2 -145 -24 -318 -50 -424 -63 -508 -93 -661 -234
-165 -153 -249 -342 -249 -565 0 -131 21 -221 82 -347 44 -92 61 -115 142
-195 59 -58 113 -102 154 -124 l64 -33 -33 -35 c-117 -120 -316 -123 -565 -9
-145 66 -211 80 -384 79 -111 0 -162 -5 -218 -20 l-72 -20 2 380 3 379 74 19
c282 72 521 272 646 542 56 120 76 208 82 349 l6 126 111 -5 c197 -9 389 33
551 122 71 38 86 43 128 39 27 -3 73 -14 102 -25z m370 -700 c-9 -34 -32 -94
-51 -132 -41 -80 -40 -96 12 -164 40 -53 68 -103 57 -103 -5 0 -30 7 -58 15
-92 28 -224 38 -302 21 -185 -38 -324 -166 -375 -344 -15 -53 -19 -95 -17
-197 1 -71 1 -143 0 -158 l-1 -28 -52 28 c-29 15 -87 62 -128 103 -123 122
-180 261 -180 435 0 109 18 184 67 285 66 136 228 271 373 310 25 7 185 34
355 59 l310 47 3 -57 c2 -32 -4 -86 -13 -120z m-825 -2021 c30 -18 98 -53 150
-80 108 -55 131 -80 160 -177 61 -195 -28 -395 -218 -488 -71 -35 -82 -38
-166 -38 -71 0 -106 5 -158 24 -86 31 -107 23 -144 -55 -68 -144 -221 -224
-429 -224 -218 0 -372 88 -424 242 -19 56 -21 85 -21 298 l0 237 73 -19 c109
-29 313 -29 432 0 118 29 273 106 359 179 119 101 126 106 179 125 69 24 135
16 207 -24z"/>
<path d="M1785 4075 c-49 -48 -15 -125 55 -125 56 0 128 -30 178 -75 58 -52
89 -112 98 -190 7 -59 36 -95 76 -95 60 0 84 50 68 141 -30 177 -152 309 -327
354 -83 22 -120 19 -148 -10z"/>
<path d="M1305 2845 c-16 -15 -25 -35 -25 -55 0 -46 96 -139 189 -184 l70 -33
-28 -44 c-29 -47 -80 -94 -119 -112 -60 -28 -60 -113 0 -138 28 -11 36 -10 85
15 66 35 152 127 188 200 24 49 31 56 64 61 81 13 129 28 184 57 96 52 121
105 72 153 -31 32 -61 32 -108 -1 -58 -39 -116 -56 -192 -56 -96 -1 -170 29
-236 93 -79 77 -104 85 -144 44z"/>
</g>
</svg>
