<?xml version="1.0" encoding="UTF-8"?>
<svg version="1.1" xmlns="http://www.w3.org/2000/svg" width="512" height="512">
<path d="M0 0 C1.80719799 0.94284479 3.62682857 1.85553634 5.45214844 2.76269531 C27.58854415 13.93636198 47.80794064 29.33230351 66.37548828 45.66650391 C67.73474334 46.85835645 69.10648493 48.03593027 70.47949219 49.21191406 C71.20523437 49.83453125 71.93097656 50.45714844 72.67871094 51.09863281 C73.28328125 51.61683594 73.88785156 52.13503906 74.51074219 52.66894531 C76.5658976 54.64710643 76.86163563 55.93931804 77.24121094 58.78613281 C76.86621094 61.97363281 76.86621094 61.97363281 74.74121094 64.84863281 C71.31613273 67.38021236 70.02862196 67.4244733 65.86621094 66.97363281 C63.58496094 65.64550781 63.58496094 65.64550781 61.36621094 63.72363281 C60.49996094 62.99015625 59.63371094 62.25667969 58.74121094 61.50097656 C57.27228196 60.20967623 55.80337494 58.91835076 54.33496094 57.62646484 C25.97601145 32.73418841 -7.15238941 11.79279962 -43.13378906 -0.02636719 C-43.97538574 -0.30416016 -44.81698242 -0.58195312 -45.68408203 -0.86816406 C-63.86447484 -6.73837637 -83.00643072 -10.47507741 -102.13378906 -11.02636719 C-103.18308594 -11.06632812 -104.23238281 -11.10628906 -105.31347656 -11.14746094 C-168.11512419 -12.40349389 -229.20918829 17.730547 -274.65722656 59.70800781 C-276.01391441 60.94914181 -277.37850865 62.1825043 -278.77709961 63.3762207 C-284.66648016 68.40982083 -290.14340445 73.83093282 -295.60668945 79.31616211 C-297.19338853 80.90822248 -298.78536648 82.49486271 -300.37792969 84.08105469 C-305.83929519 89.5381587 -311.16511456 95.05846937 -316.13378906 100.97363281 C-316.66770264 101.60084229 -317.20161621 102.22805176 -317.75170898 102.87426758 C-335.66719362 121.13609438 -335.66719362 121.13609438 -346.08300781 142.17675781 C-344.71758394 146.19998205 -342.42806248 149.30172832 -339.94628906 152.72363281 C-339.41672607 153.46299072 -338.88716309 154.20234863 -338.34155273 154.96411133 C-330.31753902 166.0215224 -321.54611588 176.55244002 -312.29394531 186.60253906 C-311.091501 187.92240109 -309.89735565 189.25046417 -308.73779297 190.6081543 C-303.74034017 196.44653186 -298.38718874 201.90638131 -292.95605469 207.33666992 C-291.3951858 208.89972015 -289.84251018 210.47060647 -288.29003906 212.04199219 C-281.89558957 218.47182504 -275.24381188 224.32946556 -268.13378906 229.97363281 C-267.09421972 230.848396 -266.05907622 231.72850411 -265.03222656 232.61816406 C-224.26780932 267.64022532 -170.42421006 293.4088713 -116.13378906 294.97363281 C-115.08449219 295.01359375 -114.03519531 295.05355469 -112.95410156 295.09472656 C-50.15245394 296.35075952 10.94161016 266.21671862 56.38964844 224.23925781 C57.74633629 222.99812382 59.11093052 221.76476132 60.50952148 220.57104492 C66.39890203 215.5374448 71.87582633 210.11633281 77.33911133 204.63110352 C78.9258104 203.03904315 80.51778836 201.45240291 82.11035156 199.86621094 C87.57171707 194.40910692 92.89753643 188.88879625 97.86621094 182.97363281 C98.40012451 182.34642334 98.93403809 181.71921387 99.48413086 181.07299805 C117.38013377 162.83157426 117.38013377 162.83157426 127.83496094 141.79394531 C126.40376906 137.62733026 123.94692409 134.39018709 121.36621094 130.84863281 C120.82230713 130.09163086 120.27840332 129.33462891 119.71801758 128.5546875 C115.32934786 122.49663262 110.71905819 116.66719631 105.86621094 110.97363281 C104.97127694 109.91668202 104.07676564 108.85937323 103.18261719 107.80175781 C102.71968262 107.25503418 102.25674805 106.70831055 101.77978516 106.14501953 C100.84386959 105.03840848 99.90927915 103.93067523 98.97607422 102.82177734 C96.7390122 100.1666025 94.48404564 97.53600323 92.16699219 94.95019531 C91.34585937 94.00917969 90.52472656 93.06816406 89.67871094 92.09863281 C88.94265625 91.27621094 88.20660156 90.45378906 87.44824219 89.60644531 C85.39585524 86.19086802 85.47103335 83.89324307 85.86621094 79.97363281 C87.42871094 77.53613281 87.42871094 77.53613281 89.86621094 75.97363281 C93.40972184 75.22404397 95.64613055 75.21668498 98.78027344 77.16113281 C103.6284392 81.17873631 107.52052197 85.99892878 111.39746094 90.93457031 C113.43306951 93.44043024 115.5233341 95.83003841 117.68652344 98.22363281 C124.65565906 106.01887231 130.71355308 114.53088328 136.86621094 122.97363281 C137.41293457 123.71645508 137.9596582 124.45927734 138.52294922 125.22460938 C139.97281919 127.20912755 141.39338647 129.21089015 142.80371094 131.22363281 C143.22249512 131.7942041 143.6412793 132.36477539 144.07275391 132.95263672 C146.59187616 136.64611928 147.51686857 139.61779239 147.2644043 144.00048828 C146.56473625 147.46751292 144.7268405 150.11531025 142.67871094 152.91113281 C142.23599854 153.54374023 141.79328613 154.17634766 141.3371582 154.828125 C139.87287001 156.89695901 138.37610922 158.9378734 136.86621094 160.97363281 C136.33672852 161.6885791 135.80724609 162.40352539 135.26171875 163.14013672 C128.70009953 171.94178397 121.91185369 180.55432472 114.86621094 188.97363281 C114.03750488 189.97201172 113.20879883 190.97039062 112.35498047 191.99902344 C105.08149552 200.67817913 97.35104734 208.80029653 89.32055664 216.7800293 C87.29498612 218.79481116 85.2804271 220.82016556 83.26660156 222.84667969 C76.10078802 230.01972445 68.83221134 236.6915163 60.86621094 242.97363281 C59.77480457 243.90698283 58.6900608 244.84826078 57.61621094 245.80175781 C49.27951852 253.14373125 40.33444727 259.37711578 31.07910156 265.50585938 C29.17093615 266.77151366 27.27469148 268.05247177 25.38183594 269.34082031 C-26.61812638 303.96518546 -90.1033579 319.96522249 -151.88378906 307.72363281 C-175.16186136 302.88107476 -197.22175057 295.01437515 -218.26757812 283.94726562 C-220.07477612 283.00442083 -221.8944067 282.09172928 -223.71972656 281.18457031 C-243.75655722 271.0680154 -261.9589702 257.31516495 -279.13378906 242.97363281 C-280.14223877 242.13687012 -281.15068848 241.30010742 -282.18969727 240.43798828 C-290.85833367 233.17269455 -298.9698551 225.44900709 -306.94018555 217.42797852 C-308.95496741 215.40240799 -310.98032181 213.38784898 -313.00683594 211.37402344 C-320.17886775 204.20927654 -326.86162839 196.94651562 -333.13378906 188.97363281 C-334.0563775 187.883136 -334.98605652 186.79854388 -335.92675781 185.72363281 C-343.90442366 176.56168052 -351.07884914 166.85731062 -358.13378906 156.97363281 C-358.56336914 156.38179199 -358.99294922 155.78995117 -359.43554688 155.18017578 C-360.48114217 153.7305396 -361.49662361 152.25930479 -362.50878906 150.78613281 C-363.03214844 150.02945313 -363.55550781 149.27277344 -364.09472656 148.49316406 C-365.55930165 144.94184476 -365.7712949 141.7167412 -365.13378906 137.97363281 C-363.83278912 135.36869614 -362.63828377 133.34580943 -360.94628906 131.03613281 C-360.50357666 130.40352539 -360.06086426 129.77091797 -359.60473633 129.11914062 C-358.14044813 127.05030662 -356.64368735 125.00939223 -355.13378906 122.97363281 C-354.60430664 122.25868652 -354.07482422 121.54374023 -353.52929688 120.80712891 C-346.96767765 112.00548165 -340.17943181 103.3929409 -333.13378906 94.97363281 C-331.89072998 93.47606445 -331.89072998 93.47606445 -330.62255859 91.94824219 C-323.34907364 83.2690865 -315.61862546 75.14696909 -307.58813477 67.16723633 C-305.56256424 65.15245446 -303.54800523 63.12710006 -301.53417969 61.10058594 C-294.36836615 53.92754117 -287.09978946 47.25574932 -279.13378906 40.97363281 C-278.04238269 40.0402828 -276.95763892 39.09900485 -275.88378906 38.14550781 C-267.54709665 30.80353438 -258.60202539 24.57014984 -249.34667969 18.44140625 C-247.43851428 17.17575197 -245.5422696 15.89479386 -243.64941406 14.60644531 C-169.90923074 -34.49372553 -78.73770919 -41.4048271 0 0 Z " fill="#000000" transform="translate(365.1337890625,114.0263671875)"/>
<path d="M0 0 C22.1148299 19.26462667 37.47183894 45.71611775 41.14453125 75.09765625 C43.54727378 111.40576558 35.18592679 143.19510616 11.015625 170.94140625 C-9.4185467 192.99901819 -37.71809159 208.56902288 -68.21875 209.93310547 C-103.38489827 211.11432134 -134.03896589 201.30823073 -160.1640625 177.19921875 C-177.74918676 160.06355454 -177.74918676 160.06355454 -179.234375 151.00390625 C-178.609375 147.81640625 -178.609375 147.81640625 -177.109375 145.37890625 C-174.26268565 143.5997254 -171.98409498 143.0574278 -168.6171875 143.25 C-164.67012382 144.36347127 -162.88893859 147.60325255 -160.609375 150.81640625 C-144.91089876 171.07992056 -125.69914512 184.62542401 -100.609375 190.81640625 C-99.71992188 191.04070312 -98.83046875 191.265 -97.9140625 191.49609375 C-71.66496822 196.95530709 -44.1254909 190.8994157 -21.609375 176.81640625 C0.80567135 161.55093046 15.88542753 140.17957493 22.390625 113.81640625 C22.72707031 112.48222656 22.72707031 112.48222656 23.0703125 111.12109375 C28.52952584 84.87199947 22.47363445 57.33252215 8.390625 34.81640625 C-6.87485079 12.4013599 -28.24620632 -2.67839628 -54.609375 -9.18359375 C-55.49882812 -9.40789062 -56.38828125 -9.6321875 -57.3046875 -9.86328125 C-83.55378178 -15.32249459 -111.0932591 -9.2666032 -133.609375 4.81640625 C-156.02442135 20.08188204 -171.10417753 41.45323757 -177.609375 67.81640625 C-177.83367187 68.70585937 -178.05796875 69.5953125 -178.2890625 70.51171875 C-181.2736192 84.86212153 -180.54972528 100.31555886 -177.16796875 114.50390625 C-176.5791676 117.99553824 -176.70176274 120.40672777 -177.609375 123.81640625 C-179.734375 126.25390625 -179.734375 126.25390625 -182.609375 127.81640625 C-185.98844197 127.75814647 -188.4360216 127.67078979 -191.21875 125.64453125 C-193.14926953 123.10665726 -193.57119247 120.73711889 -194.234375 117.62890625 C-194.47414062 116.54222656 -194.71390625 115.45554687 -194.9609375 114.3359375 C-200.58582756 83.8056607 -195.23169373 50.7125727 -177.609375 24.81640625 C-158.31090149 -2.59782516 -131.49202444 -20.62590703 -98.484375 -27.05859375 C-62.75849896 -33.14977096 -27.56712158 -23.06889365 0 0 Z " fill="#000000" transform="translate(333.609375,165.18359375)"/>
<path d="M0 0 C3.15439872 2.34096718 5.80112279 5.09262387 8.5 7.9375 C9.24958984 8.71077637 9.99917969 9.48405273 10.77148438 10.28076172 C22.67211482 22.73678968 22.67211482 22.73678968 25.1875 30.8125 C25 34 25 34 23.5625 36.9375 C20.78472512 39.17327003 18.8194496 40.02993371 15.2109375 39.80859375 C10.22990672 37.98690935 7.18093836 33.03910519 4 29 C2.74104869 27.44861511 1.47139901 25.90580267 0.1875 24.375 C-0.33457031 23.72273438 -0.85664063 23.07046875 -1.39453125 22.3984375 C-3.14784798 20.56212373 -3.14784798 20.56212373 -7 21 C-22.34164174 33.41551756 -32.92798393 55.87033634 -36 75 C-37.10930393 87.78100349 -36.39990872 99.90025103 -32 112 C-31.5875 113.155 -31.175 114.31 -30.75 115.5 C-25.21867847 129.57972752 -16.49978794 141.25447234 -6 152 C6.18490999 146.76621316 15.01416286 129.22126798 19.9609375 117.59765625 C24.16002793 106.99083915 26.34434768 97.38462 26.25 86 C26.25773437 85.06671875 26.26546875 84.1334375 26.2734375 83.171875 C26.25862515 77.86905505 25.78323776 73.04055126 24.46533203 67.89941406 C23.42655173 63.65927203 23.47767077 61.00113103 25.5 57.125 C28.53837914 54.54237773 30.14104274 54.44113078 34 54.43359375 C36.91466534 55.25903608 38.11721418 56.65442859 40 59 C47.84961657 78.03824913 43.9805602 103.65511141 36.6875 122.25 C29.92673498 137.31743667 21.31570876 150.00984502 10 162 C8.73929687 163.3921875 8.73929687 163.3921875 7.453125 164.8125 C6.60234375 165.72 5.7515625 166.6275 4.875 167.5625 C3.72644531 168.80193359 3.72644531 168.80193359 2.5546875 170.06640625 C-0.72556003 172.54916241 -2.90595247 172.95896834 -7 173 C-24.69647473 165.80473006 -38.54765042 140.54375651 -46 124 C-55.75061354 100.17271674 -56.10650634 73.8530298 -46.75 49.875 C-45.86134343 47.90379815 -44.94271613 45.94592742 -44 44 C-43.43539062 42.81921875 -42.87078125 41.6384375 -42.2890625 40.421875 C-34.66571588 25.03951371 -23.28600781 10.92101433 -10 0 C-6.00250861 -1.33249713 -4.0946527 -1.12769399 0 0 Z " fill="#000000" transform="translate(261,170)"/>
<path d="M0 0 C11.41333333 5.64 11.41333333 5.64 14.39453125 10.07421875 C15.31211244 12.99271892 14.8055764 15.08753149 14 18 C12.28312633 20.76607425 11.0320581 20.99183687 7.83984375 21.8046875 C3.20329588 22.04052412 0.50396801 20.67780831 -3.3125 18.3125 C-3.93189453 17.95994141 -4.55128906 17.60738281 -5.18945312 17.24414062 C-8.48883789 15.28457117 -10.89773601 13.77487668 -12 10 C-11.82357605 6.64794489 -11.56269287 4.02608699 -9.9375 1.0625 C-6.50251333 -0.82120237 -3.70258619 -0.90850495 0 0 Z " fill="#000000" transform="translate(384,320)"/>
<path d="M0 0 C2.64764845 1.67684402 2.95477045 2.85138861 3.875 5.875 C4.029112 9.72779988 3.26341218 10.91740308 1 14 C-3.54072792 17.43209991 -9.10189888 21.32488998 -14.9375 21.75 C-19.03829895 20.74572271 -20.62572198 19.48722085 -23 16 C-23.06801507 12.12314073 -22.82882931 9.95950059 -20.265625 6.9921875 C-14.46822095 1.89447014 -7.72562876 -2.73616018 0 0 Z " fill="#000000" transform="translate(395,171)"/>
<path d="M0 0 C10.82282286 5.26627779 10.82282286 5.26627779 13.36328125 9.0078125 C14.40278079 12.26023439 13.82956184 14.74100708 13 18 C10.70063092 20.74155544 9.34236057 20.96804635 5.77734375 21.30078125 C1.29384399 20.94377041 -1.03997602 19.65668585 -4.8125 17.25 C-5.93269531 16.55390625 -7.05289063 15.8578125 -8.20703125 15.140625 C-10.84208445 13.12103178 -12.02646086 12.11658959 -13 9 C-12.80282702 5.77950797 -12.58677286 3.73984404 -10.5625 1.1875 C-6.99861933 -1.52104931 -4.1356518 -1.28396737 0 0 Z " fill="#000000" transform="translate(126,171)"/>
<path d="M0 0 C3 2.0625 3 2.0625 5 5 C5.1875 8.5 5.1875 8.5 4 12 C1.96187062 14.14003585 0.42650469 15.43974229 -2 17 C-2.71027344 17.47953125 -3.42054688 17.9590625 -4.15234375 18.453125 C-7.99601124 20.84474033 -10.26731838 22 -14.875 22 C-19.41996558 20.54561102 -19.41996558 20.54561102 -21 18 C-22.03604392 14.59585569 -22.37311247 12.80926808 -20.8671875 9.54296875 C-16.45169585 3.52940168 -7.55512443 -1.85023455 0 0 Z " fill="#000000" transform="translate(135,320)"/>
<path d="M0 0 C1.28874023 -0.03673828 1.28874023 -0.03673828 2.60351562 -0.07421875 C8.91206591 -0.10358361 8.91206591 -0.10358361 12.10546875 2.24609375 C13.82428058 4.75749441 14.41404328 6.33163723 14.5625 9.375 C13.49850927 13.18763347 12.9373349 14.12511007 9.5625 16.375 C6.43176251 16.82500334 3.28473347 16.74528046 0.125 16.75 C-1.16374023 16.78673828 -1.16374023 16.78673828 -2.47851562 16.82421875 C-8.78706591 16.85358361 -8.78706591 16.85358361 -11.98046875 14.50390625 C-13.69928058 11.99250559 -14.28904328 10.41836277 -14.4375 7.375 C-12.234251 -0.51997557 -7.02687938 0.01049571 0 0 Z " fill="#000000" transform="translate(405.4375,247.625)"/>
<path d="M0 0 C1.28874023 -0.03673828 1.28874023 -0.03673828 2.60351562 -0.07421875 C8.91206591 -0.10358361 8.91206591 -0.10358361 12.10546875 2.24609375 C13.82428058 4.75749441 14.41404328 6.33163723 14.5625 9.375 C13.49850927 13.18763347 12.9373349 14.12511007 9.5625 16.375 C6.43176251 16.82500334 3.28473347 16.74528046 0.125 16.75 C-1.16374023 16.78673828 -1.16374023 16.78673828 -2.47851562 16.82421875 C-8.78706591 16.85358361 -8.78706591 16.85358361 -11.98046875 14.50390625 C-13.69928058 11.99250559 -14.28904328 10.41836277 -14.4375 7.375 C-12.234251 -0.51997557 -7.02687938 0.01049571 0 0 Z " fill="#000000" transform="translate(106.4375,247.625)"/>
<path d="M0 0 C12.29930394 2.94895592 12.29930394 2.94895592 15 7 C15.775 13.975 15.775 13.975 13.0625 17.5625 C6.64190576 20.57624832 -0.29454258 17.80800656 -6.8359375 16.01171875 C-9.50074039 14.76589935 -10.52155473 13.52315107 -12 11 C-12.48505011 7.11959911 -12.56851618 4.9238388 -10.5 1.5625 C-6.91403395 -0.67872878 -4.04344404 -0.63910461 0 0 Z " fill="#000000" transform="translate(110,208)"/>
<path d="M0 0 C1.71523412 3.12777986 1.89444701 6.52455202 1.0625 9.9375 C-3.29515438 15.43716035 -9.63032458 16.34463837 -16.29296875 17.26171875 C-19.59386332 17.44131714 -21.62278362 17.13419774 -24.4375 15.375 C-26.50601618 12.0136612 -26.42255011 9.81790089 -25.9375 5.9375 C-24.28492869 2.83673899 -23.10992153 2.00963112 -19.828125 0.63671875 C-18.62671875 0.30285156 -17.4253125 -0.03101563 -16.1875 -0.375 C-14.99640625 -0.72175781 -13.8053125 -1.06851562 -12.578125 -1.42578125 C-8.12223187 -2.20508445 -4.04501591 -2.21823453 0 0 Z " fill="#000000" transform="translate(123.9375,287.0625)"/>
<path d="M0 0 C2.66480289 1.2458194 3.68561723 2.48856768 5.1640625 5.01171875 C5.64911261 8.89211964 5.73257868 11.08787995 3.6640625 14.44921875 C0.07809645 16.69044753 -2.79249346 16.65082336 -6.8359375 16.01171875 C-19.13524144 13.06276283 -19.13524144 13.06276283 -21.8359375 9.01171875 C-22.6109375 2.03671875 -22.6109375 2.03671875 -19.8984375 -1.55078125 C-13.47784326 -4.56452957 -6.54139492 -1.79628781 0 0 Z " fill="#000000" transform="translate(408.8359375,287.98828125)"/>
<path d="M0 0 C2.06851618 3.3613388 1.98505011 5.55709911 1.5 9.4375 C-0.15257131 12.53826101 -1.32757847 13.36536888 -4.609375 14.73828125 C-5.81078125 15.07214844 -7.0121875 15.40601563 -8.25 15.75 C-9.44109375 16.09675781 -10.6321875 16.44351563 -11.859375 16.80078125 C-16.31526813 17.58008445 -20.39248409 17.59323453 -24.4375 15.375 C-26.15273412 12.24722014 -26.33194701 8.85044798 -25.5 5.4375 C-20.38107999 -1.02293008 -7.2626233 -4.53913956 0 0 Z " fill="#000000" transform="translate(412.5,209.5625)"/>
</svg>
