<?xml version="1.0" encoding="UTF-8"?>
<svg version="1.1" xmlns="http://www.w3.org/2000/svg" width="512" height="512">
<path d="M0 0 C0.91571777 0.00829834 1.83143555 0.01659668 2.77490234 0.02514648 C17.38684333 0.38728755 28.90581417 5.73946714 39.5 15.75 C46.18960074 22.7986133 52.6875 32.35862469 52.6875 42.4375 C54.42773438 42.38529297 54.42773438 42.38529297 56.203125 42.33203125 C73.71512748 41.95795563 89.47459603 45.14112335 102.625 57.625 C115.74986264 71.73567707 118.14265093 85.47198381 118.09155273 103.99145508 C118.09726247 105.86344305 118.10422906 107.73542755 118.11235046 109.60740662 C118.13023218 114.66955992 118.12912264 119.73153941 118.12340808 124.79371476 C118.12030839 129.03048841 118.12641748 133.26722904 118.13244683 137.50399798 C118.14647466 147.50570455 118.14494582 157.50732567 118.13354492 167.5090332 C118.12207083 177.80191622 118.13613151 188.09453845 118.1629414 198.3873871 C118.18514831 207.24718515 118.19172438 216.10690164 118.18586498 224.96672553 C118.18250549 230.2482288 118.18484302 235.52956502 118.20211601 240.81104469 C118.21766232 245.78114832 118.21354481 250.75086792 118.19481087 255.7209568 C118.1911459 257.53608124 118.19417178 259.35123462 118.20469666 261.16633224 C118.29729476 278.46808292 115.16271613 292.63557868 102.9375 305.6875 C95.70512926 312.50019739 86.00708193 319.4375 75.6875 319.4375 C75.70844727 320.49662598 75.72939453 321.55575195 75.75097656 322.64697266 C75.82363385 326.59409957 75.86939254 330.54116792 75.90722656 334.48876953 C75.92728369 336.19394894 75.95453657 337.89906006 75.98925781 339.60400391 C76.03803861 342.06169524 76.06052719 344.51847366 76.078125 346.9765625 C76.09877014 347.73305084 76.11941528 348.48953918 76.14068604 349.26895142 C76.14285489 354.43971854 75.10260623 357.33860162 71.6875 361.4375 C68.00662647 363.89141569 65.24394412 363.66552759 61 363.5625 C60.29810547 363.55347656 59.59621094 363.54445313 58.87304688 363.53515625 C57.14438475 363.51163704 55.41589855 363.47576713 53.6875 363.4375 C53.73390625 364.46230469 53.7803125 365.48710937 53.828125 366.54296875 C53.86566011 367.90361656 53.90205841 369.26429605 53.9375 370.625 C53.97101563 371.29853516 54.00453125 371.97207031 54.0390625 372.66601562 C54.11051429 376.32791975 53.80284178 378.25900622 51.796875 381.36328125 C48.1503337 384.94904686 45.11576867 384.82869053 40.171875 384.79296875 C37.6875 384.4375 37.6875 384.4375 34.625 382.125 C31.58678511 377.91070193 31.57474676 374.82557763 31.625 369.75 C31.63402344 368.57050781 31.64304687 367.39101563 31.65234375 366.17578125 C31.66974609 364.82033203 31.66974609 364.82033203 31.6875 363.4375 C30.74648438 363.49550781 29.80546875 363.55351562 28.8359375 363.61328125 C17.39677052 364.02774382 17.39677052 364.02774382 13.875 361.0625 C10.33519766 356.81473719 10.55441834 353.70118333 10.58984375 348.3671875 C10.59196617 347.17284592 10.59196617 347.17284592 10.59413147 345.95437622 C10.59973655 343.4070462 10.61228986 340.85980353 10.625 338.3125 C10.63001435 336.58724085 10.63457737 334.86198033 10.63867188 333.13671875 C10.64885747 328.90358496 10.6684318 324.67064046 10.6875 320.4375 C3.7575 320.4375 -3.1725 320.4375 -10.3125 320.4375 C-10.26609375 322.97824219 -10.2196875 325.51898438 -10.171875 328.13671875 C-10.14065313 330.60569258 -10.11638045 333.07464417 -10.09277344 335.54370117 C-10.07269495 337.25571586 -10.04542608 338.96766228 -10.01074219 340.67944336 C-9.96205599 343.14454008 -9.93949427 345.6087279 -9.921875 348.07421875 C-9.90122986 348.83586838 -9.88058472 349.59751801 -9.85931396 350.38224792 C-9.85774444 354.12453521 -10.16349657 356.20807204 -12.22265625 359.37866211 C-15.36965704 362.47897258 -17.09917011 363.36423129 -21.546875 363.6328125 C-23.28710938 363.59800781 -23.28710938 363.59800781 -25.0625 363.5625 C-26.23296875 363.54445313 -27.4034375 363.52640625 -28.609375 363.5078125 C-29.94742188 363.47300781 -29.94742188 363.47300781 -31.3125 363.4375 C-31.33828125 364.05753906 -31.3640625 364.67757813 -31.390625 365.31640625 C-32.91404691 389.10256195 -43.76923348 411.71602485 -59.3125 429.4375 C-59.97507812 430.25605469 -60.63765625 431.07460938 -61.3203125 431.91796875 C-80.29336661 454.6062787 -109.57288434 466.76833423 -138.3125 470.4375 C-142.70145907 470.62145538 -147.0887529 470.62332056 -151.48095703 470.62280273 C-153.54350727 470.62497995 -155.6055134 470.64315389 -157.66796875 470.66210938 C-165.41949789 470.69392379 -172.74678004 470.19731757 -180.3125 468.4375 C-180.28893433 470.03404419 -180.28893433 470.03404419 -180.26489258 471.6628418 C-180.21046946 475.62305086 -180.17610507 479.58322704 -180.14770508 483.54370117 C-180.1326466 485.25567184 -180.11219545 486.96760411 -180.08618164 488.67944336 C-180.0496681 491.14446505 -180.03274438 493.60897535 -180.01953125 496.07421875 C-180.00404739 496.83586838 -179.98856354 497.59751801 -179.97261047 498.38224792 C-179.97084919 503.98161551 -181.3546674 506.91001554 -184.6953125 511.22265625 C-187.52909515 513.35141568 -190.44637065 512.89555687 -193.86328125 512.80078125 C-197.26695483 512.29593014 -199.02106669 510.95068492 -201.3125 508.4375 C-202.46541684 506.13166631 -202.46647338 504.73883113 -202.51782227 502.17138672 C-202.53776749 501.29062469 -202.55771271 500.40986267 -202.57826233 499.50241089 C-202.60333107 498.07422531 -202.60333107 498.07422531 -202.62890625 496.6171875 C-202.64968735 495.64339142 -202.67046844 494.66959534 -202.69187927 493.66629028 C-202.75738598 490.54843353 -202.81626497 487.43049097 -202.875 484.3125 C-202.91818415 482.20181396 -202.9617984 480.09113667 -203.00585938 477.98046875 C-203.11306847 472.7995705 -203.21483278 467.61858644 -203.3125 462.4375 C-204.39354004 461.90568115 -205.47458008 461.3738623 -206.58837891 460.82592773 C-208.03035433 460.11197977 -209.47224433 459.39785924 -210.9140625 458.68359375 C-211.62377197 458.33502319 -212.33348145 457.98645264 -213.06469727 457.62731934 C-223.70563795 452.34352082 -232.7371572 445.66872792 -241.3125 437.4375 C-242.14652344 436.66664063 -242.98054687 435.89578125 -243.83984375 435.1015625 C-254.64193167 424.81544488 -264.53489521 410.77031437 -269.3125 396.4375 C-270.19550781 396.41171875 -271.07851563 396.3859375 -271.98828125 396.359375 C-283.64020648 395.80869325 -292.74233326 393.96890479 -301.3671875 385.73046875 C-306.39727032 379.80143539 -309.41124643 372.7800174 -309.48950195 365.02319336 C-309.50875481 363.36017433 -309.50875481 363.36017433 -309.52839661 361.66355896 C-309.53578354 360.46360794 -309.54317047 359.26365692 -309.55078125 358.02734375 C-309.558853 356.79013077 -309.56692474 355.55291779 -309.57524109 354.2782135 C-309.58908481 351.65464683 -309.59980567 349.03106212 -309.60766602 346.4074707 C-309.62083968 342.41524705 -309.66870787 338.42363926 -309.71289062 334.43164062 C-309.72302221 331.88021441 -309.73153685 329.32878117 -309.73828125 326.77734375 C-309.75578934 325.59156235 -309.77329742 324.40578094 -309.79133606 323.18406677 C-309.76439859 312.77261807 -307.38296175 304.81851724 -300.171875 297.19140625 C-293.06063071 290.48353086 -286.46375735 288.12962312 -276.73046875 288.1015625 C-275.91685379 288.0949057 -275.10323883 288.0882489 -274.26496887 288.08139038 C-272.54963426 288.07130362 -270.83426072 288.06657212 -269.11889648 288.06689453 C-266.51804679 288.06253028 -263.91890845 288.02619515 -261.31835938 287.98828125 C-245.06527267 287.87646198 -245.06527267 287.87646198 -238.3125 292.4375 C-237.50296875 292.97890625 -236.6934375 293.5203125 -235.859375 294.078125 C-229.25015493 299.99768732 -223.79612517 306.90406687 -223.11706543 316.0776825 C-223.03117254 319.37226717 -223.00914205 322.66131415 -223.01171875 325.95703125 C-223.00743362 327.17017502 -223.0031485 328.38331879 -222.99873352 329.63322449 C-222.99299921 332.19598772 -222.99248332 334.75876723 -222.99682617 337.3215332 C-222.99998037 341.22570856 -222.97653425 345.12912168 -222.95117188 349.03320312 C-222.94889811 351.52864488 -222.94819574 354.02408867 -222.94921875 356.51953125 C-222.940009 357.679189 -222.93079926 358.83884674 -222.92131042 360.03364563 C-222.98520503 371.3288371 -225.5086953 379.15197896 -233.3125 387.4375 C-237.02898753 390.75861651 -240.36678652 392.62728073 -245.3125 393.4375 C-239.66759529 403.64014259 -233.61497107 412.24116847 -225.3125 420.4375 C-224.4875 421.26121094 -223.6625 422.08492188 -222.8125 422.93359375 C-218.50895765 427.02333832 -214.15950238 430.25731789 -208.99609375 433.19921875 C-207.9280249 433.81112061 -206.85995605 434.42302246 -205.75952148 435.0534668 C-204.95200439 435.51019775 -204.1444873 435.96692871 -203.3125 436.4375 C-203.31103344 435.82680349 -203.30956688 435.21610699 -203.30805588 434.58690453 C-203.27086708 419.66898632 -203.21169386 404.75127407 -203.12859726 389.83354759 C-203.08893095 382.61917159 -203.05647593 375.4049027 -203.04150391 368.19042969 C-203.02842252 361.89607181 -203.00129468 355.60195086 -202.95788693 349.3077265 C-202.93541577 345.98048393 -202.92167737 342.6537863 -202.92061615 339.32642746 C-202.90824575 319.97784101 -201.35256045 305.92212402 -191.75 288.8125 C-190.59008544 286.7440937 -189.44278561 284.6685597 -188.30859375 282.5859375 C-187.80513428 281.69052246 -187.3016748 280.79510742 -186.78295898 279.87255859 C-182.81697396 270.60783846 -181.87293617 261.49767559 -181.94018555 251.51220703 C-181.93653488 250.28138901 -181.93288422 249.05057098 -181.92912292 247.78245544 C-181.92246261 244.44588396 -181.92904381 241.10988203 -181.94245505 237.7733674 C-181.9538747 234.26483595 -181.94965439 230.75631695 -181.94770813 227.24777222 C-181.94682914 221.36565332 -181.95782805 215.48365056 -181.97631836 209.6015625 C-181.99753912 202.81220293 -182.00098096 196.02301253 -181.9947564 189.23362648 C-181.98905532 182.67793375 -181.99471337 176.12230024 -182.00592995 169.56661606 C-182.01056006 166.7860593 -182.01145678 164.00553895 -182.0093441 161.2249794 C-182.0071046 157.34539779 -182.02159329 153.46597606 -182.0378418 149.58642578 C-182.03536438 148.43930618 -182.03288696 147.29218658 -182.03033447 146.11030579 C-181.99260076 138.54771738 -181.99260076 138.54771738 -184.3125 131.4375 C-188.03209662 130.19763446 -191.45416151 129.76059851 -195.3125 130.4375 C-198.83198434 133.13327524 -200.53912731 135.11998648 -201.3125 139.4375 C-201.40434737 140.99858501 -201.44763649 142.56293875 -201.4543457 144.12670898 C-201.46138016 145.05124374 -201.46841461 145.9757785 -201.47566223 146.92832947 C-201.48190865 148.41593529 -201.48190865 148.41593529 -201.48828125 149.93359375 C-201.5114728 152.03972361 -201.53558986 154.14584345 -201.56054688 156.25195312 C-201.59569956 159.56785872 -201.6250339 162.88339334 -201.63842773 166.19946289 C-201.65389437 169.40296037 -201.69408697 172.60538067 -201.73828125 175.80859375 C-201.73637283 176.79830673 -201.73446442 177.78801971 -201.73249817 178.807724 C-201.81049461 183.19536346 -201.88255199 185.73959665 -204.22338867 189.53930664 C-207.92613219 192.90366691 -210.97138646 192.82806079 -215.828125 192.79296875 C-218.3125 192.4375 -218.3125 192.4375 -221.375 190.125 C-223.93252882 186.57746003 -224.4372874 184.0781886 -224.43707275 179.82046509 C-224.43963577 178.87276749 -224.44219879 177.92506989 -224.44483948 176.94865417 C-224.44273972 175.91066177 -224.44063995 174.87266937 -224.43847656 173.80322266 C-224.44127876 172.16138252 -224.44127876 172.16138252 -224.44413757 170.4863739 C-224.44814495 168.10625062 -224.45021672 165.72612348 -224.45059967 163.34599686 C-224.45400899 158.29082463 -224.4753618 153.23578174 -224.49583054 148.18065453 C-224.53389666 138.76331101 -224.56566271 129.34613498 -224.56298828 119.92871094 C-224.56122929 113.38285447 -224.58550776 106.83737658 -224.6248703 100.29163742 C-224.6353522 97.79497779 -224.63683835 95.29826379 -224.62921906 92.80159378 C-224.61962769 89.31072882 -224.64072413 85.82130143 -224.66894531 82.33056641 C-224.65874863 81.29662247 -224.64855194 80.26267853 -224.63804626 79.19740295 C-224.72364048 73.30067969 -224.72364048 73.30067969 -227.72381592 68.29818726 C-230.21811111 66.50534459 -231.29848985 65.75173367 -234.3125 65.8125 C-234.951875 65.79960938 -235.59125 65.78671875 -236.25 65.7734375 C-239.72225744 66.89139918 -241.09039745 68.54397342 -243.3125 71.4375 C-244.05290219 75.05401698 -243.97194449 78.61819637 -243.92431641 82.29882812 C-243.92998123 83.39368027 -243.93564606 84.48853241 -243.94148254 85.61656189 C-243.95498318 89.23430632 -243.93403976 92.85104933 -243.9140625 96.46875 C-243.91956131 98.9831206 -243.92768466 101.49748672 -243.93832397 104.01184082 C-243.96123001 110.63195015 -243.95702714 117.25178119 -243.94451904 123.87188721 C-243.92474565 134.46839707 -243.93611959 145.06476422 -243.97037888 155.66123962 C-243.97649359 159.36451797 -243.96320885 163.06738392 -243.94839478 166.77062988 C-243.95134236 169.03914497 -243.95499679 171.30765929 -243.95947266 173.57617188 C-243.94553719 175.12237465 -243.94553719 175.12237465 -243.93132019 176.69981384 C-243.95965592 181.76943915 -243.98662882 185.3284488 -247.3125 189.4375 C-247.76882812 190.02660156 -248.22515625 190.61570313 -248.6953125 191.22265625 C-251.52909515 193.35141568 -254.44637065 192.89555687 -257.86328125 192.80078125 C-261.26695483 192.29593014 -263.02106669 190.95068492 -265.3125 188.4375 C-266.58684834 185.88880333 -266.44581215 184.09401788 -266.45726013 181.23959351 C-266.46415863 180.13773712 -266.47105713 179.03588074 -266.47816467 177.90063477 C-266.48077805 176.68609619 -266.48339142 175.47155762 -266.48608398 174.22021484 C-266.49634916 172.26310628 -266.50661646 170.30599772 -266.51696312 168.34888959 C-266.52720416 166.24082975 -266.53505076 164.13277232 -266.54229546 162.02470016 C-266.55774343 157.62845667 -266.58169508 153.23228528 -266.60719299 148.83609009 C-266.67839913 136.33331871 -266.73806934 123.83050529 -266.78930664 111.32763672 C-266.81766756 104.4254484 -266.85308414 97.52333111 -266.89596039 90.62121737 C-266.92265097 86.25633503 -266.94060689 81.89153306 -266.95199764 77.52658534 C-266.96331892 74.16138579 -266.98742799 70.79629795 -267.00952148 67.43115234 C-267.01011063 66.22875916 -267.01069977 65.02636597 -267.01130676 63.78753662 C-267.06425946 57.69161134 -267.28347571 52.21965129 -269.3125 46.4375 C-272.59240087 44.57391996 -274.69510491 44.4128042 -278.4375 44.5625 C-281.75764276 45.57297823 -283.13454084 46.77554992 -285.3125 49.4375 C-286.59884031 52.01018062 -286.44009933 53.84313709 -286.44380188 56.72479248 C-286.44781006 57.84636749 -286.45181824 58.9679425 -286.45594788 60.12350464 C-286.45541916 61.35988678 -286.45489044 62.59626892 -286.4543457 63.87011719 C-286.45967912 65.86204947 -286.46501852 67.85398175 -286.47058237 69.84591341 C-286.47578495 71.9912168 -286.4786948 74.13651404 -286.48116493 76.2818222 C-286.4870716 80.75312671 -286.50360945 85.22435146 -286.52250671 89.69561768 C-286.52884435 91.22613139 -286.53516997 92.75664515 -286.54148388 94.28715897 C-286.54464969 95.05373274 -286.5478155 95.82030652 -286.55107725 96.61010981 C-286.59315559 107.02130897 -286.62612121 117.43247149 -286.63842773 127.84375 C-286.64681114 134.86389637 -286.66931353 141.88384584 -286.7077834 148.90389371 C-286.72753785 152.61867412 -286.73995086 156.33316022 -286.73494911 160.04799652 C-286.72943411 164.19470633 -286.75471923 168.34068402 -286.7824707 172.48730469 C-286.77256859 174.32973251 -286.77256859 174.32973251 -286.76246643 176.2093811 C-286.83197881 182.52551831 -286.917316 186.70353934 -291.3125 191.4375 C-295.02703232 193.29476616 -299.26829425 193.02251089 -303.3125 192.4375 C-306.13674288 190.24727082 -307.72758603 188.60732793 -309.3125 185.4375 C-309.41961112 182.59614257 -309.4666709 179.77826307 -309.47021484 176.9362793 C-309.47529556 176.05644379 -309.48037628 175.17660828 -309.48561096 174.27011108 C-309.49632729 172.35542999 -309.5049425 170.44073627 -309.51173019 168.52603722 C-309.52349936 165.49579148 -309.54294741 162.46568954 -309.56484985 159.4355011 C-309.6265304 150.81845888 -309.6805134 142.20143056 -309.71386719 133.58422852 C-309.73480632 128.31687312 -309.77010545 123.04977834 -309.81462479 117.78257179 C-309.8287931 115.77436198 -309.83750909 113.76610603 -309.84067917 111.75784874 C-309.8455849 108.94725643 -309.86873484 106.13735613 -309.89599609 103.3269043 C-309.89298996 102.49710556 -309.88998383 101.66730682 -309.8868866 100.81236267 C-309.95324233 96.20836544 -310.31898955 93.16601313 -313.3125 89.4375 C-317.06297482 86.93718346 -318.87106266 86.90146446 -323.3125 87.4375 C-326.77824648 90.14982333 -328.57775584 92.13108202 -329.3125 96.4375 C-329.40256826 98.40726892 -329.43715064 100.37984227 -329.43707275 102.35166931 C-329.43963577 103.56158035 -329.44219879 104.77149139 -329.44483948 106.01806641 C-329.44276968 107.35571297 -329.44064693 108.69335945 -329.43847656 110.03100586 C-329.4398718 111.44218502 -329.44177142 112.85336376 -329.44413757 114.26454163 C-329.4486304 117.30163344 -329.45049056 120.33871176 -329.45059967 123.37580681 C-329.45174076 128.1788411 -329.46458392 132.98179866 -329.48016357 137.7848053 C-329.48273643 138.59566509 -329.48530928 139.40652488 -329.4879601 140.24195617 C-329.49322646 141.89987125 -329.49851194 143.55778627 -329.50381613 145.21570122 C-329.53892283 156.39601018 -329.56547559 167.57622312 -329.56298828 178.7565918 C-329.56140014 186.30084105 -329.57742245 193.84482814 -329.61369491 201.38899332 C-329.63216016 205.38042959 -329.64149292 209.37142808 -329.62921906 213.36289787 C-329.61778738 217.11667057 -329.62947286 220.86965893 -329.65885353 224.62332726 C-329.66549666 225.99995251 -329.66362271 227.37664951 -329.65255547 228.75324631 C-329.56626413 240.45858053 -329.56626413 240.45858053 -332.71234131 243.74220276 C-336.58388307 246.26643872 -339.7290036 246.85711587 -344.3125 246.4375 C-348.43569519 244.413386 -350.62260338 242.67597933 -352.3125 238.4375 C-352.55300903 236.24810791 -352.55300903 236.24810791 -352.53955078 233.85253906 C-352.53939972 232.95190735 -352.53924866 232.05127563 -352.53909302 231.12335205 C-352.52877045 230.15967712 -352.51844788 229.1960022 -352.5078125 228.203125 C-352.5049826 227.20996277 -352.50215271 226.21680054 -352.49923706 225.19354248 C-352.48805143 222.02473856 -352.46294962 218.85621835 -352.4375 215.6875 C-352.42746812 213.5377645 -352.41834263 211.38802457 -352.41015625 209.23828125 C-352.38811741 203.97125754 -352.35465584 198.70439904 -352.3125 193.4375 C-353.92063944 193.8975867 -355.52709402 194.36356525 -357.1328125 194.83203125 C-358.02758301 195.09089111 -358.92235352 195.34975098 -359.84423828 195.61645508 C-364.69128613 197.22878168 -366.75272217 199.53674471 -369.41430664 203.81958008 C-372.06683238 209.29214569 -371.86952316 214.65801738 -371.80859375 220.63671875 C-371.81004898 221.78993118 -371.81150421 222.94314362 -371.81300354 224.13130188 C-371.81135006 226.55769388 -371.799851 228.98409697 -371.77905273 231.41040039 C-371.75001047 235.12366156 -371.75847411 238.83550132 -371.77148438 242.54882812 C-371.76524903 244.91146526 -371.75685968 247.27409791 -371.74609375 249.63671875 C-371.74902939 250.74512619 -371.75196503 251.85353363 -371.75498962 252.99552917 C-371.74230545 254.03042984 -371.72962128 255.06533051 -371.71655273 256.1315918 C-371.71114975 257.03789841 -371.70574677 257.94420502 -371.70018005 258.87797546 C-370.96533791 263.72951857 -368.25195129 266.78714994 -364.5625 269.8125 C-344.59886452 286.7104218 -332.35936372 305.67964955 -329.59012222 331.90632629 C-328.5855926 344.68328826 -328.90218471 357.5798316 -328.94245505 370.38675976 C-328.95392754 374.8988102 -328.94965064 379.41085172 -328.94770813 383.9229126 C-328.94683116 391.48054772 -328.95778842 399.0380921 -328.97631836 406.59570312 C-328.99756906 415.31253059 -329.00097276 424.02922628 -328.9947564 432.74607444 C-328.98905296 441.17855539 -328.99471406 449.61099035 -329.00592995 458.04346466 C-329.01055357 461.61420804 -329.01145967 465.18492309 -329.0093441 468.75566864 C-329.00745344 472.9551187 -329.0156245 477.15443547 -329.0314045 481.35385513 C-329.03562532 482.88846663 -329.03651283 484.4230917 -329.03371429 485.95770645 C-329.00352676 505.47912803 -329.00352676 505.47912803 -333.3125 511 C-337.66746412 513.08675364 -341.57477796 513.35548227 -346.3125 512.4375 C-349.65875024 509.91073961 -350.99227847 508.39816458 -352.3125 504.4375 C-352.40026262 502.30683793 -352.42571194 500.17344425 -352.41929626 498.04098511 C-352.4184612 497.0628289 -352.4184612 497.0628289 -352.41760927 496.06491196 C-352.41456833 493.8751056 -352.40438117 491.68538984 -352.39428711 489.49560547 C-352.39073118 487.92670792 -352.38764514 486.35780925 -352.38499451 484.78890991 C-352.3784362 481.40531972 -352.36887098 478.0217558 -352.35709953 474.63817978 C-352.33879208 469.27328823 -352.32920175 463.90840306 -352.32118225 458.54348755 C-352.29704901 443.28531072 -352.2614018 428.02717255 -352.21655273 412.76904297 C-352.19187011 404.3454778 -352.17458684 395.92192828 -352.16499335 387.49833214 C-352.15850394 382.18169328 -352.14305577 376.86518396 -352.12067592 371.54858947 C-352.10880683 368.21321752 -352.10557046 364.87787552 -352.10457802 361.54248428 C-352.10245992 360.0144588 -352.09697275 358.48643294 -352.0875473 356.95843506 C-351.9319809 330.68359395 -356.07057432 311.57494336 -374.70019531 292.06884766 C-376.42783729 290.32080046 -378.20145608 288.63250629 -379.9921875 286.94921875 C-380.92792603 286.05638184 -380.92792603 286.05638184 -381.88256836 285.14550781 C-383.08631376 284.00423946 -384.30502337 282.8784519 -385.54125977 281.77246094 C-392.13187941 275.50934308 -394.45050266 267.7253472 -394.83007812 258.76367188 C-394.85617305 256.31133251 -394.85972491 253.85867616 -394.84375 251.40625 C-394.84949036 249.43779114 -394.84949036 249.43779114 -394.85534668 247.42956543 C-394.86119858 244.66948308 -394.85282064 241.90992327 -394.83398438 239.14990234 C-394.81119614 235.64326105 -394.82434282 232.13784501 -394.84827423 228.63124847 C-394.86634944 225.24365544 -394.85362889 221.85637762 -394.84375 218.46875 C-394.85589539 216.6042218 -394.85589539 216.6042218 -394.86828613 214.70202637 C-394.73884743 202.53768341 -391.32462043 192.67982789 -383.3125 183.4375 C-374.48038713 175.14548037 -364.50022659 170.34184088 -352.3125 170.4375 C-352.32138245 169.47220871 -352.33026489 168.50691742 -352.3394165 167.51237488 C-352.42080637 158.37714263 -352.48061049 149.24198478 -352.51974869 140.10647106 C-352.54054712 135.41075108 -352.56872172 130.71532581 -352.61425781 126.01977539 C-352.65799381 121.48099722 -352.68169522 116.94250099 -352.69200897 112.40352821 C-352.69935087 110.6793099 -352.71368683 108.9551055 -352.73542023 107.23100853 C-352.88412152 94.93604089 -352.17697577 84.20300557 -344.08203125 74.22265625 C-338.39145413 68.4818312 -331.68393626 64.70532424 -323.55078125 64.20703125 C-322.25527344 64.22121094 -320.95976562 64.23539063 -319.625 64.25 C-318.32175781 64.25644531 -317.01851563 64.26289062 -315.67578125 64.26953125 C-312.3125 64.4375 -312.3125 64.4375 -309.3125 65.4375 C-309.35890625 64.25414062 -309.4053125 63.07078125 -309.453125 61.8515625 C-309.79645885 49.51504186 -309.00566735 40.53484046 -300.171875 31.19140625 C-291.95192905 23.43771774 -283.79641455 21.68396696 -272.65625 22 C-264.39807438 22.5774948 -257.80848088 26.42833148 -252.25 32.4375 C-246.3125 39.99695122 -246.3125 39.99695122 -246.3125 44.4375 C-245.343125 44.1075 -244.37375 43.7775 -243.375 43.4375 C-235.20207461 41.16087349 -227.12095577 42.27130076 -219.3125 45.4375 C-211.21120912 50.13039849 -205.14485161 57.47735826 -202.3125 66.4375 C-202.04087382 69.66464085 -202.07977044 72.8767418 -202.1171875 76.11328125 C-202.1200174 77.0384404 -202.12284729 77.96359955 -202.12576294 78.91679382 C-202.13692608 81.86132942 -202.16202363 84.80555688 -202.1875 87.75 C-202.19753479 89.75064664 -202.20665977 91.75129806 -202.21484375 93.75195312 C-202.23685278 98.6472535 -202.27135609 103.54232457 -202.3125 108.4375 C-201.22300049 108.11064209 -200.13350098 107.78378418 -199.01098633 107.44702148 C-190.39442751 105.095086 -182.06650736 106.77074866 -174.39453125 111.12109375 C-166.12958737 116.34677121 -161.4829932 122.9051212 -159.3125 132.4375 C-158.89352648 136.85807514 -158.89199352 141.25171469 -158.90844727 145.68969727 C-158.90158401 146.99179642 -158.89472076 148.29389557 -158.88764954 149.63545227 C-158.86980425 153.18553954 -158.87087134 156.73537842 -158.87659192 160.28549695 C-158.87969959 163.26436673 -158.87357315 166.24318988 -158.86755317 169.22205299 C-158.85353477 176.26241453 -158.8550438 183.30265469 -158.86645508 190.34301758 C-158.87790435 197.56562104 -158.86390857 204.78785177 -158.8370586 212.01040608 C-158.81476876 218.24350874 -158.80829472 224.47649558 -158.81413502 230.7096352 C-158.81747785 234.41793453 -158.81527192 238.12599574 -158.79788399 241.83426094 C-158.64706591 277.36308472 -158.64706591 277.36308472 -167.1875 292.6875 C-167.53119629 293.34169922 -167.87489258 293.99589844 -168.22900391 294.66992188 C-169.24344105 296.59994149 -170.27697685 298.51873652 -171.3125 300.4375 C-172.44789631 302.59873684 -173.57392591 304.76493879 -174.6875 306.9375 C-175.14898437 307.8140625 -175.61046875 308.690625 -176.0859375 309.59375 C-179.40992308 317.30031529 -179.61565736 324.53945782 -179.63134766 332.8203125 C-179.64139328 334.04067703 -179.6514389 335.26104156 -179.66178894 336.51838684 C-179.68726721 339.84222414 -179.70419108 343.16589301 -179.71721697 346.48978806 C-179.73291698 349.97183766 -179.75968505 353.45380236 -179.7852478 356.93579102 C-179.83191457 363.51932079 -179.86871697 370.10286676 -179.90192068 376.68647671 C-179.94022793 384.1859676 -179.98961537 391.68537294 -180.03990483 399.18479156 C-180.14304453 414.60229909 -180.23236294 430.01985471 -180.3125 445.4375 C-178.11042119 445.76830249 -175.90764357 446.09445489 -173.70458984 446.41870117 C-172.47799652 446.60083664 -171.2514032 446.78297211 -169.98764038 446.97062683 C-164.62764603 447.65153621 -159.33470359 447.7800632 -153.9375 447.75 C-152.85605713 447.74436035 -151.77461426 447.7387207 -150.66040039 447.73291016 C-126.72611981 447.37235197 -104.51975782 439.0963558 -86.3125 423.4375 C-85.33925781 422.66277344 -84.36601562 421.88804687 -83.36328125 421.08984375 C-66.85041965 407.30164357 -57.58163895 384.1745754 -54.3125 363.4375 C-55.10914063 363.48390625 -55.90578125 363.5303125 -56.7265625 363.578125 C-67.42143611 363.94242726 -67.42143611 363.94242726 -72.3125 359.4375 C-74.87031522 355.60077717 -74.56556456 352.49214013 -74.5078125 348.05078125 C-74.50356766 346.82526802 -74.50356766 346.82526802 -74.49923706 345.57499695 C-74.48804541 342.96651541 -74.4629429 340.3583777 -74.4375 337.75 C-74.42746888 335.98112475 -74.41834326 334.21224412 -74.41015625 332.44335938 C-74.38810942 328.10794051 -74.3535867 323.77277855 -74.3125 319.4375 C-75.39748779 319.29957031 -76.48247559 319.16164063 -77.6003418 319.01953125 C-89.40117098 317.169273 -100.20046966 309.07624461 -107.33984375 299.8046875 C-113.99618844 289.92571504 -117.46755429 279.70448151 -117.45294189 267.81773376 C-117.45739858 266.67858933 -117.45739858 266.67858933 -117.4619453 265.51643187 C-117.47060576 262.97570572 -117.47213831 260.43502684 -117.47363281 257.89428711 C-117.47826298 256.07067769 -117.4832879 254.24706924 -117.48867798 252.42346191 C-117.50178751 247.47063125 -117.50824447 242.51781413 -117.51268864 237.56496882 C-117.51562256 234.4674243 -117.51972804 231.36988345 -117.52419281 228.27234077 C-117.53786583 218.5717845 -117.54753264 208.87123665 -117.5513947 199.1706714 C-117.55587083 187.99029804 -117.57339889 176.81004721 -117.6023953 165.62971109 C-117.6240527 156.9772625 -117.6341012 148.32484827 -117.63543582 139.67237288 C-117.63648122 134.50989128 -117.64233216 129.34752489 -117.66025543 124.18507195 C-117.67680569 119.32345213 -117.67885801 114.46203326 -117.67011642 109.6003952 C-117.66934968 107.82355013 -117.67364051 106.04669395 -117.68357468 104.26987648 C-117.77974511 85.98511728 -114.72990112 71.44455646 -101.73046875 57.7265625 C-87.27247515 44.03935047 -71.32959567 42.04039127 -52.3125 42.4375 C-52.003125 40.5503125 -52.003125 40.5503125 -51.6875 38.625 C-48.97210451 26.7404951 -41.05485233 15.78035614 -30.90625 9.07421875 C-21.03167341 3.04436151 -11.63496849 -0.13735276 0 0 Z M-16.3125 26.4375 C-16.95960938 26.77652344 -17.60671875 27.11554687 -18.2734375 27.46484375 C-24.68807554 31.40046228 -28.67661542 38.33682138 -30.625 45.5 C-31.25945421 49.13369229 -31.66596217 52.68024093 -31.87109375 56.359375 C-32.44724738 59.07188591 -33.39000732 60.44634687 -35.3125 62.4375 C-41.57911824 64.94888576 -48.7321084 64.51916365 -55.375 64.4375 C-66.86326708 64.30619876 -76.77276944 65.34366016 -85.546875 73.51953125 C-93.03674713 81.54244173 -95.42374647 88.82263206 -95.45967102 99.76028442 C-95.46334771 100.4877512 -95.4670244 101.21521797 -95.4708125 101.96472919 C-95.48180685 104.39722904 -95.48568595 106.8296861 -95.48950195 109.26220703 C-95.49576986 111.00862258 -95.50241695 112.75503681 -95.50941467 114.50144958 C-95.5304201 120.23272784 -95.54081437 125.96400625 -95.55078125 131.6953125 C-95.55483024 133.67158904 -95.55894721 135.64786544 -95.56313133 137.62414169 C-95.58217595 146.91089309 -95.59640803 156.19763657 -95.6047433 165.48440373 C-95.61451072 176.18883291 -95.64082042 186.89305503 -95.68124419 197.59741127 C-95.71144897 205.88126901 -95.72621635 214.16506754 -95.72952431 222.44897926 C-95.73186996 227.39182156 -95.7407671 232.33444248 -95.76598549 237.27722549 C-95.78934741 241.93123245 -95.79346693 246.58487352 -95.78322411 251.23892403 C-95.78273059 252.94040586 -95.78899622 254.64190622 -95.80278015 256.34333229 C-95.89435683 268.32427741 -94.9329052 278.99255093 -87.078125 288.65234375 C-79.04201716 296.77734659 -70.7319812 298.65032839 -59.6680603 298.73077393 C-58.39983429 298.72986755 -57.13160828 298.72896118 -55.82495117 298.72802734 C-54.46084732 298.73401903 -53.09674684 298.74082604 -51.73265076 298.74838257 C-48.04241058 298.76598494 -44.35226327 298.77073551 -40.66198516 298.77201414 C-38.35206825 298.7734396 -36.04217466 298.77771665 -33.73226357 298.78300858 C-25.66125627 298.80148995 -17.59031486 298.80968158 -9.51928711 298.80810547 C-2.01601598 298.80690465 5.48696723 298.82799991 12.99016553 298.8595928 C19.4490219 298.88581163 25.90778455 298.89647042 32.36669368 298.89519465 C36.21680796 298.89468665 40.06666617 298.90027942 43.91672707 298.92155075 C47.54073613 298.94102814 51.16424732 298.94099366 54.78827477 298.92651749 C56.73769948 298.92345616 58.68712477 298.94003921 60.63647461 298.95739746 C71.60003869 298.87956051 79.67462371 296.30794347 87.70703125 288.73046875 C93.40302785 282.13569556 95.83694012 274.76881935 95.83467102 266.19664001 C95.83834771 265.45384232 95.8420244 264.71104462 95.8458125 263.9457379 C95.85685119 261.44941401 95.86069354 258.95313175 95.86450195 256.45678711 C95.87076661 254.6696357 95.87741341 252.88248559 95.88441467 251.09533691 C95.90546225 245.2185151 95.91581967 239.341693 95.92578125 233.46484375 C95.92982895 231.44087778 95.93394587 229.41691194 95.93813133 227.39294624 C95.95718678 217.88140296 95.97141546 208.36986744 95.9797433 198.85830873 C95.98950884 187.88613931 96.01580906 176.91417199 96.05624419 165.94207376 C96.08643526 157.45784904 96.10121513 148.97368213 96.10452431 140.48940474 C96.10687195 135.42416486 96.11579476 130.35914081 96.14098549 125.29395866 C96.16432262 120.5242545 96.16847677 115.75490736 96.15822411 110.98516083 C96.15772996 109.23972191 96.16401452 107.49426509 96.17778015 105.74888039 C96.26959638 93.41132048 95.36736657 83.52077234 86.546875 74.19140625 C76.94756596 65.13659584 66.96868438 64.33233562 54.1875 64.5 C46.94255573 64.55133058 39.85578413 64.54968942 33.6875 60.4375 C33.10267723 57.74377089 32.66988526 55.16107232 32.3125 52.4375 C30.75069878 42.45578049 28.18134622 34.4003915 19.97265625 27.91015625 C8.67038449 20.62647001 -4.50128377 20.11453442 -16.3125 26.4375 Z M-285.3125 313.4375 C-287.14996685 316.34372439 -287.5672134 318.59553319 -287.5871582 322.00317383 C-287.59669022 322.90123245 -287.60622223 323.79929108 -287.61604309 324.7245636 C-287.61513168 325.68815292 -287.61422028 326.65174225 -287.61328125 327.64453125 C-287.61756638 328.64328781 -287.6218515 329.64204437 -287.62626648 330.67106628 C-287.63200635 332.7833887 -287.63251257 334.89573088 -287.62817383 337.00805664 C-287.62502181 340.22772303 -287.64845016 343.44646334 -287.67382812 346.66601562 C-287.67610205 348.72135301 -287.67680418 350.77669286 -287.67578125 352.83203125 C-287.684991 353.78954788 -287.69420074 354.74706451 -287.70368958 355.7335968 C-287.6647837 361.40206021 -287.06428659 365.44223437 -284.3125 370.4375 C-280.94576167 373.11362534 -279.70046347 373.4375 -275.3125 373.4375 C-275.47331055 372.30143311 -275.63412109 371.16536621 -275.79980469 369.99487305 C-276.35985602 365.49389586 -276.49074905 361.05134655 -276.515625 356.51953125 C-276.52132507 355.69925949 -276.52702515 354.87898773 -276.53289795 354.03385925 C-276.54227818 352.31368271 -276.54885387 350.59348876 -276.55273438 348.87329102 C-276.56251268 346.24659402 -276.59362983 343.62065706 -276.625 340.99414062 C-276.63152475 339.31510877 -276.63677729 337.63607138 -276.640625 335.95703125 C-276.6529718 335.1767305 -276.6653186 334.39642975 -276.67803955 333.59248352 C-276.65939736 329.02936897 -276.17002224 326.05288305 -273.3125 322.4375 C-269.62373973 320.59311987 -265.33919687 320.94961266 -261.3125 321.4375 C-258.73612529 323.32265223 -257.71582572 324.63084857 -256.3125 327.4375 C-256.18101111 329.58478202 -256.10955443 331.73584738 -256.06640625 333.88671875 C-256.0333791 335.22461373 -256.00016941 336.56250422 -255.96679688 337.90039062 C-255.9200897 339.99059727 -255.87584909 342.08079962 -255.83569336 344.17114258 C-255.63658469 354.06577036 -254.822457 363.64969574 -253.3125 373.4375 C-249.26013725 371.35655697 -247.06563752 369.68972341 -245.3125 365.4375 C-244.8880085 362.08367068 -244.89209173 358.76378581 -244.9140625 355.38671875 C-244.90975723 353.92755791 -244.90975723 353.92755791 -244.90536499 352.43891907 C-244.90332684 350.383834 -244.90883926 348.32872942 -244.92138672 346.27368164 C-244.93739151 343.14619929 -244.9215562 340.02001948 -244.90234375 336.89257812 C-244.90432724 334.89062217 -244.90817311 332.88866702 -244.9140625 330.88671875 C-244.90798981 329.95937424 -244.90191711 329.03202972 -244.8956604 328.07658386 C-244.95848649 322.20227772 -245.76233192 317.76289504 -248.3125 312.4375 C-253.34534256 309.08227163 -259.2148577 310.11015785 -265.125 310.125 C-266.39666016 310.10888672 -267.66832031 310.09277344 -268.97851562 310.07617188 C-270.20892578 310.07552734 -271.43933594 310.07488281 -272.70703125 310.07421875 C-273.82956299 310.07123779 -274.95209473 310.06825684 -276.10864258 310.06518555 C-279.81196806 310.49554228 -282.17304035 311.43806918 -285.3125 313.4375 Z M-52.3125 320.4375 C-52.3125 327.3675 -52.3125 334.2975 -52.3125 341.4375 C-45.7125 341.4375 -39.1125 341.4375 -32.3125 341.4375 C-32.3125 334.5075 -32.3125 327.5775 -32.3125 320.4375 C-38.9125 320.4375 -45.5125 320.4375 -52.3125 320.4375 Z M32.6875 320.4375 C32.6875 327.3675 32.6875 334.2975 32.6875 341.4375 C39.6175 341.4375 46.5475 341.4375 53.6875 341.4375 C53.6875 334.5075 53.6875 327.5775 53.6875 320.4375 C46.7575 320.4375 39.8275 320.4375 32.6875 320.4375 Z " fill="#000000" transform="translate(394.3125,-0.4375)"/>
<path d="M0 0 C1.70760498 -0.0129007 1.70760498 -0.0129007 3.44970703 -0.02606201 C4.70479065 -0.03032196 5.95987427 -0.03458191 7.25299072 -0.03897095 C8.57013062 -0.04714844 9.88727051 -0.05532593 11.24432373 -0.06375122 C15.61991324 -0.08997847 19.99551235 -0.10528068 24.37115479 -0.11953735 C25.87732194 -0.12489696 27.38348904 -0.13027447 28.88965607 -0.13566971 C35.1553502 -0.15730049 41.42104174 -0.17603678 47.68676376 -0.1872921 C56.66628611 -0.20352819 65.64537551 -0.23669489 74.62473464 -0.29369295 C80.93819235 -0.33240191 87.25153432 -0.35192596 93.56510758 -0.35721266 C97.3358966 -0.36086521 101.10622394 -0.37287492 104.87688446 -0.4053154 C108.42617774 -0.43541312 111.97473044 -0.4417025 115.52412415 -0.42993164 C117.44339941 -0.42960606 119.36262907 -0.45406132 121.28173828 -0.47930908 C130.69748499 -0.41118183 130.69748499 -0.41118183 134.3951416 2.50286865 C137.93191218 6.68556427 137.76638683 9.87268351 137.78395081 15.19389343 C137.78762749 15.91501208 137.79130418 16.63613073 137.79509228 17.37910146 C137.80612863 19.80184426 137.80997285 22.22454417 137.81378174 24.64730835 C137.82004636 26.38183732 137.82669316 28.11636496 137.83369446 29.85089111 C137.85110259 34.56790337 137.86165545 39.2849055 137.86989999 44.00194192 C137.87504994 46.94833505 137.88112564 49.89472504 137.88741112 52.84111595 C137.90646163 62.05791824 137.92069376 71.27471252 137.92902309 80.49153072 C137.93879972 91.13433983 137.96513095 101.77694119 138.00552398 112.41967708 C138.03566828 120.6439689 138.05049031 128.86820111 138.0538041 137.09254712 C138.05615625 142.00563756 138.06513831 146.91850602 138.09026527 151.83153725 C138.11352193 156.4534928 138.11778896 161.07507983 138.10750389 165.6970787 C138.10700785 167.39259631 138.11334827 169.0881319 138.12705994 170.78359413 C138.14474768 173.10049013 138.13768928 175.41605902 138.12452698 177.73295593 C138.12691533 179.02878758 138.12930368 180.32461924 138.13176441 181.65971851 C137.54264922 185.818384 136.31324541 187.94482806 133.63677979 191.15390015 C130.53845966 193.3647744 127.851156 193.40672726 124.10224915 193.41459656 C122.97647964 193.42168137 121.85071014 193.42876617 120.69082642 193.43606567 C119.46006378 193.43358826 118.22930115 193.43111084 116.96124268 193.42855835 C115.01194603 193.43622475 115.01194603 193.43622475 113.02326965 193.44404602 C109.46127231 193.457433 105.89938108 193.45801505 102.33736348 193.45548272 C99.36268747 193.45441281 96.38803291 193.45929688 93.41336149 193.46408814 C86.39512587 193.47518226 79.37694376 193.47562126 72.35870361 193.46957397 C65.1207134 193.4635332 57.88291752 193.47584795 50.64496046 193.49714404 C44.42828001 193.51476207 38.21166141 193.5207611 31.99495691 193.5175063 C28.28305841 193.51569362 24.57129856 193.51832795 20.85942268 193.53222084 C16.72005731 193.54713413 12.58108734 193.53782735 8.44171143 193.5262146 C6.59860382 193.53768021 6.59860382 193.53768021 4.71826172 193.54937744 C3.58967239 193.54236313 2.46108307 193.53534882 1.29829407 193.52812195 C-0.16924269 193.52837356 -0.16924269 193.52837356 -1.66642666 193.52863026 C-4.8949425 193.08001524 -6.72174367 192.03751613 -9.36322021 190.15390015 C-9.95321053 189.74549582 -10.54320084 189.33709148 -11.15106964 188.91631126 C-13.06336174 186.13592661 -12.78269728 183.21171166 -12.75762939 179.95532227 C-12.76676605 178.84808463 -12.76676605 178.84808463 -12.77608728 177.71847856 C-12.7927742 175.23797569 -12.7879335 172.75798296 -12.78314209 170.2774353 C-12.79047919 168.50187138 -12.79906436 166.72631224 -12.80880737 164.95075989 C-12.83107131 160.12220136 -12.83395158 155.29381325 -12.83205986 150.46521044 C-12.83194037 146.43679862 -12.8404958 142.40842318 -12.84883738 138.38002145 C-12.86808946 128.87688875 -12.87094889 119.37384389 -12.86419678 109.87069702 C-12.85755605 100.06228424 -12.88041752 90.25424754 -12.91751051 80.44591105 C-12.9481857 72.0296841 -12.95956986 63.61357825 -12.95567369 55.1972965 C-12.95360373 50.16852145 -12.95912326 45.14003889 -12.98356628 40.11131668 C-13.00579456 35.38174785 -13.00398838 30.65279106 -12.98363876 25.92321968 C-12.98022162 24.18697575 -12.9853481 22.45069095 -12.99962234 20.71450233 C-13.01776398 18.34443288 -13.00510643 15.97645097 -12.98468018 13.60644531 C-12.99719802 12.91879424 -13.00971587 12.23114316 -13.02261305 11.52265418 C-12.95198861 7.7022852 -12.42812888 6.23197002 -9.94937897 3.25061607 C-6.30950908 0.29960885 -4.61221801 0.02587469 0 0 Z M9.63677979 22.15390015 C9.63677979 29.08390015 9.63677979 36.01390015 9.63677979 43.15390015 C14.39253981 43.32395282 14.39253981 43.32395282 19.1494751 43.45175171 C22.54161225 43.62509922 24.37594338 43.94691384 27.05865479 46.07577515 C29.59186298 49.41158396 30.02689855 51.88756948 29.99615479 56.11483765 C29.39354959 59.53396713 27.26891912 61.08579067 24.63677979 63.15390015 C20.3060563 65.31926189 14.33938065 64.83117264 9.63677979 65.15390015 C9.63677979 71.75390015 9.63677979 78.35390015 9.63677979 85.15390015 C11.31127197 85.19128296 12.98576416 85.22866577 14.71099854 85.2671814 C16.91544784 85.33284584 19.11987393 85.39929302 21.32427979 85.46640015 C22.42707275 85.48895874 23.52986572 85.51151733 24.66607666 85.53475952 C26.26612549 85.58793335 26.26612549 85.58793335 27.89849854 85.6421814 C29.36742554 85.68145752 29.36742554 85.68145752 30.86602783 85.7215271 C34.07922776 86.22294371 36.00361514 87.27463751 38.63677979 89.15390015 C40.64739114 92.05679465 40.88033587 94.18233961 40.51177979 97.65390015 C40.44732666 98.40671265 40.38287354 99.15952515 40.31646729 99.93515015 C39.3906506 102.95735634 38.08438429 104.16493388 35.63677979 106.15390015 C32.79595947 106.69979858 32.79595947 106.69979858 29.55865479 106.76327515 C28.39849854 106.79550171 27.23834229 106.82772827 26.04302979 106.8609314 C24.83646729 106.87511108 23.62990479 106.88929077 22.38677979 106.90390015 C21.16474854 106.93354858 19.94271729 106.96319702 18.68365479 106.9937439 C15.66838534 107.06441427 12.65257818 107.11142411 9.63677979 107.15390015 C9.63677979 114.08390015 9.63677979 121.01390015 9.63677979 128.15390015 C11.84365479 128.23640015 14.05052979 128.31890015 16.32427979 128.40390015 C21.82242918 128.60943844 24.67376672 129.24235479 28.63677979 133.15390015 C30.23764605 136.35563269 30.13595068 139.67967074 29.63677979 143.15390015 C27.84314068 145.96393475 26.61797043 147.66330482 23.63677979 149.15390015 C18.97683081 149.60648512 14.30995491 149.85651627 9.63677979 150.15390015 C9.63677979 157.08390015 9.63677979 164.01390015 9.63677979 171.15390015 C44.61677979 171.15390015 79.59677979 171.15390015 115.63677979 171.15390015 C115.63677979 150.03390015 115.63677979 128.91390015 115.63677979 107.15390015 C100.02026253 106.98346659 100.02026253 106.98346659 84.40338135 106.85604858 C82.44469851 106.82668255 80.48603676 106.79585743 78.52740479 106.76327515 C77.5114624 106.76214722 76.49552002 106.76101929 75.4487915 106.75985718 C68.2743929 106.61387686 68.2743929 106.61387686 65.00079346 104.25228882 C62.70006078 100.71285846 62.44364515 97.31372299 62.63677979 93.15390015 C63.85023482 90.15219559 64.70126264 88.72362962 67.45776367 87.04492188 C69.89369059 86.04884672 71.68815849 85.87832797 74.3135376 85.83505249 C75.24697998 85.81499146 76.18042236 85.79493042 77.14215088 85.77426147 C78.11490967 85.76290161 79.08766846 85.75154175 80.08990479 85.73983765 C80.99015381 85.7221936 81.89040283 85.70454956 82.81793213 85.68637085 C86.1740345 85.62340511 89.53043357 85.57714848 92.88677979 85.52890015 C100.39427979 85.40515015 107.90177979 85.28140015 115.63677979 85.15390015 C115.63677979 64.36390015 115.63677979 43.57390015 115.63677979 22.15390015 C80.65677979 22.15390015 45.67677979 22.15390015 9.63677979 22.15390015 Z " fill="#000000" transform="translate(332.36322021484375,84.84609985351563)"/>
<path d="M0 0 C3.96872558 2.13700608 6.37317781 3.78259841 8 8 C8.32287392 12.62785955 7.54028319 16.14600399 5.0625 20.0625 C0.72214733 22.8084374 -2.99346993 22.91252026 -8 22 C-10.93423195 20.20353146 -12.47205355 19.0558929 -14 16 C-14.64060222 10.82942493 -14.89905059 7.19063457 -11.6875 2.9375 C-7.75651756 0.10353592 -4.77683743 -0.4683174 0 0 Z " fill="#000000" transform="translate(398,42)"/>
</svg>
