<?xml version="1.0" encoding="UTF-8"?>
<svg version="1.1" xmlns="http://www.w3.org/2000/svg" width="512" height="512">
<path d="M0 0 C2.18944562 -0.00524774 4.37888897 -0.01152838 6.56832886 -0.01878357 C11.13208747 -0.02913007 15.69553313 -0.02470727 20.25927734 -0.01000977 C26.07705636 0.0072032 31.89384995 -0.01637958 37.71151924 -0.05149937 C42.22429821 -0.07356185 46.73684435 -0.07201103 51.24966049 -0.06373405 C53.39364582 -0.06292005 55.5376492 -0.06967679 57.6815834 -0.08450508 C73.25564503 -0.17576874 85.64633727 0.74094593 97.96484375 11.40234375 C106.03121402 19.51263255 111.21443206 30.76435889 111.25762939 42.26968384 C111.26333954 43.18621735 111.26904968 44.10275085 111.27493286 45.04705811 C111.27605072 46.04038147 111.27716858 47.03370483 111.27832031 48.05712891 C111.28328522 49.11308258 111.28825012 50.16903625 111.29336548 51.25698853 C111.30796161 54.74815526 111.31478572 58.23927652 111.3203125 61.73046875 C111.32606707 64.16319784 111.33182476 66.59592693 111.33758545 69.02865601 C111.3480889 74.13124808 111.35393553 79.23382442 111.35742188 84.33642578 C111.36289809 90.8561639 111.38691048 97.37569228 111.41539383 103.89536476 C111.43407403 108.92272537 111.43922873 113.95003606 111.44075775 118.97742844 C111.44377382 121.3798474 111.45176678 123.7822657 111.46494293 126.18465042 C111.48211198 129.556365 111.4800963 132.92757514 111.47363281 136.29931641 C111.4828476 137.28049438 111.49206238 138.26167236 111.5015564 139.27258301 C111.42642945 151.8647013 107.50333787 163.46116353 98.96875 172.87109375 C89.12346036 181.88555726 79.25045009 184.76712871 66.2734375 184.6328125 C65.39204102 184.6280188 64.51064453 184.6232251 63.60253906 184.61828613 C61.44072189 184.60583664 59.27894449 184.58678259 57.1171875 184.56640625 C57.1672998 185.78368408 57.21741211 187.00096191 57.26904297 188.25512695 C57.74337129 199.78746488 58.2142325 211.31993998 58.68179321 222.85255432 C58.92221679 228.78002976 59.16381594 234.70745218 59.40820312 240.63476562 C59.64447951 246.36645326 59.87753542 252.098264 60.10845947 257.83016968 C60.19663355 260.00520401 60.28592277 262.18019347 60.37640381 264.35513306 C60.62038368 270.22901958 60.84569936 276.10279909 61.03186035 281.9788208 C61.08737871 283.66244076 61.14914114 285.3458703 61.21813965 287.0289917 C61.30638354 289.23803047 61.3682171 291.44613995 61.421875 293.65625 C61.47964111 295.46210571 61.47964111 295.46210571 61.53857422 297.30444336 C60.92091595 302.08574818 58.62444316 305.11451916 55.203125 308.41015625 C51.11516917 310.67613925 46.6272946 310.27131445 42.1171875 309.56640625 C38.19730918 307.61806436 35.67616794 304.62984392 34.1171875 300.56640625 C33.83381334 298.01731696 33.65161006 295.55624681 33.5546875 293 C33.51850311 292.23429687 33.48231873 291.46859375 33.44503784 290.6796875 C33.32668995 288.12141286 33.22169865 285.56278087 33.1171875 283.00390625 C33.03720852 281.19211265 32.95662877 279.38034547 32.87548828 277.56860352 C32.65704214 272.62423622 32.45165072 267.67939773 32.24865723 262.734375 C32.11431687 259.49723403 31.9753043 256.26032349 31.83496094 253.0234375 C31.59327491 247.44426239 31.35808828 241.86484918 31.12792969 236.28518677 C31.03901167 234.13578161 30.94888754 231.98642593 30.85742188 229.83712769 C30.22046533 214.73332525 30.03824064 199.68472976 30.1171875 184.56640625 C19.5571875 184.56640625 8.9971875 184.56640625 -1.8828125 184.56640625 C-2.0156665 187.43183105 -2.14852051 190.29725586 -2.28540039 193.24951172 C-2.81295384 204.06119331 -3.59635748 214.84589545 -4.44140625 225.63671875 C-4.5921946 227.57957446 -4.74291437 229.5224355 -4.89356995 231.46530151 C-5.2067365 235.49395492 -5.52220879 239.5224201 -5.83911133 243.55078125 C-6.24297324 248.6896783 -6.63861436 253.82917357 -7.0323019 258.96885872 C-7.33960325 262.96363797 -7.6524054 266.95797286 -7.96672249 270.95220566 C-8.11498039 272.84730758 -8.26129651 274.74256255 -8.40554619 276.63797379 C-10.36860844 302.35681331 -10.36860844 302.35681331 -14.8203125 307.19140625 C-18.76074762 310.08490568 -22.49635526 310.36634609 -27.2890625 310.08984375 C-31.47056686 309.24598594 -33.08979699 307.78911645 -35.8828125 304.56640625 C-38.30926579 300.11712768 -37.97251814 295.96810443 -37.60742188 291.06689453 C-37.55415489 290.23369249 -37.50088791 289.40049046 -37.44600677 288.54203987 C-37.27157624 285.88238856 -37.07917776 283.22452156 -36.8828125 280.56640625 C-36.8228006 279.72453514 -36.7627887 278.88266403 -36.70095825 278.01528168 C-36.26095649 271.86056614 -35.7786838 265.70953073 -35.2890625 259.55859375 C-35.1357722 257.61192161 -34.98265903 255.66523551 -34.82971191 253.71853638 C-34.51187247 249.67974745 -34.19238765 245.64109344 -33.87158203 241.60253906 C-33.4620727 236.446449 -33.05606754 231.29009031 -32.65119171 226.13363457 C-32.33661321 222.13055516 -32.02055805 218.12759343 -31.70402527 214.12466812 C-31.55375949 212.22303287 -31.40386041 210.32136861 -31.25434875 208.41967392 C-31.04535652 205.76518036 -30.8344599 203.11084468 -30.62304688 200.45654297 C-30.56275803 199.68653458 -30.50246918 198.91652618 -30.44035339 198.1231842 C-30.02351876 192.92397222 -29.47889412 187.74820296 -28.8828125 182.56640625 C-30.0378125 182.40140625 -31.1928125 182.23640625 -32.3828125 182.06640625 C-49.99463323 178.05113266 -64.01285455 166.3006929 -74.37109375 152 C-75.8828125 149.56640625 -75.8828125 149.56640625 -75.8828125 147.56640625 C-77.16126541 147.44598465 -78.43971832 147.32556305 -79.75691223 147.20149231 C-84.89952851 146.6267988 -89.86109703 145.57405629 -94.8972168 144.4050293 C-96.33313675 144.07794983 -96.33313675 144.07794983 -97.79806519 143.7442627 C-100.93568789 143.02776077 -104.07145351 142.30352028 -107.20703125 141.578125 C-109.39937762 141.07337903 -111.59174551 140.56872657 -113.78413391 140.06416321 C-118.36682412 139.00792164 -122.94846147 137.94723731 -127.52954102 136.8840332 C-133.39439882 135.52375616 -139.26284965 134.17971731 -145.13234234 132.83960247 C-149.65619503 131.80392443 -154.17741403 130.75709734 -158.69797707 129.70716286 C-160.86074889 129.20676865 -163.02446342 128.7104306 -165.18912315 128.21826744 C-168.21446349 127.52919618 -171.23576896 126.82454185 -174.2565918 126.1159668 C-175.14660385 125.91685196 -176.03661591 125.71773712 -176.95359802 125.5125885 C-182.47076303 124.19645732 -187.77512189 122.70827667 -191.11099243 117.7355957 C-192.79846365 112.66597807 -193.32357966 108.08505667 -193.28125 102.75390625 C-193.28412018 101.94074951 -193.28699036 101.12759277 -193.28994751 100.28979492 C-193.29197569 98.58218686 -193.28653368 96.87455491 -193.27392578 95.16699219 C-193.25785356 92.57303256 -193.27381643 89.98063069 -193.29296875 87.38671875 C-193.2909861 85.71744452 -193.28714196 84.04817126 -193.28125 82.37890625 C-193.28732269 81.61408936 -193.29339539 80.84927246 -193.2996521 80.0612793 C-193.23450225 75.00193191 -192.76324681 69.86018225 -189.8828125 65.56640625 C-184.98584717 61.50024827 -179.95620895 60.28819294 -173.82592773 58.90917969 C-172.82846527 58.67450989 -171.83100281 58.43984009 -170.80331421 58.19805908 C-167.51868506 57.42859522 -164.23027388 56.67690372 -160.94140625 55.92578125 C-158.6524607 55.39433166 -156.36373159 54.86194904 -154.07521057 54.32867432 C-149.28469269 53.2150822 -144.49237554 52.10972869 -139.69848633 51.01074219 C-133.55316531 49.60170961 -127.41160941 48.17703189 -121.2711935 46.74679184 C-116.54795956 45.64760511 -111.82338093 44.55429943 -107.09831429 43.46302032 C-104.83299839 42.93957056 -102.5679751 42.41485279 -100.30325127 41.88884735 C-97.14019609 41.15562928 -93.975546 40.42976022 -90.81030273 39.70605469 C-89.40671761 39.37885437 -89.40671761 39.37885437 -87.97477722 39.04504395 C-87.10991699 38.84888489 -86.24505676 38.65272583 -85.35398865 38.45062256 C-84.60683311 38.27883358 -83.85967756 38.1070446 -83.08988094 37.9300499 C-80.65466853 37.52881652 -78.34656262 37.50509017 -75.8828125 37.56640625 C-75.65464844 36.87160156 -75.42648437 36.17679688 -75.19140625 35.4609375 C-68.85011287 21.43437512 -53.83901912 11.21177803 -40.15432739 5.41532898 C-26.71723689 0.39354745 -14.21681102 -0.04182837 0 0 Z M-45.36328125 40.890625 C-49.85607165 45.68443988 -53.33602207 50.57386518 -56.30078125 56.4375 C-60.24128951 61.74015926 -67.50531007 62.62789868 -73.60424805 64.00244141 C-74.56590881 64.22560532 -75.52756958 64.44876923 -76.51837158 64.67869568 C-79.68382 65.41144845 -82.85162034 66.13344363 -86.01953125 66.85546875 C-88.22353678 67.3637432 -90.42737679 67.8727359 -92.63105774 68.38241577 C-98.42338208 69.72027015 -104.21771465 71.04920916 -110.01257324 72.3760376 C-117.06247851 73.99174672 -124.11023146 75.61681224 -131.15802479 77.24170494 C-136.63888539 78.50533077 -142.12014107 79.7671372 -147.60270691 81.02334595 C-149.5849923 81.47861369 -151.56727688 81.9338849 -153.54956055 82.38916016 C-154.90782707 82.69929802 -154.90782707 82.69929802 -156.29353333 83.01570129 C-157.12198761 83.20626602 -157.95044189 83.39683075 -158.80400085 83.59317017 C-159.88325348 83.84035766 -159.88325348 83.84035766 -160.9843092 84.09253883 C-162.63869646 84.50547476 -164.26517163 85.02719263 -165.8828125 85.56640625 C-165.8828125 90.18640625 -165.8828125 94.80640625 -165.8828125 99.56640625 C-161.07181703 100.76025785 -156.25949676 101.94803416 -151.4453125 103.12890625 C-150.67202606 103.31882141 -149.89873962 103.50873657 -149.10202026 103.70440674 C-137.54659357 106.535214 -125.96647916 109.25105879 -114.36725044 111.89600182 C-112.16378583 112.39850059 -109.96052508 112.90188472 -107.75730896 113.4054718 C-101.11267494 114.92352261 -94.46728522 116.43778983 -87.81796455 117.93519497 C-85.00711444 118.56980087 -82.19772582 119.21070732 -79.38864136 119.85307884 C-77.43611115 120.29735507 -75.48174515 120.73353885 -73.52734375 121.16950989 C-72.34470947 121.44083237 -71.1620752 121.71215485 -69.94360352 121.99169922 C-68.91380875 122.22436493 -67.88401398 122.45703064 -66.82301331 122.69674683 C-60.09087031 124.68799572 -56.88636842 127.30735115 -53.4453125 133.31640625 C-45.12188459 146.91336367 -35.32638766 152.9333337 -19.8828125 157.56640625 C-3.7128125 157.56640625 12.4571875 157.56640625 29.1171875 157.56640625 C29.1171875 114.66640625 29.1171875 71.76640625 29.1171875 27.56640625 C-11.92806781 24.4805718 -11.92806781 24.4805718 -45.36328125 40.890625 Z M56.1171875 27.56640625 C56.1171875 70.46640625 56.1171875 113.36640625 56.1171875 157.56640625 C71.96156209 159.13805681 71.96156209 159.13805681 79.1171875 153.56640625 C82.74428934 149.5471853 84.23440862 146.62374053 84.26435852 141.22857666 C84.27151382 140.34266846 84.27866913 139.45676025 84.28604126 138.54400635 C84.28873016 137.57461121 84.29141907 136.60521606 84.29418945 135.60644531 C84.30076065 134.5833728 84.30733185 133.56030029 84.31410217 132.50622559 C84.3338399 129.11482675 84.34549884 125.72347221 84.35546875 122.33203125 C84.35954428 121.17406792 84.3636198 120.01610458 84.36781883 118.82305145 C84.38868153 112.69421059 84.40298244 106.56539213 84.41235352 100.43652344 C84.42341869 94.10683733 84.4578197 87.77750268 84.49752522 81.44794083 C84.52367253 76.58029528 84.5320437 71.71273371 84.53563499 66.84502411 C84.54050574 64.51185482 84.55213352 62.1786894 84.57067299 59.84558868 C84.59502358 56.57809102 84.59410645 53.31150596 84.5871582 50.04394531 C84.60637329 48.60199799 84.60637329 48.60199799 84.62597656 47.13092041 C84.57908213 41.07184677 83.65492807 37.52757286 80.1171875 32.56640625 C71.88012669 25.11382742 70.44489028 27.56640625 56.1171875 27.56640625 Z " fill="#000000" transform="translate(368.8828125,202.43359375)"/>
<path d="M0 0 C1.59340519 1.33736337 3.16842422 2.69248985 4.73486328 4.0612793 C5.87181641 5.04547852 5.87181641 5.04547852 7.03173828 6.04956055 C22.56360528 20.55632433 34.39781834 43.56712391 35.83251953 64.87768555 C35.6160943 69.71695368 33.82892695 72.90643431 30.48486328 76.4362793 C26.52972168 78.77340842 23.21816826 79.54491922 18.64892578 78.6550293 C13.40875436 77.01869324 11.45537765 74.97719848 8.73486328 70.0612793 C7.78555905 67.12349582 7.1444931 64.1377942 6.48486328 61.1237793 C1.71243538 41.59524538 -9.05393996 26.73174386 -26.26513672 16.0612793 C-43.05048035 6.37827555 -60.55045714 3.86901845 -79.46044922 8.02612305 C-97.63794469 12.97174553 -112.9656134 23.97654025 -122.70263672 40.18237305 C-129.85573387 53.36195454 -132.60149548 66.47266149 -132.70263672 81.3737793 C-133.2156017 102.78493754 -138.77480366 117.33194623 -153.00732422 133.4440918 C-156.34373451 137.31155702 -156.70552708 139.75696817 -156.57763672 144.75268555 C-156.19108409 147.6083431 -155.2737435 149.58809531 -153.26904297 151.6784668 C-150.02089022 153.91988215 -146.36824123 155.16733169 -142.71191406 156.60986328 C-131.64925606 161.1649902 -124.95951666 169.68922438 -120.23779297 180.3894043 C-116.54861987 190.65788611 -117.07082608 202.16141906 -120.93701172 212.27612305 C-126.51419405 223.97180247 -134.32407343 230.39854189 -145.76513672 235.8737793 C-154.24167215 240.16862191 -159.78869997 243.823058 -163.39404297 252.9050293 C-166.05387004 261.54112055 -165.17433477 269.07009998 -161.64013672 277.3112793 C-158.12753922 283.64696441 -152.40519132 288.27603868 -145.54248047 290.51831055 C-141.76775449 291.4182881 -137.94512847 291.95213224 -134.09716797 292.4362793 C-129.97612908 293.34574995 -127.18597064 294.98168091 -124.45263672 298.1862793 C-122.79195616 302.20687434 -122.67981112 305.7688916 -123.26513672 310.0612793 C-124.74107189 313.29428015 -126.53106617 315.78288717 -129.26513672 318.0612793 C-140.2648877 321.72786296 -152.09326337 318.32721113 -162.24169922 313.70581055 C-174.91674994 307.19369771 -184.31654033 297.02380497 -189.70263672 283.7487793 C-194.84387863 267.44843629 -194.12672659 251.39137954 -186.26513672 236.0612793 C-178.98221143 222.89273416 -168.17775665 215.20549271 -154.76513672 208.9362793 C-150.56381536 206.68557143 -148.37735112 204.2857081 -146.26513672 200.0612793 C-145.70162946 195.44236734 -145.82284882 191.96286618 -147.89013672 187.7487793 C-151.58109947 183.57216356 -155.56690308 181.31686279 -160.64013672 179.1862793 C-170.8298625 174.75819376 -178.27512961 167.29891855 -182.70263672 157.0612793 C-185.94236628 147.07561936 -185.74254937 135.13307609 -181.58935547 125.47143555 C-178.76678112 120.33418371 -175.01308356 116.06406698 -171.17529297 111.66674805 C-170.48306641 110.84819336 -169.79083984 110.02963867 -169.07763672 109.1862793 C-168.12824219 108.10733398 -168.12824219 108.10733398 -167.15966797 107.0065918 C-161.61862686 98.39227222 -160.72905288 89.91263467 -160.70263672 79.8737793 C-160.07806517 50.79869281 -151.11881469 26.58956267 -130.95263672 5.3112793 C-95.37635644 -28.71009362 -38.04072243 -31.00608261 0 0 Z " fill="#000000" transform="translate(272.26513671875,77.938720703125)"/>
<path d="M0 0 C32.05327906 26.22258421 53.17560234 64.22508531 57.37939453 105.55493164 C57.57903709 110.2214253 57.60699994 114.88557937 57.61962891 119.55566406 C57.62941873 121.74785138 57.66055617 123.93913189 57.69189453 126.13110352 C57.69841872 127.53669698 57.70367148 128.94229705 57.70751953 130.34790039 C57.71686523 131.61142334 57.72621094 132.87494629 57.73583984 134.17675781 C57.22453578 139.02258957 55.10751172 142.44816732 51.37939453 145.55493164 C45.99485829 147.34977705 41.17883767 147.38800717 36.00439453 144.99243164 C32.03267295 141.30440446 30.5884991 137.89280501 30.11279297 132.57421875 C30.00173919 128.98339346 29.96319825 125.3973862 29.94189453 121.80493164 C29.69572494 109.91019517 28.58754286 99.00111685 25.37939453 87.55493164 C25.05326172 86.31743164 24.72712891 85.07993164 24.39111328 83.80493164 C19.47070978 67.20080636 10.65056619 51.64171468 -0.62060547 38.55493164 C-1.39791016 37.61649414 -2.17521484 36.67805664 -2.97607422 35.71118164 C-25.00108801 10.12911016 -57.46032799 -3.63709515 -90.64404297 -6.19116211 C-123.78310888 -8.18927174 -155.28773965 3.56386604 -180.62060547 24.55493164 C-181.44173828 25.22266602 -182.26287109 25.89040039 -183.10888672 26.57836914 C-189.06467535 31.61867385 -193.88679138 37.37127781 -198.62060547 43.55493164 C-199.21615234 44.32321289 -199.81169922 45.09149414 -200.42529297 45.88305664 C-216.39644677 67.52139405 -223.74564602 92.81772202 -225.05810547 119.42993164 C-225.37782688 124.76489095 -225.86520653 127.69521606 -229.62060547 131.55493164 C-233.30875766 134.71620495 -236.6998927 135.08267938 -241.40576172 134.90258789 C-244.96003761 134.34468568 -246.98018827 132.94388054 -249.62060547 130.55493164 C-257.1380058 117.84694537 -251.66071104 96.73823371 -248.36669922 83.10571289 C-237.92036816 43.09809764 -212.66474921 8.64289692 -177.03857422 -12.51147461 C-120.56553275 -44.45908093 -51.21849478 -40.56648055 0 0 Z " fill="#000000" transform="translate(307.62060546875,33.445068359375)"/>
<path d="M0 0 C3.1864363 2.65536358 5.73888951 4.81602077 6.24555969 9.0539093 C6.46434131 15.86380591 4.97518588 20.40176493 1.79296875 26.35546875 C1.13809227 27.63996414 1.13809227 27.63996414 0.46998596 28.95040894 C-0.93942011 31.70584965 -2.37568405 34.44626941 -3.8125 37.1875 C-4.78900132 39.08601929 -5.76327828 40.98568429 -6.73535156 42.88647461 C-8.17509152 45.70085 -9.61619308 48.51441076 -11.06515503 51.3240509 C-14.59820631 58.17607959 -17.97922058 65.08097573 -21.25 72.0625 C-35.75039108 102.6539717 -52.98091505 129.87183035 -86 143 C-107.49857815 150.51230084 -131.16071547 152.31775609 -153 145 C-153.95471191 144.68651611 -153.95471191 144.68651611 -154.92871094 144.36669922 C-179.67975866 136.0436139 -199.62803076 117.9460947 -211.625 94.875 C-218.52409676 80.52487874 -226.18500939 59.79150822 -221.3125 43.734375 C-219.16064042 39.46652017 -216.45264691 37.48421564 -212 36 C-207.02044714 35.36623873 -203.85656203 36.19991702 -199.578125 38.5390625 C-194.84740899 42.91848772 -194.50150911 48.54372351 -194.0625 54.5625 C-192.17996335 74.30115654 -184.09994249 91.90864315 -169 105 C-153.82956215 116.97211192 -135.75622253 123.08013277 -116.41015625 121.75390625 C-94.91558397 119.07005358 -77.46887229 108.90671611 -64 92 C-56.56990447 81.2046092 -50.97982717 69.34371144 -45.1875 57.625 C-44.20552131 55.64980381 -43.22317894 53.67478838 -42.24047852 51.69995117 C-36.80523536 40.75968431 -31.40448952 29.80296733 -26.2331543 18.73486328 C-18.59325551 2.44200339 -18.59325551 2.44200339 -13 -1 C-8.43383291 -2.54108139 -4.44321248 -1.63155396 0 0 Z " fill="#000000" transform="translate(254,363)"/>
</svg>
