<?xml version="1.0" encoding="UTF-8"?>
<svg version="1.1" xmlns="http://www.w3.org/2000/svg" width="512" height="512">
<path d="M0 0 C6.51706474 4.03234507 11.13468988 9.07875741 13.5 16.4375 C14.67059686 22.64607021 14.62842003 28.75502106 14.59765625 35.05859375 C14.59553383 36.70844017 14.59553383 36.70844017 14.59336853 38.39161682 C14.58779503 41.88610617 14.57524739 45.38053019 14.5625 48.875 C14.55748158 51.2519522 14.55291927 53.6289054 14.54882812 56.00585938 C14.53783428 61.81642834 14.52112262 67.6269595 14.5 73.4375 C16.08294514 72.83259017 17.66314462 72.22049296 19.2421875 71.60546875 C20.12245605 71.26539795 21.00272461 70.92532715 21.90966797 70.57495117 C31.32035064 66.44258826 39.83576341 57.75585241 43.70703125 48.23828125 C44.9909149 43.70357891 45.69116044 39.04937735 46.28637695 34.37695312 C46.94385426 29.78557862 47.77232166 27.28343904 51.5 24.4375 C54.35324437 23.01087781 56.33454549 23.12716132 59.5 23.4375 C62.83761045 25.58840451 64.23470933 26.64162799 65.5 30.4375 C65.8098892 47.90196965 59.8136201 62.99297742 47.75 75.6875 C37.94351416 84.97862998 28.28278903 88.83209797 15.5 92.4375 C15.17 100.0275 14.84 107.6175 14.5 115.4375 C63.55064532 119.38703248 112.60629532 113.33894784 157.5 92.4375 C167.46285256 87.84816018 178.18197595 86.24791868 188.8125 89.875 C196.35007223 93.41098964 203.76784969 99.97319937 207.5 107.4375 C211.65435682 119.19305992 211.0573742 127.90164656 206.5 139.4375 C198.84639651 155.38863997 187.14546594 169.25022815 175.5 182.4375 C174.23929687 183.86642578 174.23929687 183.86642578 172.953125 185.32421875 C165.20379261 193.94854483 156.93234995 202.07307256 148.68457031 210.21630859 C143.98178433 214.87038015 139.39173585 219.55985375 135.08959961 224.58959961 C132.37605147 227.74408369 129.52970112 230.77420187 126.6875 233.8125 C126.08220459 234.460979 125.47690918 235.10945801 124.85327148 235.77758789 C120.55245403 240.36516444 116.14724737 244.82086067 111.66796875 249.234375 C109.63808111 251.29717974 107.74769393 253.41985029 105.875 255.625 C103.11831479 258.84007166 100.1615596 261.5269408 96.93359375 264.2578125 C93.65849737 267.1912054 90.59018408 270.3114499 87.5 273.4375 C83.27997201 277.69743369 79.05578401 281.86446376 74.4765625 285.7421875 C71.99139806 287.8737317 69.59559854 290.09433599 67.1875 292.3125 C62.63923226 296.46444565 57.9511068 300.38667854 53.16015625 304.25390625 C49.1679675 307.53090113 45.32669157 310.96985604 41.5 314.4375 C43.9272605 325.30238035 49.11136204 333.4103077 58.16015625 339.96875 C65.07094788 344.30674274 71.52205784 346.51705652 79.6640625 346.6484375 C80.86933594 346.67679687 82.07460938 346.70515625 83.31640625 346.734375 C85.83189159 346.7859747 88.34753592 346.83038454 90.86328125 346.8671875 C101.44777582 347.13714273 109.96365472 348.10138117 117.80859375 355.59765625 C124.06751364 362.40585779 124.95830932 368.61533966 124.7734375 377.69921875 C124.22138021 385.24663063 120.78377067 389.88376797 115.35546875 394.96484375 C104.27263869 403.76111098 84.66020366 401.09307152 71.375 399.75 C47.49269878 396.94783084 25.27914976 385.8654962 9.5 367.4375 C6.30271205 363.23860464 3.39471447 358.84875705 0.5 354.4375 C-0.25295199 353.30535436 -1.00682357 352.17381963 -1.76171875 351.04296875 C-2.33535156 350.18316406 -2.90898437 349.32335937 -3.5 348.4375 C-4.15597168 348.88665771 -4.81194336 349.33581543 -5.48779297 349.79858398 C-8.44931564 351.82534489 -11.41213964 353.85019518 -14.375 355.875 C-15.40753906 356.58205078 -16.44007813 357.28910156 -17.50390625 358.01757812 C-18.49003906 358.69111328 -19.47617187 359.36464844 -20.4921875 360.05859375 C-21.40339355 360.6817749 -22.31459961 361.30495605 -23.25341797 361.94702148 C-25.5 363.4375 -25.5 363.4375 -27.5 364.4375 C-27.50219984 365.38999791 -27.50219984 365.38999791 -27.50444412 366.3617382 C-27.5415706 381.84574328 -27.60066223 397.32948757 -27.68390274 412.81330681 C-27.72363388 420.30132255 -27.75605631 427.78923411 -27.77099609 435.27734375 C-27.7840435 441.80751415 -27.81108634 448.33745473 -27.85461307 454.86749566 C-27.87715904 458.32196767 -27.89291485 461.77615696 -27.89188385 465.23070908 C-27.89099326 469.09658668 -27.92136276 472.96189093 -27.95410156 476.82763672 C-27.9490712 477.96052628 -27.94404083 479.09341583 -27.93885803 480.26063538 C-28.05139724 488.87947679 -29.96727452 495.48942793 -34.625 502.75 C-40.85862389 508.5770832 -46.564814 510.75274363 -55.125 511 C-63.74055066 510.66196532 -68.44852909 508.87747416 -74.3125 502.625 C-79.91897191 496.16623782 -80.94251029 490.07613589 -80.84057617 481.83032227 C-80.84101425 480.89295731 -80.84145233 479.95559235 -80.84190369 478.98982239 C-80.83982419 475.91096713 -80.8165326 472.83266564 -80.79296875 469.75390625 C-80.78736982 467.6115702 -80.78310112 465.46923031 -80.78010559 463.32688904 C-80.76868027 457.70278216 -80.73923286 452.07890964 -80.70599365 446.45489502 C-80.67524295 440.71019663 -80.66158957 434.96546019 -80.64648438 429.22070312 C-80.61436106 417.95953274 -80.5631926 406.6985359 -80.5 395.4375 C-81.08280228 395.72046432 -81.66560455 396.00342865 -82.2660675 396.29496765 C-84.96290549 397.60105354 -87.66305417 398.9001549 -90.36328125 400.19921875 C-91.27952271 400.64422729 -92.19576416 401.08923584 -93.13977051 401.54772949 C-110.39324655 409.82681434 -128.85289693 415.04809397 -147.47265625 419.25634766 C-173.9537345 425.2907948 -195.3080682 437.51647271 -210.62890625 460.65234375 C-214.85073992 467.6460075 -217.7227963 474.5641906 -220.28417969 482.30639648 C-223.86104917 492.84030125 -229.33772742 501.24929706 -239.01171875 506.90625 C-245.11627839 509.90439662 -250.66026495 510.91437878 -257.375 511 C-258.08833496 511.01466309 -258.80166992 511.02932617 -259.53662109 511.04443359 C-265.53244231 510.92764102 -268.97008258 508.79875625 -273.2578125 504.796875 C-282.63526377 493.75827522 -284.64693718 480.79348243 -286.4631958 466.76617432 C-288.11773276 454.05345737 -290.165735 441.47494607 -292.66165161 428.90100098 C-295.91816459 412.4655089 -298.27129896 396.16606924 -299.5 379.4375 C-299.55007202 378.76972534 -299.60014404 378.10195068 -299.6517334 377.41394043 C-305.47602851 299.29905995 -302.38150192 204.69636532 -248.81274414 142.08056641 C-237.25537863 129.0888403 -222.94095757 120.39211995 -207.3984375 112.8828125 C-204.41136822 111.46876582 -204.41136822 111.46876582 -201.5 109.4375 C-203.01670364 108.63794999 -204.53861998 107.84828612 -206.0625 107.0625 C-206.90941406 106.62164062 -207.75632812 106.18078125 -208.62890625 105.7265625 C-216.07521266 102.38332289 -222.93701861 102.08690838 -230.94140625 101.95898438 C-239.2211169 101.69905471 -246.73151802 100.10976335 -252.9296875 94.30078125 C-258.39922128 87.81081206 -260.95777283 80.38854683 -260.3125 72 C-259.17967611 64.25903678 -255.64497231 59.42119168 -250.0625 54.125 C-242.63587411 49.23429515 -236.45049668 48.92261313 -227.6875 49 C-225.88478638 49.01244751 -225.88478638 49.01244751 -224.0456543 49.02514648 C-197.04264541 49.5330684 -174.41466621 60.25529962 -155.5 79.4375 C-142.5 94.03285655 -142.5 94.03285655 -142.5 99.4375 C-141.84 99.1075 -141.18 98.7775 -140.5 98.4375 C-138.05297301 98.31334273 -135.63578848 98.24945448 -133.1875 98.234375 C-132.43943588 98.22740601 -131.69137177 98.22043701 -130.92063904 98.21325684 C-128.44703695 98.19562076 -125.97366281 98.18951017 -123.5 98.1875 C-122.65043732 98.18649292 -121.80087463 98.18548584 -120.92556763 98.18444824 C-93.52134136 98.20627891 -66.56871781 101.36193621 -39.5 105.4375 C-39.37435482 101.40332308 -39.28472538 97.3699367 -39.2253418 93.33422852 C-39.20053284 91.96781529 -39.16667288 90.60152981 -39.12280273 89.2355957 C-38.7220638 76.41666439 -41.10275684 65.33886558 -49.55859375 55.3671875 C-58.14925579 46.82838056 -68.69075365 43.27762145 -80.51953125 42.125 C-84.07520606 41.30481813 -85.87201385 39.92866101 -88.5 37.4375 C-89.92662219 34.58425563 -89.81033868 32.60295451 -89.5 29.4375 C-87.70006226 26.73759338 -86.416227 24.8956135 -83.5 23.4375 C-69.91929967 21.65976884 -55.66541004 27.12065772 -44.5 34.4375 C-42.44768355 36.05256329 -40.47627226 37.72805382 -38.5 39.4375 C-38.54640625 38.19355469 -38.5928125 36.94960938 -38.640625 35.66796875 C-38.92505499 24.78305178 -38.55477355 16.09891369 -32.75 6.5625 C-24.23617174 -1.4783378 -11.09925419 -5.1227327 0 0 Z M-17.875 18.25 C-21.00695474 22.46609292 -20.63628223 26.65080488 -20.61352539 31.67260742 C-20.61367142 32.51185257 -20.61381744 33.35109772 -20.6139679 34.21577454 C-20.61327087 36.99153217 -20.60548829 39.76722282 -20.59765625 42.54296875 C-20.59579132 44.46682193 -20.59436777 46.39067559 -20.59336853 48.31452942 C-20.58954924 53.37964182 -20.57972394 58.44472558 -20.56866455 63.50982666 C-20.55843781 68.67777112 -20.5538682 73.84572021 -20.54882812 79.01367188 C-20.53810117 89.15496051 -20.52103177 99.29622787 -20.5 109.4375 C-18.39679937 109.94154808 -16.29240209 110.44060508 -14.1875 110.9375 C-13.01574219 111.2159375 -11.84398437 111.494375 -10.63671875 111.78125 C-7.54470156 112.53989084 -7.54470156 112.53989084 -4.5 112.4375 C-4.40737656 100.51133939 -4.33627377 88.58526414 -4.29275131 76.65881729 C-4.27186414 71.12104857 -4.24352557 65.58352567 -4.19824219 60.04589844 C-4.1548252 54.70315887 -4.13087141 49.36065595 -4.12049103 44.0177536 C-4.11309223 41.9779462 -4.09864432 39.93815196 -4.07707977 37.89844513 C-4.04810113 35.04431527 -4.0440417 32.19116703 -4.04589844 29.33691406 C-4.03151733 28.49102722 -4.01713623 27.64514038 -4.00231934 26.77362061 C-4.02904621 22.9842789 -4.05586072 21.05720379 -6.30963135 17.91253662 C-10.30887469 15.21936879 -14.07071288 15.34672825 -17.875 18.25 Z M-241.5 71.4375 C-242.04051695 75.22111865 -242.04762568 77.4465583 -240.1875 80.8125 C-237.54453081 83.35758145 -234.9777859 83.56097976 -231.47265625 83.6484375 C-211.69891834 84.30290182 -196.33693039 88.51917881 -181.5 102.4375 C-181.17 103.0975 -180.84 103.7575 -180.5 104.4375 C-174.56 103.4475 -168.62 102.4575 -162.5 101.4375 C-172.43061703 84.0589202 -189.46608598 73.91651265 -208.4375 68.625 C-214.44760958 67.35433285 -220.37783485 67.09087384 -226.5 67 C-227.4087085 66.97768311 -228.31741699 66.95536621 -229.25366211 66.93237305 C-234.53050232 66.95055718 -237.83214768 67.22097305 -241.5 71.4375 Z M162.5 110.4375 C104.43322524 137.87212059 39.73289617 138.85596044 -22.10055542 127.02923584 C-40.82161098 123.45082745 -59.56658893 120.62032853 -78.5 118.4375 C-79.62889648 118.30617676 -80.75779297 118.17485352 -81.92089844 118.03955078 C-127.60146664 112.96472293 -184.11469598 112.80960103 -222.265625 142.26171875 C-234.70338566 152.3300652 -243.94812822 164.39658876 -251.5 178.4375 C-251.89687012 179.17516602 -252.29374023 179.91283203 -252.70263672 180.67285156 C-283.88318103 239.818176 -286.19391022 309.11373607 -281.64526367 374.35137939 C-281.51209486 376.26380658 -281.38373665 378.17656717 -281.25585938 380.08935547 C-279.90233692 399.10744644 -276.44530488 417.68767947 -272.81225586 436.37963867 C-272.42572358 438.38437244 -272.04038036 440.38933586 -271.65625 442.39453125 C-271.46732681 443.38005478 -271.27840363 444.36557831 -271.08375549 445.38096619 C-269.55560688 453.59986194 -268.48980915 461.84697376 -267.68908691 470.16792297 C-266.91927284 477.3319094 -265.67089782 485.40613028 -261.0994873 491.21806335 C-258.77886565 492.98728721 -256.52993283 492.96915145 -253.6875 492.84375 C-248.27306011 491.83821116 -244.01694002 488.64443727 -240.875 484.1875 C-238.14384039 479.37371702 -236.56578344 474.08436662 -234.79589844 468.86376953 C-226.2001703 443.86844063 -205.94406574 423.14562773 -182.5 411.4375 C-171.34107617 406.07818012 -159.76075566 403.18387009 -147.72113037 400.49899292 C-99.24644025 389.67034225 -22.42520084 356.53323707 7.5 314.4375 C7.87286133 313.92380859 8.24572266 313.41011719 8.62988281 312.88085938 C26.023176 288.72275458 35.29700028 260.04795263 30.72802734 230.14624023 C28.16567203 215.92924391 22.50117771 202.43926656 14.5 190.4375 C14.02526469 187.39036172 14.05123642 184.48795623 14.5 181.4375 C16.73181154 178.49150876 18.28716329 178.46845807 21.9375 177.9375 C26.60251958 178.59223959 27.61204668 179.73499574 30.5 183.4375 C47.28223433 206.61296646 51.27220825 239.04978095 47.21484375 266.7109375 C46.19322847 272.03673517 44.75757608 277.19657377 43.20703125 282.390625 C42.21601251 285.45635081 42.21601251 285.45635081 43.5 288.4375 C44.20125 287.79683594 44.9025 287.15617188 45.625 286.49609375 C54.31365842 278.57477609 54.31365842 278.57477609 58.375 275.0625 C67.24899575 267.33177978 75.75285042 259.25685283 84.01953125 250.8828125 C86.11681305 248.81525595 88.24673326 246.8921956 90.5 245 C94.42511126 241.65163978 97.83921156 237.88616419 101.28417969 234.05981445 C104.34618791 230.66670672 107.49454496 227.39842754 110.75 224.1875 C113.51933024 221.44845931 116.2099932 218.7027579 118.75 215.75 C128.85086609 204.02370719 139.76286578 193.06830553 150.77172852 182.20263672 C155.90612827 177.11654882 160.83707172 171.95860935 165.5 166.4375 C166.28105103 165.53221558 166.28105103 165.53221558 167.07788086 164.60864258 C173.53468715 157.09066456 179.43910413 149.3923058 184.625 140.9375 C185.29837402 139.84429443 185.29837402 139.84429443 185.98535156 138.72900391 C189.32487168 133.12512 192.55243008 127.47844453 192.4375 120.8125 C190.76132075 114.77825472 187.60751883 110.97347457 182.5 107.4375 C174.7546585 104.8557195 169.43281704 106.96406165 162.5 110.4375 Z M19 330.75 C17.9996875 331.55050781 16.999375 332.35101563 15.96875 333.17578125 C13.28784649 335.264138 13.28784649 335.264138 12.5 338.4375 C21.37066569 357.46562549 38.13213541 371.05587514 57.5 378.4375 C68.31402389 381.95481645 79.1559597 382.49596474 90.4375 382.625 C91.52067505 382.64469849 91.52067505 382.64469849 92.62573242 382.66479492 C97.57799784 382.67231852 101.17243804 381.96245439 105.3125 379.25 C107.26356067 376.27206529 106.92391943 373.88941537 106.5 370.4375 C104.28136971 367.53032927 102.98055071 366.59768357 99.5 365.4375 C97.49168726 365.32174607 95.48013346 365.25905224 93.46875 365.2265625 C91.66277344 365.18402344 91.66277344 365.18402344 89.8203125 365.140625 C87.30482392 365.08918352 84.78918114 365.04473117 82.2734375 365.0078125 C65.95986823 364.59218016 50.79063266 359.59718195 38.82421875 348.10546875 C33.29856747 341.76257829 28.36331893 334.37127953 25.5 326.4375 C23.23840778 326.4375 20.6153453 329.44481765 19 330.75 Z M-54.5 380.375 C-55.15484375 380.74818359 -55.8096875 381.12136719 -56.484375 381.50585938 C-59.67996843 383.21200904 -59.67996843 383.21200904 -62.5 385.4375 C-62.6167054 388.5768935 -62.6680409 391.69456608 -62.67700195 394.83496094 C-62.68357315 395.8219397 -62.69014435 396.80891846 -62.69691467 397.82580566 C-62.71670315 401.10782945 -62.72832309 404.38980735 -62.73828125 407.671875 C-62.74235678 408.79003853 -62.7464323 409.90820206 -62.75063133 411.06024933 C-62.77151658 416.97929197 -62.78580718 422.89831125 -62.79516602 428.81738281 C-62.80623057 434.93882241 -62.84062432 441.0598985 -62.88033772 447.18120956 C-62.90645777 451.88064256 -62.91485381 456.57998841 -62.91844749 461.27948761 C-62.92332603 463.53616031 -62.93497582 465.79282879 -62.95348549 468.04943085 C-62.97777648 471.20740183 -62.9769299 474.36442556 -62.9699707 477.52246094 C-62.98278076 478.45668884 -62.99559082 479.39091675 -63.00878906 480.35345459 C-62.97523813 484.52651958 -62.83935299 486.85938649 -60.68937683 490.52203369 C-58.53403309 492.74959658 -58.53403309 492.74959658 -55 493 C-51.03454327 492.36269445 -49.89936603 491.5751325 -47.5 488.4375 C-46.31675559 486.07101117 -46.37673954 484.6601868 -46.37974548 482.02096558 C-46.37837082 481.0926593 -46.37699615 480.16435303 -46.37557983 479.20791626 C-46.37917511 478.18652557 -46.38277039 477.16513489 -46.38647461 476.11279297 C-46.38632858 475.03960815 -46.38618256 473.96642334 -46.3860321 472.86071777 C-46.38673083 469.30035405 -46.39452139 465.74004213 -46.40234375 462.1796875 C-46.40420807 459.71631906 -46.40563191 457.25295024 -46.40663147 454.7895813 C-46.41045554 448.29582705 -46.42028489 441.80209505 -46.43133545 435.30834961 C-46.44155194 428.68603822 -46.4461296 422.06372324 -46.45117188 415.44140625 C-46.46190724 402.44009466 -46.478791 389.43879851 -46.5 376.4375 C-49.11481487 376.4375 -52.20670163 379.05454769 -54.5 380.375 Z " fill="#000000" transform="translate(301.5,1.5625)"/>
<path d="M0 0 C2.60734183 1.92119924 3.75058886 3.1469844 4.66015625 6.2578125 C5.05678018 9.45815732 4.63670642 11.94997624 4.0625 15.125 C0.11812929 41.01591533 1.65627916 73.96883747 10 99 C10.84820312 98.31035156 11.69640625 97.62070312 12.5703125 96.91015625 C35.42553335 78.50934777 59.91278672 67.06340524 88.5 60.5625 C103.33404311 57.17330105 117.09460561 51.85262562 130.59619141 44.84472656 C135.24903659 42.50558016 138.66338244 41.39447357 144 42 C147.43250143 43.9401095 148.70166193 45.14227804 150 48.875 C150 52.83383927 149.12459278 54.65890651 147 58 C144.62584791 59.561005 142.55580847 60.72087386 140 61.875 C139.29866943 62.20669189 138.59733887 62.53838379 137.87475586 62.88012695 C135.59381027 63.94530324 133.29960018 64.97577616 131 66 C130.22930176 66.34885254 129.45860352 66.69770508 128.66455078 67.05712891 C115.68311859 72.89593902 102.62885229 77.34200887 88.73095703 80.40795898 C60.57735958 86.65162139 31.18481818 100.7254697 12.8203125 123.73046875 C11 126 11 126 8 128 C0.8794926 128.67814356 0.8794926 128.67814356 -2.1328125 126.35546875 C-17.65879182 106.7693484 -16.25061346 61.83241319 -16.3125 37.75 C-16.31617584 37.07016052 -16.31985168 36.39032104 -16.32363892 35.68988037 C-16.39559139 10.33875439 -16.39559139 10.33875439 -11 1 C-7.51811815 -1.86011723 -4.17847912 -1.04461978 0 0 Z " fill="#000000" transform="translate(55,299)"/>
<path d="M0 0 C1.95679688 -0.04350586 1.95679688 -0.04350586 3.953125 -0.08789062 C5.20351562 -0.09626953 6.45390625 -0.10464844 7.7421875 -0.11328125 C8.87253418 -0.12786377 10.00288086 -0.14244629 11.16748047 -0.1574707 C14.77787524 0.41624648 15.90809456 1.46634906 18.125 4.3125 C19.20919635 7.33276127 19.25843632 8.84547289 18.375 11.9375 C16.45165021 15.59186461 15.06523373 16.99908876 11.125 18.3125 C9.44122922 18.42705671 7.75375132 18.49066768 6.06640625 18.5234375 C-20.08663661 19.1955176 -49.4454222 20.64256234 -69.48046875 39.66796875 C-74.0615364 44.72732079 -77.47710693 50.43259546 -80.875 56.3125 C-81.30425781 57.0437207 -81.73351562 57.77494141 -82.17578125 58.52832031 C-88.45224844 69.28604037 -93.82858757 80.22139028 -98.43920898 91.79858398 C-102.02127012 100.52990567 -102.02127012 100.52990567 -106.875 103.3125 C-110.83678018 103.9727967 -112.32674139 103.67800574 -115.6875 101.4375 C-117.875 99.3125 -117.875 99.3125 -118.875 97.3125 C-118.5981311 89.63707869 -116.27521874 83.63313018 -113.125 76.6875 C-112.6405542 75.6051709 -112.1561084 74.5228418 -111.65698242 73.40771484 C-99.04769667 45.81600802 -84.55223202 19.66898745 -54.875 8.3125 C-36.94093385 2.2840609 -18.83815969 0.14213903 0 0 Z " fill="#000000" transform="translate(168.875,144.6875)"/>
</svg>
