<?xml version="1.0" encoding="UTF-8"?>
<svg version="1.1" xmlns="http://www.w3.org/2000/svg" width="512" height="512">
<path d="M0 0 C4.88355192 1.34869945 9.56641576 3.17006003 14.27734375 5.01953125 C15.66894332 5.55161753 17.06113044 6.08216934 18.45385742 6.61129761 C21.41388171 7.73932738 24.36976579 8.87737305 27.32272339 10.02377319 C31.99536247 11.83760889 36.67662289 13.62838748 41.35961914 15.4152832 C46.8860648 17.52537764 52.41077516 19.63987028 57.93295956 21.76109219 C70.23711596 26.48630499 82.58007351 31.10341516 94.9375 35.6875 C96.95514335 36.43748732 98.97272116 37.18765097 100.99023438 37.93798828 C105.11419069 39.47143678 109.23856597 41.00375042 113.36328125 42.53515625 C118.07218967 44.2836117 122.78045717 46.03378363 127.48828125 47.78515625 C134.80186794 50.50585468 142.1160869 53.22484754 149.43095016 55.94211197 C150.76435519 56.43744188 152.09774205 56.93282069 153.43111038 57.42824936 C167.32118398 62.58900368 181.21560861 67.73572992 195.15234375 72.76953125 C196.16536057 73.13576096 197.17837738 73.50199066 198.22209167 73.87931824 C202.8462476 75.54978542 207.47252559 77.21385646 212.10327148 78.8659668 C225.1498894 83.54461519 238.25337245 88.46583122 250.3125 95.375 C250.97000244 95.74874756 251.62750488 96.12249512 252.30493164 96.50756836 C258.39905688 100.06762077 263.72224312 104.3217963 269 109 C269.75410156 109.61101562 270.50820313 110.22203125 271.28515625 110.8515625 C291.96952276 127.99733368 304.67165023 154.62187169 308 181 C308.22520477 185.18756618 308.27012985 189.37090697 308.29516602 193.56420898 C308.31200938 195.50594037 308.35579739 197.44737955 308.40039062 199.38867188 C308.52143034 218.1125841 303.85879356 235.87019259 298.125 253.5625 C297.52191914 255.45893098 296.92008183 257.35575775 296.31933594 259.25292969 C294.97841524 263.47803446 293.62863111 267.70017576 292.27246094 271.92041016 C290.00157994 278.98816203 287.7480732 286.06137241 285.4969635 293.13543892 C282.46376015 302.66685037 279.4276893 312.19734067 276.38378906 321.7253418 C270.5144587 340.09822384 264.67437063 358.47988259 258.875 376.875 C254.21461652 391.65600449 249.5489471 406.43526134 244.859375 421.20703125 C244.53445005 422.23063688 244.53445005 422.23063688 244.20296097 423.27492142 C242.03933029 430.0905851 239.87433375 436.90581022 237.70491219 443.7196331 C233.83255193 455.88255445 229.96978719 468.0475003 226.2109375 480.24609375 C225.65301056 482.04798823 225.09491258 483.84982976 224.53662109 485.65161133 C223.54571439 488.8497475 222.56859319 492.05160833 221.60009766 495.2565918 C221.17147093 496.64259254 220.7423107 498.02842846 220.3125 499.4140625 C219.95800781 500.5788916 219.60351562 501.7437207 219.23828125 502.94384766 C217.67323971 506.80646399 215.81608191 510.09195904 212 512 C208.94079426 512.42071592 206.0532254 512.48514117 203 512 C200.24430553 509.81840855 198.56411253 508.12822506 197 505 C197.36612029 496.92749409 199.78155379 489.66578267 202.27734375 482.03125 C202.72031917 480.65451734 203.16249362 479.27752675 203.60392761 477.90029907 C204.54680718 474.96386763 205.49483906 472.02917227 206.44708252 469.09576416 C207.95951694 464.43623582 209.46011708 459.77295106 210.95849609 455.10888672 C212.49262728 450.33486222 214.02715694 445.56097181 215.56549072 440.78829956 C219.77572706 427.72383091 223.92608403 414.64116156 228.0473938 401.54833984 C229.86515823 395.77366502 231.68642059 390.00009403 233.5078125 384.2265625 C233.8711116 383.0748053 234.23441071 381.9230481 234.60871887 380.73638916 C238.63311842 367.98384405 242.68185326 355.23904136 246.73104858 342.49435425 C249.8652427 332.62927299 252.99650529 322.7632603 256.12797832 312.89731503 C257.17199093 309.60815676 258.21620026 306.31906116 259.26080322 303.03009033 C261.72823232 295.26113541 264.19287035 287.4913058 266.65356445 279.72021484 C267.40942292 277.33465101 268.16621465 274.94938261 268.92407227 272.56445312 C272.69455388 260.69704372 276.39677691 248.8154596 279.890625 236.86328125 C280.31992058 235.3955703 280.31992058 235.3955703 280.75788879 233.89820862 C288.86649577 205.89675893 289.37226091 176.09024619 275 150 C267.41266356 137.12131518 256.97894515 126.01635897 244.625 117.625 C244.08593018 117.25665039 243.54686035 116.88830078 242.99145508 116.50878906 C231.11827908 108.87372221 217.64449037 104.24996662 204.39138794 99.66705322 C199.38923569 97.93496823 194.39780429 96.17250719 189.40625 94.41015625 C188.37166153 94.04513 187.33707306 93.68010376 186.27113342 93.30401611 C175.65108005 89.54446515 165.1022191 85.6032361 154.5625 81.625 C150.53658746 80.10642821 146.51055967 78.58816265 142.484375 77.0703125 C141.43106995 76.67312515 140.37776489 76.27593781 139.2925415 75.86671448 C126.86934396 71.18802049 114.41953929 66.58126367 101.97162437 61.96886158 C92.2860428 58.37940497 82.60517241 54.77727086 72.92422485 51.17533875 C65.02021162 48.23506034 57.11406183 45.30071014 49.20410156 42.37646484 C41.93001896 39.68723344 34.65968419 36.98813293 27.39348507 34.27766991 C23.55289697 32.84544105 19.71068052 31.41802343 15.86392212 30.00244141 C12.27656025 28.68218906 8.69422643 27.34913144 5.11532211 26.00612831 C3.80429351 25.51674493 2.49150315 25.03205087 1.17685318 24.5524807 C-11.37081192 19.96960279 -11.37081192 19.96960279 -15 15 C-16.21043896 10.83911606 -16.28411902 8.75291539 -14.75 4.6875 C-10.95934041 -1.13387008 -6.32057598 -0.79445187 0 0 Z " fill="#000000" transform="translate(152,0)"/>
<path d="M0 0 C0.92490738 0.2963031 1.84981476 0.5926062 2.80274963 0.89788818 C5.89251835 1.88971566 8.97946546 2.89003364 12.06640625 3.890625 C14.27659725 4.60250999 16.48688619 5.31409094 18.69726562 6.02539062 C38.07363835 12.27188701 57.4125997 18.63330997 76.75076294 24.99688721 C96.44525774 31.47761229 116.16500548 37.87142828 135.92626953 44.14624023 C146.78317629 47.59897207 157.61712814 51.1147172 168.42838669 54.70765686 C170.45994811 55.38249738 172.49193582 56.05603758 174.52407837 56.72912598 C175.86712932 57.17406366 177.21017742 57.61900992 178.55322266 58.06396484 C179.21471628 58.28308659 179.87620991 58.50220833 180.55774879 58.72797012 C184.48121233 60.02878734 188.40129954 61.33923167 192.31920242 62.65669537 C195.31302619 63.66059075 198.31120007 64.65135519 201.30859375 65.64453125 C202.94229919 66.19940468 202.94229919 66.19940468 204.60900879 66.76548767 C205.61057007 67.09496902 206.61213135 67.42445038 207.64404297 67.76391602 C208.51471405 68.05541031 209.38538513 68.3469046 210.28244019 68.64723206 C212.83772622 69.18453371 214.19991176 69.03674557 216.62890625 68.140625 C217.99089779 67.22347747 219.32246264 66.26030366 220.62890625 65.265625 C228.48959068 59.92653492 237.22195684 58.31299062 246.60546875 59.43359375 C256.71243438 61.79710897 265.35614143 67.26904532 270.87890625 76.015625 C276.0642944 85.27330751 277.07413527 94.69139083 275.046875 105.140625 C272.1560236 114.43359024 265.98403069 121.40073238 257.56640625 126.140625 C255.29397301 127.42756223 255.29397301 127.42756223 253.62890625 129.140625 C253.1010537 131.72123745 253.25235925 133.87373477 253.4921875 136.4921875 C253.87773921 143.96087498 250.22844644 151.42847783 245.62890625 157.140625 C238.3890246 164.96829903 231.15218909 169.12443158 220.47167969 169.65917969 C209.76138405 169.87140483 200.8089331 167.37475298 192.62890625 160.140625 C183.99182298 149.93476538 182.07968615 141.30156588 182.62890625 128.140625 C181.41396484 127.89634766 180.19902344 127.65207031 178.94726562 127.40039062 C172.67934086 126.00311363 166.63203785 123.98479136 160.53515625 121.984375 C159.24853948 121.56579296 157.96178231 121.14764228 156.67489624 120.72988892 C153.92820597 119.83756717 151.18228124 118.942944 148.43695068 118.04644775 C141.05903998 115.6376414 133.67586747 113.24502725 126.29296875 110.8515625 C125.16781546 110.48659479 125.16781546 110.48659479 124.01993179 110.114254 C109.53943222 105.41826027 95.02784776 100.82556445 80.50390625 96.265625 C58.13249087 89.23613101 35.81062297 82.05976487 13.50390625 74.828125 C12.72987206 74.57727394 11.95583786 74.32642288 11.15834808 74.06797028 C5.9787533 72.38933049 0.79973867 70.70891137 -4.37890625 69.02734375 C-5.03620728 68.81406496 -5.6935083 68.60078617 -6.37072754 68.38104439 C-9.47645438 67.37301513 -12.5804829 66.36057067 -15.68121338 65.33724976 C-18.28095146 64.49415712 -20.87840391 63.68344473 -23.49603271 62.90127563 C-24.17569532 62.69149739 -24.85535793 62.48171915 -25.55561638 62.26558399 C-27.4425843 61.68334976 -29.33430737 61.11659117 -31.22628784 60.55085754 C-34.79884748 58.94880641 -36.26310813 57.40069675 -38.37109375 54.140625 C-39.38289459 49.79583318 -38.84669696 46.13318822 -36.93359375 42.140625 C-33.24285214 39.26004619 -29.99672246 39.04234965 -25.37109375 39.140625 C-21.3237674 39.94063416 -17.48955537 41.23261229 -13.58984375 42.56640625 C-12.44840912 42.940466 -11.30697449 43.31452576 -10.13095093 43.69992065 C-7.02159604 44.72173941 -3.91778704 45.75868501 -0.81557465 46.8019371 C2.47376361 47.90350476 5.76990877 48.98426313 9.06591797 50.06567383 C10.41685364 50.50915829 11.76777519 50.95268576 13.11868286 51.39625549 C14.12968237 51.7282001 14.12968237 51.7282001 15.16110611 52.06685066 C17.22738477 52.7463114 19.29285819 53.42816919 21.35812378 54.11070251 C33.93720542 58.26507737 46.56490829 62.2563268 59.20654297 66.21640015 C78.87279367 72.3796989 98.49444716 78.6659776 118.0708313 85.1088562 C130.37765335 89.15814324 142.70671493 93.12782784 155.0703125 97 C156.38614709 97.41261228 157.70197353 97.82525055 159.01779175 98.23791504 C165.39294885 100.23621238 171.77073845 102.2254877 178.15234375 104.203125 C180.46881756 104.92686712 182.78522706 105.65081514 185.1015625 106.375 C186.15138809 106.69724548 187.20121368 107.01949097 188.28285217 107.35150146 C203.4094906 112.10084578 203.4094906 112.10084578 205.8250885 116.14154053 C207.15200493 119.44156474 207.00809863 122.64038769 206.62890625 126.140625 C205.96223958 127.47395833 205.29557292 128.80729167 204.62890625 130.140625 C204.16277824 134.95728105 204.10700428 137.15273913 206.37890625 141.453125 C208.97370164 144.55246394 210.92446992 146.82842627 214.99609375 147.57421875 C220.68560828 147.58308092 224.27090346 147.17974954 228.62890625 143.140625 C231.82987723 138.70056848 231.82251299 135.39526901 231.1484375 130.19140625 C230.67691775 127.85147778 230.67691775 127.85147778 228.62890625 125.140625 C228.2578125 122.8359375 228.2578125 122.8359375 228.19140625 120.265625 C228.15144531 119.42257813 228.11148437 118.57953125 228.0703125 117.7109375 C228.89466209 113.91777645 230.6014061 112.50166874 233.62890625 110.140625 C237.00390625 109.20703125 237.00390625 109.20703125 240.62890625 108.703125 C246.51932666 107.74311439 246.51932666 107.74311439 250.94140625 104.078125 C253.51213232 99.6031574 254.17584854 96.30177135 253.62890625 91.140625 C251.84879181 87.01825473 249.40646998 84.54452919 245.62890625 82.140625 C241.38624071 80.85982031 238.56096028 80.87204383 234.56640625 82.640625 C230.85938638 84.6881069 228.47090337 87.28328215 225.953125 90.65234375 C224.62890625 92.140625 224.62890625 92.140625 221.62890625 93.140625 C216.70737831 93.40811748 212.86195442 92.84204994 208.2019043 91.28320312 C206.96033569 90.87371933 205.71876709 90.46423553 204.4395752 90.04234314 C203.08987654 89.58566399 201.74022795 89.12883689 200.390625 88.671875 C198.96976507 88.19947091 197.54857367 87.72806279 196.1270752 87.25758362 C193.09970798 86.25361392 190.07450123 85.24347562 187.0508728 84.228302 C182.2637465 82.62130798 177.47194405 81.02861987 172.67895508 79.43920898 C171.87995883 79.1742245 171.08096258 78.90924002 170.25775433 78.6362257 C168.64532967 78.10149907 167.0328899 77.566818 165.42043495 77.03218269 C163.00142093 76.22964422 160.58284257 75.42580448 158.16435242 74.62168884 C145.41240442 70.38423821 132.62576867 66.263716 119.81640625 62.203125 C95.8204599 54.58069199 71.90698883 46.71004872 47.99951172 38.81542969 C44.91904176 37.79853566 41.83846725 36.78195904 38.7578125 35.765625 C38.00890999 35.51851021 37.26000748 35.27139542 36.48841095 35.0167923 C27.10255062 31.92140957 17.70462189 28.87034901 8.28125 25.890625 C6.3849235 25.28801992 4.48860164 24.68540026 2.59228516 24.08276367 C-0.71206006 23.03360285 -4.02115584 22.0021085 -7.33447266 20.98168945 C-8.75703811 20.53139991 -10.17941638 20.08051842 -11.6015625 19.62890625 C-12.78129639 19.26321533 -13.96103027 18.89752441 -15.17651367 18.52075195 C-19.50550264 16.65053609 -23.47407186 14.27105198 -25.37109375 9.765625 C-25.37109375 6.19702226 -24.66366245 3.46437309 -23.37109375 0.140625 C-16.49228983 -6.51628202 -7.96061392 -2.59164227 0 0 Z " fill="#000000" transform="translate(38.37109375,50.859375)"/>
<path d="M0 0 C2.28125 1.98828125 2.28125 1.98828125 4.28125 4.98828125 C5.51875 4.65828125 6.75625 4.32828125 8.03125 3.98828125 C18.01615652 1.80947119 28.43143674 1.99773668 37.43359375 7.2421875 C45.46376664 12.89875843 52.15359036 20.20608279 54.28125 29.98828125 C55.52812665 40.86093651 54.88124903 50.48215154 48.43359375 59.6015625 C42.09882165 67.36194574 34.12633255 72.6728234 24.03125 73.86328125 C22.79375 73.90453125 21.55625 73.94578125 20.28125 73.98828125 C20.13776375 74.90114143 20.13776375 74.90114143 19.99137878 75.83244324 C18.55462876 84.3582831 16.34744551 92.64311128 14.08203125 100.9765625 C13.65402298 102.56446441 13.22643807 104.15248048 12.79924011 105.74060059 C11.8822197 109.14641574 10.96248025 112.55147991 10.04052734 115.95596313 C8.57488745 121.36819004 7.11497226 126.78195 5.65625 132.19604492 C5.15335638 134.06239468 4.65045716 135.92874294 4.14755249 137.79508972 C3.89549419 138.73054312 3.6434359 139.66599651 3.38373947 140.62979698 C2.6067532 143.51250102 1.82915306 146.3950389 1.05142212 149.27754211 C-2.68065501 163.11305929 -6.38794075 176.9550768 -10.08203125 190.80078125 C-10.60380555 192.75579597 -11.12558996 194.71080798 -11.64738464 196.66581726 C-13.66297624 204.21850829 -15.67824582 211.77128428 -17.69052124 219.32485962 C-20.12866694 228.47525967 -22.57369704 237.62365902 -25.04458141 246.76528072 C-26.22606806 251.14088906 -27.38327248 255.52213545 -28.52734375 259.90771484 C-29.03821111 261.81370497 -29.54984168 263.71949081 -30.0625 265.625 C-30.26669556 266.43524124 -30.47089111 267.24548248 -30.68127441 268.08027649 C-32.0221434 272.95754222 -33.79188654 275.79073667 -37.71875 278.98828125 C-40.80419091 279.83889081 -43.59099998 279.61723098 -46.71875 278.98828125 C-49.58904869 277.19434457 -51.21006638 276.00564849 -52.71875 272.98828125 C-53.43360206 264.43741934 -51.0803488 256.73742131 -48.8203125 248.58203125 C-48.39716714 247.02204583 -47.97507348 245.46177482 -47.55393982 243.90124512 C-46.6426505 240.53277825 -45.72437211 237.16632544 -44.80056763 233.80126953 C-43.3226519 228.41738538 -41.86009393 223.02940531 -40.40014648 217.640625 C-38.84078035 211.88760259 -37.28035066 206.13487903 -35.71476746 200.38354492 C-31.68097122 185.56288611 -27.68744862 170.73170341 -23.71484375 155.89453125 C-23.42475433 154.81113968 -23.13466492 153.72774811 -22.83578491 152.61152649 C-21.38546094 147.19435368 -19.93570535 141.77702899 -18.48626709 136.35961914 C-16.81400142 130.10981897 -15.13994208 123.86050048 -13.46533203 117.61132812 C-13.20002056 116.62082207 -12.93470909 115.63031601 -12.66135788 114.60979462 C-11.37940698 109.82477461 -10.09534833 105.04034139 -8.80639648 100.25720215 C-6.68832374 92.39080029 -4.58644468 84.52306835 -2.58935547 76.625 C-2.27663193 75.40635254 -1.96390839 74.18770508 -1.64170837 72.93212891 C-1.0916376 70.78028179 -0.55376777 68.62525152 -0.03224182 66.46630859 C1.43806048 60.76019713 3.06035992 57.15455253 7.28125 52.98828125 C10.09436499 51.58172376 12.39871864 52.00600278 15.53125 52.11328125 C22.35986735 52.14920314 22.35986735 52.14920314 28.28125 48.98828125 C31.36972593 45.57470259 32.54556338 42.95122288 32.71875 38.42578125 C32.51540378 34.51628622 31.88869356 32.03029873 29.28125 28.98828125 C25.34931071 25.60498465 22.32411962 24.33149217 17.234375 24.59375 C13.181954 25.41233904 10.35762507 28.08008978 7.28125 30.67578125 C4.52410119 32.48516016 2.58013245 32.85891331 -0.71875 32.98828125 C-4.34375 32.11328125 -4.34375 32.11328125 -7.71875 29.98828125 C-8.98028919 27.81042137 -9.86258887 25.6265597 -10.76171875 23.27734375 C-12.53423399 19.03777669 -15.09191193 15.99955897 -19.03125 13.55078125 C-23.46646481 12.62248048 -27.56459652 12.71946118 -31.49609375 15.03515625 C-34.34598549 17.2927722 -36.68581966 19.4763181 -37.71875 22.98828125 C-38.20240156 28.21171806 -37.64221277 31.6030871 -34.71875 35.98828125 C-31.75386764 38.29430086 -28.85072089 39.92483371 -25.46875 41.55078125 C-22.71875 42.98828125 -22.71875 42.98828125 -20.71875 45.98828125 C-19.20358578 54.72117969 -22.36886072 63.51090245 -24.65234375 71.8515625 C-25.07811994 73.44293529 -25.50279126 75.03460403 -25.92645264 76.62654114 C-27.08038782 80.95001524 -28.24966256 85.26920701 -29.42168808 89.5878067 C-30.66232526 94.16988071 -31.88859226 98.75579834 -33.11645508 103.34130859 C-35.21100386 111.15595229 -37.31435331 118.9681814 -39.42382812 126.77880859 C-42.47045522 138.059879 -45.50177804 149.3450194 -48.5290966 160.63128471 C-52.00668567 173.59573645 -55.48650436 186.55958509 -58.97631836 199.52075195 C-59.22435557 200.44226768 -59.47239279 201.3637834 -59.72794628 202.31322384 C-60.94914612 206.84921887 -62.17224091 211.38468815 -63.39903259 215.91917419 C-65.63244708 224.18219011 -67.847259 232.44891683 -69.99893093 240.73365211 C-70.99083391 244.5503163 -71.99145226 248.36467347 -72.99248695 252.17895126 C-73.46382321 253.98569475 -73.93067002 255.7936162 -74.39272118 257.6027565 C-75.02970555 260.09614072 -75.68180319 262.58512226 -76.3371582 265.07373047 C-76.61079288 266.17108835 -76.61079288 266.17108835 -76.88995552 267.29061508 C-78.06601477 271.68209124 -79.57260922 274.69616482 -82.71875 277.98828125 C-86.19138273 279.72459761 -89.93068013 279.59018527 -93.71875 278.98828125 C-96.47444447 276.8066898 -98.15463747 275.11650631 -99.71875 271.98828125 C-99.88237902 262.851249 -96.74525511 253.81048701 -94.36328125 245.08203125 C-93.9085174 243.3926424 -93.45446523 241.70306183 -93.00106812 240.01330566 C-92.02859815 236.3949862 -91.05122877 232.77804047 -90.06991577 229.16210938 C-88.51265629 223.42393282 -86.96614624 217.68289289 -85.42114258 211.94140625 C-83.27092469 203.95460195 -81.11603442 195.96907271 -78.95800781 187.984375 C-74.62085901 171.93429067 -70.31312214 155.87632347 -66.00676632 139.81795502 C-64.64167129 134.72795725 -63.27494902 129.63840092 -61.90648174 124.54930878 C-55.76669768 101.71576112 -49.71408338 78.86017872 -43.71875 55.98828125 C-44.65364258 55.54367554 -44.65364258 55.54367554 -45.60742188 55.09008789 C-52.42776033 51.53086178 -56.27511099 43.97761432 -58.71875 36.98828125 C-61.28107104 28.61803251 -60.37243152 18.87189607 -56.71875 10.98828125 C-51.11436034 1.37135909 -44.70467088 -4.77082112 -33.96875 -7.94921875 C-21.09854717 -10.66045437 -10.50045554 -7.76973362 0 0 Z " fill="#000000" transform="translate(339.71875,233.01171875)"/>
<path d="M0 0 C1.49840609 0.51941847 2.99440782 1.04581069 4.48828125 1.578125 C38.64733173 12.90445926 75.90494491 12.36011792 111.52532959 13.40631104 C200.52626668 16.03413471 200.52626668 16.03413471 218.14453125 28.484375 C220.54340437 31.87900678 221.17610203 34.76476205 220.80078125 38.828125 C219.50334336 43.10944257 217.69019372 47.12463461 215.86328125 51.203125 C202.75732313 81.90953127 195.37657218 113.41764181 195.36328125 146.828125 C195.36021973 147.6758548 195.3571582 148.52358459 195.35400391 149.39700317 C195.33883676 165.94568903 196.72938003 182.3023668 198.30078125 198.765625 C205.30618412 272.31661453 205.30618412 272.31661453 193.80078125 296.828125 C190.77557711 299.82820286 188.60351666 301.39820024 184.30078125 301.390625 C180.59901664 301.23638481 179.87144009 300.88406325 176.80078125 298.453125 C173.53104251 294.16159291 173.77453296 292.20753383 174.34765625 287.01171875 C175.07188201 281.92340843 176.07535026 276.89390711 177.08203125 271.85546875 C181.49641306 248.22145867 178.57328199 223.7743583 176.30078125 200.078125 C173.27858495 168.29036115 170.70312443 135.43097114 176.80078125 103.828125 C176.97770508 102.90918457 177.15462891 101.99024414 177.33691406 101.04345703 C181.32327607 81.04624037 187.52852929 61.84786088 194.80078125 42.828125 C191.28284733 42.18612192 187.76100767 41.56823884 184.23828125 40.953125 C183.28630859 40.77910156 182.33433594 40.60507813 181.35351562 40.42578125 C155.61473741 35.98522526 129.24558815 36.04522534 103.20654297 35.22631836 C85.26660431 34.65786863 67.37427671 33.99107703 49.49609375 32.34375 C48.82540485 32.28237413 48.15471596 32.22099827 47.46370316 32.15776253 C31.76839344 30.69637732 16.60864964 28.05847637 1.42578125 23.828125 C0.15009277 23.4727063 0.15009277 23.4727063 -1.15136719 23.11010742 C-14.65991185 19.13708535 -14.65991185 19.13708535 -18.19921875 13.828125 C-18.938869 9.23541297 -18.80883069 5.80350411 -16.32421875 1.828125 C-11.62600735 -2.59372103 -5.80452957 -1.84818161 0 0 Z " fill="#000000" transform="translate(18.19921875,211.171875)"/>
<path d="M0 0 C10.96390319 7.87914399 17.90606568 20.72277902 20.39453125 33.9140625 C22.43502609 53.08912364 22.43502609 53.08912364 18.00390625 60.0234375 C11.5374827 67.69158579 4.52754195 70.50279085 -5.3203125 71.59375 C-38.840834 73.05553256 -38.840834 73.05553256 -50.3203125 64.59375 C-55.62432537 58.64158892 -57.69159556 52.93001706 -57.52734375 44.94140625 C-56.07781365 28.50428195 -47.1684356 13.97482087 -35.5078125 2.71875 C-25.06248915 -5.94472407 -11.52232259 -6.98322581 0 0 Z M-23.3828125 20.42578125 C-29.17870224 26.91110142 -34.06292882 35.16618424 -36.3203125 43.59375 C-36.13471302 46.46892898 -36.13471302 46.46892898 -35.3203125 48.59375 C-28.99274996 50.4608996 -23.27443474 50.89982206 -16.6953125 50.84375 C-15.78007812 50.85148437 -14.86484375 50.85921875 -13.921875 50.8671875 C-8.9889793 50.85293058 -4.9443442 50.52939118 -0.3203125 48.59375 C0.38939456 37.94814413 -2.835099 29.12344177 -8.7578125 20.3359375 C-10.5160438 18.3755096 -11.85437705 17.49979447 -14.3203125 16.59375 C-18.77724995 16.59375 -20.15395149 17.49614658 -23.3828125 20.42578125 Z " fill="#000000" transform="translate(381.3203125,144.40625)"/>
<path d="M0 0 C3.15747313 1.84643538 5.4885718 4.36259401 8 7 C8.5455957 7.5686377 9.09119141 8.13727539 9.65332031 8.72314453 C26.87230628 26.72145793 26.87230628 26.72145793 27 34 C25.75344487 37.60115926 24.64648516 39.47582284 21.6875 41.875 C18.43064391 43.23833511 16.50329831 43.50047119 13 43 C7.72312853 40.42019617 4.33636418 36.24933388 0.515625 31.86328125 C-1.27851164 29.82119716 -3.08628848 27.82823795 -4.953125 25.85546875 C-5.44917236 25.32824219 -5.94521973 24.80101562 -6.45629883 24.2578125 C-7.42246625 23.23351897 -8.39345636 22.21374681 -9.36987305 21.19921875 C-13.17395443 17.13342983 -15 14.10013629 -15 8.5 C-13.96969858 4.89394502 -12.87679032 3.08958307 -9.80078125 0.89453125 C-6.43082744 -0.77948051 -3.53714566 -1.00579142 0 0 Z " fill="#000000" transform="translate(448,439)"/>
<path d="M0 0 C4.06489982 1.70591468 7.96815566 3.667309 11.86450195 5.72729492 C13.68476707 6.68606052 15.51770271 7.61634351 17.35351562 8.54492188 C28.54694966 14.37986289 28.54694966 14.37986289 32 20 C32.55263322 23.93751167 32.36220775 26.18503256 30.75 29.8125 C28.8417835 32.19777062 27.90651969 33.11189676 25 34 C19.2811849 34.47187267 15.43817336 33.18144478 10.5 30.5 C9.81655518 30.1405127 9.13311035 29.78102539 8.42895508 29.41064453 C7.00141817 28.65830949 5.57670978 27.90058456 4.15478516 27.13769531 C2.03151884 26.01664149 -0.11192318 24.95163268 -2.26953125 23.8984375 C-3.61744802 23.22447912 -4.96511412 22.55001911 -6.3125 21.875 C-6.94027344 21.57529297 -7.56804687 21.27558594 -8.21484375 20.96679688 C-12.55400106 18.73509372 -14.34199128 16.56700596 -16 12 C-16 7.4642798 -15.51406801 5.60633663 -12.5625 2.125 C-8.25299317 -1.44873737 -5.30182871 -1.39023042 0 0 Z " fill="#000000" transform="translate(129,304)"/>
<path d="M0 0 C2.97672584 1.77280561 5.42804007 3.85608015 7 7 C7.38579015 12.11171947 7.15288401 14.94028649 4 19 C1.11455064 21.20503277 -1.95299956 23.0667388 -5.0625 24.9375 C-6.35087769 25.72592285 -6.35087769 25.72592285 -7.6652832 26.53027344 C-9.35607517 27.56381107 -11.04928237 28.59341003 -12.74511719 29.61865234 C-14.58537314 30.7459984 -16.3952651 31.92278535 -18.1953125 33.11328125 C-23.39138757 36.52575062 -26.75128682 38.05910393 -33 37 C-35.8100346 35.20636089 -37.50940468 33.98119065 -39 31 C-39.2734375 29.01171875 -39.2734375 29.01171875 -39.375 26.6875 C-39.42398438 25.92824219 -39.47296875 25.16898437 -39.5234375 24.38671875 C-38.55557136 19.97353806 -34.7143505 17.50987191 -31.16918945 14.97949219 C-30.16073975 14.34172852 -29.15229004 13.70396484 -28.11328125 13.046875 C-27.01048828 12.345625 -25.90769531 11.644375 -24.77148438 10.921875 C-23.61852554 10.1978594 -22.46553035 9.47390169 -21.3125 8.75 C-20.14742323 8.010989 -18.98270627 7.27141043 -17.81835938 6.53125 C-6.48384396 -0.6483844 -6.48384396 -0.6483844 0 0 Z " fill="#000000" transform="translate(158,407)"/>
<path d="M0 0 C4.50213479 1.11905694 8.8889442 2.50267103 13.27661133 3.99780273 C15.31896872 4.68969141 17.37007308 5.34868713 19.42382812 6.00585938 C20.73762495 6.44337806 22.05080083 6.88276678 23.36328125 7.32421875 C24.54188721 7.71697998 25.72049316 8.10974121 26.93481445 8.5144043 C30.39171547 10.18985174 31.91340485 11.80857018 34 15 C35.01180084 19.34479182 34.47560321 23.00743678 32.5625 27 C28.87678555 29.87665518 25.54406462 30.20274049 21 30 C16.34435594 28.99763903 11.86650379 27.63647638 7.35107422 26.13256836 C5.24851743 25.43700954 3.13600455 24.78266648 1.01953125 24.13085938 C-0.33672035 23.692519 -1.69221948 23.25184211 -3.046875 22.80859375 C-4.26213867 22.41470459 -5.47740234 22.02081543 -6.72949219 21.61499023 C-10.84055179 19.58493206 -12.41256182 17.76034186 -15 14 C-15.55724601 10.0296222 -15.38142821 7.81734617 -13.6875 4.1875 C-9.90195678 -0.71968566 -5.74356667 -0.72518294 0 0 Z " fill="#000000" transform="translate(478,401)"/>
<path d="M0 0 C2.73201072 3.00521179 3.83392966 5.00357794 4.5 9 C3.84854713 12.90871721 2.48962612 14.92265886 0 18 C-3.0390625 19.3203125 -3.0390625 19.3203125 -6.625 20.125 C-7.26945068 20.27549805 -7.91390137 20.42599609 -8.57788086 20.58105469 C-9.97154536 20.90288651 -11.36778907 21.21370683 -12.76611328 21.51464844 C-15.11100281 22.02411733 -17.44351887 22.57495992 -19.77734375 23.1328125 C-21.37204077 23.50672588 -22.96708789 23.87914962 -24.5625 24.25 C-25.31160645 24.42547363 -26.06071289 24.60094727 -26.83251953 24.78173828 C-37.10717165 27.07141227 -37.10717165 27.07141227 -42.3125 24.125 C-45.00443751 21.99649127 -45.8407112 21.32914752 -46.23828125 18.01171875 C-46.26277344 17.24472656 -46.28726562 16.47773438 -46.3125 15.6875 C-46.34988281 14.92824219 -46.38726562 14.16898437 -46.42578125 13.38671875 C-45.81060823 9.93836356 -44.51356541 8.42047039 -42 6 C-38.7421875 4.77734375 -38.7421875 4.77734375 -34.875 3.9375 C-33.83569336 3.70716064 -33.83569336 3.70716064 -32.77539062 3.47216797 C-31.2928731 3.14451969 -29.80874537 2.82408809 -28.32324219 2.51025391 C-25.94288568 1.98745598 -23.58707443 1.39873404 -21.2265625 0.79296875 C-19.65118486 0.40306681 -18.07566713 0.01373042 -16.5 -0.375 C-15.77151855 -0.56715088 -15.04303711 -0.75930176 -14.29248047 -0.95727539 C-8.89873742 -2.2289659 -5.25134603 -1.84476164 0 0 Z " fill="#000000" transform="translate(507,348)"/>
<path d="M0 0 C2.5644546 -0.09432367 5.1277397 -0.15694461 7.69335938 -0.20947266 C8.88360718 -0.25418701 8.88360718 -0.25418701 10.09790039 -0.29980469 C14.06908499 -0.3399306 15.91997282 -0.18993462 19.36132812 1.99755859 C22.70226234 5.48066022 22.77033512 8.16816863 22.74023438 12.84130859 C22.17029071 16.42823664 20.17859889 17.97141628 17.38085938 20.10302734 C11.90819755 22.83935826 3.4577927 21.8606782 -2.61914062 22.10302734 C-3.48104004 22.14379395 -4.34293945 22.18456055 -5.23095703 22.2265625 C-7.77697761 22.33913349 -10.32148959 22.41372937 -12.86914062 22.47802734 C-13.65409912 22.51613525 -14.43905762 22.55424316 -15.24780273 22.59350586 C-19.28079033 22.65227038 -21.85728727 22.34686317 -25.09570312 19.82568359 C-28.04322858 16.64545877 -28.6296258 15.25443572 -28.85742188 11.09912109 C-28.44675876 7.65897597 -26.86223442 5.64924193 -24.61914062 3.10302734 C-20.93600569 0.5774491 -16.87646089 0.65378815 -12.55664062 0.47802734 C-11.77458252 0.44298096 -10.99252441 0.40793457 -10.18676758 0.37182617 C-6.79166426 0.23256928 -3.39532146 0.13355944 0 0 Z " fill="#000000" transform="translate(123.619140625,362.89697265625)"/>
</svg>
