<?xml version="1.0" encoding="UTF-8"?>
<svg version="1.1" xmlns="http://www.w3.org/2000/svg" width="512" height="512">
<path d="M0 0 C1.31282959 -0.00478363 2.62565918 -0.00956726 3.97827148 -0.01449585 C6.75241627 -0.02185236 9.52575402 -0.01120336 12.29980469 0.01220703 C15.84779598 0.04069678 19.39389627 0.02428586 22.94181824 -0.00565529 C26.33636196 -0.02811455 29.73040261 -0.01236908 33.125 0 C34.39593506 -0.01012115 35.66687012 -0.02024231 36.97631836 -0.03067017 C45.70898226 0.08550307 45.70898226 0.08550307 49.81445312 2.8684082 C51.60583267 5.73336451 52.42203629 7.740216 52.96875 11.05859375 C53.24404541 12.60353516 53.24404541 12.60353516 53.52490234 14.1796875 C53.70230957 15.26765625 53.8797168 16.355625 54.0625 17.4765625 C55.89653221 27.54711917 58.06187771 37.0373512 61.5625 46.6640625 C61.80162109 47.32744629 62.04074219 47.99083008 62.28710938 48.67431641 C68.80618445 66.45094593 78.37858198 82.21775351 90.5625 96.6640625 C95.58695261 95.17610848 100.59981505 93.66301943 105.5859375 92.05078125 C135.93676596 82.3389705 167.52518996 76.58214821 199.4375 76.4609375 C200.64148438 76.45523743 201.84546875 76.44953735 203.0859375 76.44366455 C205.62726989 76.43427074 208.16861414 76.42770311 210.70996094 76.42382812 C214.49697752 76.41422859 218.28342524 76.38319403 222.0703125 76.3515625 C260.42851147 76.18472048 300.29243854 81.27654654 335.98828125 96.01171875 C338.49216269 96.90710682 338.49216269 96.90710682 340.5546875 95.91430664 C342.71733852 94.56764615 343.79712516 93.38222174 345.26171875 91.3125 C345.74415039 90.63469482 346.22658203 89.95688965 346.72363281 89.25854492 C347.22733398 88.52611572 347.73103516 87.79368652 348.25 87.0390625 C348.77819336 86.27634033 349.30638672 85.51361816 349.85058594 84.7277832 C363.93270258 64.10084738 373.27825607 41.73852278 377.35546875 17.02734375 C377.47752686 16.29999023 377.59958496 15.57263672 377.7253418 14.82324219 C378.03958598 12.86905752 378.31809331 10.90921888 378.59375 8.94921875 C379.7513148 5.02376716 380.96444803 2.63028239 384.5625 0.6640625 C389.03570448 -0.10125753 393.47107877 -0.03606629 398 0 C399.31282959 -0.00478363 400.62565918 -0.00956726 401.97827148 -0.01449585 C404.75241627 -0.02185236 407.52575402 -0.01120336 410.29980469 0.01220703 C413.84779598 0.04069678 417.39389627 0.02428586 420.94181824 -0.00565529 C424.33636196 -0.02811455 427.73040261 -0.01236908 431.125 0 C432.39593506 -0.01012115 433.66687012 -0.02024231 434.97631836 -0.03067017 C444.76538999 0.09955677 444.76538999 0.09955677 447.84570312 3.01538086 C452.20950495 9.74787318 450.20912298 17.47908281 449.0625 24.9765625 C448.88090332 26.16427246 448.69930664 27.35198242 448.51220703 28.57568359 C442.79973915 63.85308726 429.36873442 97.56281262 408.5625 126.6640625 C408.16305176 127.22432129 407.76360352 127.78458008 407.35205078 128.36181641 C405.11763445 131.48414091 402.85487723 134.58408081 400.5625 137.6640625 C401.7690625 139.2109375 401.7690625 139.2109375 403 140.7890625 C410.95264485 151.48659186 417.37136049 161.95815614 421.5625 174.6640625 C421.97628906 175.87578125 422.39007813 177.0875 422.81640625 178.3359375 C428.74059824 197.80185125 427.55768228 221.34007624 421.5625 240.6640625 C421.32112305 241.44249512 421.07974609 242.22092773 420.83105469 243.02294922 C405.31786462 291.34799978 366.5154956 328.82845899 322.2734375 351.85546875 C306.91225315 359.63881132 291.13818603 365.61677957 274.5 370.0390625 C273.09089355 370.41550903 273.09089355 370.41550903 271.65332031 370.79956055 C265.6379772 372.33115616 259.75370424 373.22979794 253.5625 373.6640625 C253.35834038 381.45615448 253.47288649 388.99923906 254.5 396.7265625 C257.61276823 420.97206512 255.6960431 443.85464912 252.02685547 467.9284668 C250.59520549 477.60981601 249.80480957 487.27407443 249.33398438 497.04785156 C249.24407227 498.63484863 249.24407227 498.63484863 249.15234375 500.25390625 C249.10972412 501.18066162 249.06710449 502.10741699 249.02319336 503.06225586 C248.47106175 506.18046811 247.40960854 508.10499347 245.5625 510.6640625 C242.2524812 512.8707417 241.19952202 512.92324136 237.34423828 512.95458984 C235.74710495 512.9737294 235.74710495 512.9737294 234.1177063 512.99325562 C232.96769135 512.99548126 231.81767639 512.99770691 230.6328125 513 C229.45032928 513.0066568 228.26784607 513.0133136 227.04953003 513.02017212 C224.54621946 513.03030481 222.04288184 513.03498895 219.53955078 513.03466797 C215.70950771 513.03903739 211.88062006 513.07534254 208.05078125 513.11328125 C205.61979561 513.11914995 203.18880449 513.12311899 200.7578125 513.125 C199.03886276 513.14655655 199.03886276 513.14655655 197.28518677 513.16854858 C189.36004405 513.12301849 189.36004405 513.12301849 185.36279297 510.82275391 C182.65531095 507.57627221 182.41686635 504.77850929 182.203125 500.6953125 C181.44916974 488.04848076 180.2413693 475.63079077 178.34268188 463.11242676 C174.87134057 440.21004455 174.27548648 419.09982009 176.85424805 396.05712891 C177.41364374 390.84903068 177.67262455 385.77776255 177.625 380.5390625 C177.61597656 379.23710937 177.60695312 377.93515625 177.59765625 376.59375 C177.58605469 375.62695312 177.57445312 374.66015625 177.5625 373.6640625 C176.9638916 373.62087891 176.3652832 373.57769531 175.74853516 373.53320312 C143.70258004 370.82806538 109.22682763 355.6453834 83.5625 336.6640625 C82.61246094 335.9834375 81.66242188 335.3028125 80.68359375 334.6015625 C43.85420297 307.71178566 13.95775593 270.64604956 5.95947266 224.7409668 C5.19986936 218.8533405 5.17923632 212.96825507 5.1875 207.0390625 C5.18804382 206.3786496 5.18858765 205.71823669 5.18914795 205.03781128 C5.22961135 194.33232737 6.10605055 184.78575249 9.5625 174.6640625 C9.77148926 174.03048828 9.98047852 173.39691406 10.19580078 172.74414062 C14.64114812 159.5179836 22.18561675 148.68972758 30.5625 137.6640625 C30.2315332 137.22876221 29.90056641 136.79346191 29.55957031 136.3449707 C4.55153952 103.20889962 -11.59757439 66.24660353 -17.875 25.1640625 C-18.05119873 24.02453125 -18.22739746 22.885 -18.40893555 21.7109375 C-20.27819305 8.50270275 -20.27819305 8.50270275 -16.72045898 3.01611328 C-12.32143833 -1.14934878 -5.64342185 -0.04494167 0 0 Z M3.5625 20.6640625 C4.28951318 28.66120749 5.18474359 35.41472811 7.125 43.0390625 C7.38748535 44.07417969 7.6499707 45.10929687 7.92041016 46.17578125 C14.55070025 71.38858491 26.81564062 102.73484067 45.5625 121.6640625 C50.2515556 121.6640625 52.21567483 120.13067772 55.8125 117.4765625 C56.96645849 116.64965916 58.12140553 115.82413359 59.27734375 115 C59.83663574 114.5987793 60.39592773 114.19755859 60.97216797 113.78417969 C64.07876415 111.59611348 67.31684296 109.63691286 70.5625 107.6640625 C69.2719266 104.96140189 67.85260186 102.52146528 66.12890625 100.07421875 C48.80307988 75.06973544 39.57878155 50.09821925 32.5625 20.6640625 C22.9925 20.6640625 13.4225 20.6640625 3.5625 20.6640625 Z M398.5625 20.6640625 C397.5725 24.8715625 396.5825 29.0790625 395.5625 33.4140625 C389.69606122 57.29954159 380.23773664 79.54404468 365.32128906 99.23510742 C364.83112305 99.89099854 364.34095703 100.54688965 363.8359375 101.22265625 C363.39685059 101.79298584 362.95776367 102.36331543 362.50537109 102.95092773 C361.2410515 104.92220273 361.2410515 104.92220273 361.5625 108.6640625 C363.92482723 110.34414001 366.15525007 111.72874161 368.6875 113.1015625 C373.76267319 115.91946389 378.20205092 118.81301167 382.5625 122.6640625 C387.14044035 121.14875357 389.20427682 117.36034496 391.75 113.5390625 C392.23194824 112.82403564 392.71389648 112.10900879 393.21044922 111.37231445 C410.27354831 85.70453021 427.5625 52.1353137 427.5625 20.6640625 C417.9925 20.6640625 408.4225 20.6640625 398.5625 20.6640625 Z M50.30859375 147.83203125 C33.42773278 165.24116952 25.88836382 185.98514 26.09155273 209.96826172 C26.34668707 219.32499199 27.58870601 227.80032046 30.5625 236.6640625 C30.91658936 237.74494141 30.91658936 237.74494141 31.27783203 238.84765625 C45.65605615 281.63932779 82.04695028 314.82759867 121.5625 334.6640625 C132.98838403 340.07333596 144.73161077 344.63282511 156.8125 348.3515625 C157.64015869 348.6079248 158.46781738 348.86428711 159.32055664 349.12841797 C160.0861792 349.35029785 160.85180176 349.57217773 161.640625 349.80078125 C162.30481445 349.99373779 162.96900391 350.18669434 163.65332031 350.38549805 C165.87915736 350.71026532 167.43341455 350.33614025 169.5625 349.6640625 C160.70979505 336.85304839 148.87545835 330.71763919 135.37231445 323.82055664 C123.60622864 317.73574586 113.60776862 309.94547912 103.6328125 301.296875 C100.90449108 298.93527258 98.0884904 296.70498929 95.25 294.4765625 C72.42995186 275.78744278 51.13132382 249.73774256 46.5625 219.6640625 C45.57692845 206.86590014 45.09173212 193.51453462 50.5625 181.6640625 C50.96339844 180.74238281 51.36429688 179.82070312 51.77734375 178.87109375 C63.73278962 154.30178616 91.05583631 140.55794264 115.5625 131.6640625 C161.90609437 116.35690213 161.90609437 116.35690213 176.1875 120.7890625 C179.00487297 123.01330432 179.84377529 124.15029727 180.5625 127.6640625 C180.4902852 131.78030585 180.38297041 133.85622186 177.40551758 136.7878418 C174.20858793 138.89762319 171.90152365 139.49619952 168.13671875 140.12109375 C166.87690186 140.34265137 165.61708496 140.56420898 164.3190918 140.79248047 C163.65549652 140.90348083 162.99190125 141.0144812 162.30819702 141.12884521 C130.89110064 146.43653313 94.89269842 155.35576253 74.1875 181.7265625 C68.2816389 190.10853534 66.37330961 197.09416123 66.3125 207.2265625 C66.291875 208.08958984 66.27125 208.95261719 66.25 209.84179688 C66.24484375 210.67130859 66.2396875 211.50082031 66.234375 212.35546875 C66.2250293 213.11029541 66.21568359 213.86512207 66.20605469 214.64282227 C66.66006699 217.21732079 67.55694276 218.03987117 69.5625 219.6640625 C78.20041923 224.74940466 87.71426727 226.51116519 97.5625 224.6640625 C101.38531013 223.47820421 105.02737811 221.89555182 108.70068359 220.31567383 C121.24453642 215.06641725 136.74346388 213.57726374 149.65527344 218.45458984 C151.92194513 219.3857766 154.17992663 220.33605086 156.4375 221.2890625 C167.46588521 225.84502442 177.07138935 226.68578587 188.32543945 222.24462891 C189.85691735 221.60823391 191.38544005 220.96467955 192.91088867 220.31396484 C208.05839857 213.91867668 223.2159385 214.62372088 238.43359375 220.38671875 C240.19253469 221.10478827 241.94395566 221.84520066 243.66015625 222.66015625 C251.785304 226.39236697 261.8023816 226.19124743 270.109375 223.1640625 C272.41679653 222.24528024 274.70241375 221.28275381 276.98974609 220.31518555 C290.57522316 214.61337983 306.29210988 213.85567217 320.1484375 219.36328125 C321.66459964 219.99775331 323.17766165 220.63968542 324.6875 221.2890625 C335.47809607 225.88869741 345.15719329 226.75519131 356.375 222.3515625 C359.67368426 220.83644269 362.24121151 219.47244372 364.5625 216.6640625 C365.03641021 214.71173827 365.03641021 214.71173827 364.99609375 212.56640625 C365.00753418 211.76960449 365.01897461 210.97280273 365.03076172 210.15185547 C365.02061035 209.31025879 365.01045898 208.46866211 365 207.6015625 C364.99242676 206.74191895 364.98485352 205.88227539 364.97705078 204.99658203 C364.80886507 198.51345264 363.90522866 193.31140534 360.5625 187.6640625 C360.12679688 186.9009375 359.69109375 186.1378125 359.2421875 185.3515625 C344.77501589 161.95111006 314.09035867 151.04652997 288.640625 144.96484375 C278.820289 142.71191564 269.01399931 140.64445766 259.04394531 139.171875 C255.57969811 138.46293815 253.7484611 137.45304735 251.5625 134.6640625 C250.35523468 130.58954203 250.31898779 128.38107067 251.6875 124.3515625 C253.87119134 121.22160492 254.96880335 120.73892699 258.5625 119.6640625 C293.45296231 119.00104584 337.65591467 135.13189415 363.5625 158.6640625 C364.27792969 159.28667969 364.99335938 159.90929687 365.73046875 160.55078125 C375.51246378 169.57594881 383.78494995 183.63357656 384.73950195 197.17504883 C385.02413631 210.27843518 385.22511358 222.24985385 380.5625 234.6640625 C380.15 235.80359375 379.7375 236.943125 379.3125 238.1171875 C369.13015085 263.92018592 349.10664343 284.80599131 327.5625 301.6640625 C326.41039243 302.61432379 325.26080208 303.56764237 324.11328125 304.5234375 C312.43422619 314.18944929 300.16570811 321.87895541 286.6875 328.7890625 C275.93034838 334.33640526 267.66878124 339.94083691 261.5625 350.6640625 C304.98124172 345.48145407 349.12261432 315.61480317 375.92089844 281.95800781 C396.62388239 255.36846113 408.23584043 225.29884435 404.28564453 191.27978516 C402.01713212 177.67192845 394.63242284 163.93812927 385.5625 153.6640625 C384.90894531 152.86871094 384.25539063 152.07335937 383.58203125 151.25390625 C351.40528195 113.33340207 293.40401322 101.98522874 246.56958008 97.88500977 C181.13535777 93.07718552 100.00558086 99.69252343 50.30859375 147.83203125 Z M111.3984375 241.4453125 C104.20855706 244.53517847 97.28851243 245.03330485 89.5625 245.2890625 C88.59699219 245.32773438 87.63148438 245.36640625 86.63671875 245.40625 C84.2788256 245.49963191 81.92092244 245.58540579 79.5625 245.6640625 C81.00805068 250.05724446 83.38499584 253.21713516 86.375 256.6640625 C86.85710937 257.22512695 87.33921875 257.78619141 87.8359375 258.36425781 C96.6054858 268.4290527 106.08054552 277.3991747 116.5625 285.6640625 C117.69369614 286.60532775 118.82247535 287.54950287 119.94921875 288.49609375 C131.32384415 297.96906473 143.49911715 305.8655871 156.875 312.2265625 C174.67182443 320.85657713 186.96164822 335.01259794 193.9375 353.4765625 C199.4082869 369.93712396 199.11240168 386.06380129 197.22143555 403.17324829 C194.73285972 426.24916439 197.18219337 447.44121286 200.62875366 470.26896667 C201.74158501 477.71833943 202.65529212 485.18698176 203.5625 492.6640625 C211.4825 492.6640625 219.4025 492.6640625 227.5625 492.6640625 C227.90023437 490.15554688 228.23796875 487.64703125 228.5859375 485.0625 C228.92011492 482.58331545 229.25448246 480.1041566 229.58886719 477.625 C229.81790622 475.92613344 230.0467533 474.22724098 230.27539062 472.52832031 C230.6075445 470.06047529 230.94033023 467.59271651 231.2734375 465.125 C231.43737 463.90892815 231.43737 463.90892815 231.60461426 462.66828918 C232.26679101 457.77806197 232.96282231 452.89421405 233.6796875 448.01171875 C236.13830125 430.84884751 235.29121907 414.41145706 233.27734375 397.23144531 C230.49275755 373.37077007 234.91709418 350.5246036 249.5546875 331.0078125 C258.68243968 320.17487584 270.36574255 314.14707408 282.75292969 307.82055664 C294.51564971 301.73693884 304.510724 293.94932936 314.484375 285.3046875 C317.25926753 282.90300592 320.11937426 280.62574071 323 278.3515625 C333.77120835 269.54590312 344.07552801 259.46891781 351.5625 247.6640625 C351.5625 247.0040625 351.5625 246.3440625 351.5625 245.6640625 C350.97871582 245.64947998 350.39493164 245.63489746 349.79345703 245.61987305 C347.09088041 245.54437165 344.38940536 245.44805912 341.6875 245.3515625 C340.7696875 245.32900391 339.851875 245.30644531 338.90625 245.28320312 C330.11484907 244.94269112 322.62955163 242.79139414 314.6875 239.0390625 C303.05355698 234.0957568 293.15626569 235.40076026 281.78637695 239.90405273 C279.82408193 240.69664018 277.87107081 241.50930112 275.91796875 242.32421875 C263.13172778 247.42978412 247.370055 245.91888963 234.75390625 241.05078125 C232.49954155 240.07122254 230.25559242 239.06752475 228.01953125 238.046875 C215.15026776 232.8991696 203.88921457 237.32930348 191.91796875 242.32421875 C179.13172778 247.42978412 163.370055 245.91888963 150.75390625 241.05078125 C148.48972158 240.0669556 146.23397195 239.06361423 143.984375 238.046875 C132.67897919 233.47825615 121.88178207 236.15525555 111.3984375 241.4453125 Z " fill="#000000" transform="translate(40.4375,-0.6640625)"/>
<path d="M0 0 C3.125 1.875 3.125 1.875 5 5 C5.98876625 10.02622846 5.7769173 13.70513784 3.125 18.125 C-1.29486216 20.7769173 -4.97377154 20.98876625 -10 20 C-13.125 18.125 -13.125 18.125 -15 15 C-15.98876625 9.97377154 -15.7769173 6.29486216 -13.125 1.875 C-8.70513784 -0.7769173 -5.02622846 -0.98876625 0 0 Z " fill="#000000" transform="translate(261,116)"/>
</svg>
